M48
;Layer_Color=9474304
;FILE_FORMAT=4:4
METRIC,LZ
;TYPE=PLATED
T01F00S00C0.3000
;TYPE=NON_PLATED
T05F00S00C0.7500
%
T01
X0059Y-00255
X00565
X00535Y-0024625
Y-0021125
X005Y-00225
X005Y-002325
X005175Y-002825
X00525Y-002875
X0051125Y-003025
X0047625
X0045875
X0042375
X004225Y-002575
X004025
Y-002475
X003825Y-00255
X003775Y-0026
X003725Y-00255
X0038375Y-002125
X004
X0042
X0043
X00425Y-002075
X003325Y-0021
X00325Y-00215
X002775Y-0024625
Y-0026375
X0031625Y-003025
X0033375
X-005075Y-003
Y-003075
X-00515
Y-003
X-005225
Y-003075
X-0053
Y-003
X-00615Y-00255
X-005325Y-001775
Y-001575
Y-001375
X-00515Y-000725
X-005075Y-000675
X-00515Y-00045
X-005225
X-0053Y-000125
X-005225Y0
Y0001
Y0002
X-005325Y000325
X-005025Y0001
X-00515Y00085
Y001075
X-005
X-00515Y0013
Y001525
X-005075
X-005275Y00165
X0027Y001875
X002825
X0029Y001315
X00295Y001265
X0029Y001215
Y001115
X00295Y001165
Y001065
X0029Y001015
Y000915
X00295Y000965
Y000865
X0029Y000815
Y000715
X00295Y000765
Y000665
X0029Y000615
Y000515
X00295Y000565
Y000465
X0029Y000415
Y000315
X00295Y000365
Y000265
X0027
Y000165
Y000065
Y-000035
X0029Y-000185
Y-000285
Y-000385
X00285Y-000675
Y-000825
X00265Y-0011
X0026Y-0014
X002775Y-0014125
X002775Y-0015875
Y-0017625
Y-0019375
X0031Y-001925
X003275Y-00175
X0032Y-00165
X0031Y-001575
X00365Y-0015
X0039Y-001475
Y-0014
X0041Y-001325
X0044
Y-001475
X00445Y-001575
X004525Y-001725
X0044Y-001925
X0043Y-001875
X00415Y-001975
X0038
X00385Y-001825
X003625Y-001775
Y-001925
X004075Y-001675
X004025Y-001
X003925
X004475Y-001025
Y-00095
X004825Y-0007
X0049
X004925Y-000575
X00535Y-0010625
Y-0014125
Y-0017625
X005Y-0017625
Y-0019375
X004925Y001175
X00465Y0013
X004625Y0018
Y0022
X0047
X0045Y0024
X0044
X00435Y002325
X0043Y002275
X00425Y0024
X0042Y00235
X00395Y002425
X0035Y002325
X003525Y002575
Y0029
X002925
X00292375Y00257375
X0027Y00235
X00239617Y00239617
X00235Y00245
X00245
X0023Y0024
X002075Y002875
X0027Y002
X003225Y0024
X003575Y0021
X00365
X005Y001975
X005075Y002525
X000925Y002625
X000825
X000725
X001025Y0028
X0003Y0025
X000075Y0025
X-000025Y0025
X-0003
X-000725Y002625
X-000825
X-000925
X-001475Y0023
X-0017Y00245
X-001775
X-001975Y002425
X-002175Y002875
X-002375Y00275
X-0027875Y0025625
X-00365Y00265
X-003875
X-0041
X-0043Y00275
Y0028
Y00285
Y00295
X-00425Y0031
X-00475
X-004875Y00315
X-0047Y00285
Y0028
Y00275
X-004775Y002675
X-00505Y002475
X-0043Y002425
X-003425Y003
T05
X005075Y00235
Y00285
X0014Y0029375
Y0026625
X-0014
Y0029375
M30
