M48
;Layer_Color=9474304
;FILE_FORMAT=4:4
METRIC,LZ
;TYPE=PLATED
T03F00S00C1.0000
;TYPE=NON_PLATED
%
G90
G05
T03
G00X0062Y-002275
M15
G01X00606
M16
G00X00574Y-002275
M15
G01X0056
M16
G00X-0056Y-002275
M15
G01X-00574
M16
G00X-00606Y-002275
M15
G01X-0062
M16
G00X-00606Y-000875
M15
G01X-0062
M16
G00X-00606Y001125
M15
G01X-0062
M16
G00X-0056Y001125
M15
G01X-00574
M16
G00X-0056Y-000875
M15
G01X-00574
M16
G00X00574Y-000875
M15
G01X0056
M16
G00X00574Y001125
M15
G01X0056
M16
G00X0062Y001125
M15
G01X00606
M16
G00X0062Y-000875
M15
G01X00606
M16
G00X0062Y002525
M15
G01X00606
M16
G00X00574Y002525
M15
G01X0056
M16
G00X-0056Y002525
M15
G01X-00574
M16
G00X-00606Y002525
M15
G01X-0062
M16
M30
