G04*
G04 #@! TF.GenerationSoftware,Altium Limited,Altium Designer,26.2.0 (7)*
G04*
G04 Layer_Physical_Order=4*
G04 Layer_Color=16711680*
%FSLAX25Y25*%
%MOIN*%
G70*
G04*
G04 #@! TF.SameCoordinates,C1DC15CB-83B7-4C2E-A4F0-DD83A037BBA0*
G04*
G04*
G04 #@! TF.FilePolarity,Positive*
G04*
G01*
G75*
%ADD36C,0.00787*%
%ADD37C,0.01575*%
%ADD38C,0.01181*%
%ADD39C,0.00957*%
%ADD41O,0.04016X0.07087*%
%ADD42O,0.04016X0.08661*%
G04:AMPARAMS|DCode=44|XSize=133.86mil|YSize=78.74mil|CornerRadius=19.68mil|HoleSize=0mil|Usage=FLASHONLY|Rotation=180.000|XOffset=0mil|YOffset=0mil|HoleType=Round|Shape=RoundedRectangle|*
%AMROUNDEDRECTD44*
21,1,0.13386,0.03937,0,0,180.0*
21,1,0.09449,0.07874,0,0,180.0*
1,1,0.03937,-0.04724,0.01968*
1,1,0.03937,0.04724,0.01968*
1,1,0.03937,0.04724,-0.01968*
1,1,0.03937,-0.04724,-0.01968*
%
%ADD44ROUNDEDRECTD44*%
%ADD45C,0.01575*%
G04:AMPARAMS|DCode=47|XSize=98.43mil|YSize=78.74mil|CornerRadius=19.68mil|HoleSize=0mil|Usage=FLASHONLY|Rotation=90.000|XOffset=0mil|YOffset=0mil|HoleType=Round|Shape=RoundedRectangle|*
%AMROUNDEDRECTD47*
21,1,0.09843,0.03937,0,0,90.0*
21,1,0.05906,0.07874,0,0,90.0*
1,1,0.03937,0.01968,0.02953*
1,1,0.03937,0.01968,-0.02953*
1,1,0.03937,-0.01968,-0.02953*
1,1,0.03937,-0.01968,0.02953*
%
%ADD47ROUNDEDRECTD47*%
G04:AMPARAMS|DCode=48|XSize=86.61mil|YSize=118.11mil|CornerRadius=21.65mil|HoleSize=0mil|Usage=FLASHONLY|Rotation=270.000|XOffset=0mil|YOffset=0mil|HoleType=Round|Shape=RoundedRectangle|*
%AMROUNDEDRECTD48*
21,1,0.08661,0.07480,0,0,270.0*
21,1,0.04331,0.11811,0,0,270.0*
1,1,0.04331,-0.03740,-0.02165*
1,1,0.04331,-0.03740,0.02165*
1,1,0.04331,0.03740,0.02165*
1,1,0.04331,0.03740,-0.02165*
%
%ADD48ROUNDEDRECTD48*%
G36*
X106330Y554389D02*
X106299Y554274D01*
Y553600D01*
X106474Y552949D01*
X106811Y552366D01*
X107287Y551889D01*
X107871Y551552D01*
X108521Y551378D01*
X109195D01*
X109846Y551552D01*
X110430Y551889D01*
X110827Y552286D01*
X111157Y552193D01*
X111221Y552148D01*
Y551632D01*
X111395Y550981D01*
X111732Y550397D01*
X112208Y549921D01*
X112792Y549584D01*
X113443Y549409D01*
X114117D01*
X114767Y549584D01*
X115351Y549921D01*
X115827Y550397D01*
X116039Y550764D01*
X130013D01*
X131629Y549149D01*
X131629Y549149D01*
X131863Y548992D01*
X131708Y548622D01*
X131159D01*
X130508Y548448D01*
X129925Y548111D01*
X129448Y547634D01*
X129112Y547051D01*
X128937Y546400D01*
Y545726D01*
X128998Y545498D01*
X128668Y545208D01*
X128189Y545407D01*
X127362Y545515D01*
X124122D01*
Y540658D01*
X130555D01*
Y542323D01*
X130446Y543149D01*
X130374Y543323D01*
X130671Y543635D01*
X131159Y543504D01*
X131833D01*
X132449Y543669D01*
X132560Y543656D01*
X132843Y543492D01*
Y532905D01*
X114632D01*
X114477Y533299D01*
X114843Y533665D01*
X115180Y534248D01*
X115354Y534899D01*
Y535573D01*
X115180Y536224D01*
X114843Y536807D01*
X114367Y537284D01*
X113783Y537621D01*
X113132Y537795D01*
X112458D01*
X111808Y537621D01*
X111224Y537284D01*
X110748Y536807D01*
X110536Y536441D01*
X105906D01*
X105445Y536349D01*
X105054Y536088D01*
X105054Y536088D01*
X94227Y525261D01*
X93966Y524870D01*
X93875Y524409D01*
X93875Y524409D01*
Y482585D01*
X91274Y479985D01*
X91013Y479595D01*
X90922Y479134D01*
X90922Y479134D01*
Y465354D01*
X90922Y465354D01*
X91013Y464893D01*
X91274Y464503D01*
X96827Y458950D01*
Y418609D01*
X91274Y413056D01*
X91013Y412666D01*
X90922Y412205D01*
X90922Y412205D01*
Y398425D01*
X90922Y398425D01*
X91013Y397964D01*
X91274Y397574D01*
X96827Y392021D01*
Y369396D01*
X96548Y369118D01*
X93401D01*
X93190Y369485D01*
X92713Y369961D01*
X92130Y370298D01*
X91479Y370472D01*
X90805D01*
X90154Y370298D01*
X89570Y369961D01*
X89537Y369928D01*
X89173Y370078D01*
X89173Y551968D01*
X91906Y554701D01*
X106090D01*
X106330Y554389D01*
D02*
G37*
G36*
X97044Y487576D02*
X97695Y487402D01*
X98369D01*
X98985Y487567D01*
X99095Y487553D01*
X99379Y487390D01*
Y479755D01*
X96162D01*
X95547Y479633D01*
X95026Y479285D01*
X95026Y479285D01*
X94104Y478363D01*
X93756Y477842D01*
X93724Y477683D01*
X93330Y477722D01*
Y478635D01*
X95930Y481235D01*
X95930Y481235D01*
X96191Y481626D01*
X96283Y482087D01*
Y487561D01*
X96677Y487788D01*
X97044Y487576D01*
D02*
G37*
G36*
X99379Y417292D02*
Y405360D01*
X98937Y404918D01*
X98600Y404334D01*
X98425Y403683D01*
Y403010D01*
X98600Y402359D01*
X98937Y401775D01*
X99413Y401299D01*
X99997Y400962D01*
X100647Y400787D01*
X101321D01*
X101938Y400953D01*
X102048Y400939D01*
X102331Y400776D01*
Y394984D01*
X101938Y394821D01*
X96684Y400074D01*
Y410191D01*
X97127Y410633D01*
X97464Y411217D01*
X97638Y411868D01*
Y412542D01*
X97464Y413193D01*
X97127Y413776D01*
X96650Y414253D01*
X96440Y414374D01*
X96389Y414764D01*
X98883Y417259D01*
X98883Y417259D01*
X98985Y417411D01*
X99379Y417292D01*
D02*
G37*
G36*
X106580Y314260D02*
X106890Y314094D01*
Y305906D01*
X92126D01*
X89173Y308858D01*
Y314142D01*
X105905D01*
X105906Y314142D01*
X106496Y314260D01*
X106580Y314260D01*
D02*
G37*
G36*
X106330Y291397D02*
X106299Y291282D01*
Y290608D01*
X106474Y289957D01*
X106811Y289374D01*
X107287Y288897D01*
X107871Y288560D01*
X108521Y288386D01*
X109195D01*
X109846Y288560D01*
X110430Y288897D01*
X110827Y289294D01*
X111157Y289200D01*
X111221Y289156D01*
Y288639D01*
X111395Y287989D01*
X111732Y287405D01*
X112208Y286929D01*
X112792Y286592D01*
X113443Y286417D01*
X114117D01*
X114767Y286592D01*
X115351Y286929D01*
X115827Y287405D01*
X116039Y287772D01*
X130013D01*
X131629Y286156D01*
X131629Y286156D01*
X131863Y286000D01*
X131708Y285630D01*
X131159D01*
X130508Y285455D01*
X129925Y285119D01*
X129448Y284642D01*
X129112Y284059D01*
X128937Y283408D01*
Y282734D01*
X128998Y282505D01*
X128668Y282216D01*
X128189Y282415D01*
X127362Y282523D01*
X124122D01*
Y277665D01*
X130555D01*
Y279331D01*
X130446Y280157D01*
X130374Y280331D01*
X130671Y280643D01*
X131159Y280512D01*
X131833D01*
X132449Y280677D01*
X132560Y280664D01*
X132843Y280500D01*
Y269913D01*
X114632D01*
X114477Y270306D01*
X114843Y270673D01*
X115180Y271256D01*
X115354Y271907D01*
Y272581D01*
X115180Y273232D01*
X114843Y273815D01*
X114367Y274292D01*
X113783Y274629D01*
X113132Y274803D01*
X112458D01*
X111808Y274629D01*
X111224Y274292D01*
X110748Y273815D01*
X110536Y273448D01*
X105906D01*
X105445Y273357D01*
X105054Y273096D01*
X105054Y273096D01*
X94227Y262269D01*
X93966Y261878D01*
X93875Y261417D01*
X93875Y261417D01*
Y219593D01*
X91274Y216993D01*
X91013Y216603D01*
X90922Y216142D01*
X90922Y216142D01*
Y202362D01*
X90922Y202362D01*
X91013Y201901D01*
X91274Y201511D01*
X96827Y195958D01*
Y155617D01*
X91274Y150064D01*
X91013Y149673D01*
X90922Y149213D01*
X90922Y149213D01*
Y135433D01*
X90922Y135433D01*
X91013Y134972D01*
X91274Y134581D01*
X96827Y129029D01*
Y106404D01*
X96548Y106125D01*
X93401D01*
X93190Y106493D01*
X92713Y106969D01*
X92130Y107306D01*
X91479Y107480D01*
X90805D01*
X90154Y107306D01*
X89570Y106969D01*
X89537Y106936D01*
X89173Y107086D01*
X89173Y288976D01*
X91906Y291709D01*
X106090D01*
X106330Y291397D01*
D02*
G37*
G36*
X97044Y224584D02*
X97695Y224410D01*
X98369D01*
X98985Y224575D01*
X99095Y224561D01*
X99379Y224398D01*
Y216763D01*
X96162D01*
X95547Y216641D01*
X95026Y216293D01*
X95026Y216293D01*
X94104Y215370D01*
X93756Y214849D01*
X93724Y214691D01*
X93330Y214729D01*
Y215643D01*
X95930Y218243D01*
X95930Y218243D01*
X96191Y218634D01*
X96283Y219094D01*
Y224569D01*
X96677Y224796D01*
X97044Y224584D01*
D02*
G37*
G36*
X99379Y154300D02*
Y142368D01*
X98937Y141926D01*
X98600Y141342D01*
X98425Y140691D01*
Y140017D01*
X98600Y139367D01*
X98937Y138783D01*
X99413Y138307D01*
X99997Y137970D01*
X100647Y137795D01*
X101321D01*
X101938Y137961D01*
X102048Y137947D01*
X102331Y137783D01*
Y131992D01*
X101938Y131829D01*
X96684Y137082D01*
Y147199D01*
X97127Y147641D01*
X97464Y148225D01*
X97638Y148876D01*
Y149549D01*
X97464Y150200D01*
X97127Y150784D01*
X96650Y151260D01*
X96440Y151382D01*
X96389Y151772D01*
X98883Y154267D01*
X98883Y154267D01*
X98985Y154419D01*
X99379Y154300D01*
D02*
G37*
G36*
X106580Y51268D02*
X106890Y51102D01*
Y42913D01*
X92126D01*
X89173Y45866D01*
Y51150D01*
X105905D01*
X105906Y51150D01*
X106496Y51268D01*
X106580Y51268D01*
D02*
G37*
%LPC*%
G36*
X123122Y545515D02*
X119882D01*
X119056Y545407D01*
X118286Y545088D01*
X117624Y544580D01*
X117117Y543919D01*
X116798Y543149D01*
X116689Y542323D01*
Y540658D01*
X123122D01*
Y545515D01*
D02*
G37*
G36*
X130555Y539657D02*
X124122D01*
Y534799D01*
X127362D01*
X128189Y534908D01*
X128959Y535227D01*
X129620Y535735D01*
X130127Y536396D01*
X130446Y537166D01*
X130555Y537992D01*
Y539657D01*
D02*
G37*
G36*
X123122D02*
X116689D01*
Y537992D01*
X116798Y537166D01*
X117117Y536396D01*
X117624Y535735D01*
X118286Y535227D01*
X119056Y534908D01*
X119882Y534799D01*
X123122D01*
Y539657D01*
D02*
G37*
G36*
Y282523D02*
X119882D01*
X119056Y282415D01*
X118286Y282096D01*
X117624Y281588D01*
X117117Y280927D01*
X116798Y280157D01*
X116689Y279331D01*
Y277665D01*
X123122D01*
Y282523D01*
D02*
G37*
G36*
X130555Y276665D02*
X124122D01*
Y271807D01*
X127362D01*
X128189Y271916D01*
X128959Y272235D01*
X129620Y272743D01*
X130127Y273404D01*
X130446Y274174D01*
X130555Y275000D01*
Y276665D01*
D02*
G37*
G36*
X123122D02*
X116689D01*
Y275000D01*
X116798Y274174D01*
X117117Y273404D01*
X117624Y272743D01*
X118286Y272235D01*
X119056Y271916D01*
X119882Y271807D01*
X123122D01*
Y276665D01*
D02*
G37*
%LPD*%
D36*
X478937Y99016D02*
Y121653D01*
X523228Y59646D02*
X523229Y59646D01*
X523228Y59646D02*
Y66535D01*
X58662Y59646D02*
Y66535D01*
X58662Y59646D02*
X58662Y59646D01*
X391800Y274213D02*
X492717D01*
X391339Y273751D02*
X391800Y274213D01*
X391339Y261417D02*
Y273751D01*
X492717Y274213D02*
X494685Y272244D01*
X382480Y276642D02*
Y280118D01*
X493701Y276181D02*
X496654Y273228D01*
X382942Y276181D02*
X493701D01*
X382480Y276642D02*
X382942Y276181D01*
X84252Y59646D02*
X86221Y61614D01*
X78347Y59646D02*
X84252D01*
X86221Y61614D02*
Y290945D01*
X408071Y258465D02*
X414961D01*
X407087Y259449D02*
X408071Y258465D01*
X414961D02*
X438583D01*
X406102Y225000D02*
X414500D01*
X414961Y225461D01*
Y258465D01*
X403150Y222047D02*
X406102Y225000D01*
X403150Y122638D02*
Y222047D01*
X407548Y220602D02*
X408009Y221063D01*
X407087Y220079D02*
X407548Y220540D01*
X407087Y183661D02*
Y220079D01*
X408009Y221063D02*
X443504D01*
X407548Y220540D02*
Y220602D01*
X405118Y221063D02*
X407087Y223031D01*
X405118Y182677D02*
Y221063D01*
X407087Y223031D02*
X442520D01*
X418898Y97047D02*
Y106890D01*
X403150Y122638D02*
X418898Y106890D01*
X420866Y98032D02*
Y107874D01*
X405118Y123622D02*
X420866Y107874D01*
X447902Y98554D02*
X447902D01*
X447441Y99016D02*
X447902Y98554D01*
X447902D02*
X448425Y98032D01*
X441536Y99016D02*
X447441D01*
X448425Y86500D02*
Y98032D01*
X449409Y102953D02*
X452362Y100000D01*
X443504Y102953D02*
X449409D01*
X452362Y95079D02*
Y100000D01*
X448425Y100984D02*
X450394Y99016D01*
Y89173D02*
Y99016D01*
X442520Y100984D02*
X448425D01*
X477953Y91142D02*
X480906Y94095D01*
Y128543D01*
X474016Y91142D02*
X477953D01*
X507480Y57677D02*
X518307Y68504D01*
X507480Y53740D02*
Y57677D01*
X504640Y55821D02*
Y57790D01*
X515354Y68504D02*
Y286024D01*
X504640Y57790D02*
X515354Y68504D01*
X504528Y55709D02*
X504640Y55821D01*
X513386Y77362D02*
Y285039D01*
X453346Y57677D02*
X493701D01*
X513386Y77362D01*
X491732Y59646D02*
X509449Y77362D01*
X454331Y59646D02*
X491732D01*
X509449Y77362D02*
Y286547D01*
X507480Y79331D02*
Y284578D01*
X455315Y61614D02*
X489764D01*
X507480Y79331D01*
X483397D02*
X483858Y79792D01*
X448425Y79331D02*
X483397D01*
X483858Y79792D02*
Y128543D01*
X485827Y78347D02*
Y129528D01*
X447441Y77362D02*
X484843D01*
X485827Y78347D01*
Y75394D02*
X487795Y77362D01*
X446457Y75394D02*
X485827D01*
X487795Y77362D02*
Y130512D01*
X445291Y73607D02*
X486993D01*
X489764Y76378D02*
Y131496D01*
X486993Y73607D02*
X489764Y76378D01*
X487795Y71457D02*
X491732Y75394D01*
X444488Y71457D02*
X487795D01*
X491732Y75394D02*
Y132480D01*
X493701Y74410D02*
Y133465D01*
X488780Y69488D02*
X493701Y74410D01*
X459252Y69488D02*
X488780D01*
X458268Y67520D02*
X489764D01*
X495669Y73425D02*
Y134449D01*
X489764Y67520D02*
X495669Y73425D01*
X488780Y63583D02*
X505512Y80315D01*
Y282610D01*
X461221Y63583D02*
X488780D01*
X429725Y98032D02*
X448425Y79331D01*
X420866Y98032D02*
X445291Y73607D01*
X317520Y267323D02*
X347047D01*
X354921Y275197D01*
X362795D01*
X468110Y147244D02*
Y261417D01*
X466142Y146260D02*
Y259449D01*
X405118Y240748D02*
X407087D01*
X403150Y242717D02*
X405118Y240748D01*
X410748Y242829D02*
X411301Y242277D01*
Y241669D02*
Y242277D01*
X405990Y242829D02*
X410748D01*
X412008Y240748D02*
Y240961D01*
X411301Y241669D02*
X412008Y240961D01*
X405118Y243701D02*
X405990Y242829D01*
X474016Y244685D02*
X482874Y253543D01*
X474016Y150197D02*
Y244685D01*
X475984Y243701D02*
X485827Y253543D01*
X475984Y151181D02*
Y243701D01*
X474016Y150197D02*
X491732Y132480D01*
X417421Y90649D02*
X427756Y80315D01*
X432677D01*
X410040Y90649D02*
X417421D01*
X451490Y65439D02*
X455315Y61614D01*
X451378Y66535D02*
X451490Y66423D01*
Y65439D02*
Y66423D01*
X447441Y63583D02*
Y66535D01*
Y63583D02*
X453346Y57677D01*
X449409Y64438D02*
X450265Y63583D01*
X449409Y64438D02*
Y64567D01*
X450394Y63583D02*
X454331Y59646D01*
X450265Y63583D02*
X450394D01*
X503543Y81299D02*
Y250591D01*
X497638Y75394D02*
X503543Y81299D01*
X496654Y257480D02*
X503543Y250591D01*
X497638Y78347D02*
X501575Y82284D01*
Y249606D01*
X435040Y212795D02*
X452362Y195473D01*
Y144291D02*
Y195473D01*
X416929Y212795D02*
X435040D01*
X434055Y210827D02*
X450394Y194488D01*
Y143307D02*
Y194488D01*
X414961Y210827D02*
X434055D01*
X433071Y208858D02*
X448425Y193504D01*
X416929Y208858D02*
X433071D01*
X448425Y142323D02*
Y193504D01*
X432087Y206890D02*
X446457Y192520D01*
Y141339D02*
Y192520D01*
X414961Y206890D02*
X432087D01*
X446457Y141339D02*
X452362Y135433D01*
X431102Y204921D02*
X444488Y191535D01*
Y140354D02*
Y191535D01*
X416929Y204921D02*
X431102D01*
X430118Y202953D02*
X442520Y190551D01*
Y139370D02*
Y190551D01*
X414961Y202953D02*
X430118D01*
X427165Y197047D02*
X436614Y187598D01*
Y136417D02*
X449409Y123622D01*
X436614Y136417D02*
Y187598D01*
X429134Y200984D02*
X440551Y189567D01*
Y138386D02*
Y189567D01*
X416929Y200984D02*
X429134D01*
X440551Y138386D02*
X449409Y129528D01*
X414961Y199016D02*
X428150D01*
X438583Y188583D01*
Y137402D02*
Y188583D01*
Y137402D02*
X450394Y125591D01*
X416929Y197047D02*
X427165D01*
X414961Y195079D02*
X426181D01*
X434646Y135433D02*
Y186614D01*
X426181Y195079D02*
X434646Y186614D01*
X425197Y193110D02*
X432677Y185630D01*
Y134449D02*
Y185630D01*
X416929Y193110D02*
X425197D01*
X414961Y191142D02*
X424213D01*
X430709Y133465D02*
Y184646D01*
X424213Y191142D02*
X430709Y184646D01*
X416929Y189173D02*
X423228D01*
X428740Y183661D01*
Y132480D02*
Y183661D01*
X426772Y131496D02*
Y182677D01*
X422244Y187205D02*
X426772Y182677D01*
X414961Y187205D02*
X422244D01*
X424803Y130512D02*
Y181693D01*
X421260Y185236D02*
X424803Y181693D01*
X416929Y185236D02*
X421260D01*
X420276Y183268D02*
X422835Y180709D01*
Y129528D02*
Y180709D01*
X414961Y183268D02*
X420276D01*
X420866Y128543D02*
Y179724D01*
X419291Y181299D02*
X420866Y179724D01*
X416929Y181299D02*
X419291D01*
X418898Y127559D02*
Y178740D01*
X414961Y179331D02*
X418307D01*
X418898Y178740D01*
X493701Y139370D02*
X497638Y135433D01*
Y98032D02*
Y135433D01*
X466142Y146260D02*
X483858Y128543D01*
X468110Y147244D02*
X485827Y129528D01*
X470079Y148228D02*
X487795Y130512D01*
X472047Y149213D02*
X489764Y131496D01*
X475984Y151181D02*
X493701Y133465D01*
X490748Y139370D02*
X495669Y134449D01*
X456299Y69488D02*
X458268Y67520D01*
X443504Y69488D02*
X456299D01*
X432677Y80315D02*
X443504Y69488D01*
X459252Y65551D02*
X461221Y63583D01*
X497638Y244685D02*
X499606Y242717D01*
X497638Y90650D02*
X499606Y92618D01*
Y242717D01*
X510433Y290945D02*
X515354Y286024D01*
X378543Y290945D02*
X510433D01*
X509449Y288976D02*
X513386Y285039D01*
X379528Y288976D02*
X509449D01*
X494685Y256496D02*
X501575Y249606D01*
X505051Y283071D02*
X505512Y282610D01*
X382480Y283071D02*
X505051D01*
X507019Y285039D02*
X507480Y284578D01*
X381496Y285039D02*
X507019D01*
X380512Y287008D02*
X508988D01*
X509449Y286547D01*
X395125Y261267D02*
X396943Y259449D01*
X401181D01*
X403150Y242717D02*
Y254528D01*
X405118Y243701D02*
Y255512D01*
X407087Y245669D02*
Y256496D01*
X402165Y261417D02*
X407087Y256496D01*
X399213Y261417D02*
X402165D01*
X397244Y263386D02*
X399213Y261417D01*
X401181Y259449D02*
X405118Y255512D01*
X400197Y257480D02*
X403150Y254528D01*
X242717Y257480D02*
X400197D01*
X494685Y256496D02*
Y272244D01*
X428740Y82284D02*
X433662D01*
X444488Y71457D01*
X472047Y149213D02*
Y258465D01*
X470079Y148228D02*
Y256496D01*
X468110Y141339D02*
X480906Y128543D01*
X465158Y135433D02*
X478937Y121653D01*
X446457Y117717D02*
X459252D01*
X462205Y114764D01*
X418898Y97047D02*
X422835Y93110D01*
Y91142D02*
Y93110D01*
Y99016D02*
X446457Y75394D01*
X422835Y99016D02*
Y104921D01*
X426772Y98032D02*
X447441Y77362D01*
X426772Y98032D02*
Y101969D01*
X442520Y223031D02*
X444488Y225000D01*
X443504Y221063D02*
X446457Y224016D01*
Y251114D01*
X444488Y225000D02*
Y249606D01*
X407087Y177362D02*
X411024Y173425D01*
Y129528D02*
Y173425D01*
X409055Y128543D02*
Y171457D01*
X407087Y173425D02*
X409055Y171457D01*
X405118Y126575D02*
Y167520D01*
X407087Y169488D01*
Y127559D02*
Y165945D01*
Y183661D02*
X414961Y175787D01*
X405118Y182677D02*
X412992Y174803D01*
X414961Y159646D02*
Y175787D01*
X413453Y155709D02*
X414961D01*
X412992Y156170D02*
X413453Y155709D01*
X412992Y156170D02*
Y174803D01*
X450394Y81299D02*
X468110D01*
X446457Y85236D02*
X450394Y81299D01*
X468110D02*
X470079Y83268D01*
X440551Y94095D02*
X444488D01*
X446457Y92126D01*
Y85236D02*
Y92126D01*
X407087Y127559D02*
X440551Y94095D01*
X448425Y86500D02*
X451657Y83268D01*
X416929Y126575D02*
X442520Y100984D01*
X416929Y126575D02*
Y177362D01*
X405118Y126575D02*
X440702Y90991D01*
X443353D01*
X443504Y91142D01*
X411024Y129528D02*
X441536Y99016D01*
X409055Y128543D02*
X440551Y97047D01*
X455315Y127559D02*
X459252D01*
X451657Y83268D02*
X451870D01*
X418898Y127559D02*
X443504Y102953D01*
X463189Y125591D02*
X470079Y118701D01*
X450394Y125591D02*
X463189D01*
X449409Y123622D02*
X462205D01*
X468110Y117717D01*
X448425Y121653D02*
X461221D01*
X466142Y116732D01*
X434646Y135433D02*
X448425Y121653D01*
X460236Y119685D02*
X464173Y115748D01*
X447441Y119685D02*
X460236D01*
X432677Y134449D02*
X447441Y119685D01*
X430709Y133465D02*
X446457Y117717D01*
X458268Y115748D02*
X462205Y111811D01*
X428740Y132480D02*
X445472Y115748D01*
X458268D01*
X457284Y113779D02*
X460236Y110827D01*
X444488Y113779D02*
X457284D01*
X426772Y131496D02*
X444488Y113779D01*
X424803Y130512D02*
X443504Y111811D01*
X454331D01*
X442520Y109843D02*
X453346D01*
X454331Y108858D01*
X422835Y129528D02*
X442520Y109843D01*
X441536Y107874D02*
X444488D01*
X420866Y128543D02*
X441536Y107874D01*
X452362Y144291D02*
X455315Y141339D01*
X468110D01*
X440551Y97047D02*
X443504D01*
X458268Y83268D02*
Y102953D01*
X468110Y85236D02*
Y117717D01*
X466142Y83268D02*
Y116732D01*
Y137402D02*
X476969Y126575D01*
X453347Y137402D02*
X466142D01*
X467126Y139370D02*
X476969Y129528D01*
X461221Y100984D02*
X462205Y101969D01*
Y111811D01*
X475984Y104921D02*
Y121654D01*
X472047Y110827D02*
Y119685D01*
Y110827D02*
X474016Y108858D01*
X454331Y139370D02*
X467126D01*
X452362Y135433D02*
X465158D01*
X451378Y133465D02*
X464173D01*
X475984Y121654D01*
X463189Y131496D02*
X474016Y120669D01*
X450394Y131496D02*
X463189D01*
X474016Y114764D02*
Y120669D01*
X462205Y129528D02*
X472047Y119685D01*
X449409Y129528D02*
X462205D01*
X470079Y93110D02*
Y118701D01*
X464173Y89173D02*
Y115748D01*
X460236Y104921D02*
Y110827D01*
X450394Y143307D02*
X454331Y139370D01*
X448425Y142323D02*
X453347Y137402D01*
X444488Y140354D02*
X451378Y133465D01*
X442520Y139370D02*
X450394Y131496D01*
X458268Y102953D02*
X460236Y104921D01*
X441536Y249606D02*
Y251114D01*
X441997Y251575D01*
X445996D02*
X446457Y251114D01*
X441997Y251575D02*
X445996D01*
X86221Y290945D02*
X88189Y292913D01*
X105906Y272244D02*
X112795D01*
X95079Y261417D02*
X105906Y272244D01*
X95079Y219094D02*
Y261417D01*
X230906Y263386D02*
Y269291D01*
X362795Y275197D02*
X378543Y290945D01*
X316535Y265354D02*
X355906D01*
X379528Y288976D01*
X356890Y263386D02*
X380512Y287008D01*
X245669Y263386D02*
X356890D01*
X246654Y275197D02*
X254528Y267323D01*
X239764Y275197D02*
X246654D01*
X222047Y292913D02*
X239764Y275197D01*
X254528Y267323D02*
X284055D01*
X246654Y265354D02*
X285039D01*
X221063Y290945D02*
X246654Y265354D01*
X220079Y288976D02*
X245669Y263386D01*
X133465Y288976D02*
X220079D01*
X217126Y283071D02*
X230906Y269291D01*
X358858Y259449D02*
X382480Y283071D01*
X357874Y261417D02*
X381496Y285039D01*
X92126Y216142D02*
X95079Y219094D01*
X92126Y202362D02*
Y216142D01*
Y202362D02*
X98032Y196457D01*
Y155118D02*
Y196457D01*
X92126Y149213D02*
X98032Y155118D01*
X92126Y135433D02*
Y149213D01*
Y135433D02*
X98032Y129528D01*
Y105905D02*
Y129528D01*
X97047Y104921D02*
X98032Y105905D01*
X91142Y104921D02*
X97047D01*
X542452Y68504D02*
X542913Y68043D01*
X518307Y68504D02*
X542452D01*
X542913Y59646D02*
Y68043D01*
X266339Y259449D02*
X358858Y259449D01*
X266339Y261417D02*
X357874Y261417D01*
X496654Y257480D02*
Y273228D01*
X134910Y283071D02*
X217126D01*
X130512Y288976D02*
X132480Y287008D01*
X113780Y288976D02*
X130512D01*
X132480Y287008D02*
X133465D01*
X108858Y290945D02*
X221063D01*
X284055Y267323D02*
X286024Y269291D01*
X315551D02*
X317520Y267323D01*
X286024Y269291D02*
X315551D01*
X287008Y267323D02*
X314567D01*
X316535Y265354D01*
X285039D02*
X287008Y267323D01*
X165945Y285039D02*
X218110D01*
X243701Y259449D01*
X266339D01*
X133465Y287008D02*
X219095Y287008D01*
X244685Y261417D01*
X266339D01*
X88189Y292913D02*
X222047D01*
X542913Y59646D02*
X542913Y59646D01*
X478937Y362008D02*
Y384646D01*
X523228Y322638D02*
X523229Y322638D01*
X523228Y322638D02*
Y329528D01*
X58662Y322638D02*
Y329528D01*
X58662Y322638D02*
X58662Y322638D01*
X391800Y537205D02*
X492717D01*
X391339Y536743D02*
X391800Y537205D01*
X391339Y524409D02*
Y536743D01*
X492717Y537205D02*
X494685Y535236D01*
X382480Y539635D02*
Y543110D01*
X493701Y539173D02*
X496654Y536221D01*
X382942Y539173D02*
X493701D01*
X382480Y539635D02*
X382942Y539173D01*
X84252Y322638D02*
X86221Y324606D01*
X78347Y322638D02*
X84252D01*
X86221Y324606D02*
Y553937D01*
X408071Y521457D02*
X414961D01*
X407087Y522441D02*
X408071Y521457D01*
X414961D02*
X438583D01*
X406102Y487992D02*
X414500D01*
X414961Y488453D01*
Y521457D01*
X403150Y485039D02*
X406102Y487992D01*
X403150Y385630D02*
Y485039D01*
X407548Y483594D02*
X408009Y484055D01*
X407087Y483071D02*
X407548Y483532D01*
X407087Y446654D02*
Y483071D01*
X408009Y484055D02*
X443504D01*
X407548Y483532D02*
Y483594D01*
X405118Y484055D02*
X407087Y486024D01*
X405118Y445669D02*
Y484055D01*
X407087Y486024D02*
X442520D01*
X418898Y360039D02*
Y369882D01*
X403150Y385630D02*
X418898Y369882D01*
X420866Y361024D02*
Y370866D01*
X405118Y386614D02*
X420866Y370866D01*
X447902Y361547D02*
X447902D01*
X447441Y362008D02*
X447902Y361547D01*
X447902D02*
X448425Y361024D01*
X441536Y362008D02*
X447441D01*
X448425Y349492D02*
Y361024D01*
X449409Y365945D02*
X452362Y362992D01*
X443504Y365945D02*
X449409D01*
X452362Y358071D02*
Y362992D01*
X448425Y363976D02*
X450394Y362008D01*
Y352165D02*
Y362008D01*
X442520Y363976D02*
X448425D01*
X477953Y354134D02*
X480906Y357087D01*
Y391535D01*
X474016Y354134D02*
X477953D01*
X507480Y320669D02*
X518307Y331496D01*
X507480Y316732D02*
Y320669D01*
X504640Y318813D02*
Y320782D01*
X515354Y331496D02*
Y549016D01*
X504640Y320782D02*
X515354Y331496D01*
X504528Y318701D02*
X504640Y318813D01*
X513386Y340354D02*
Y548032D01*
X453346Y320669D02*
X493701D01*
X513386Y340354D01*
X491732Y322638D02*
X509449Y340354D01*
X454331Y322638D02*
X491732D01*
X509449Y340354D02*
Y549539D01*
X507480Y342323D02*
Y547570D01*
X455315Y324606D02*
X489764D01*
X507480Y342323D01*
X483397D02*
X483858Y342784D01*
X448425Y342323D02*
X483397D01*
X483858Y342784D02*
Y391535D01*
X485827Y341339D02*
Y392520D01*
X447441Y340354D02*
X484843D01*
X485827Y341339D01*
Y338386D02*
X487795Y340354D01*
X446457Y338386D02*
X485827D01*
X487795Y340354D02*
Y393504D01*
X445291Y336599D02*
X486993D01*
X489764Y339370D02*
Y394488D01*
X486993Y336599D02*
X489764Y339370D01*
X487795Y334449D02*
X491732Y338386D01*
X444488Y334449D02*
X487795D01*
X491732Y338386D02*
Y395473D01*
X493701Y337402D02*
Y396457D01*
X488780Y332480D02*
X493701Y337402D01*
X459252Y332480D02*
X488780D01*
X458268Y330512D02*
X489764D01*
X495669Y336417D02*
Y397441D01*
X489764Y330512D02*
X495669Y336417D01*
X488780Y326575D02*
X505512Y343307D01*
Y545602D01*
X461221Y326575D02*
X488780D01*
X429725Y361024D02*
X448425Y342323D01*
X420866Y361024D02*
X445291Y336599D01*
X317520Y530315D02*
X347047D01*
X354921Y538189D01*
X362795D01*
X468110Y410236D02*
Y524409D01*
X466142Y409252D02*
Y522441D01*
X405118Y503740D02*
X407087D01*
X403150Y505709D02*
X405118Y503740D01*
X410748Y505821D02*
X411301Y505269D01*
Y504661D02*
Y505269D01*
X405990Y505821D02*
X410748D01*
X412008Y503740D02*
Y503953D01*
X411301Y504661D02*
X412008Y503953D01*
X405118Y506693D02*
X405990Y505821D01*
X474016Y507677D02*
X482874Y516535D01*
X474016Y413189D02*
Y507677D01*
X475984Y506693D02*
X485827Y516535D01*
X475984Y414173D02*
Y506693D01*
X474016Y413189D02*
X491732Y395473D01*
X417421Y353642D02*
X427756Y343307D01*
X432677D01*
X410040Y353642D02*
X417421D01*
X451490Y328431D02*
X455315Y324606D01*
X451378Y329528D02*
X451490Y329415D01*
Y328431D02*
Y329415D01*
X447441Y326575D02*
Y329528D01*
Y326575D02*
X453346Y320669D01*
X449409Y327430D02*
X450265Y326575D01*
X449409Y327430D02*
Y327559D01*
X450394Y326575D02*
X454331Y322638D01*
X450265Y326575D02*
X450394D01*
X503543Y344291D02*
Y513583D01*
X497638Y338386D02*
X503543Y344291D01*
X496654Y520472D02*
X503543Y513583D01*
X497638Y341339D02*
X501575Y345276D01*
Y512598D01*
X435040Y475787D02*
X452362Y458465D01*
Y407283D02*
Y458465D01*
X416929Y475787D02*
X435040D01*
X434055Y473819D02*
X450394Y457480D01*
Y406299D02*
Y457480D01*
X414961Y473819D02*
X434055D01*
X433071Y471850D02*
X448425Y456496D01*
X416929Y471850D02*
X433071D01*
X448425Y405315D02*
Y456496D01*
X432087Y469882D02*
X446457Y455512D01*
Y404331D02*
Y455512D01*
X414961Y469882D02*
X432087D01*
X446457Y404331D02*
X452362Y398425D01*
X431102Y467913D02*
X444488Y454528D01*
Y403346D02*
Y454528D01*
X416929Y467913D02*
X431102D01*
X430118Y465945D02*
X442520Y453543D01*
Y402362D02*
Y453543D01*
X414961Y465945D02*
X430118D01*
X427165Y460039D02*
X436614Y450591D01*
Y399410D02*
X449409Y386614D01*
X436614Y399410D02*
Y450591D01*
X429134Y463976D02*
X440551Y452559D01*
Y401378D02*
Y452559D01*
X416929Y463976D02*
X429134D01*
X440551Y401378D02*
X449409Y392520D01*
X414961Y462008D02*
X428150D01*
X438583Y451575D01*
Y400394D02*
Y451575D01*
Y400394D02*
X450394Y388583D01*
X416929Y460039D02*
X427165D01*
X414961Y458071D02*
X426181D01*
X434646Y398425D02*
Y449606D01*
X426181Y458071D02*
X434646Y449606D01*
X425197Y456102D02*
X432677Y448622D01*
Y397441D02*
Y448622D01*
X416929Y456102D02*
X425197D01*
X414961Y454134D02*
X424213D01*
X430709Y396457D02*
Y447638D01*
X424213Y454134D02*
X430709Y447638D01*
X416929Y452165D02*
X423228D01*
X428740Y446654D01*
Y395473D02*
Y446654D01*
X426772Y394488D02*
Y445669D01*
X422244Y450197D02*
X426772Y445669D01*
X414961Y450197D02*
X422244D01*
X424803Y393504D02*
Y444685D01*
X421260Y448228D02*
X424803Y444685D01*
X416929Y448228D02*
X421260D01*
X420276Y446260D02*
X422835Y443701D01*
Y392520D02*
Y443701D01*
X414961Y446260D02*
X420276D01*
X420866Y391535D02*
Y442717D01*
X419291Y444291D02*
X420866Y442717D01*
X416929Y444291D02*
X419291D01*
X418898Y390551D02*
Y441732D01*
X414961Y442323D02*
X418307D01*
X418898Y441732D01*
X493701Y402362D02*
X497638Y398425D01*
Y361024D02*
Y398425D01*
X466142Y409252D02*
X483858Y391535D01*
X468110Y410236D02*
X485827Y392520D01*
X470079Y411221D02*
X487795Y393504D01*
X472047Y412205D02*
X489764Y394488D01*
X475984Y414173D02*
X493701Y396457D01*
X490748Y402362D02*
X495669Y397441D01*
X456299Y332480D02*
X458268Y330512D01*
X443504Y332480D02*
X456299D01*
X432677Y343307D02*
X443504Y332480D01*
X459252Y328543D02*
X461221Y326575D01*
X497638Y507677D02*
X499606Y505709D01*
X497638Y353642D02*
X499606Y355610D01*
Y505709D01*
X510433Y553937D02*
X515354Y549016D01*
X378543Y553937D02*
X510433D01*
X509449Y551968D02*
X513386Y548032D01*
X379528Y551968D02*
X509449D01*
X494685Y519488D02*
X501575Y512598D01*
X505051Y546063D02*
X505512Y545602D01*
X382480Y546063D02*
X505051D01*
X507019Y548032D02*
X507480Y547570D01*
X381496Y548032D02*
X507019D01*
X380512Y550000D02*
X508988D01*
X509449Y549539D01*
X395125Y524259D02*
X396943Y522441D01*
X401181D01*
X403150Y505709D02*
Y517520D01*
X405118Y506693D02*
Y518504D01*
X407087Y508661D02*
Y519488D01*
X402165Y524409D02*
X407087Y519488D01*
X399213Y524409D02*
X402165D01*
X397244Y526378D02*
X399213Y524409D01*
X401181Y522441D02*
X405118Y518504D01*
X400197Y520472D02*
X403150Y517520D01*
X242717Y520472D02*
X400197D01*
X494685Y519488D02*
Y535236D01*
X428740Y345276D02*
X433662D01*
X444488Y334449D01*
X472047Y412205D02*
Y521457D01*
X470079Y411221D02*
Y519488D01*
X468110Y404331D02*
X480906Y391535D01*
X465158Y398425D02*
X478937Y384646D01*
X446457Y380709D02*
X459252D01*
X462205Y377756D01*
X418898Y360039D02*
X422835Y356102D01*
Y354134D02*
Y356102D01*
Y362008D02*
X446457Y338386D01*
X422835Y362008D02*
Y367913D01*
X426772Y361024D02*
X447441Y340354D01*
X426772Y361024D02*
Y364961D01*
X442520Y486024D02*
X444488Y487992D01*
X443504Y484055D02*
X446457Y487008D01*
Y514106D01*
X444488Y487992D02*
Y512598D01*
X407087Y440354D02*
X411024Y436417D01*
Y392520D02*
Y436417D01*
X409055Y391535D02*
Y434449D01*
X407087Y436417D02*
X409055Y434449D01*
X405118Y389567D02*
Y430512D01*
X407087Y432480D01*
Y390551D02*
Y428937D01*
Y446654D02*
X414961Y438779D01*
X405118Y445669D02*
X412992Y437795D01*
X414961Y422638D02*
Y438779D01*
X413453Y418701D02*
X414961D01*
X412992Y419162D02*
X413453Y418701D01*
X412992Y419162D02*
Y437795D01*
X450394Y344291D02*
X468110D01*
X446457Y348228D02*
X450394Y344291D01*
X468110D02*
X470079Y346260D01*
X440551Y357087D02*
X444488D01*
X446457Y355118D01*
Y348228D02*
Y355118D01*
X407087Y390551D02*
X440551Y357087D01*
X448425Y349492D02*
X451657Y346260D01*
X416929Y389567D02*
X442520Y363976D01*
X416929Y389567D02*
Y440354D01*
X405118Y389567D02*
X440702Y353983D01*
X443353D01*
X443504Y354134D01*
X411024Y392520D02*
X441536Y362008D01*
X409055Y391535D02*
X440551Y360039D01*
X455315Y390551D02*
X459252D01*
X451657Y346260D02*
X451870D01*
X418898Y390551D02*
X443504Y365945D01*
X463189Y388583D02*
X470079Y381693D01*
X450394Y388583D02*
X463189D01*
X449409Y386614D02*
X462205D01*
X468110Y380709D01*
X448425Y384646D02*
X461221D01*
X466142Y379724D01*
X434646Y398425D02*
X448425Y384646D01*
X460236Y382677D02*
X464173Y378740D01*
X447441Y382677D02*
X460236D01*
X432677Y397441D02*
X447441Y382677D01*
X430709Y396457D02*
X446457Y380709D01*
X458268Y378740D02*
X462205Y374803D01*
X428740Y395473D02*
X445472Y378740D01*
X458268D01*
X457284Y376772D02*
X460236Y373819D01*
X444488Y376772D02*
X457284D01*
X426772Y394488D02*
X444488Y376772D01*
X424803Y393504D02*
X443504Y374803D01*
X454331D01*
X442520Y372835D02*
X453346D01*
X454331Y371850D01*
X422835Y392520D02*
X442520Y372835D01*
X441536Y370866D02*
X444488D01*
X420866Y391535D02*
X441536Y370866D01*
X452362Y407283D02*
X455315Y404331D01*
X468110D01*
X440551Y360039D02*
X443504D01*
X458268Y346260D02*
Y365945D01*
X468110Y348228D02*
Y380709D01*
X466142Y346260D02*
Y379724D01*
Y400394D02*
X476969Y389567D01*
X453347Y400394D02*
X466142D01*
X467126Y402362D02*
X476969Y392520D01*
X461221Y363976D02*
X462205Y364961D01*
Y374803D01*
X475984Y367913D02*
Y384646D01*
X472047Y373819D02*
Y382677D01*
Y373819D02*
X474016Y371850D01*
X454331Y402362D02*
X467126D01*
X452362Y398425D02*
X465158D01*
X451378Y396457D02*
X464173D01*
X475984Y384646D01*
X463189Y394488D02*
X474016Y383661D01*
X450394Y394488D02*
X463189D01*
X474016Y377756D02*
Y383661D01*
X462205Y392520D02*
X472047Y382677D01*
X449409Y392520D02*
X462205D01*
X470079Y356102D02*
Y381693D01*
X464173Y352165D02*
Y378740D01*
X460236Y367913D02*
Y373819D01*
X450394Y406299D02*
X454331Y402362D01*
X448425Y405315D02*
X453347Y400394D01*
X444488Y403346D02*
X451378Y396457D01*
X442520Y402362D02*
X450394Y394488D01*
X458268Y365945D02*
X460236Y367913D01*
X441536Y512598D02*
Y514106D01*
X441997Y514567D01*
X445996D02*
X446457Y514106D01*
X441997Y514567D02*
X445996D01*
X86221Y553937D02*
X88189Y555905D01*
X105906Y535236D02*
X112795D01*
X95079Y524409D02*
X105906Y535236D01*
X95079Y482087D02*
Y524409D01*
X230906Y526378D02*
Y532283D01*
X362795Y538189D02*
X378543Y553937D01*
X316535Y528346D02*
X355906D01*
X379528Y551968D01*
X356890Y526378D02*
X380512Y550000D01*
X245669Y526378D02*
X356890D01*
X246654Y538189D02*
X254528Y530315D01*
X239764Y538189D02*
X246654D01*
X222047Y555905D02*
X239764Y538189D01*
X254528Y530315D02*
X284055D01*
X246654Y528346D02*
X285039D01*
X221063Y553937D02*
X246654Y528346D01*
X220079Y551968D02*
X245669Y526378D01*
X133465Y551968D02*
X220079D01*
X217126Y546063D02*
X230906Y532283D01*
X358858Y522441D02*
X382480Y546063D01*
X357874Y524409D02*
X381496Y548032D01*
X92126Y479134D02*
X95079Y482087D01*
X92126Y465354D02*
Y479134D01*
Y465354D02*
X98032Y459449D01*
Y418110D02*
Y459449D01*
X92126Y412205D02*
X98032Y418110D01*
X92126Y398425D02*
Y412205D01*
Y398425D02*
X98032Y392520D01*
Y368898D02*
Y392520D01*
X97047Y367913D02*
X98032Y368898D01*
X91142Y367913D02*
X97047D01*
X542452Y331496D02*
X542913Y331035D01*
X518307Y331496D02*
X542452D01*
X542913Y322638D02*
Y331035D01*
X266339Y522441D02*
X358858Y522441D01*
X266339Y524409D02*
X357874Y524409D01*
X496654Y520472D02*
Y536221D01*
X134910Y546063D02*
X217126D01*
X130512Y551968D02*
X132480Y550000D01*
X113780Y551968D02*
X130512D01*
X132480Y550000D02*
X133465D01*
X108858Y553937D02*
X221063D01*
X284055Y530315D02*
X286024Y532283D01*
X315551D02*
X317520Y530315D01*
X286024Y532283D02*
X315551D01*
X287008Y530315D02*
X314567D01*
X316535Y528346D01*
X285039D02*
X287008Y530315D01*
X165945Y548032D02*
X218110D01*
X243701Y522441D01*
X266339D01*
X133465Y550000D02*
X219095Y550000D01*
X244685Y524409D01*
X266339D01*
X88189Y555905D02*
X222047D01*
X542913Y322638D02*
X542913Y322638D01*
D37*
X494685Y213189D02*
Y251575D01*
X89112Y100984D02*
X100000D01*
X88189Y94095D02*
Y100062D01*
X89112Y100984D01*
X89173Y93110D02*
X107874D01*
X88189Y94095D02*
X89173Y93110D01*
X136417Y262402D02*
X223032D01*
X494685Y144291D02*
Y213189D01*
X414961Y214764D02*
X415052Y214856D01*
X105906Y52756D02*
X107874Y54724D01*
Y254528D02*
X111811Y258465D01*
X100984Y101969D02*
Y130512D01*
X95079Y136417D02*
Y149213D01*
Y136417D02*
X100984Y130512D01*
X100000Y100984D02*
X100984Y101969D01*
X107874Y93110D02*
Y254528D01*
Y54724D02*
Y93110D01*
X226969Y258465D02*
Y268307D01*
X111811Y258465D02*
X226969D01*
X215158Y280118D02*
X226969Y268307D01*
X140354Y280118D02*
X215158D01*
X139370Y279134D02*
X140354Y280118D01*
X139370Y271260D02*
Y279134D01*
X456299Y270276D02*
X457283Y271260D01*
X490810D01*
X491732Y270337D01*
Y254528D02*
Y270337D01*
Y254528D02*
X494685Y251575D01*
X456299Y262402D02*
Y270276D01*
X68504Y58022D02*
Y59646D01*
Y58022D02*
X73770Y52756D01*
X105906D01*
X226969Y258465D02*
X231243D01*
X233858Y261080D02*
Y263386D01*
X231243Y258465D02*
X233858Y261080D01*
X91142Y97047D02*
X103015D01*
X100394Y168504D02*
Y173228D01*
Y168504D02*
X100984Y167913D01*
X100394Y173228D02*
X100984Y173819D01*
Y206299D01*
Y140354D02*
Y167913D01*
X103937Y97970D02*
Y170866D01*
Y209252D01*
X102953Y170866D02*
X103937D01*
X98032Y209252D02*
X100984Y206299D01*
X133465Y265354D02*
X136417Y262402D01*
X134449Y269230D02*
Y282610D01*
X105906Y268307D02*
X133526D01*
X101969Y264370D02*
X105906Y268307D01*
X133526D02*
X134449Y269230D01*
X100984Y259449D02*
X106890Y265354D01*
X133465D01*
X103937Y257480D02*
X108858Y262402D01*
X131496D01*
X103015Y97047D02*
X103937Y97970D01*
X101969Y264370D02*
Y264370D01*
X131496Y283071D02*
X134910D01*
X103937Y213127D02*
Y257480D01*
X103015Y212205D02*
X103937Y213127D01*
X98954Y212205D02*
X103015D01*
X98032Y211282D02*
X98954Y212205D01*
X98032Y209252D02*
Y211282D01*
Y226969D02*
Y260433D01*
X101969Y264370D01*
X100984Y216080D02*
Y226969D01*
Y259449D01*
X100062Y215158D02*
X100984Y216080D01*
X96162Y215158D02*
X100062D01*
X95239Y214235D02*
X96162Y215158D01*
X95239Y207123D02*
Y214235D01*
Y207123D02*
X98032Y204331D01*
Y200394D02*
Y204331D01*
X494685Y476181D02*
Y514567D01*
X89112Y363976D02*
X100000D01*
X88189Y357087D02*
Y363054D01*
X89112Y363976D01*
X89173Y356102D02*
X107874D01*
X88189Y357087D02*
X89173Y356102D01*
X136417Y525394D02*
X223032D01*
X494685Y407283D02*
Y476181D01*
X414961Y477756D02*
X415052Y477848D01*
X105906Y315748D02*
X107874Y317717D01*
Y517520D02*
X111811Y521457D01*
X100984Y364961D02*
Y393504D01*
X95079Y399410D02*
Y412205D01*
Y399410D02*
X100984Y393504D01*
X100000Y363976D02*
X100984Y364961D01*
X107874Y356102D02*
Y517520D01*
Y317717D02*
Y356102D01*
X226969Y521457D02*
Y531299D01*
X111811Y521457D02*
X226969D01*
X215158Y543110D02*
X226969Y531299D01*
X140354Y543110D02*
X215158D01*
X139370Y542126D02*
X140354Y543110D01*
X139370Y534252D02*
Y542126D01*
X456299Y533268D02*
X457283Y534252D01*
X490810D01*
X491732Y533329D01*
Y517520D02*
Y533329D01*
Y517520D02*
X494685Y514567D01*
X456299Y525394D02*
Y533268D01*
X68504Y321014D02*
Y322638D01*
Y321014D02*
X73770Y315748D01*
X105906D01*
X226969Y521457D02*
X231243D01*
X233858Y524072D02*
Y526378D01*
X231243Y521457D02*
X233858Y524072D01*
X91142Y360039D02*
X103015D01*
X100394Y431496D02*
Y436221D01*
Y431496D02*
X100984Y430905D01*
X100394Y436221D02*
X100984Y436811D01*
Y469291D01*
Y403346D02*
Y430905D01*
X103937Y360962D02*
Y433858D01*
Y472244D01*
X102953Y433858D02*
X103937D01*
X98032Y472244D02*
X100984Y469291D01*
X133465Y528346D02*
X136417Y525394D01*
X134449Y532222D02*
Y545602D01*
X105906Y531299D02*
X133526D01*
X101969Y527362D02*
X105906Y531299D01*
X133526D02*
X134449Y532222D01*
X100984Y522441D02*
X106890Y528346D01*
X133465D01*
X103937Y520472D02*
X108858Y525394D01*
X131496D01*
X103015Y360039D02*
X103937Y360962D01*
X101969Y527362D02*
Y527362D01*
X131496Y546063D02*
X134910D01*
X103937Y476119D02*
Y520472D01*
X103015Y475197D02*
X103937Y476119D01*
X98954Y475197D02*
X103015D01*
X98032Y474274D02*
X98954Y475197D01*
X98032Y472244D02*
Y474274D01*
Y489961D02*
Y523425D01*
X101969Y527362D01*
X100984Y479072D02*
Y489961D01*
Y522441D01*
X100062Y478150D02*
X100984Y479072D01*
X96162Y478150D02*
X100062D01*
X95239Y477227D02*
X96162Y478150D01*
X95239Y470115D02*
Y477227D01*
Y470115D02*
X98032Y467323D01*
Y463386D02*
Y467323D01*
D38*
X452362Y216470D02*
Y258465D01*
X456299Y262402D01*
X403748Y111319D02*
X409933D01*
X403256Y111811D02*
X403748Y111319D01*
X403150Y111811D02*
X403256D01*
X450656Y214764D02*
X452362Y216470D01*
X414961Y214764D02*
X450656D01*
X412992Y134449D02*
Y140354D01*
X533071Y59646D02*
X533071Y59646D01*
Y66535D01*
X452362Y479462D02*
Y521457D01*
X456299Y525394D01*
X403748Y374311D02*
X409933D01*
X403256Y374803D02*
X403748Y374311D01*
X403150Y374803D02*
X403256D01*
X450656Y477756D02*
X452362Y479462D01*
X414961Y477756D02*
X450656D01*
X412992Y397441D02*
Y403346D01*
X533071Y322638D02*
X533071Y322638D01*
Y329528D01*
D39*
X299803Y265354D02*
X303740D01*
X299803Y265354D02*
X299803Y265354D01*
Y528346D02*
X303740D01*
X299803Y528346D02*
X299803Y528346D01*
D41*
X322914Y273425D02*
D03*
X278661D02*
D03*
X322914Y536417D02*
D03*
X278661D02*
D03*
D42*
X322914Y289173D02*
D03*
X278661D02*
D03*
X322914Y552165D02*
D03*
X278661D02*
D03*
D44*
X77559Y211221D02*
D03*
Y132480D02*
D03*
Y77362D02*
D03*
Y266339D02*
D03*
X59449Y77362D02*
D03*
Y266339D02*
D03*
Y211221D02*
D03*
Y132480D02*
D03*
X542126Y211221D02*
D03*
Y132480D02*
D03*
Y77362D02*
D03*
Y266339D02*
D03*
X524016Y77362D02*
D03*
Y266339D02*
D03*
Y211221D02*
D03*
Y132480D02*
D03*
X77559Y474213D02*
D03*
Y395472D02*
D03*
Y340354D02*
D03*
Y529331D02*
D03*
X59449Y340354D02*
D03*
Y529331D02*
D03*
Y474213D02*
D03*
Y395472D02*
D03*
X542126Y474213D02*
D03*
Y395472D02*
D03*
Y340354D02*
D03*
Y529331D02*
D03*
X524016Y340354D02*
D03*
Y529331D02*
D03*
Y474213D02*
D03*
Y395472D02*
D03*
D45*
X478937Y99016D02*
D03*
X191043Y267815D02*
D03*
X474016Y261417D02*
D03*
X477953D02*
D03*
X148228Y271260D02*
D03*
X500591Y266339D02*
D03*
X482874Y237795D02*
D03*
X483858Y218110D02*
D03*
X511417Y125098D02*
D03*
Y111319D02*
D03*
X439567Y281102D02*
D03*
Y268307D02*
D03*
X427756Y261417D02*
D03*
X416929Y216732D02*
D03*
X511417Y97539D02*
D03*
Y83760D02*
D03*
Y69980D02*
D03*
X523228Y66535D02*
D03*
X502067Y47835D02*
D03*
X467126Y65551D02*
D03*
X431693Y84252D02*
D03*
X488287Y47835D02*
D03*
X467618D02*
D03*
X481398D02*
D03*
X425295D02*
D03*
X432185D02*
D03*
X415945Y281102D02*
D03*
X415896Y268258D02*
D03*
X393307Y263386D02*
D03*
X414961Y218701D02*
D03*
X207283Y275197D02*
D03*
X131496Y277165D02*
D03*
Y279134D02*
D03*
X115748D02*
D03*
Y277165D02*
D03*
X157087Y271260D02*
D03*
X115748Y275197D02*
D03*
X131496D02*
D03*
X98032Y218110D02*
D03*
X93110Y231890D02*
D03*
X91142Y179724D02*
D03*
X414961Y151772D02*
D03*
X410040Y104429D02*
D03*
Y97539D02*
D03*
Y63090D02*
D03*
Y69980D02*
D03*
X98032Y138386D02*
D03*
X95079Y174803D02*
D03*
X98032Y149213D02*
D03*
X95079Y166929D02*
D03*
Y170866D02*
D03*
X92126Y162008D02*
D03*
X98032Y48819D02*
D03*
X92126D02*
D03*
X95079D02*
D03*
X100984D02*
D03*
X98032Y45866D02*
D03*
X100984D02*
D03*
X92126D02*
D03*
X95079D02*
D03*
X91142Y112795D02*
D03*
X58662Y66535D02*
D03*
X91142Y97047D02*
D03*
X223032Y262402D02*
D03*
X468110Y261417D02*
D03*
X466142Y259449D02*
D03*
X405118Y123622D02*
D03*
X494685Y144291D02*
D03*
X407087Y240748D02*
D03*
X412008D02*
D03*
X482874Y253543D02*
D03*
X485827D02*
D03*
X497638Y97539D02*
D03*
Y90650D02*
D03*
X493701Y139370D02*
D03*
X490748D02*
D03*
X459252Y65551D02*
D03*
X407087Y245669D02*
D03*
Y259449D02*
D03*
X504528Y55709D02*
D03*
X428740Y82284D02*
D03*
X462205Y114764D02*
D03*
X507480Y53740D02*
D03*
X403150Y111811D02*
D03*
X429725Y98032D02*
D03*
X414961Y214764D02*
D03*
X407087Y165551D02*
D03*
X412992Y140354D02*
D03*
Y134449D02*
D03*
X414961Y155709D02*
D03*
Y159646D02*
D03*
X452362Y95079D02*
D03*
X450394Y89173D02*
D03*
X443504Y91142D02*
D03*
X407087Y177362D02*
D03*
Y173425D02*
D03*
Y169488D02*
D03*
X414961Y179331D02*
D03*
X459252Y127559D02*
D03*
X455315D02*
D03*
X426772Y101969D02*
D03*
X422835Y91142D02*
D03*
Y104921D02*
D03*
X459252Y69488D02*
D03*
X451870Y83268D02*
D03*
X497638Y78347D02*
D03*
X497638Y75394D02*
D03*
X444488Y107874D02*
D03*
X454331Y111811D02*
D03*
X414961Y210827D02*
D03*
X416929Y212795D02*
D03*
X414961Y206890D02*
D03*
X416929Y208858D02*
D03*
X414961Y202953D02*
D03*
X416929Y204921D02*
D03*
X414961Y199016D02*
D03*
X416929Y200984D02*
D03*
X414961Y195079D02*
D03*
X416929Y197047D02*
D03*
X414961Y191142D02*
D03*
X416929Y193110D02*
D03*
X414961Y187205D02*
D03*
X416929Y189173D02*
D03*
X414961Y183268D02*
D03*
X416929Y185236D02*
D03*
Y181299D02*
D03*
Y177362D02*
D03*
X470079Y83268D02*
D03*
X410040Y111319D02*
D03*
X443504Y97047D02*
D03*
X458268Y83268D02*
D03*
X468110Y85236D02*
D03*
X466142Y83268D02*
D03*
X476969Y126575D02*
D03*
Y129528D02*
D03*
X474016Y91142D02*
D03*
X461221Y100984D02*
D03*
X475984Y104921D02*
D03*
X474016Y108858D02*
D03*
X454331D02*
D03*
X464173Y89173D02*
D03*
X470079Y93110D02*
D03*
X474016Y114764D02*
D03*
X533071Y66535D02*
D03*
X139370Y271260D02*
D03*
X268307Y270276D02*
D03*
X215158Y280118D02*
D03*
X494685Y213189D02*
D03*
X333268Y270276D02*
D03*
X95079Y149213D02*
D03*
X456299Y262402D02*
D03*
X233858Y263386D02*
D03*
X410040Y90649D02*
D03*
X441536Y249606D02*
D03*
X444488D02*
D03*
X102953Y170866D02*
D03*
X303740Y265354D02*
D03*
X395125Y261267D02*
D03*
X341142Y277165D02*
D03*
X397244Y263386D02*
D03*
X391339Y261417D02*
D03*
X131496Y262402D02*
D03*
X230906Y263386D02*
D03*
X382480Y280118D02*
D03*
X101969Y264370D02*
D03*
X447441Y66535D02*
D03*
X98032Y200394D02*
D03*
X438583Y258465D02*
D03*
X449409Y64567D02*
D03*
X451378Y66535D02*
D03*
X288977Y265354D02*
D03*
X264370Y270276D02*
D03*
X472047Y258465D02*
D03*
X329331Y270276D02*
D03*
X100984Y140354D02*
D03*
X299803Y265354D02*
D03*
X165945Y285039D02*
D03*
X242717Y257480D02*
D03*
X98032Y226969D02*
D03*
X133465Y288976D02*
D03*
X312598Y265354D02*
D03*
X112795Y272244D02*
D03*
X103937Y209252D02*
D03*
X108858Y290945D02*
D03*
X91142Y104921D02*
D03*
X337205Y270276D02*
D03*
X98032Y209252D02*
D03*
X131496Y283071D02*
D03*
X100984Y226969D02*
D03*
X497638Y244685D02*
D03*
X272244Y270276D02*
D03*
X113780Y288976D02*
D03*
X470079Y256496D02*
D03*
X478937Y362008D02*
D03*
X191043Y530807D02*
D03*
X474016Y524409D02*
D03*
X477953D02*
D03*
X148228Y534252D02*
D03*
X500591Y529331D02*
D03*
X482874Y500787D02*
D03*
X483858Y481102D02*
D03*
X511417Y388090D02*
D03*
Y374311D02*
D03*
X439567Y544095D02*
D03*
Y531299D02*
D03*
X427756Y524409D02*
D03*
X416929Y479724D02*
D03*
X511417Y360531D02*
D03*
Y346752D02*
D03*
Y332973D02*
D03*
X523228Y329528D02*
D03*
X502067Y310827D02*
D03*
X467126Y328543D02*
D03*
X431693Y347244D02*
D03*
X488287Y310827D02*
D03*
X467618D02*
D03*
X481398D02*
D03*
X425295D02*
D03*
X432185D02*
D03*
X415945Y544095D02*
D03*
X415896Y531250D02*
D03*
X393307Y526378D02*
D03*
X414961Y481693D02*
D03*
X207283Y538189D02*
D03*
X131496Y540158D02*
D03*
Y542126D02*
D03*
X115748D02*
D03*
Y540158D02*
D03*
X157087Y534252D02*
D03*
X115748Y538189D02*
D03*
X131496D02*
D03*
X98032Y481102D02*
D03*
X93110Y494882D02*
D03*
X91142Y442717D02*
D03*
X414961Y414764D02*
D03*
X410040Y367421D02*
D03*
Y360531D02*
D03*
Y326083D02*
D03*
Y332973D02*
D03*
X98032Y401378D02*
D03*
X95079Y437795D02*
D03*
X98032Y412205D02*
D03*
X95079Y429921D02*
D03*
Y433858D02*
D03*
X92126Y425000D02*
D03*
X98032Y311811D02*
D03*
X92126D02*
D03*
X95079D02*
D03*
X100984D02*
D03*
X98032Y308858D02*
D03*
X100984D02*
D03*
X92126D02*
D03*
X95079D02*
D03*
X91142Y375787D02*
D03*
X58662Y329528D02*
D03*
X91142Y360039D02*
D03*
X223032Y525394D02*
D03*
X468110Y524409D02*
D03*
X466142Y522441D02*
D03*
X405118Y386614D02*
D03*
X494685Y407283D02*
D03*
X407087Y503740D02*
D03*
X412008D02*
D03*
X482874Y516535D02*
D03*
X485827D02*
D03*
X497638Y360531D02*
D03*
Y353642D02*
D03*
X493701Y402362D02*
D03*
X490748D02*
D03*
X459252Y328543D02*
D03*
X407087Y508661D02*
D03*
Y522441D02*
D03*
X504528Y318701D02*
D03*
X428740Y345276D02*
D03*
X462205Y377756D02*
D03*
X507480Y316732D02*
D03*
X403150Y374803D02*
D03*
X429725Y361024D02*
D03*
X414961Y477756D02*
D03*
X407087Y428543D02*
D03*
X412992Y403346D02*
D03*
Y397441D02*
D03*
X414961Y418701D02*
D03*
Y422638D02*
D03*
X452362Y358071D02*
D03*
X450394Y352165D02*
D03*
X443504Y354134D02*
D03*
X407087Y440354D02*
D03*
Y436417D02*
D03*
Y432480D02*
D03*
X414961Y442323D02*
D03*
X459252Y390551D02*
D03*
X455315D02*
D03*
X426772Y364961D02*
D03*
X422835Y354134D02*
D03*
Y367913D02*
D03*
X459252Y332480D02*
D03*
X451870Y346260D02*
D03*
X497638Y341339D02*
D03*
X497638Y338386D02*
D03*
X444488Y370866D02*
D03*
X454331Y374803D02*
D03*
X414961Y473819D02*
D03*
X416929Y475787D02*
D03*
X414961Y469882D02*
D03*
X416929Y471850D02*
D03*
X414961Y465945D02*
D03*
X416929Y467913D02*
D03*
X414961Y462008D02*
D03*
X416929Y463976D02*
D03*
X414961Y458071D02*
D03*
X416929Y460039D02*
D03*
X414961Y454134D02*
D03*
X416929Y456102D02*
D03*
X414961Y450197D02*
D03*
X416929Y452165D02*
D03*
X414961Y446260D02*
D03*
X416929Y448228D02*
D03*
Y444291D02*
D03*
Y440354D02*
D03*
X470079Y346260D02*
D03*
X410040Y374311D02*
D03*
X443504Y360039D02*
D03*
X458268Y346260D02*
D03*
X468110Y348228D02*
D03*
X466142Y346260D02*
D03*
X476969Y389567D02*
D03*
Y392520D02*
D03*
X474016Y354134D02*
D03*
X461221Y363976D02*
D03*
X475984Y367913D02*
D03*
X474016Y371850D02*
D03*
X454331D02*
D03*
X464173Y352165D02*
D03*
X470079Y356102D02*
D03*
X474016Y377756D02*
D03*
X533071Y329528D02*
D03*
X139370Y534252D02*
D03*
X268307Y533268D02*
D03*
X215158Y543110D02*
D03*
X494685Y476181D02*
D03*
X333268Y533268D02*
D03*
X95079Y412205D02*
D03*
X456299Y525394D02*
D03*
X233858Y526378D02*
D03*
X410040Y353642D02*
D03*
X441536Y512598D02*
D03*
X444488D02*
D03*
X102953Y433858D02*
D03*
X303740Y528346D02*
D03*
X395125Y524259D02*
D03*
X341142Y540158D02*
D03*
X397244Y526378D02*
D03*
X391339Y524409D02*
D03*
X131496Y525394D02*
D03*
X230906Y526378D02*
D03*
X382480Y543110D02*
D03*
X101969Y527362D02*
D03*
X447441Y329528D02*
D03*
X98032Y463386D02*
D03*
X438583Y521457D02*
D03*
X449409Y327559D02*
D03*
X451378Y329528D02*
D03*
X288977Y528346D02*
D03*
X264370Y533268D02*
D03*
X472047Y521457D02*
D03*
X329331Y533268D02*
D03*
X100984Y403346D02*
D03*
X299803Y528346D02*
D03*
X165945Y548032D02*
D03*
X242717Y520472D02*
D03*
X98032Y489961D02*
D03*
X133465Y551968D02*
D03*
X312598Y528346D02*
D03*
X112795Y535236D02*
D03*
X103937Y472244D02*
D03*
X108858Y553937D02*
D03*
X91142Y367913D02*
D03*
X337205Y533268D02*
D03*
X98032Y472244D02*
D03*
X131496Y546063D02*
D03*
X100984Y489961D02*
D03*
X497638Y507677D02*
D03*
X272244Y533268D02*
D03*
X113780Y551968D02*
D03*
X470079Y519488D02*
D03*
D47*
X523228Y59646D02*
D03*
X58662D02*
D03*
X68504D02*
D03*
X533071D02*
D03*
X78347D02*
D03*
X542913D02*
D03*
X523228Y322638D02*
D03*
X58662D02*
D03*
X68504D02*
D03*
X533071D02*
D03*
X78347D02*
D03*
X542913D02*
D03*
D48*
X123622Y277165D02*
D03*
Y540158D02*
D03*
M02*
