G04*
G04 #@! TF.GenerationSoftware,Altium Limited,Altium Designer,26.2.0 (7)*
G04*
G04 Layer_Color=65535*
%FSLAX25Y25*%
%MOIN*%
G70*
G04*
G04 #@! TF.SameCoordinates,C1DC15CB-83B7-4C2E-A4F0-DD83A037BBA0*
G04*
G04*
G04 #@! TF.FilePolarity,Positive*
G04*
G01*
G75*
%ADD36C,0.00787*%
%ADD49C,0.00984*%
%ADD50C,0.00591*%
D36*
X450394Y287008D02*
G03*
X446457Y290945I-3937J0D01*
G01*
Y246654D02*
G03*
X450394Y250591I0J3937D01*
G01*
X409055Y290945D02*
G03*
X405118Y287008I0J-3937D01*
G01*
Y250591D02*
G03*
X409055Y246654I3937J0D01*
G01*
X106890Y287008D02*
G03*
X102953Y290945I-3937J0D01*
G01*
Y114764D02*
G03*
X106890Y118701I0J3937D01*
G01*
X93110Y290945D02*
G03*
X89173Y287008I0J-3937D01*
G01*
Y118701D02*
G03*
X93110Y114764I3937J0D01*
G01*
X512402Y287008D02*
G03*
X508465Y290945I-3937J0D01*
G01*
Y246654D02*
G03*
X512402Y250591I0J3937D01*
G01*
X458268Y290945D02*
G03*
X454331Y287008I0J-3937D01*
G01*
Y250591D02*
G03*
X458268Y246654I3937J0D01*
G01*
X472047Y242717D02*
G03*
X468110Y238779I0J-3937D01*
G01*
X512402D02*
G03*
X508465Y242717I-3937J0D01*
G01*
X468110Y204331D02*
G03*
X472047Y200394I3937J0D01*
G01*
X508465D02*
G03*
X512402Y204331I0J3937D01*
G01*
X380512Y290945D02*
G03*
X376575Y287008I0J-3937D01*
G01*
X401181D02*
G03*
X397244Y290945I-3937J0D01*
G01*
X376575Y263386D02*
G03*
X380512Y259449I3937J0D01*
G01*
X397244D02*
G03*
X401181Y263386I0J3937D01*
G01*
X225000Y287008D02*
G03*
X221063Y290945I-3937J0D01*
G01*
Y259449D02*
G03*
X225000Y263386I0J3937D01*
G01*
X171851Y290945D02*
G03*
X167913Y287008I0J-3937D01*
G01*
Y263386D02*
G03*
X171851Y259449I3937J0D01*
G01*
X163977Y287008D02*
G03*
X160039Y290945I-3937J0D01*
G01*
Y259449D02*
G03*
X163977Y263386I0J3937D01*
G01*
X114764Y290945D02*
G03*
X110827Y287008I0J-3937D01*
G01*
Y263386D02*
G03*
X114764Y259449I3937J0D01*
G01*
X495669Y129528D02*
G03*
X491732Y133465I-3937J0D01*
G01*
Y62598D02*
G03*
X495669Y66535I0J3937D01*
G01*
X428740Y133465D02*
G03*
X424803Y129528I0J-3937D01*
G01*
Y66535D02*
G03*
X428740Y62598I3937J0D01*
G01*
X472047Y196457D02*
G03*
X468110Y192520I0J-3937D01*
G01*
Y141339D02*
G03*
X472047Y137402I3937J0D01*
G01*
X89173Y46850D02*
G03*
X93110Y42913I3937J0D01*
G01*
X266339Y263386D02*
G03*
X270276Y259449I3937J0D01*
G01*
X258465D02*
G03*
X262402Y263386I0J3937D01*
G01*
X368701Y259449D02*
G03*
X372638Y263386I0J3937D01*
G01*
X331299Y259449D02*
G03*
X335236Y263386I0J3937D01*
G01*
X228937D02*
G03*
X232874Y259449I3937J0D01*
G01*
X339173Y263386D02*
G03*
X343110Y259449I3937J0D01*
G01*
X464173Y238779D02*
G03*
X460236Y242717I-3937J0D01*
G01*
X458268Y137402D02*
G03*
X464173Y143307I0J5906D01*
G01*
X409055Y246654D02*
X446457D01*
X409055Y290945D02*
X446457D01*
X450394Y250591D02*
Y287008D01*
X405118Y250591D02*
Y287008D01*
X93110Y114764D02*
X102953D01*
X93110Y290945D02*
X102953D01*
X106890Y118701D02*
Y287008D01*
X89173Y118701D02*
Y287008D01*
X458268Y246654D02*
X508465D01*
X458268Y290945D02*
X508465D01*
X512402Y250591D02*
Y287008D01*
X454331Y250591D02*
Y287008D01*
X512402Y204331D02*
Y238779D01*
X468110Y204331D02*
Y238779D01*
X472047Y242717D02*
X508465D01*
X472047Y200394D02*
X508465D01*
X401181Y263386D02*
Y287008D01*
X376575Y263386D02*
Y287008D01*
X380512Y290945D02*
X397244D01*
X380512Y259449D02*
X397244D01*
X171851D02*
X221063D01*
X171851Y290945D02*
X221063D01*
X225000Y263386D02*
Y287008D01*
X167913Y263386D02*
Y287008D01*
X114764Y259449D02*
X160039D01*
X114764Y290945D02*
X160039D01*
X163977Y263386D02*
Y287008D01*
X110827Y263386D02*
Y287008D01*
X428740Y62598D02*
X491732D01*
X428740Y133465D02*
X491732D01*
X495669Y66535D02*
Y129528D01*
X424803Y66535D02*
Y129528D01*
X475197Y79921D02*
X478346D01*
Y83071D01*
X442126Y79921D02*
Y83071D01*
Y79921D02*
X445276D01*
X442126Y116142D02*
X445276D01*
X442126Y112992D02*
Y116142D01*
X478346Y112992D02*
Y116142D01*
X475197D02*
X478346D01*
X428150Y141929D02*
X431693D01*
X428150Y238386D02*
X431693D01*
X412205Y231496D02*
Y238386D01*
X414961D01*
X412205Y141929D02*
Y148819D01*
Y141929D02*
X414961D01*
X468110Y141339D02*
Y192520D01*
X472047Y196457D02*
X500394D01*
X472047Y137402D02*
X500394D01*
X512402Y147244D02*
Y186614D01*
X484055Y270866D02*
X486417D01*
Y277362D01*
X459646Y270866D02*
X462008D01*
X459646D02*
Y277362D01*
X436614Y60039D02*
X456299D01*
X436614Y47441D02*
X456299D01*
X104725Y164961D02*
Y176772D01*
X91339Y164961D02*
Y176772D01*
Y164961D02*
X93307D01*
X102756D02*
X104725D01*
X58662Y90158D02*
X78347D01*
X58662Y119685D02*
X78347D01*
X58662Y109843D02*
X78347D01*
X58662Y100000D02*
X78347D01*
X129725Y272638D02*
Y281693D01*
X117520Y272638D02*
Y281693D01*
X483465Y208268D02*
X496063D01*
X483465Y227953D02*
X496063D01*
X425787Y256299D02*
X429725D01*
X425787Y268504D02*
X429725D01*
X395473Y274213D02*
Y278150D01*
X383268Y274213D02*
Y278150D01*
X96063Y143110D02*
X100000D01*
X96063Y155315D02*
X100000D01*
X221063Y277362D02*
Y281299D01*
X217914Y277362D02*
X221063D01*
X209252D02*
Y281299D01*
Y277362D02*
X212402D01*
X205315D02*
Y281299D01*
X202165Y277362D02*
X205315D01*
X193504D02*
Y281299D01*
Y277362D02*
X196654D01*
X95276Y221063D02*
X99213D01*
X95276D02*
Y224213D01*
Y232874D02*
X99213D01*
X95276Y229724D02*
Y232874D01*
Y203346D02*
X99213D01*
X95276D02*
Y206496D01*
Y215158D02*
X99213D01*
X95276Y212008D02*
Y215158D01*
X339173Y263386D02*
Y290945D01*
X335236Y263386D02*
Y290945D01*
X266339Y263386D02*
Y290945D01*
X262402Y263386D02*
Y290945D01*
X228937Y263386D02*
Y290945D01*
X372638Y263386D02*
Y290945D01*
X424803Y273721D02*
X425787Y274705D01*
Y271752D02*
Y274705D01*
X426772Y273721D01*
X428740Y271752D02*
X429724Y272736D01*
X427756D02*
X428740Y271752D01*
Y274705D01*
X93110Y42913D02*
X106890D01*
X89173Y46850D02*
Y89173D01*
X270276Y259449D02*
X331299D01*
X232874D02*
X258465D01*
X343110D02*
X368701D01*
X464173Y142913D02*
Y238780D01*
X434646Y242717D02*
X460236D01*
X434646Y137401D02*
X458268D01*
X82284Y113414D02*
Y116113D01*
X92699Y119394D02*
X94386D01*
X94948Y119581D01*
X95136Y119769D01*
X95323Y120144D01*
Y120706D01*
X95136Y121081D01*
X94948Y121268D01*
X94386Y121456D01*
X92699D01*
Y117520D01*
X96204Y121456D02*
X97141Y117520D01*
X98078Y121456D02*
X97141Y117520D01*
X98078Y121456D02*
X99016Y117520D01*
X99953Y121456D02*
X99016Y117520D01*
X100740Y121456D02*
Y117520D01*
Y121456D02*
X102427D01*
X102989Y121268D01*
X103177Y121081D01*
X103364Y120706D01*
Y120331D01*
X103177Y119956D01*
X102989Y119769D01*
X102427Y119581D01*
X100740D01*
X102052D02*
X103364Y117520D01*
X80316Y104921D02*
X83465D01*
X80316Y103872D02*
Y105971D01*
X80766Y95079D02*
X83465D01*
X82115Y93729D02*
Y96428D01*
X408858Y253346D02*
Y249410D01*
Y253346D02*
X410545D01*
X411108Y253158D01*
X411295Y252971D01*
X411482Y252596D01*
Y252221D01*
X411295Y251846D01*
X411108Y251659D01*
X410545Y251471D01*
X408858D02*
X410545D01*
X411108Y251284D01*
X411295Y251096D01*
X411482Y250722D01*
Y250159D01*
X411295Y249784D01*
X411108Y249597D01*
X410545Y249410D01*
X408858D01*
X415362D02*
X413863Y253346D01*
X412363Y249410D01*
X412926Y250722D02*
X414800D01*
X419092Y252408D02*
X418905Y252783D01*
X418530Y253158D01*
X418155Y253346D01*
X417405D01*
X417031Y253158D01*
X416656Y252783D01*
X416468Y252408D01*
X416281Y251846D01*
Y250909D01*
X416468Y250347D01*
X416656Y249972D01*
X417031Y249597D01*
X417405Y249410D01*
X418155D01*
X418530Y249597D01*
X418905Y249972D01*
X419092Y250347D01*
X420198Y253346D02*
Y249410D01*
X422822Y253346D02*
X420198Y250722D01*
X421135Y251659D02*
X422822Y249410D01*
X423703Y253346D02*
Y249410D01*
X425952D01*
X426384Y253346D02*
Y249410D01*
X430020Y252408D02*
X429833Y252783D01*
X429458Y253158D01*
X429083Y253346D01*
X428333D01*
X427958Y253158D01*
X427583Y252783D01*
X427396Y252408D01*
X427208Y251846D01*
Y250909D01*
X427396Y250347D01*
X427583Y249972D01*
X427958Y249597D01*
X428333Y249410D01*
X429083D01*
X429458Y249597D01*
X429833Y249972D01*
X430020Y250347D01*
Y250909D01*
X429083D02*
X430020D01*
X430920Y253346D02*
Y249410D01*
X433544Y253346D02*
Y249410D01*
X430920Y251471D02*
X433544D01*
X435943Y253346D02*
Y249410D01*
X434631Y253346D02*
X437255D01*
X191401Y266141D02*
Y262205D01*
Y266141D02*
X193088D01*
X193650Y265953D01*
X193838Y265766D01*
X194025Y265391D01*
Y265016D01*
X193838Y264641D01*
X193650Y264454D01*
X193088Y264266D01*
X191401D02*
X193088D01*
X193650Y264079D01*
X193838Y263892D01*
X194025Y263517D01*
Y262954D01*
X193838Y262580D01*
X193650Y262392D01*
X193088Y262205D01*
X191401D01*
X197905D02*
X196406Y266141D01*
X194906Y262205D01*
X195469Y263517D02*
X197343D01*
X200136Y266141D02*
Y262205D01*
X198824Y266141D02*
X201448D01*
X207633Y265579D02*
X207258Y265953D01*
X206696Y266141D01*
X205946D01*
X205384Y265953D01*
X205009Y265579D01*
Y265204D01*
X205197Y264829D01*
X205384Y264641D01*
X205759Y264454D01*
X206884Y264079D01*
X207258Y263892D01*
X207446Y263704D01*
X207633Y263329D01*
Y262767D01*
X207258Y262392D01*
X206696Y262205D01*
X205946D01*
X205384Y262392D01*
X205009Y262767D01*
X210951Y266141D02*
X208514D01*
Y262205D01*
X210951D01*
X208514Y264266D02*
X210014D01*
X211607Y266141D02*
Y262205D01*
Y266141D02*
X214231Y262205D01*
Y266141D02*
Y262205D01*
X217942Y265579D02*
X217567Y265953D01*
X217005Y266141D01*
X216255D01*
X215693Y265953D01*
X215318Y265579D01*
Y265204D01*
X215506Y264829D01*
X215693Y264641D01*
X216068Y264454D01*
X217193Y264079D01*
X217567Y263892D01*
X217755Y263704D01*
X217942Y263329D01*
Y262767D01*
X217567Y262392D01*
X217005Y262205D01*
X216255D01*
X215693Y262392D01*
X215318Y262767D01*
X221260Y266141D02*
X218823D01*
Y262205D01*
X221260D01*
X218823Y264266D02*
X220323D01*
X138569Y265204D02*
X138381Y265579D01*
X138006Y265953D01*
X137631Y266141D01*
X136882D01*
X136507Y265953D01*
X136132Y265579D01*
X135945Y265204D01*
X135757Y264641D01*
Y263704D01*
X135945Y263142D01*
X136132Y262767D01*
X136507Y262392D01*
X136882Y262205D01*
X137631D01*
X138006Y262392D01*
X138381Y262767D01*
X138569Y263142D01*
X139674Y266141D02*
Y262205D01*
X142299Y266141D02*
Y262205D01*
X139674Y264266D02*
X142299D01*
X146385Y262205D02*
X144885Y266141D01*
X143386Y262205D01*
X143948Y263517D02*
X145822D01*
X147303Y266141D02*
Y262205D01*
Y266141D02*
X148990D01*
X149552Y265953D01*
X149740Y265766D01*
X149927Y265391D01*
Y265016D01*
X149740Y264641D01*
X149552Y264454D01*
X148990Y264266D01*
X147303D01*
X148615D02*
X149927Y262205D01*
X153620Y265204D02*
X153432Y265579D01*
X153058Y265953D01*
X152683Y266141D01*
X151933D01*
X151558Y265953D01*
X151183Y265579D01*
X150996Y265204D01*
X150808Y264641D01*
Y263704D01*
X150996Y263142D01*
X151183Y262767D01*
X151558Y262392D01*
X151933Y262205D01*
X152683D01*
X153058Y262392D01*
X153432Y262767D01*
X153620Y263142D01*
Y263704D01*
X152683D02*
X153620D01*
X156956Y266141D02*
X154519D01*
Y262205D01*
X156956D01*
X154519Y264266D02*
X156019D01*
X157612Y266141D02*
Y262205D01*
Y266141D02*
X159299D01*
X159861Y265953D01*
X160049Y265766D01*
X160236Y265391D01*
Y265016D01*
X160049Y264641D01*
X159861Y264454D01*
X159299Y264266D01*
X157612D01*
X158924D02*
X160236Y262205D01*
X458071Y253346D02*
Y249410D01*
Y253346D02*
X459383D01*
X459945Y253158D01*
X460320Y252783D01*
X460508Y252408D01*
X460695Y251846D01*
Y250909D01*
X460508Y250347D01*
X460320Y249972D01*
X459945Y249597D01*
X459383Y249410D01*
X458071D01*
X464013Y253346D02*
X461576D01*
Y249410D01*
X464013D01*
X461576Y251471D02*
X463075D01*
X464669Y253346D02*
Y249410D01*
Y253346D02*
X466356D01*
X466918Y253158D01*
X467105Y252971D01*
X467293Y252596D01*
Y252221D01*
X467105Y251846D01*
X466918Y251659D01*
X466356Y251471D01*
X464669D02*
X466356D01*
X466918Y251284D01*
X467105Y251096D01*
X467293Y250722D01*
Y250159D01*
X467105Y249784D01*
X466918Y249597D01*
X466356Y249410D01*
X464669D01*
X468174Y253346D02*
Y250534D01*
X468361Y249972D01*
X468736Y249597D01*
X469298Y249410D01*
X469673D01*
X470236Y249597D01*
X470610Y249972D01*
X470798Y250534D01*
Y253346D01*
X474697Y252408D02*
X474509Y252783D01*
X474134Y253158D01*
X473759Y253346D01*
X473010D01*
X472635Y253158D01*
X472260Y252783D01*
X472072Y252408D01*
X471885Y251846D01*
Y250909D01*
X472072Y250347D01*
X472260Y249972D01*
X472635Y249597D01*
X473010Y249410D01*
X473759D01*
X474134Y249597D01*
X474509Y249972D01*
X474697Y250347D01*
Y250909D01*
X473759D02*
X474697D01*
X382752Y266141D02*
X380315D01*
Y262205D01*
X382752D01*
X380315Y264266D02*
X381815D01*
X386032Y265579D02*
X385657Y265953D01*
X385095Y266141D01*
X384345D01*
X383783Y265953D01*
X383408Y265579D01*
Y265204D01*
X383595Y264829D01*
X383783Y264641D01*
X384157Y264454D01*
X385282Y264079D01*
X385657Y263892D01*
X385844Y263704D01*
X386032Y263329D01*
Y262767D01*
X385657Y262392D01*
X385095Y262205D01*
X384345D01*
X383783Y262392D01*
X383408Y262767D01*
X386913Y266141D02*
Y262205D01*
Y266141D02*
X388225D01*
X388787Y265953D01*
X389162Y265579D01*
X389350Y265204D01*
X389537Y264641D01*
Y263704D01*
X389350Y263142D01*
X389162Y262767D01*
X388787Y262392D01*
X388225Y262205D01*
X386913D01*
X428543Y130709D02*
Y126772D01*
Y130709D02*
X430043Y126772D01*
X431542Y130709D02*
X430043Y126772D01*
X431542Y130709D02*
Y126772D01*
X435478Y129771D02*
X435291Y130146D01*
X434916Y130521D01*
X434541Y130709D01*
X433792D01*
X433417Y130521D01*
X433042Y130146D01*
X432854Y129771D01*
X432667Y129209D01*
Y128272D01*
X432854Y127710D01*
X433042Y127335D01*
X433417Y126960D01*
X433792Y126772D01*
X434541D01*
X434916Y126960D01*
X435291Y127335D01*
X435478Y127710D01*
X436584Y130709D02*
Y127897D01*
X436772Y127335D01*
X437147Y126960D01*
X437709Y126772D01*
X438084D01*
X438646Y126960D01*
X439021Y127335D01*
X439209Y127897D01*
Y130709D01*
X474849Y203150D02*
X473350Y207086D01*
X471850Y203150D01*
X472413Y204462D02*
X474287D01*
X475768Y207086D02*
Y203150D01*
Y207086D02*
X477267Y203150D01*
X478767Y207086D02*
X477267Y203150D01*
X478767Y207086D02*
Y203150D01*
X479891Y205024D02*
X481578D01*
X482141Y205211D01*
X482328Y205399D01*
X482516Y205774D01*
Y206336D01*
X482328Y206711D01*
X482141Y206898D01*
X481578Y207086D01*
X479891D01*
Y203150D01*
X474475Y192744D02*
X474100Y193119D01*
X473537Y193306D01*
X472788D01*
X472225Y193119D01*
X471850Y192744D01*
Y192369D01*
X472038Y191994D01*
X472225Y191807D01*
X472600Y191619D01*
X473725Y191244D01*
X474100Y191057D01*
X474287Y190870D01*
X474475Y190495D01*
Y189932D01*
X474100Y189558D01*
X473537Y189370D01*
X472788D01*
X472225Y189558D01*
X471850Y189932D01*
X475355Y191244D02*
X477042D01*
X477605Y191432D01*
X477792Y191619D01*
X477980Y191994D01*
Y192557D01*
X477792Y192931D01*
X477605Y193119D01*
X477042Y193306D01*
X475355D01*
Y189370D01*
X481297Y193306D02*
X478861D01*
Y189370D01*
X481297D01*
X478861Y191432D02*
X480360D01*
X484952Y189370D02*
X483453Y193306D01*
X481953Y189370D01*
X482516Y190682D02*
X484390D01*
X485871Y193306D02*
Y189370D01*
X488495Y193306D02*
X485871Y190682D01*
X486808Y191619D02*
X488495Y189370D01*
X491812Y193306D02*
X489376D01*
Y189370D01*
X491812D01*
X489376Y191432D02*
X490875D01*
X492469Y193306D02*
Y189370D01*
Y193306D02*
X494155D01*
X494718Y193119D01*
X494905Y192931D01*
X495093Y192557D01*
Y192182D01*
X494905Y191807D01*
X494718Y191619D01*
X494155Y191432D01*
X492469D01*
X493781D02*
X495093Y189370D01*
X445080Y174872D02*
X450591D01*
Y178021D01*
X446392Y182561D02*
X445867Y182298D01*
X445342Y181774D01*
X445080Y181249D01*
Y180199D01*
X445342Y179674D01*
X445867Y179149D01*
X446392Y178887D01*
X447179Y178625D01*
X448491D01*
X449279Y178887D01*
X449803Y179149D01*
X450328Y179674D01*
X450591Y180199D01*
Y181249D01*
X450328Y181774D01*
X449803Y182298D01*
X449279Y182561D01*
X445080Y184109D02*
X450591D01*
X445080D02*
Y185946D01*
X445342Y186733D01*
X445867Y187258D01*
X446392Y187520D01*
X447179Y187783D01*
X448491D01*
X449279Y187520D01*
X449803Y187258D01*
X450328Y186733D01*
X450591Y185946D01*
Y184109D01*
X445080Y193346D02*
X450591D01*
X445080D02*
Y196757D01*
X447704Y193346D02*
Y195445D01*
X447966Y197387D02*
Y199749D01*
X447704Y200536D01*
X447442Y200798D01*
X446917Y201061D01*
X446130D01*
X445605Y200798D01*
X445342Y200536D01*
X445080Y199749D01*
Y197387D01*
X450591D01*
X446392Y206230D02*
X445867Y205968D01*
X445342Y205443D01*
X445080Y204918D01*
Y203869D01*
X445342Y203344D01*
X445867Y202819D01*
X446392Y202556D01*
X447179Y202294D01*
X448491D01*
X449279Y202556D01*
X449803Y202819D01*
X450328Y203344D01*
X450591Y203869D01*
Y204918D01*
X450328Y205443D01*
X449803Y205968D01*
X449279Y206230D01*
X450394Y550000D02*
G03*
X446457Y553937I-3937J0D01*
G01*
Y509646D02*
G03*
X450394Y513583I0J3937D01*
G01*
X409055Y553937D02*
G03*
X405118Y550000I0J-3937D01*
G01*
Y513583D02*
G03*
X409055Y509646I3937J0D01*
G01*
X106890Y550000D02*
G03*
X102953Y553937I-3937J0D01*
G01*
Y377756D02*
G03*
X106890Y381693I0J3937D01*
G01*
X93110Y553937D02*
G03*
X89173Y550000I0J-3937D01*
G01*
Y381693D02*
G03*
X93110Y377756I3937J0D01*
G01*
X512402Y550000D02*
G03*
X508465Y553937I-3937J0D01*
G01*
Y509646D02*
G03*
X512402Y513583I0J3937D01*
G01*
X458268Y553937D02*
G03*
X454331Y550000I0J-3937D01*
G01*
Y513583D02*
G03*
X458268Y509646I3937J0D01*
G01*
X472047Y505709D02*
G03*
X468110Y501772I0J-3937D01*
G01*
X512402D02*
G03*
X508465Y505709I-3937J0D01*
G01*
X468110Y467323D02*
G03*
X472047Y463386I3937J0D01*
G01*
X508465D02*
G03*
X512402Y467323I0J3937D01*
G01*
X380512Y553937D02*
G03*
X376575Y550000I0J-3937D01*
G01*
X401181D02*
G03*
X397244Y553937I-3937J0D01*
G01*
X376575Y526378D02*
G03*
X380512Y522441I3937J0D01*
G01*
X397244D02*
G03*
X401181Y526378I0J3937D01*
G01*
X225000Y550000D02*
G03*
X221063Y553937I-3937J0D01*
G01*
Y522441D02*
G03*
X225000Y526378I0J3937D01*
G01*
X171851Y553937D02*
G03*
X167913Y550000I0J-3937D01*
G01*
Y526378D02*
G03*
X171851Y522441I3937J0D01*
G01*
X163977Y550000D02*
G03*
X160039Y553937I-3937J0D01*
G01*
Y522441D02*
G03*
X163977Y526378I0J3937D01*
G01*
X114764Y553937D02*
G03*
X110827Y550000I0J-3937D01*
G01*
Y526378D02*
G03*
X114764Y522441I3937J0D01*
G01*
X495669Y392520D02*
G03*
X491732Y396457I-3937J0D01*
G01*
Y325591D02*
G03*
X495669Y329528I0J3937D01*
G01*
X428740Y396457D02*
G03*
X424803Y392520I0J-3937D01*
G01*
Y329528D02*
G03*
X428740Y325591I3937J0D01*
G01*
X472047Y459449D02*
G03*
X468110Y455512I0J-3937D01*
G01*
Y404331D02*
G03*
X472047Y400394I3937J0D01*
G01*
X89173Y309842D02*
G03*
X93110Y305906I3937J0D01*
G01*
X266339Y526378D02*
G03*
X270276Y522441I3937J0D01*
G01*
X258465D02*
G03*
X262402Y526378I0J3937D01*
G01*
X368701Y522441D02*
G03*
X372638Y526378I0J3937D01*
G01*
X331299Y522441D02*
G03*
X335236Y526378I0J3937D01*
G01*
X228937D02*
G03*
X232874Y522441I3937J0D01*
G01*
X339173Y526378D02*
G03*
X343110Y522441I3937J0D01*
G01*
X464173Y501772D02*
G03*
X460236Y505709I-3937J0D01*
G01*
X458268Y400394D02*
G03*
X464173Y406299I0J5906D01*
G01*
X409055Y509646D02*
X446457D01*
X409055Y553937D02*
X446457D01*
X450394Y513583D02*
Y550000D01*
X405118Y513583D02*
Y550000D01*
X93110Y377756D02*
X102953D01*
X93110Y553937D02*
X102953D01*
X106890Y381693D02*
Y550000D01*
X89173Y381693D02*
Y550000D01*
X458268Y509646D02*
X508465D01*
X458268Y553937D02*
X508465D01*
X512402Y513583D02*
Y550000D01*
X454331Y513583D02*
Y550000D01*
X512402Y467323D02*
Y501772D01*
X468110Y467323D02*
Y501772D01*
X472047Y505709D02*
X508465D01*
X472047Y463386D02*
X508465D01*
X401181Y526378D02*
Y550000D01*
X376575Y526378D02*
Y550000D01*
X380512Y553937D02*
X397244D01*
X380512Y522441D02*
X397244D01*
X171851D02*
X221063D01*
X171851Y553937D02*
X221063D01*
X225000Y526378D02*
Y550000D01*
X167913Y526378D02*
Y550000D01*
X114764Y522441D02*
X160039D01*
X114764Y553937D02*
X160039D01*
X163977Y526378D02*
Y550000D01*
X110827Y526378D02*
Y550000D01*
X428740Y325591D02*
X491732D01*
X428740Y396457D02*
X491732D01*
X495669Y329528D02*
Y392520D01*
X424803Y329528D02*
Y392520D01*
X475197Y342913D02*
X478346D01*
Y346063D01*
X442126Y342913D02*
Y346063D01*
Y342913D02*
X445276D01*
X442126Y379134D02*
X445276D01*
X442126Y375984D02*
Y379134D01*
X478346Y375984D02*
Y379134D01*
X475197D02*
X478346D01*
X428150Y404921D02*
X431693D01*
X428150Y501378D02*
X431693D01*
X412205Y494488D02*
Y501378D01*
X414961D01*
X412205Y404921D02*
Y411811D01*
Y404921D02*
X414961D01*
X468110Y404331D02*
Y455512D01*
X472047Y459449D02*
X500394D01*
X472047Y400394D02*
X500394D01*
X512402Y410236D02*
Y449606D01*
X484055Y533858D02*
X486417D01*
Y540354D01*
X459646Y533858D02*
X462008D01*
X459646D02*
Y540354D01*
X436614Y323031D02*
X456299D01*
X436614Y310433D02*
X456299D01*
X104725Y427953D02*
Y439764D01*
X91339Y427953D02*
Y439764D01*
Y427953D02*
X93307D01*
X102756D02*
X104725D01*
X58662Y353150D02*
X78347D01*
X58662Y382677D02*
X78347D01*
X58662Y372835D02*
X78347D01*
X58662Y362992D02*
X78347D01*
X129725Y535630D02*
Y544685D01*
X117520Y535630D02*
Y544685D01*
X483465Y471260D02*
X496063D01*
X483465Y490945D02*
X496063D01*
X425787Y519291D02*
X429725D01*
X425787Y531496D02*
X429725D01*
X395473Y537205D02*
Y541142D01*
X383268Y537205D02*
Y541142D01*
X96063Y406102D02*
X100000D01*
X96063Y418307D02*
X100000D01*
X221063Y540354D02*
Y544291D01*
X217914Y540354D02*
X221063D01*
X209252D02*
Y544291D01*
Y540354D02*
X212402D01*
X205315D02*
Y544291D01*
X202165Y540354D02*
X205315D01*
X193504D02*
Y544291D01*
Y540354D02*
X196654D01*
X95276Y484055D02*
X99213D01*
X95276D02*
Y487205D01*
Y495866D02*
X99213D01*
X95276Y492717D02*
Y495866D01*
Y466339D02*
X99213D01*
X95276D02*
Y469488D01*
Y478150D02*
X99213D01*
X95276Y475000D02*
Y478150D01*
X339173Y526378D02*
Y553937D01*
X335236Y526378D02*
Y553937D01*
X266339Y526378D02*
Y553937D01*
X262402Y526378D02*
Y553937D01*
X228937Y526378D02*
Y553937D01*
X372638Y526378D02*
Y553937D01*
X424803Y536713D02*
X425787Y537697D01*
Y534744D02*
Y537697D01*
X426772Y536713D01*
X428740Y534744D02*
X429724Y535729D01*
X427756D02*
X428740Y534744D01*
Y537697D01*
X93110Y305906D02*
X106890D01*
X89173Y309842D02*
Y352165D01*
X270276Y522441D02*
X331299D01*
X232874D02*
X258465D01*
X343110D02*
X368701D01*
X464173Y405905D02*
Y501772D01*
X434646Y505709D02*
X460236D01*
X434646Y400394D02*
X458268D01*
X82284Y376406D02*
Y379105D01*
X92699Y382386D02*
X94386D01*
X94948Y382574D01*
X95136Y382761D01*
X95323Y383136D01*
Y383698D01*
X95136Y384073D01*
X94948Y384261D01*
X94386Y384448D01*
X92699D01*
Y380512D01*
X96204Y384448D02*
X97141Y380512D01*
X98078Y384448D02*
X97141Y380512D01*
X98078Y384448D02*
X99016Y380512D01*
X99953Y384448D02*
X99016Y380512D01*
X100740Y384448D02*
Y380512D01*
Y384448D02*
X102427D01*
X102989Y384261D01*
X103177Y384073D01*
X103364Y383698D01*
Y383323D01*
X103177Y382948D01*
X102989Y382761D01*
X102427Y382574D01*
X100740D01*
X102052D02*
X103364Y380512D01*
X80316Y367913D02*
X83465D01*
X80316Y366864D02*
Y368963D01*
X80766Y358071D02*
X83465D01*
X82115Y356721D02*
Y359420D01*
X408858Y516338D02*
Y512402D01*
Y516338D02*
X410545D01*
X411108Y516150D01*
X411295Y515963D01*
X411482Y515588D01*
Y515213D01*
X411295Y514838D01*
X411108Y514651D01*
X410545Y514463D01*
X408858D02*
X410545D01*
X411108Y514276D01*
X411295Y514088D01*
X411482Y513714D01*
Y513151D01*
X411295Y512777D01*
X411108Y512589D01*
X410545Y512402D01*
X408858D01*
X415362D02*
X413863Y516338D01*
X412363Y512402D01*
X412926Y513714D02*
X414800D01*
X419092Y515401D02*
X418905Y515775D01*
X418530Y516150D01*
X418155Y516338D01*
X417405D01*
X417031Y516150D01*
X416656Y515775D01*
X416468Y515401D01*
X416281Y514838D01*
Y513901D01*
X416468Y513339D01*
X416656Y512964D01*
X417031Y512589D01*
X417405Y512402D01*
X418155D01*
X418530Y512589D01*
X418905Y512964D01*
X419092Y513339D01*
X420198Y516338D02*
Y512402D01*
X422822Y516338D02*
X420198Y513714D01*
X421135Y514651D02*
X422822Y512402D01*
X423703Y516338D02*
Y512402D01*
X425952D01*
X426384Y516338D02*
Y512402D01*
X430020Y515401D02*
X429833Y515775D01*
X429458Y516150D01*
X429083Y516338D01*
X428333D01*
X427958Y516150D01*
X427583Y515775D01*
X427396Y515401D01*
X427208Y514838D01*
Y513901D01*
X427396Y513339D01*
X427583Y512964D01*
X427958Y512589D01*
X428333Y512402D01*
X429083D01*
X429458Y512589D01*
X429833Y512964D01*
X430020Y513339D01*
Y513901D01*
X429083D02*
X430020D01*
X430920Y516338D02*
Y512402D01*
X433544Y516338D02*
Y512402D01*
X430920Y514463D02*
X433544D01*
X435943Y516338D02*
Y512402D01*
X434631Y516338D02*
X437255D01*
X191401Y529133D02*
Y525197D01*
Y529133D02*
X193088D01*
X193650Y528946D01*
X193838Y528758D01*
X194025Y528383D01*
Y528008D01*
X193838Y527633D01*
X193650Y527446D01*
X193088Y527259D01*
X191401D02*
X193088D01*
X193650Y527071D01*
X193838Y526884D01*
X194025Y526509D01*
Y525947D01*
X193838Y525572D01*
X193650Y525384D01*
X193088Y525197D01*
X191401D01*
X197905D02*
X196406Y529133D01*
X194906Y525197D01*
X195469Y526509D02*
X197343D01*
X200136Y529133D02*
Y525197D01*
X198824Y529133D02*
X201448D01*
X207633Y528571D02*
X207258Y528946D01*
X206696Y529133D01*
X205946D01*
X205384Y528946D01*
X205009Y528571D01*
Y528196D01*
X205197Y527821D01*
X205384Y527633D01*
X205759Y527446D01*
X206884Y527071D01*
X207258Y526884D01*
X207446Y526696D01*
X207633Y526322D01*
Y525759D01*
X207258Y525384D01*
X206696Y525197D01*
X205946D01*
X205384Y525384D01*
X205009Y525759D01*
X210951Y529133D02*
X208514D01*
Y525197D01*
X210951D01*
X208514Y527259D02*
X210014D01*
X211607Y529133D02*
Y525197D01*
Y529133D02*
X214231Y525197D01*
Y529133D02*
Y525197D01*
X217942Y528571D02*
X217567Y528946D01*
X217005Y529133D01*
X216255D01*
X215693Y528946D01*
X215318Y528571D01*
Y528196D01*
X215506Y527821D01*
X215693Y527633D01*
X216068Y527446D01*
X217193Y527071D01*
X217567Y526884D01*
X217755Y526696D01*
X217942Y526322D01*
Y525759D01*
X217567Y525384D01*
X217005Y525197D01*
X216255D01*
X215693Y525384D01*
X215318Y525759D01*
X221260Y529133D02*
X218823D01*
Y525197D01*
X221260D01*
X218823Y527259D02*
X220323D01*
X138569Y528196D02*
X138381Y528571D01*
X138006Y528946D01*
X137631Y529133D01*
X136882D01*
X136507Y528946D01*
X136132Y528571D01*
X135945Y528196D01*
X135757Y527633D01*
Y526696D01*
X135945Y526134D01*
X136132Y525759D01*
X136507Y525384D01*
X136882Y525197D01*
X137631D01*
X138006Y525384D01*
X138381Y525759D01*
X138569Y526134D01*
X139674Y529133D02*
Y525197D01*
X142299Y529133D02*
Y525197D01*
X139674Y527259D02*
X142299D01*
X146385Y525197D02*
X144885Y529133D01*
X143386Y525197D01*
X143948Y526509D02*
X145822D01*
X147303Y529133D02*
Y525197D01*
Y529133D02*
X148990D01*
X149552Y528946D01*
X149740Y528758D01*
X149927Y528383D01*
Y528008D01*
X149740Y527633D01*
X149552Y527446D01*
X148990Y527259D01*
X147303D01*
X148615D02*
X149927Y525197D01*
X153620Y528196D02*
X153432Y528571D01*
X153058Y528946D01*
X152683Y529133D01*
X151933D01*
X151558Y528946D01*
X151183Y528571D01*
X150996Y528196D01*
X150808Y527633D01*
Y526696D01*
X150996Y526134D01*
X151183Y525759D01*
X151558Y525384D01*
X151933Y525197D01*
X152683D01*
X153058Y525384D01*
X153432Y525759D01*
X153620Y526134D01*
Y526696D01*
X152683D02*
X153620D01*
X156956Y529133D02*
X154519D01*
Y525197D01*
X156956D01*
X154519Y527259D02*
X156019D01*
X157612Y529133D02*
Y525197D01*
Y529133D02*
X159299D01*
X159861Y528946D01*
X160049Y528758D01*
X160236Y528383D01*
Y528008D01*
X160049Y527633D01*
X159861Y527446D01*
X159299Y527259D01*
X157612D01*
X158924D02*
X160236Y525197D01*
X458071Y516338D02*
Y512402D01*
Y516338D02*
X459383D01*
X459945Y516150D01*
X460320Y515775D01*
X460508Y515401D01*
X460695Y514838D01*
Y513901D01*
X460508Y513339D01*
X460320Y512964D01*
X459945Y512589D01*
X459383Y512402D01*
X458071D01*
X464013Y516338D02*
X461576D01*
Y512402D01*
X464013D01*
X461576Y514463D02*
X463075D01*
X464669Y516338D02*
Y512402D01*
Y516338D02*
X466356D01*
X466918Y516150D01*
X467105Y515963D01*
X467293Y515588D01*
Y515213D01*
X467105Y514838D01*
X466918Y514651D01*
X466356Y514463D01*
X464669D02*
X466356D01*
X466918Y514276D01*
X467105Y514088D01*
X467293Y513714D01*
Y513151D01*
X467105Y512777D01*
X466918Y512589D01*
X466356Y512402D01*
X464669D01*
X468174Y516338D02*
Y513526D01*
X468361Y512964D01*
X468736Y512589D01*
X469298Y512402D01*
X469673D01*
X470236Y512589D01*
X470610Y512964D01*
X470798Y513526D01*
Y516338D01*
X474697Y515401D02*
X474509Y515775D01*
X474134Y516150D01*
X473759Y516338D01*
X473010D01*
X472635Y516150D01*
X472260Y515775D01*
X472072Y515401D01*
X471885Y514838D01*
Y513901D01*
X472072Y513339D01*
X472260Y512964D01*
X472635Y512589D01*
X473010Y512402D01*
X473759D01*
X474134Y512589D01*
X474509Y512964D01*
X474697Y513339D01*
Y513901D01*
X473759D02*
X474697D01*
X382752Y529133D02*
X380315D01*
Y525197D01*
X382752D01*
X380315Y527259D02*
X381815D01*
X386032Y528571D02*
X385657Y528946D01*
X385095Y529133D01*
X384345D01*
X383783Y528946D01*
X383408Y528571D01*
Y528196D01*
X383595Y527821D01*
X383783Y527633D01*
X384157Y527446D01*
X385282Y527071D01*
X385657Y526884D01*
X385844Y526696D01*
X386032Y526322D01*
Y525759D01*
X385657Y525384D01*
X385095Y525197D01*
X384345D01*
X383783Y525384D01*
X383408Y525759D01*
X386913Y529133D02*
Y525197D01*
Y529133D02*
X388225D01*
X388787Y528946D01*
X389162Y528571D01*
X389350Y528196D01*
X389537Y527633D01*
Y526696D01*
X389350Y526134D01*
X389162Y525759D01*
X388787Y525384D01*
X388225Y525197D01*
X386913D01*
X428543Y393701D02*
Y389765D01*
Y393701D02*
X430043Y389765D01*
X431542Y393701D02*
X430043Y389765D01*
X431542Y393701D02*
Y389765D01*
X435478Y392764D02*
X435291Y393139D01*
X434916Y393513D01*
X434541Y393701D01*
X433792D01*
X433417Y393513D01*
X433042Y393139D01*
X432854Y392764D01*
X432667Y392201D01*
Y391264D01*
X432854Y390702D01*
X433042Y390327D01*
X433417Y389952D01*
X433792Y389765D01*
X434541D01*
X434916Y389952D01*
X435291Y390327D01*
X435478Y390702D01*
X436584Y393701D02*
Y390889D01*
X436772Y390327D01*
X437147Y389952D01*
X437709Y389765D01*
X438084D01*
X438646Y389952D01*
X439021Y390327D01*
X439209Y390889D01*
Y393701D01*
X474849Y466142D02*
X473350Y470078D01*
X471850Y466142D01*
X472413Y467454D02*
X474287D01*
X475768Y470078D02*
Y466142D01*
Y470078D02*
X477267Y466142D01*
X478767Y470078D02*
X477267Y466142D01*
X478767Y470078D02*
Y466142D01*
X479891Y468016D02*
X481578D01*
X482141Y468203D01*
X482328Y468391D01*
X482516Y468766D01*
Y469328D01*
X482328Y469703D01*
X482141Y469890D01*
X481578Y470078D01*
X479891D01*
Y466142D01*
X474475Y455736D02*
X474100Y456111D01*
X473537Y456298D01*
X472788D01*
X472225Y456111D01*
X471850Y455736D01*
Y455361D01*
X472038Y454986D01*
X472225Y454799D01*
X472600Y454611D01*
X473725Y454237D01*
X474100Y454049D01*
X474287Y453862D01*
X474475Y453487D01*
Y452924D01*
X474100Y452550D01*
X473537Y452362D01*
X472788D01*
X472225Y452550D01*
X471850Y452924D01*
X475355Y454237D02*
X477042D01*
X477605Y454424D01*
X477792Y454611D01*
X477980Y454986D01*
Y455549D01*
X477792Y455924D01*
X477605Y456111D01*
X477042Y456298D01*
X475355D01*
Y452362D01*
X481297Y456298D02*
X478861D01*
Y452362D01*
X481297D01*
X478861Y454424D02*
X480360D01*
X484952Y452362D02*
X483453Y456298D01*
X481953Y452362D01*
X482516Y453674D02*
X484390D01*
X485871Y456298D02*
Y452362D01*
X488495Y456298D02*
X485871Y453674D01*
X486808Y454611D02*
X488495Y452362D01*
X491812Y456298D02*
X489376D01*
Y452362D01*
X491812D01*
X489376Y454424D02*
X490875D01*
X492469Y456298D02*
Y452362D01*
Y456298D02*
X494155D01*
X494718Y456111D01*
X494905Y455924D01*
X495093Y455549D01*
Y455174D01*
X494905Y454799D01*
X494718Y454611D01*
X494155Y454424D01*
X492469D01*
X493781D02*
X495093Y452362D01*
X445080Y437864D02*
X450591D01*
Y441013D01*
X446392Y445553D02*
X445867Y445291D01*
X445342Y444766D01*
X445080Y444241D01*
Y443191D01*
X445342Y442666D01*
X445867Y442142D01*
X446392Y441879D01*
X447179Y441617D01*
X448491D01*
X449279Y441879D01*
X449803Y442142D01*
X450328Y442666D01*
X450591Y443191D01*
Y444241D01*
X450328Y444766D01*
X449803Y445291D01*
X449279Y445553D01*
X445080Y447101D02*
X450591D01*
X445080D02*
Y448938D01*
X445342Y449725D01*
X445867Y450250D01*
X446392Y450513D01*
X447179Y450775D01*
X448491D01*
X449279Y450513D01*
X449803Y450250D01*
X450328Y449725D01*
X450591Y448938D01*
Y447101D01*
X445080Y456338D02*
X450591D01*
X445080D02*
Y459749D01*
X447704Y456338D02*
Y458437D01*
X447966Y460379D02*
Y462741D01*
X447704Y463528D01*
X447442Y463791D01*
X446917Y464053D01*
X446130D01*
X445605Y463791D01*
X445342Y463528D01*
X445080Y462741D01*
Y460379D01*
X450591D01*
X446392Y469222D02*
X445867Y468960D01*
X445342Y468435D01*
X445080Y467910D01*
Y466861D01*
X445342Y466336D01*
X445867Y465811D01*
X446392Y465549D01*
X447179Y465286D01*
X448491D01*
X449279Y465549D01*
X449803Y465811D01*
X450328Y466336D01*
X450591Y466861D01*
Y467910D01*
X450328Y468435D01*
X449803Y468960D01*
X449279Y469222D01*
D49*
X443209Y75591D02*
G03*
X443209Y75591I-492J0D01*
G01*
X407579Y149803D02*
G03*
X407579Y149803I-492J0D01*
G01*
X485335Y268307D02*
G03*
X485335Y268307I-492J0D01*
G01*
X130807Y285925D02*
G03*
X130807Y285925I-492J0D01*
G01*
X501378Y207165D02*
G03*
X501378Y207165I-492J0D01*
G01*
X422835Y269488D02*
G03*
X422835Y269488I-492J0D01*
G01*
X382776Y270768D02*
G03*
X382776Y270768I-492J0D01*
G01*
X103937Y142126D02*
G03*
X103937Y142126I-492J0D01*
G01*
X222736Y284842D02*
G03*
X222736Y284842I-492J0D01*
G01*
X206988D02*
G03*
X206988Y284842I-492J0D01*
G01*
X103248Y219882D02*
G03*
X103248Y219882I-492J0D01*
G01*
Y202165D02*
G03*
X103248Y202165I-492J0D01*
G01*
X443209Y338583D02*
G03*
X443209Y338583I-492J0D01*
G01*
X407579Y412795D02*
G03*
X407579Y412795I-492J0D01*
G01*
X485335Y531299D02*
G03*
X485335Y531299I-492J0D01*
G01*
X130807Y548917D02*
G03*
X130807Y548917I-492J0D01*
G01*
X501378Y470157D02*
G03*
X501378Y470157I-492J0D01*
G01*
X422835Y532480D02*
G03*
X422835Y532480I-492J0D01*
G01*
X382776Y533760D02*
G03*
X382776Y533760I-492J0D01*
G01*
X103937Y405118D02*
G03*
X103937Y405118I-492J0D01*
G01*
X222736Y547835D02*
G03*
X222736Y547835I-492J0D01*
G01*
X206988D02*
G03*
X206988Y547835I-492J0D01*
G01*
X103248Y482874D02*
G03*
X103248Y482874I-492J0D01*
G01*
Y465158D02*
G03*
X103248Y465158I-492J0D01*
G01*
D50*
X498819Y90158D02*
X508268D01*
X498819Y84252D02*
X508268D01*
X97047Y187795D02*
Y197244D01*
X91142Y187795D02*
Y197244D01*
X99016Y187795D02*
Y197244D01*
X104921Y187795D02*
Y197244D01*
X151181Y278346D02*
Y287795D01*
X145276Y278346D02*
Y287795D01*
X418898Y50000D02*
Y59449D01*
X424803Y50000D02*
Y59449D01*
X498917Y118701D02*
X508366D01*
X498917Y124606D02*
X508366D01*
X498819Y125591D02*
X508268D01*
X498819Y131496D02*
X508268D01*
X412205Y84252D02*
X421654D01*
X412205Y90158D02*
X421654D01*
X498819Y97047D02*
X508268D01*
X498819Y91142D02*
X508268D01*
X346654Y270276D02*
X352953D01*
X358858D02*
X365158D01*
X346654Y284055D02*
X350787Y284055D01*
X361024Y284055D02*
X365158D01*
X236417Y270276D02*
X242717D01*
X248622D02*
X254921D01*
X236417Y284055D02*
X240551Y284055D01*
X250787Y284055D02*
X254921D01*
X494685D02*
X506496D01*
X494685Y274213D02*
X506496D01*
X494685Y264370D02*
X506496D01*
X494685Y254528D02*
X506496D01*
X480906Y50000D02*
Y59449D01*
X475000Y50000D02*
Y59449D01*
X412205Y117717D02*
X421654D01*
X412205Y111811D02*
X421654D01*
X412205Y69488D02*
X421654D01*
X412205Y63583D02*
X421654D01*
X488780Y50000D02*
Y59449D01*
X494685Y50000D02*
Y59449D01*
X498819Y111811D02*
X508268D01*
X498819Y117717D02*
X508268D01*
X425787Y50000D02*
Y59449D01*
X431693Y50000D02*
Y59449D01*
X461221Y50000D02*
Y59449D01*
X467126Y50000D02*
Y59449D01*
X498819Y104921D02*
X508268D01*
X498819Y110827D02*
X508268D01*
X412205D02*
X421654D01*
X412205Y104921D02*
X421654D01*
X481890Y50000D02*
Y59449D01*
X487795Y50000D02*
Y59449D01*
X498819Y63583D02*
X508268D01*
X498819Y69488D02*
X508268D01*
X495669Y50000D02*
Y59449D01*
X501575Y50000D02*
Y59449D01*
X498819Y98032D02*
X508268D01*
X498819Y103937D02*
X508268D01*
X499803Y240748D02*
X509252D01*
X499803Y234842D02*
X509252D01*
X485532D02*
X494980D01*
X485532Y240748D02*
X494980D01*
X471260Y234842D02*
X480709D01*
X471260Y240748D02*
X480709D01*
X447441Y277362D02*
Y286811D01*
X441536Y277362D02*
Y286811D01*
X447441Y260630D02*
Y270079D01*
X441536Y260630D02*
Y270079D01*
X99016Y127756D02*
Y137205D01*
X104921Y127756D02*
Y137205D01*
X91142Y127756D02*
Y137205D01*
X97047Y127756D02*
Y137205D01*
X412205Y103937D02*
X421654D01*
X412205Y98032D02*
X421654D01*
X412205Y70472D02*
X421654D01*
X412205Y76378D02*
X421654D01*
X468110Y50000D02*
Y59449D01*
X474016Y50000D02*
Y59449D01*
X498819Y83268D02*
X508268D01*
X498819Y77362D02*
X508268D01*
X498819Y76378D02*
X508268D01*
X498819Y70473D02*
X508268D01*
X412205Y77362D02*
X421654D01*
X412205Y83268D02*
X421654D01*
X408071Y277362D02*
Y286811D01*
X413976Y277362D02*
Y286811D01*
X408071Y260630D02*
Y270079D01*
X413976Y260630D02*
Y270079D01*
X160039Y278346D02*
Y287795D01*
X154134Y278346D02*
Y287795D01*
X178937Y287008D02*
X188386D01*
X178937Y281102D02*
X188386D01*
X178937Y269291D02*
X188386D01*
X178937Y263386D02*
X188386D01*
X104921Y239961D02*
Y249410D01*
X99016Y239961D02*
Y249410D01*
X412205Y91142D02*
X421654D01*
X412205Y97047D02*
X421654D01*
X91142Y239961D02*
Y249409D01*
X97047Y239961D02*
Y249409D01*
X142323Y278346D02*
Y287795D01*
X136417Y278346D02*
Y287795D01*
X178937Y272244D02*
X188386D01*
X178937Y278150D02*
X188386D01*
X99016Y278150D02*
Y287992D01*
Y275787D02*
X104921D01*
Y278150D02*
Y287992D01*
X91142Y278150D02*
Y287992D01*
Y275787D02*
X97047D01*
Y278150D02*
Y287992D01*
X99016Y258465D02*
Y268307D01*
Y256102D02*
X104921D01*
Y258465D02*
Y268307D01*
X91142Y258465D02*
Y268307D01*
Y256102D02*
X97047D01*
Y258465D02*
Y268307D01*
X422835Y125591D02*
Y131496D01*
X412205D02*
X420866D01*
X412205Y125591D02*
X420866D01*
X422835Y118701D02*
Y124606D01*
X412205D02*
X420866D01*
X412205Y118701D02*
X420866D01*
X512008Y87926D02*
X511876Y88189D01*
X511614Y88451D01*
X511351Y88582D01*
X510827D01*
X510564Y88451D01*
X510302Y88189D01*
X510171Y87926D01*
X510039Y87533D01*
Y86877D01*
X510171Y86483D01*
X510302Y86221D01*
X510564Y85958D01*
X510827Y85827D01*
X511351D01*
X511614Y85958D01*
X511876Y86221D01*
X512008Y86483D01*
X514356Y88189D02*
X514225Y88451D01*
X513831Y88582D01*
X513569D01*
X513175Y88451D01*
X512913Y88058D01*
X512782Y87401D01*
Y86746D01*
X512913Y86221D01*
X513175Y85958D01*
X513569Y85827D01*
X513700D01*
X514094Y85958D01*
X514356Y86221D01*
X514487Y86614D01*
Y86746D01*
X514356Y87139D01*
X514094Y87401D01*
X513700Y87533D01*
X513569D01*
X513175Y87401D01*
X512913Y87139D01*
X512782Y86746D01*
X91313Y186023D02*
Y183268D01*
Y186023D02*
X92494D01*
X92888Y185892D01*
X93019Y185761D01*
X93150Y185498D01*
Y185236D01*
X93019Y184974D01*
X92888Y184843D01*
X92494Y184711D01*
X91313D01*
X92231D02*
X93150Y183268D01*
X93898Y185367D02*
Y185498D01*
X94029Y185761D01*
X94160Y185892D01*
X94423Y186023D01*
X94947D01*
X95210Y185892D01*
X95341Y185761D01*
X95472Y185498D01*
Y185236D01*
X95341Y184974D01*
X95079Y184580D01*
X93767Y183268D01*
X95603D01*
X96220Y185498D02*
X96482Y185630D01*
X96876Y186023D01*
Y183268D01*
X98597Y186023D02*
Y183268D01*
Y186023D02*
X99777D01*
X100171Y185892D01*
X100302Y185761D01*
X100434Y185498D01*
Y185236D01*
X100302Y184974D01*
X100171Y184843D01*
X99777Y184711D01*
X98597D01*
X99515D02*
X100434Y183268D01*
X101181Y185367D02*
Y185498D01*
X101312Y185761D01*
X101444Y185892D01*
X101706Y186023D01*
X102231D01*
X102493Y185892D01*
X102625Y185761D01*
X102756Y185498D01*
Y185236D01*
X102625Y184974D01*
X102362Y184580D01*
X101050Y183268D01*
X102887D01*
X104291Y186023D02*
X103897Y185892D01*
X103635Y185498D01*
X103504Y184843D01*
Y184449D01*
X103635Y183793D01*
X103897Y183399D01*
X104291Y183268D01*
X104553D01*
X104947Y183399D01*
X105209Y183793D01*
X105341Y184449D01*
Y184843D01*
X105209Y185498D01*
X104947Y185892D01*
X104553Y186023D01*
X104291D01*
X458080Y265354D02*
Y262992D01*
Y265354D02*
X459092D01*
X459429Y265241D01*
X459542Y265129D01*
X459654Y264904D01*
Y264679D01*
X459542Y264454D01*
X459429Y264342D01*
X459092Y264229D01*
X458080D02*
X459092D01*
X459429Y264117D01*
X459542Y264004D01*
X459654Y263779D01*
Y263442D01*
X459542Y263217D01*
X459429Y263105D01*
X459092Y262992D01*
X458080D01*
X460858Y265354D02*
X460633Y265241D01*
X460408Y265016D01*
X460295Y264791D01*
X460183Y264454D01*
Y263892D01*
X460295Y263554D01*
X460408Y263330D01*
X460633Y263105D01*
X460858Y262992D01*
X461307D01*
X461532Y263105D01*
X461757Y263330D01*
X461870Y263554D01*
X461982Y263892D01*
Y264454D01*
X461870Y264791D01*
X461757Y265016D01*
X461532Y265241D01*
X461307Y265354D01*
X460858D01*
X463320D02*
Y262992D01*
X462533Y265354D02*
X464108D01*
X465176D02*
Y262992D01*
X464389Y265354D02*
X465963D01*
X466919D02*
X466694Y265241D01*
X466469Y265016D01*
X466357Y264791D01*
X466245Y264454D01*
Y263892D01*
X466357Y263554D01*
X466469Y263330D01*
X466694Y263105D01*
X466919Y262992D01*
X467369D01*
X467594Y263105D01*
X467819Y263330D01*
X467931Y263554D01*
X468044Y263892D01*
Y264454D01*
X467931Y264791D01*
X467819Y265016D01*
X467594Y265241D01*
X467369Y265354D01*
X466919D01*
X468595D02*
Y262992D01*
Y265354D02*
X469495Y262992D01*
X470394Y265354D02*
X469495Y262992D01*
X470394Y265354D02*
Y262992D01*
X474612Y264791D02*
X474499Y265016D01*
X474274Y265241D01*
X474049Y265354D01*
X473599D01*
X473375Y265241D01*
X473150Y265016D01*
X473037Y264791D01*
X472925Y264454D01*
Y263892D01*
X473037Y263554D01*
X473150Y263330D01*
X473375Y263105D01*
X473599Y262992D01*
X474049D01*
X474274Y263105D01*
X474499Y263330D01*
X474612Y263554D01*
X475950Y265354D02*
X475725Y265241D01*
X475500Y265016D01*
X475388Y264791D01*
X475275Y264454D01*
Y263892D01*
X475388Y263554D01*
X475500Y263330D01*
X475725Y263105D01*
X475950Y262992D01*
X476400D01*
X476625Y263105D01*
X476850Y263330D01*
X476962Y263554D01*
X477075Y263892D01*
Y264454D01*
X476962Y264791D01*
X476850Y265016D01*
X476625Y265241D01*
X476400Y265354D01*
X475950D01*
X477626D02*
Y262992D01*
Y265354D02*
X479200Y262992D01*
Y265354D02*
Y262992D01*
X480640Y265354D02*
Y262992D01*
X479852Y265354D02*
X481427D01*
X483507Y262992D02*
X482608Y265354D01*
X481708Y262992D01*
X482045Y263779D02*
X483170D01*
X485745Y264791D02*
X485633Y265016D01*
X485408Y265241D01*
X485183Y265354D01*
X484733D01*
X484508Y265241D01*
X484283Y265016D01*
X484171Y264791D01*
X484058Y264454D01*
Y263892D01*
X484171Y263554D01*
X484283Y263330D01*
X484508Y263105D01*
X484733Y262992D01*
X485183D01*
X485408Y263105D01*
X485633Y263330D01*
X485745Y263554D01*
X487196Y265354D02*
Y262992D01*
X486409Y265354D02*
X487983D01*
X495005Y288779D02*
Y285630D01*
Y288779D02*
X496355D01*
X496804Y288629D01*
X496954Y288479D01*
X497104Y288179D01*
Y287879D01*
X496954Y287579D01*
X496804Y287429D01*
X496355Y287279D01*
X495005D02*
X496355D01*
X496804Y287129D01*
X496954Y286980D01*
X497104Y286680D01*
Y286230D01*
X496954Y285930D01*
X496804Y285780D01*
X496355Y285630D01*
X495005D01*
X498709Y288779D02*
X498409Y288629D01*
X498109Y288329D01*
X497959Y288029D01*
X497809Y287579D01*
Y286829D01*
X497959Y286380D01*
X498109Y286080D01*
X498409Y285780D01*
X498709Y285630D01*
X499309D01*
X499609Y285780D01*
X499908Y286080D01*
X500058Y286380D01*
X500208Y286829D01*
Y287579D01*
X500058Y288029D01*
X499908Y288329D01*
X499609Y288629D01*
X499309Y288779D01*
X498709D01*
X501843D02*
X501543Y288629D01*
X501243Y288329D01*
X501093Y288029D01*
X500943Y287579D01*
Y286829D01*
X501093Y286380D01*
X501243Y286080D01*
X501543Y285780D01*
X501843Y285630D01*
X502443D01*
X502742Y285780D01*
X503042Y286080D01*
X503192Y286380D01*
X503342Y286829D01*
Y287579D01*
X503192Y288029D01*
X503042Y288329D01*
X502742Y288629D01*
X502443Y288779D01*
X501843D01*
X505127D02*
Y285630D01*
X504077Y288779D02*
X506176D01*
X494460Y252361D02*
Y249213D01*
Y252361D02*
X495809D01*
X496259Y252212D01*
X496409Y252062D01*
X496559Y251762D01*
Y251462D01*
X496409Y251162D01*
X496259Y251012D01*
X495809Y250862D01*
X494460D01*
X495509D02*
X496559Y249213D01*
X499213Y252361D02*
X497264D01*
Y249213D01*
X499213D01*
X497264Y250862D02*
X498463D01*
X501837Y251912D02*
X501537Y252212D01*
X501087Y252361D01*
X500488D01*
X500038Y252212D01*
X499738Y251912D01*
Y251612D01*
X499888Y251312D01*
X500038Y251162D01*
X500338Y251012D01*
X501237Y250712D01*
X501537Y250562D01*
X501687Y250412D01*
X501837Y250112D01*
Y249662D01*
X501537Y249363D01*
X501087Y249213D01*
X500488D01*
X500038Y249363D01*
X499738Y249662D01*
X504491Y252361D02*
X502542D01*
Y249213D01*
X504491D01*
X502542Y250862D02*
X503742D01*
X506066Y252361D02*
Y249213D01*
X505016Y252361D02*
X507115D01*
X472829Y142323D02*
X472566Y142585D01*
X472173Y142716D01*
X471648D01*
X471254Y142585D01*
X470992Y142323D01*
Y142060D01*
X471123Y141798D01*
X471254Y141667D01*
X471517Y141535D01*
X472304Y141273D01*
X472566Y141142D01*
X472697Y141011D01*
X472829Y140748D01*
Y140355D01*
X472566Y140092D01*
X472173Y139961D01*
X471648D01*
X471254Y140092D01*
X470992Y140355D01*
X473445Y141273D02*
X474626D01*
X475020Y141404D01*
X475151Y141535D01*
X475282Y141798D01*
Y142191D01*
X475151Y142454D01*
X475020Y142585D01*
X474626Y142716D01*
X473445D01*
Y139961D01*
X475899Y142716D02*
Y139961D01*
X477736Y142716D02*
X475899Y140879D01*
X476555Y141535D02*
X477736Y139961D01*
X478352Y142191D02*
X478615Y142323D01*
X479008Y142716D01*
Y139961D01*
X170663Y276574D02*
Y273819D01*
Y276574D02*
X171844D01*
X172238Y276443D01*
X172369Y276312D01*
X172500Y276050D01*
Y275787D01*
X172369Y275525D01*
X172238Y275394D01*
X171844Y275262D01*
X170663D01*
X171582D02*
X172500Y273819D01*
X173117Y276050D02*
X173379Y276181D01*
X173773Y276574D01*
Y273819D01*
X176974Y276574D02*
X175662Y273819D01*
X175138Y276574D02*
X176974D01*
X92802Y159055D02*
X92540Y159317D01*
X92146Y159449D01*
X91621D01*
X91228Y159317D01*
X90965Y159055D01*
Y158792D01*
X91096Y158530D01*
X91228Y158399D01*
X91490Y158268D01*
X92277Y158005D01*
X92540Y157874D01*
X92671Y157743D01*
X92802Y157480D01*
Y157087D01*
X92540Y156824D01*
X92146Y156693D01*
X91621D01*
X91228Y156824D01*
X90965Y157087D01*
X94993Y159449D02*
X93681D01*
X93550Y158268D01*
X93681Y158399D01*
X94075Y158530D01*
X94468D01*
X94862Y158399D01*
X95124Y158136D01*
X95256Y157743D01*
Y157480D01*
X95124Y157087D01*
X94862Y156824D01*
X94468Y156693D01*
X94075D01*
X93681Y156824D01*
X93550Y156956D01*
X93419Y157218D01*
X91542Y201903D02*
X91280Y201771D01*
X91018Y201509D01*
X90886Y201247D01*
X90755Y200853D01*
Y200197D01*
X90886Y199803D01*
X91018Y199541D01*
X91280Y199278D01*
X91542Y199147D01*
X92067D01*
X92330Y199278D01*
X92592Y199541D01*
X92723Y199803D01*
X92854Y200197D01*
Y200853D01*
X92723Y201247D01*
X92592Y201509D01*
X92330Y201771D01*
X92067Y201903D01*
X91542D01*
X91936Y199672D02*
X92723Y198885D01*
X94809Y201903D02*
X93497Y200066D01*
X95465D01*
X94809Y201903D02*
Y199147D01*
X91608Y219619D02*
X91346Y219488D01*
X91083Y219226D01*
X90952Y218963D01*
X90821Y218569D01*
Y217913D01*
X90952Y217520D01*
X91083Y217257D01*
X91346Y216995D01*
X91608Y216864D01*
X92133D01*
X92395Y216995D01*
X92658Y217257D01*
X92789Y217520D01*
X92920Y217913D01*
Y218569D01*
X92789Y218963D01*
X92658Y219226D01*
X92395Y219488D01*
X92133Y219619D01*
X91608D01*
X92002Y217389D02*
X92789Y216601D01*
X93825Y219619D02*
X95269D01*
X94481Y218569D01*
X94875D01*
X95137Y218438D01*
X95269Y218307D01*
X95400Y217913D01*
Y217651D01*
X95269Y217257D01*
X95006Y216995D01*
X94613Y216864D01*
X94219D01*
X93825Y216995D01*
X93694Y217126D01*
X93563Y217389D01*
X91949Y254921D02*
Y252166D01*
Y254921D02*
X92868D01*
X93261Y254790D01*
X93524Y254527D01*
X93655Y254265D01*
X93786Y253871D01*
Y253215D01*
X93655Y252822D01*
X93524Y252559D01*
X93261Y252297D01*
X92868Y252166D01*
X91949D01*
X96240Y254921D02*
X94928Y252166D01*
X94403Y254921D02*
X96240D01*
X99889D02*
Y252166D01*
Y254921D02*
X100807D01*
X101201Y254790D01*
X101463Y254527D01*
X101595Y254265D01*
X101726Y253871D01*
Y253215D01*
X101595Y252822D01*
X101463Y252559D01*
X101201Y252297D01*
X100807Y252166D01*
X99889D01*
X103917Y254527D02*
X103786Y254790D01*
X103392Y254921D01*
X103130D01*
X102736Y254790D01*
X102474Y254396D01*
X102342Y253740D01*
Y253084D01*
X102474Y252559D01*
X102736Y252297D01*
X103130Y252166D01*
X103261D01*
X103655Y252297D01*
X103917Y252559D01*
X104048Y252953D01*
Y253084D01*
X103917Y253478D01*
X103655Y253740D01*
X103261Y253871D01*
X103130D01*
X102736Y253740D01*
X102474Y253478D01*
X102342Y253084D01*
X91949Y274606D02*
Y271851D01*
Y274606D02*
X92868D01*
X93261Y274475D01*
X93524Y274212D01*
X93655Y273950D01*
X93786Y273556D01*
Y272900D01*
X93655Y272507D01*
X93524Y272244D01*
X93261Y271982D01*
X92868Y271851D01*
X91949D01*
X95977Y274606D02*
X94665D01*
X94534Y273425D01*
X94665Y273556D01*
X95059Y273688D01*
X95453D01*
X95846Y273556D01*
X96109Y273294D01*
X96240Y272900D01*
Y272638D01*
X96109Y272244D01*
X95846Y271982D01*
X95453Y271851D01*
X95059D01*
X94665Y271982D01*
X94534Y272113D01*
X94403Y272375D01*
X99758Y274606D02*
Y271851D01*
Y274606D02*
X100676D01*
X101070Y274475D01*
X101332Y274212D01*
X101463Y273950D01*
X101595Y273556D01*
Y272900D01*
X101463Y272507D01*
X101332Y272244D01*
X101070Y271982D01*
X100676Y271851D01*
X99758D01*
X103523Y274606D02*
X102211Y272769D01*
X104179D01*
X103523Y274606D02*
Y271851D01*
X382894Y288386D02*
Y285630D01*
Y288386D02*
X383813D01*
X384206Y288254D01*
X384469Y287992D01*
X384600Y287730D01*
X384731Y287336D01*
Y286680D01*
X384600Y286286D01*
X384469Y286024D01*
X384206Y285761D01*
X383813Y285630D01*
X382894D01*
X385348Y287861D02*
X385610Y287992D01*
X386004Y288386D01*
Y285630D01*
X406141Y123031D02*
Y120275D01*
Y123031D02*
X407060D01*
X407453Y122899D01*
X407716Y122637D01*
X407847Y122375D01*
X407978Y121981D01*
Y121325D01*
X407847Y120931D01*
X407716Y120669D01*
X407453Y120406D01*
X407060Y120275D01*
X406141D01*
X408857Y123031D02*
X410301D01*
X409513Y121981D01*
X409907D01*
X410169Y121850D01*
X410301Y121719D01*
X410432Y121325D01*
Y121063D01*
X410301Y120669D01*
X410038Y120406D01*
X409645Y120275D01*
X409251D01*
X408857Y120406D01*
X408726Y120538D01*
X408595Y120800D01*
X406143Y129921D02*
Y127166D01*
Y129921D02*
X407061D01*
X407455Y129790D01*
X407717Y129527D01*
X407848Y129265D01*
X407980Y128871D01*
Y128215D01*
X407848Y127822D01*
X407717Y127559D01*
X407455Y127297D01*
X407061Y127166D01*
X406143D01*
X408728Y129265D02*
Y129396D01*
X408859Y129659D01*
X408990Y129790D01*
X409252Y129921D01*
X409777D01*
X410040Y129790D01*
X410171Y129659D01*
X410302Y129396D01*
Y129134D01*
X410171Y128871D01*
X409908Y128478D01*
X408596Y127166D01*
X410433D01*
X461194Y288386D02*
Y286286D01*
X461063Y285893D01*
X460932Y285761D01*
X460670Y285630D01*
X460407D01*
X460145Y285761D01*
X460013Y285893D01*
X459882Y286286D01*
Y286549D01*
X461903Y287861D02*
X462165Y287992D01*
X462559Y288386D01*
Y285630D01*
X136215Y276574D02*
Y273819D01*
Y276574D02*
X137396D01*
X137789Y276443D01*
X137920Y276312D01*
X138051Y276050D01*
Y275787D01*
X137920Y275525D01*
X137789Y275394D01*
X137396Y275262D01*
X136215D01*
X137133D02*
X138051Y273819D01*
X138668Y276050D02*
X138931Y276181D01*
X139324Y276574D01*
Y273819D01*
X140820Y275919D02*
Y276050D01*
X140951Y276312D01*
X141082Y276443D01*
X141345Y276574D01*
X141870D01*
X142132Y276443D01*
X142263Y276312D01*
X142394Y276050D01*
Y275787D01*
X142263Y275525D01*
X142001Y275131D01*
X140689Y273819D01*
X142526D01*
X444902Y46260D02*
X446739Y43504D01*
Y46260D02*
X444902Y43504D01*
X447356Y45735D02*
X447618Y45866D01*
X448012Y46260D01*
Y43504D01*
X90827Y141732D02*
Y139764D01*
X90958Y139370D01*
X91221Y139108D01*
X91615Y138977D01*
X91877D01*
X92271Y139108D01*
X92533Y139370D01*
X92664Y139764D01*
Y141732D01*
X94737D02*
X93425Y139895D01*
X95393D01*
X94737Y141732D02*
Y138977D01*
X117468Y263779D02*
Y261811D01*
X117599Y261418D01*
X117861Y261155D01*
X118255Y261024D01*
X118517D01*
X118911Y261155D01*
X119173Y261418D01*
X119305Y261811D01*
Y263779D01*
X121640D02*
X120328D01*
X120197Y262598D01*
X120328Y262730D01*
X120722Y262861D01*
X121115D01*
X121509Y262730D01*
X121771Y262467D01*
X121903Y262074D01*
Y261811D01*
X121771Y261418D01*
X121509Y261155D01*
X121115Y261024D01*
X120722D01*
X120328Y261155D01*
X120197Y261286D01*
X120066Y261549D01*
X431589Y274606D02*
Y272638D01*
X431720Y272244D01*
X431983Y271982D01*
X432376Y271851D01*
X432639D01*
X433032Y271982D01*
X433295Y272244D01*
X433426Y272638D01*
Y274606D01*
X434449D02*
X435892D01*
X435105Y273556D01*
X435499D01*
X435761Y273425D01*
X435892Y273294D01*
X436024Y272900D01*
Y272638D01*
X435892Y272244D01*
X435630Y271982D01*
X435237Y271851D01*
X434843D01*
X434449Y271982D01*
X434318Y272113D01*
X434187Y272375D01*
X487546Y205708D02*
Y203740D01*
X487678Y203347D01*
X487940Y203084D01*
X488334Y202953D01*
X488596D01*
X488990Y203084D01*
X489252Y203347D01*
X489383Y203740D01*
Y205708D01*
X490276Y205052D02*
Y205184D01*
X490407Y205446D01*
X490538Y205577D01*
X490800Y205708D01*
X491325D01*
X491588Y205577D01*
X491719Y205446D01*
X491850Y205184D01*
Y204921D01*
X491719Y204659D01*
X491456Y204265D01*
X490144Y202953D01*
X491981D01*
X434987Y75787D02*
Y73819D01*
X435118Y73425D01*
X435381Y73163D01*
X435775Y73032D01*
X436037D01*
X436431Y73163D01*
X436693Y73425D01*
X436824Y73819D01*
Y75787D01*
X437585Y75262D02*
X437848Y75393D01*
X438241Y75787D01*
Y73032D01*
X234469Y267323D02*
X234206Y267585D01*
X233813Y267716D01*
X233288D01*
X232894Y267585D01*
X232632Y267323D01*
Y267060D01*
X232763Y266798D01*
X232894Y266667D01*
X233157Y266535D01*
X233944Y266273D01*
X234206Y266142D01*
X234337Y266011D01*
X234469Y265748D01*
Y265355D01*
X234206Y265092D01*
X233813Y264961D01*
X233288D01*
X232894Y265092D01*
X232632Y265355D01*
X236397Y267716D02*
X235085Y265879D01*
X237053D01*
X236397Y267716D02*
Y264961D01*
X344771Y267323D02*
X344508Y267585D01*
X344114Y267716D01*
X343590D01*
X343196Y267585D01*
X342934Y267323D01*
Y267060D01*
X343065Y266798D01*
X343196Y266667D01*
X343458Y266535D01*
X344246Y266273D01*
X344508Y266142D01*
X344639Y266011D01*
X344771Y265748D01*
Y265355D01*
X344508Y265092D01*
X344114Y264961D01*
X343590D01*
X343196Y265092D01*
X342934Y265355D01*
X345650Y267716D02*
X347093D01*
X346306Y266667D01*
X346699D01*
X346962Y266535D01*
X347093Y266404D01*
X347224Y266011D01*
Y265748D01*
X347093Y265355D01*
X346830Y265092D01*
X346437Y264961D01*
X346043D01*
X345650Y265092D01*
X345518Y265223D01*
X345387Y265486D01*
X497113Y268307D02*
X496850Y268569D01*
X496456Y268701D01*
X495932D01*
X495538Y268569D01*
X495276Y268307D01*
Y268044D01*
X495407Y267782D01*
X495538Y267651D01*
X495800Y267520D01*
X496588Y267257D01*
X496850Y267126D01*
X496981Y266995D01*
X497113Y266732D01*
Y266339D01*
X496850Y266076D01*
X496456Y265945D01*
X495932D01*
X495538Y266076D01*
X495276Y266339D01*
X497860Y268044D02*
Y268176D01*
X497992Y268438D01*
X498123Y268569D01*
X498385Y268701D01*
X498910D01*
X499172Y268569D01*
X499304Y268438D01*
X499435Y268176D01*
Y267913D01*
X499304Y267651D01*
X499041Y267257D01*
X497729Y265945D01*
X499566D01*
X497113Y272244D02*
X496850Y272506D01*
X496456Y272638D01*
X495932D01*
X495538Y272506D01*
X495276Y272244D01*
Y271982D01*
X495407Y271719D01*
X495538Y271588D01*
X495800Y271457D01*
X496588Y271194D01*
X496850Y271063D01*
X496981Y270932D01*
X497113Y270669D01*
Y270276D01*
X496850Y270013D01*
X496456Y269882D01*
X495932D01*
X495538Y270013D01*
X495276Y270276D01*
X497729Y272113D02*
X497992Y272244D01*
X498385Y272638D01*
Y269882D01*
X90723Y238189D02*
Y235433D01*
Y238189D02*
X91903D01*
X92297Y238057D01*
X92428Y237926D01*
X92559Y237664D01*
Y237402D01*
X92428Y237139D01*
X92297Y237008D01*
X91903Y236877D01*
X90723D01*
X91641D02*
X92559Y235433D01*
X93307Y237533D02*
Y237664D01*
X93439Y237926D01*
X93570Y238057D01*
X93832Y238189D01*
X94357D01*
X94619Y238057D01*
X94751Y237926D01*
X94882Y237664D01*
Y237402D01*
X94751Y237139D01*
X94488Y236745D01*
X93176Y235433D01*
X95013D01*
X95761Y237533D02*
Y237664D01*
X95892Y237926D01*
X96023Y238057D01*
X96286Y238189D01*
X96811D01*
X97073Y238057D01*
X97204Y237926D01*
X97335Y237664D01*
Y237402D01*
X97204Y237139D01*
X96942Y236745D01*
X95630Y235433D01*
X97467D01*
X404253Y95472D02*
Y92717D01*
Y95472D02*
X405434D01*
X405828Y95341D01*
X405959Y95210D01*
X406090Y94947D01*
Y94685D01*
X405959Y94423D01*
X405828Y94291D01*
X405434Y94160D01*
X404253D01*
X405172D02*
X406090Y92717D01*
X406707Y94947D02*
X406969Y95078D01*
X407363Y95472D01*
Y92717D01*
X410433Y94554D02*
X410302Y94160D01*
X410040Y93898D01*
X409646Y93766D01*
X409515D01*
X409121Y93898D01*
X408859Y94160D01*
X408728Y94554D01*
Y94685D01*
X408859Y95078D01*
X409121Y95341D01*
X409515Y95472D01*
X409646D01*
X410040Y95341D01*
X410302Y95078D01*
X410433Y94554D01*
Y93898D01*
X410302Y93242D01*
X410040Y92848D01*
X409646Y92717D01*
X409383D01*
X408990Y92848D01*
X408859Y93111D01*
X98813Y238189D02*
Y235433D01*
Y238189D02*
X99994D01*
X100388Y238057D01*
X100519Y237926D01*
X100650Y237664D01*
Y237402D01*
X100519Y237139D01*
X100388Y237008D01*
X99994Y236877D01*
X98813D01*
X99731D02*
X100650Y235433D01*
X101267Y237664D02*
X101529Y237795D01*
X101923Y238189D01*
Y235433D01*
X103943Y238189D02*
X103550Y238057D01*
X103418Y237795D01*
Y237533D01*
X103550Y237270D01*
X103812Y237139D01*
X104337Y237008D01*
X104730Y236877D01*
X104993Y236614D01*
X105124Y236352D01*
Y235958D01*
X104993Y235696D01*
X104862Y235565D01*
X104468Y235433D01*
X103943D01*
X103550Y235565D01*
X103418Y235696D01*
X103287Y235958D01*
Y236352D01*
X103418Y236614D01*
X103681Y236877D01*
X104074Y237008D01*
X104599Y237139D01*
X104862Y237270D01*
X104993Y237533D01*
Y237795D01*
X104862Y238057D01*
X104468Y238189D01*
X103943D01*
X170729Y267716D02*
Y264961D01*
Y267716D02*
X171910D01*
X172304Y267585D01*
X172435Y267454D01*
X172566Y267191D01*
Y266929D01*
X172435Y266667D01*
X172304Y266535D01*
X171910Y266404D01*
X170729D01*
X171648D02*
X172566Y264961D01*
X173183Y267191D02*
X173445Y267323D01*
X173839Y267716D01*
Y264961D01*
X176778Y267323D02*
X176646Y267585D01*
X176253Y267716D01*
X175990D01*
X175597Y267585D01*
X175334Y267191D01*
X175203Y266535D01*
Y265879D01*
X175334Y265355D01*
X175597Y265092D01*
X175990Y264961D01*
X176122D01*
X176515Y265092D01*
X176778Y265355D01*
X176909Y265748D01*
Y265879D01*
X176778Y266273D01*
X176515Y266535D01*
X176122Y266667D01*
X175990D01*
X175597Y266535D01*
X175334Y266273D01*
X175203Y265879D01*
X170663Y285433D02*
Y282678D01*
Y285433D02*
X171844D01*
X172238Y285302D01*
X172369Y285170D01*
X172500Y284908D01*
Y284646D01*
X172369Y284383D01*
X172238Y284252D01*
X171844Y284121D01*
X170663D01*
X171582D02*
X172500Y282678D01*
X173117Y284908D02*
X173379Y285039D01*
X173773Y285433D01*
Y282678D01*
X176712Y285433D02*
X175400D01*
X175269Y284252D01*
X175400Y284383D01*
X175794Y284514D01*
X176187D01*
X176581Y284383D01*
X176843Y284121D01*
X176974Y283727D01*
Y283465D01*
X176843Y283071D01*
X176581Y282809D01*
X176187Y282678D01*
X175794D01*
X175400Y282809D01*
X175269Y282940D01*
X175138Y283202D01*
X153866Y276574D02*
Y273819D01*
Y276574D02*
X155046D01*
X155440Y276443D01*
X155571Y276312D01*
X155702Y276050D01*
Y275787D01*
X155571Y275525D01*
X155440Y275394D01*
X155046Y275262D01*
X153866D01*
X154784D02*
X155702Y273819D01*
X156319Y276050D02*
X156581Y276181D01*
X156975Y276574D01*
Y273819D01*
X159652Y276574D02*
X158340Y274738D01*
X160308D01*
X159652Y276574D02*
Y273819D01*
X145073Y276574D02*
Y273819D01*
Y276574D02*
X146254D01*
X146647Y276443D01*
X146779Y276312D01*
X146910Y276050D01*
Y275787D01*
X146779Y275525D01*
X146647Y275394D01*
X146254Y275262D01*
X145073D01*
X145991D02*
X146910Y273819D01*
X147527Y276050D02*
X147789Y276181D01*
X148182Y276574D01*
Y273819D01*
X149809Y276574D02*
X151253D01*
X150466Y275525D01*
X150859D01*
X151121Y275394D01*
X151253Y275262D01*
X151384Y274869D01*
Y274606D01*
X151253Y274213D01*
X150990Y273950D01*
X150597Y273819D01*
X150203D01*
X149809Y273950D01*
X149678Y274082D01*
X149547Y274344D01*
X408459Y258858D02*
Y256103D01*
Y258858D02*
X409640D01*
X410033Y258727D01*
X410164Y258596D01*
X410295Y258333D01*
Y258071D01*
X410164Y257808D01*
X410033Y257677D01*
X409640Y257546D01*
X408459D01*
X409377D02*
X410295Y256103D01*
X410912Y258333D02*
X411175Y258464D01*
X411568Y258858D01*
Y256103D01*
X412933Y258333D02*
X413195Y258464D01*
X413589Y258858D01*
Y256103D01*
X407868Y275590D02*
Y272835D01*
Y275590D02*
X409049D01*
X409443Y275459D01*
X409574Y275328D01*
X409705Y275065D01*
Y274803D01*
X409574Y274541D01*
X409443Y274409D01*
X409049Y274278D01*
X407868D01*
X408787D02*
X409705Y272835D01*
X410322Y275065D02*
X410584Y275197D01*
X410978Y275590D01*
Y272835D01*
X413130Y275590D02*
X412736Y275459D01*
X412473Y275065D01*
X412342Y274409D01*
Y274016D01*
X412473Y273360D01*
X412736Y272966D01*
X413130Y272835D01*
X413392D01*
X413786Y272966D01*
X414048Y273360D01*
X414179Y274016D01*
Y274409D01*
X414048Y275065D01*
X413786Y275459D01*
X413392Y275590D01*
X413130D01*
X406274Y88582D02*
Y85827D01*
Y88582D02*
X407455D01*
X407848Y88451D01*
X407980Y88320D01*
X408111Y88058D01*
Y87795D01*
X407980Y87533D01*
X407848Y87401D01*
X407455Y87270D01*
X406274D01*
X407192D02*
X408111Y85827D01*
X410433Y87664D02*
X410302Y87270D01*
X410040Y87008D01*
X409646Y86877D01*
X409515D01*
X409121Y87008D01*
X408859Y87270D01*
X408728Y87664D01*
Y87795D01*
X408859Y88189D01*
X409121Y88451D01*
X409515Y88582D01*
X409646D01*
X410040Y88451D01*
X410302Y88189D01*
X410433Y87664D01*
Y87008D01*
X410302Y86352D01*
X410040Y85958D01*
X409646Y85827D01*
X409383D01*
X408990Y85958D01*
X408859Y86221D01*
X406143Y81693D02*
Y78937D01*
Y81693D02*
X407324D01*
X407717Y81561D01*
X407848Y81430D01*
X407980Y81168D01*
Y80905D01*
X407848Y80643D01*
X407717Y80512D01*
X407324Y80381D01*
X406143D01*
X407061D02*
X407980Y78937D01*
X409252Y81693D02*
X408859Y81561D01*
X408728Y81299D01*
Y81037D01*
X408859Y80774D01*
X409121Y80643D01*
X409646Y80512D01*
X410040Y80381D01*
X410302Y80118D01*
X410433Y79856D01*
Y79462D01*
X410302Y79200D01*
X410171Y79068D01*
X409777Y78937D01*
X409252D01*
X408859Y79068D01*
X408728Y79200D01*
X408596Y79462D01*
Y79856D01*
X408728Y80118D01*
X408990Y80381D01*
X409383Y80512D01*
X409908Y80643D01*
X410171Y80774D01*
X410302Y81037D01*
Y81299D01*
X410171Y81561D01*
X409777Y81693D01*
X409252D01*
X510138Y123031D02*
Y120276D01*
Y123031D02*
X511319D01*
X511712Y122900D01*
X511843Y122769D01*
X511975Y122506D01*
Y122244D01*
X511843Y121982D01*
X511712Y121850D01*
X511319Y121719D01*
X510138D01*
X511056D02*
X511975Y120276D01*
X514428Y123031D02*
X513116Y120276D01*
X512591Y123031D02*
X514428D01*
X510039Y129921D02*
Y127166D01*
Y129921D02*
X511220D01*
X511614Y129790D01*
X511745Y129659D01*
X511876Y129396D01*
Y129134D01*
X511745Y128871D01*
X511614Y128740D01*
X511220Y128609D01*
X510039D01*
X510958D02*
X511876Y127166D01*
X514068Y129527D02*
X513936Y129790D01*
X513543Y129921D01*
X513280D01*
X512887Y129790D01*
X512624Y129396D01*
X512493Y128740D01*
Y128084D01*
X512624Y127559D01*
X512887Y127297D01*
X513280Y127166D01*
X513411D01*
X513805Y127297D01*
X514068Y127559D01*
X514199Y127953D01*
Y128084D01*
X514068Y128478D01*
X513805Y128740D01*
X513411Y128871D01*
X513280D01*
X512887Y128740D01*
X512624Y128478D01*
X512493Y128084D01*
X510039Y74803D02*
Y72048D01*
Y74803D02*
X511220D01*
X511614Y74672D01*
X511745Y74540D01*
X511876Y74278D01*
Y74016D01*
X511745Y73753D01*
X511614Y73622D01*
X511220Y73491D01*
X510039D01*
X510958D02*
X511876Y72048D01*
X514068Y74803D02*
X512755D01*
X512624Y73622D01*
X512755Y73753D01*
X513149Y73884D01*
X513543D01*
X513936Y73753D01*
X514199Y73491D01*
X514330Y73097D01*
Y72835D01*
X514199Y72441D01*
X513936Y72179D01*
X513543Y72048D01*
X513149D01*
X512755Y72179D01*
X512624Y72310D01*
X512493Y72572D01*
X510039Y81693D02*
Y78937D01*
Y81693D02*
X511220D01*
X511614Y81561D01*
X511745Y81430D01*
X511876Y81168D01*
Y80905D01*
X511745Y80643D01*
X511614Y80512D01*
X511220Y80381D01*
X510039D01*
X510958D02*
X511876Y78937D01*
X513805Y81693D02*
X512493Y79856D01*
X514461D01*
X513805Y81693D02*
Y78937D01*
X510040Y95472D02*
Y92717D01*
Y95472D02*
X511220D01*
X511614Y95341D01*
X511745Y95210D01*
X511876Y94947D01*
Y94685D01*
X511745Y94423D01*
X511614Y94291D01*
X511220Y94160D01*
X510040D01*
X510958D02*
X511876Y92717D01*
X512755Y95472D02*
X514199D01*
X513411Y94423D01*
X513805D01*
X514068Y94291D01*
X514199Y94160D01*
X514330Y93766D01*
Y93504D01*
X514199Y93111D01*
X513936Y92848D01*
X513543Y92717D01*
X513149D01*
X512755Y92848D01*
X512624Y92979D01*
X512493Y93242D01*
X469685Y43938D02*
X472441D01*
X469685D02*
Y45119D01*
X469817Y45512D01*
X469948Y45644D01*
X470210Y45775D01*
X470473D01*
X470735Y45644D01*
X470866Y45512D01*
X470997Y45119D01*
Y43938D01*
Y44856D02*
X472441Y45775D01*
X470341Y46523D02*
X470210D01*
X469948Y46654D01*
X469817Y46785D01*
X469685Y47047D01*
Y47572D01*
X469817Y47835D01*
X469948Y47966D01*
X470210Y48097D01*
X470473D01*
X470735Y47966D01*
X471129Y47703D01*
X472441Y46391D01*
Y48228D01*
X407324Y74803D02*
Y72048D01*
Y74803D02*
X408504D01*
X408898Y74672D01*
X409029Y74540D01*
X409161Y74278D01*
Y74016D01*
X409029Y73753D01*
X408898Y73622D01*
X408504Y73491D01*
X407324D01*
X408242D02*
X409161Y72048D01*
X409777Y74278D02*
X410040Y74409D01*
X410433Y74803D01*
Y72048D01*
X192986Y273753D02*
X192724Y273622D01*
X192461Y273359D01*
X192330Y273097D01*
X192199Y272703D01*
Y272047D01*
X192330Y271654D01*
X192461Y271391D01*
X192724Y271129D01*
X192986Y270998D01*
X193511D01*
X193773Y271129D01*
X194036Y271391D01*
X194167Y271654D01*
X194298Y272047D01*
Y272703D01*
X194167Y273097D01*
X194036Y273359D01*
X193773Y273622D01*
X193511Y273753D01*
X192986D01*
X193380Y271522D02*
X194167Y270735D01*
X195072Y273097D02*
Y273228D01*
X195203Y273491D01*
X195334Y273622D01*
X195597Y273753D01*
X196122D01*
X196384Y273622D01*
X196515Y273491D01*
X196647Y273228D01*
Y272966D01*
X196515Y272703D01*
X196253Y272310D01*
X194941Y270998D01*
X196778D01*
X208340Y273753D02*
X208078Y273622D01*
X207815Y273359D01*
X207684Y273097D01*
X207553Y272703D01*
Y272047D01*
X207684Y271654D01*
X207815Y271391D01*
X208078Y271129D01*
X208340Y270998D01*
X208865D01*
X209127Y271129D01*
X209390Y271391D01*
X209521Y271654D01*
X209652Y272047D01*
Y272703D01*
X209521Y273097D01*
X209390Y273359D01*
X209127Y273622D01*
X208865Y273753D01*
X208340D01*
X208734Y271522D02*
X209521Y270735D01*
X210295Y273228D02*
X210558Y273359D01*
X210951Y273753D01*
Y270998D01*
X419488Y274606D02*
Y271851D01*
X421063D01*
X421364Y274081D02*
X421627Y274212D01*
X422020Y274606D01*
Y271851D01*
X407888Y139763D02*
Y137664D01*
X407757Y137271D01*
X407625Y137139D01*
X407363Y137008D01*
X407100D01*
X406838Y137139D01*
X406707Y137271D01*
X406576Y137664D01*
Y137927D01*
X408859Y139763D02*
X410302D01*
X409515Y138714D01*
X409908D01*
X410171Y138583D01*
X410302Y138451D01*
X410433Y138058D01*
Y137795D01*
X410302Y137402D01*
X410040Y137139D01*
X409646Y137008D01*
X409252D01*
X408859Y137139D01*
X408728Y137271D01*
X408596Y137533D01*
X60564Y88582D02*
Y86483D01*
X60433Y86089D01*
X60302Y85958D01*
X60039Y85827D01*
X59777D01*
X59514Y85958D01*
X59383Y86089D01*
X59252Y86483D01*
Y86746D01*
X62585Y88582D02*
X61273Y86746D01*
X63241D01*
X62585Y88582D02*
Y85827D01*
X280486Y267716D02*
Y265617D01*
X280355Y265223D01*
X280223Y265092D01*
X279961Y264961D01*
X279698D01*
X279436Y265092D01*
X279305Y265223D01*
X279174Y265617D01*
Y265879D01*
X281326Y267060D02*
Y267191D01*
X281457Y267454D01*
X281588Y267585D01*
X281850Y267716D01*
X282375D01*
X282638Y267585D01*
X282769Y267454D01*
X282900Y267191D01*
Y266929D01*
X282769Y266667D01*
X282506Y266273D01*
X281194Y264961D01*
X283031D01*
X405369Y101706D02*
X405237Y101968D01*
X404975Y102231D01*
X404713Y102362D01*
X404188D01*
X403925Y102231D01*
X403663Y101968D01*
X403532Y101706D01*
X403401Y101312D01*
Y100656D01*
X403532Y100263D01*
X403663Y100000D01*
X403925Y99738D01*
X404188Y99607D01*
X404713D01*
X404975Y99738D01*
X405237Y100000D01*
X405369Y100263D01*
X406274Y101706D02*
Y101837D01*
X406405Y102100D01*
X406536Y102231D01*
X406799Y102362D01*
X407324D01*
X407586Y102231D01*
X407717Y102100D01*
X407848Y101837D01*
Y101575D01*
X407717Y101312D01*
X407455Y100919D01*
X406143Y99607D01*
X407980D01*
X408859Y102362D02*
X410302D01*
X409515Y101312D01*
X409908D01*
X410171Y101181D01*
X410302Y101050D01*
X410433Y100656D01*
Y100394D01*
X410302Y100000D01*
X410040Y99738D01*
X409646Y99607D01*
X409252D01*
X408859Y99738D01*
X408728Y99869D01*
X408596Y100131D01*
X92546Y125328D02*
X92415Y125590D01*
X92153Y125853D01*
X91890Y125984D01*
X91365D01*
X91103Y125853D01*
X90841Y125590D01*
X90710Y125328D01*
X90578Y124934D01*
Y124278D01*
X90710Y123885D01*
X90841Y123622D01*
X91103Y123360D01*
X91365Y123229D01*
X91890D01*
X92153Y123360D01*
X92415Y123622D01*
X92546Y123885D01*
X93452Y125328D02*
Y125459D01*
X93583Y125722D01*
X93714Y125853D01*
X93976Y125984D01*
X94501D01*
X94764Y125853D01*
X94895Y125722D01*
X95026Y125459D01*
Y125197D01*
X94895Y124934D01*
X94633Y124541D01*
X93321Y123229D01*
X95157D01*
X95905Y125328D02*
Y125459D01*
X96036Y125722D01*
X96168Y125853D01*
X96430Y125984D01*
X96955D01*
X97217Y125853D01*
X97348Y125722D01*
X97480Y125459D01*
Y125197D01*
X97348Y124934D01*
X97086Y124541D01*
X95774Y123229D01*
X97611D01*
X101011Y125328D02*
X100880Y125590D01*
X100617Y125853D01*
X100355Y125984D01*
X99830D01*
X99568Y125853D01*
X99305Y125590D01*
X99174Y125328D01*
X99043Y124934D01*
Y124278D01*
X99174Y123885D01*
X99305Y123622D01*
X99568Y123360D01*
X99830Y123229D01*
X100355D01*
X100617Y123360D01*
X100880Y123622D01*
X101011Y123885D01*
X101916Y125328D02*
Y125459D01*
X102047Y125722D01*
X102179Y125853D01*
X102441Y125984D01*
X102966D01*
X103228Y125853D01*
X103359Y125722D01*
X103491Y125459D01*
Y125197D01*
X103359Y124934D01*
X103097Y124541D01*
X101785Y123229D01*
X103622D01*
X104238Y125459D02*
X104501Y125590D01*
X104894Y125984D01*
Y123229D01*
X442940Y258202D02*
X442809Y258464D01*
X442546Y258727D01*
X442284Y258858D01*
X441759D01*
X441497Y258727D01*
X441234Y258464D01*
X441103Y258202D01*
X440972Y257808D01*
Y257152D01*
X441103Y256759D01*
X441234Y256496D01*
X441497Y256234D01*
X441759Y256103D01*
X442284D01*
X442546Y256234D01*
X442809Y256496D01*
X442940Y256759D01*
X443845Y258202D02*
Y258333D01*
X443977Y258596D01*
X444108Y258727D01*
X444370Y258858D01*
X444895D01*
X445157Y258727D01*
X445289Y258596D01*
X445420Y258333D01*
Y258071D01*
X445289Y257808D01*
X445026Y257415D01*
X443714Y256103D01*
X445551D01*
X446955Y258858D02*
X446561Y258727D01*
X446299Y258333D01*
X446168Y257677D01*
Y257283D01*
X446299Y256627D01*
X446561Y256234D01*
X446955Y256103D01*
X447217D01*
X447611Y256234D01*
X447873Y256627D01*
X448005Y257283D01*
Y257677D01*
X447873Y258333D01*
X447611Y258727D01*
X447217Y258858D01*
X446955D01*
X443222Y274934D02*
X443091Y275197D01*
X442829Y275459D01*
X442566Y275590D01*
X442041D01*
X441779Y275459D01*
X441516Y275197D01*
X441385Y274934D01*
X441254Y274541D01*
Y273885D01*
X441385Y273491D01*
X441516Y273229D01*
X441779Y272966D01*
X442041Y272835D01*
X442566D01*
X442829Y272966D01*
X443091Y273229D01*
X443222Y273491D01*
X443996Y275065D02*
X444259Y275197D01*
X444652Y275590D01*
Y272835D01*
X447722Y274672D02*
X447591Y274278D01*
X447329Y274016D01*
X446935Y273885D01*
X446804D01*
X446410Y274016D01*
X446148Y274278D01*
X446017Y274672D01*
Y274803D01*
X446148Y275197D01*
X446410Y275459D01*
X446804Y275590D01*
X446935D01*
X447329Y275459D01*
X447591Y275197D01*
X447722Y274672D01*
Y274016D01*
X447591Y273360D01*
X447329Y272966D01*
X446935Y272835D01*
X446673D01*
X446279Y272966D01*
X446148Y273229D01*
X474653Y232611D02*
X474521Y232874D01*
X474259Y233136D01*
X473997Y233267D01*
X473472D01*
X473209Y233136D01*
X472947Y232874D01*
X472816Y232611D01*
X472684Y232218D01*
Y231562D01*
X472816Y231168D01*
X472947Y230906D01*
X473209Y230643D01*
X473472Y230512D01*
X473997D01*
X474259Y230643D01*
X474521Y230906D01*
X474653Y231168D01*
X475427Y232743D02*
X475689Y232874D01*
X476083Y233267D01*
Y230512D01*
X478103Y233267D02*
X477710Y233136D01*
X477578Y232874D01*
Y232611D01*
X477710Y232349D01*
X477972Y232218D01*
X478497Y232087D01*
X478891Y231955D01*
X479153Y231693D01*
X479284Y231431D01*
Y231037D01*
X479153Y230774D01*
X479022Y230643D01*
X478628Y230512D01*
X478103D01*
X477710Y230643D01*
X477578Y230774D01*
X477447Y231037D01*
Y231431D01*
X477578Y231693D01*
X477841Y231955D01*
X478234Y232087D01*
X478759Y232218D01*
X479022Y232349D01*
X479153Y232611D01*
Y232874D01*
X479022Y233136D01*
X478628Y233267D01*
X478103D01*
X488924Y232611D02*
X488793Y232874D01*
X488531Y233136D01*
X488268Y233267D01*
X487743D01*
X487481Y233136D01*
X487219Y232874D01*
X487087Y232611D01*
X486956Y232218D01*
Y231562D01*
X487087Y231168D01*
X487219Y230906D01*
X487481Y230643D01*
X487743Y230512D01*
X488268D01*
X488531Y230643D01*
X488793Y230906D01*
X488924Y231168D01*
X489698Y232743D02*
X489961Y232874D01*
X490354Y233267D01*
Y230512D01*
X493556Y233267D02*
X492244Y230512D01*
X491719Y233267D02*
X493556D01*
X503262Y232611D02*
X503130Y232874D01*
X502868Y233136D01*
X502605Y233267D01*
X502081D01*
X501818Y233136D01*
X501556Y232874D01*
X501425Y232611D01*
X501293Y232218D01*
Y231562D01*
X501425Y231168D01*
X501556Y230906D01*
X501818Y230643D01*
X502081Y230512D01*
X502605D01*
X502868Y230643D01*
X503130Y230906D01*
X503262Y231168D01*
X504036Y232743D02*
X504298Y232874D01*
X504692Y233267D01*
Y230512D01*
X507631Y232874D02*
X507499Y233136D01*
X507106Y233267D01*
X506843D01*
X506450Y233136D01*
X506187Y232743D01*
X506056Y232087D01*
Y231431D01*
X506187Y230906D01*
X506450Y230643D01*
X506843Y230512D01*
X506975D01*
X507368Y230643D01*
X507631Y230906D01*
X507762Y231299D01*
Y231431D01*
X507631Y231824D01*
X507368Y232087D01*
X506975Y232218D01*
X506843D01*
X506450Y232087D01*
X506187Y231824D01*
X506056Y231431D01*
X512008Y101706D02*
X511876Y101968D01*
X511614Y102231D01*
X511351Y102362D01*
X510827D01*
X510564Y102231D01*
X510302Y101968D01*
X510171Y101706D01*
X510040Y101312D01*
Y100656D01*
X510171Y100263D01*
X510302Y100000D01*
X510564Y99738D01*
X510827Y99607D01*
X511351D01*
X511614Y99738D01*
X511876Y100000D01*
X512008Y100263D01*
X512782Y101837D02*
X513044Y101968D01*
X513438Y102362D01*
Y99607D01*
X516377Y102362D02*
X515065D01*
X514933Y101181D01*
X515065Y101312D01*
X515458Y101444D01*
X515852D01*
X516246Y101312D01*
X516508Y101050D01*
X516639Y100656D01*
Y100394D01*
X516508Y100000D01*
X516246Y99738D01*
X515852Y99607D01*
X515458D01*
X515065Y99738D01*
X514933Y99869D01*
X514802Y100131D01*
X497900Y43466D02*
X497638Y43334D01*
X497376Y43072D01*
X497245Y42810D01*
Y42285D01*
X497376Y42022D01*
X497638Y41760D01*
X497900Y41629D01*
X498294Y41497D01*
X498950D01*
X499344Y41629D01*
X499606Y41760D01*
X499869Y42022D01*
X500000Y42285D01*
Y42810D01*
X499869Y43072D01*
X499606Y43334D01*
X499344Y43466D01*
X497769Y44240D02*
X497638Y44502D01*
X497245Y44896D01*
X500000D01*
X497245Y47572D02*
X499081Y46260D01*
Y48228D01*
X497245Y47572D02*
X500000D01*
X512008Y67257D02*
X511876Y67519D01*
X511614Y67782D01*
X511351Y67913D01*
X510827D01*
X510564Y67782D01*
X510302Y67519D01*
X510171Y67257D01*
X510039Y66864D01*
Y66207D01*
X510171Y65814D01*
X510302Y65551D01*
X510564Y65289D01*
X510827Y65158D01*
X511351D01*
X511614Y65289D01*
X511876Y65551D01*
X512008Y65814D01*
X512782Y67388D02*
X513044Y67519D01*
X513438Y67913D01*
Y65158D01*
X515065Y67913D02*
X516508D01*
X515721Y66864D01*
X516114D01*
X516377Y66732D01*
X516508Y66601D01*
X516639Y66207D01*
Y65945D01*
X516508Y65551D01*
X516246Y65289D01*
X515852Y65158D01*
X515458D01*
X515065Y65289D01*
X514933Y65420D01*
X514802Y65683D01*
X484121Y43597D02*
X483859Y43466D01*
X483596Y43203D01*
X483465Y42941D01*
Y42416D01*
X483596Y42153D01*
X483859Y41891D01*
X484121Y41760D01*
X484515Y41629D01*
X485171D01*
X485564Y41760D01*
X485827Y41891D01*
X486089Y42153D01*
X486220Y42416D01*
Y42941D01*
X486089Y43203D01*
X485827Y43466D01*
X485564Y43597D01*
X483990Y44371D02*
X483859Y44633D01*
X483465Y45027D01*
X486220D01*
X484121Y46523D02*
X483990D01*
X483727Y46654D01*
X483596Y46785D01*
X483465Y47047D01*
Y47572D01*
X483596Y47835D01*
X483727Y47966D01*
X483990Y48097D01*
X484252D01*
X484515Y47966D01*
X484908Y47703D01*
X486220Y46391D01*
Y48228D01*
X406983Y108596D02*
X406851Y108858D01*
X406589Y109121D01*
X406326Y109252D01*
X405802D01*
X405539Y109121D01*
X405277Y108858D01*
X405146Y108596D01*
X405014Y108202D01*
Y107546D01*
X405146Y107152D01*
X405277Y106890D01*
X405539Y106628D01*
X405802Y106496D01*
X406326D01*
X406589Y106628D01*
X406851Y106890D01*
X406983Y107152D01*
X407757Y108727D02*
X408019Y108858D01*
X408413Y109252D01*
Y106496D01*
X409777Y108727D02*
X410040Y108858D01*
X410433Y109252D01*
Y106496D01*
X512008Y108596D02*
X511876Y108858D01*
X511614Y109121D01*
X511351Y109252D01*
X510827D01*
X510564Y109121D01*
X510302Y108858D01*
X510171Y108596D01*
X510039Y108202D01*
Y107546D01*
X510171Y107152D01*
X510302Y106890D01*
X510564Y106628D01*
X510827Y106496D01*
X511351D01*
X511614Y106628D01*
X511876Y106890D01*
X512008Y107152D01*
X512782Y108727D02*
X513044Y108858D01*
X513438Y109252D01*
Y106496D01*
X515589Y109252D02*
X515196Y109121D01*
X514933Y108727D01*
X514802Y108071D01*
Y107677D01*
X514933Y107021D01*
X515196Y106628D01*
X515589Y106496D01*
X515852D01*
X516246Y106628D01*
X516508Y107021D01*
X516639Y107677D01*
Y108071D01*
X516508Y108727D01*
X516246Y109121D01*
X515852Y109252D01*
X515589D01*
X463452Y45749D02*
X463189Y45617D01*
X462927Y45355D01*
X462796Y45092D01*
Y44568D01*
X462927Y44305D01*
X463189Y44043D01*
X463452Y43912D01*
X463845Y43780D01*
X464501D01*
X464895Y43912D01*
X465157Y44043D01*
X465420Y44305D01*
X465551Y44568D01*
Y45092D01*
X465420Y45355D01*
X465157Y45617D01*
X464895Y45749D01*
X463714Y48228D02*
X464108Y48097D01*
X464370Y47835D01*
X464501Y47441D01*
Y47310D01*
X464370Y46916D01*
X464108Y46654D01*
X463714Y46523D01*
X463583D01*
X463189Y46654D01*
X462927Y46916D01*
X462796Y47310D01*
Y47441D01*
X462927Y47835D01*
X463189Y48097D01*
X463714Y48228D01*
X464370D01*
X465026Y48097D01*
X465420Y47835D01*
X465551Y47441D01*
Y47179D01*
X465420Y46785D01*
X465157Y46654D01*
X428019Y45617D02*
X427756Y45486D01*
X427494Y45224D01*
X427363Y44961D01*
Y44436D01*
X427494Y44174D01*
X427756Y43912D01*
X428019Y43780D01*
X428412Y43649D01*
X429068D01*
X429462Y43780D01*
X429724Y43912D01*
X429987Y44174D01*
X430118Y44436D01*
Y44961D01*
X429987Y45224D01*
X429724Y45486D01*
X429462Y45617D01*
X427363Y47047D02*
X427494Y46654D01*
X427756Y46523D01*
X428019D01*
X428281Y46654D01*
X428412Y46916D01*
X428543Y47441D01*
X428675Y47835D01*
X428937Y48097D01*
X429199Y48228D01*
X429593D01*
X429855Y48097D01*
X429987Y47966D01*
X430118Y47572D01*
Y47047D01*
X429987Y46654D01*
X429855Y46523D01*
X429593Y46391D01*
X429199D01*
X428937Y46523D01*
X428675Y46785D01*
X428543Y47179D01*
X428412Y47703D01*
X428281Y47966D01*
X428019Y48097D01*
X427756D01*
X427494Y47966D01*
X427363Y47572D01*
Y47047D01*
X512008Y115485D02*
X511876Y115748D01*
X511614Y116010D01*
X511351Y116141D01*
X510827D01*
X510564Y116010D01*
X510302Y115748D01*
X510171Y115485D01*
X510039Y115092D01*
Y114436D01*
X510171Y114042D01*
X510302Y113780D01*
X510564Y113517D01*
X510827Y113386D01*
X511351D01*
X511614Y113517D01*
X511876Y113780D01*
X512008Y114042D01*
X514618Y116141D02*
X513307Y113386D01*
X512782Y116141D02*
X514618D01*
X491011Y45617D02*
X490748Y45486D01*
X490486Y45224D01*
X490355Y44961D01*
Y44436D01*
X490486Y44174D01*
X490748Y43912D01*
X491011Y43780D01*
X491404Y43649D01*
X492060D01*
X492454Y43780D01*
X492716Y43912D01*
X492979Y44174D01*
X493110Y44436D01*
Y44961D01*
X492979Y45224D01*
X492716Y45486D01*
X492454Y45617D01*
X490355Y47966D02*
Y46654D01*
X491536Y46523D01*
X491404Y46654D01*
X491273Y47047D01*
Y47441D01*
X491404Y47835D01*
X491667Y48097D01*
X492060Y48228D01*
X492323D01*
X492716Y48097D01*
X492979Y47835D01*
X493110Y47441D01*
Y47047D01*
X492979Y46654D01*
X492848Y46523D01*
X492585Y46391D01*
X421129Y45486D02*
X420866Y45355D01*
X420604Y45092D01*
X420473Y44830D01*
Y44305D01*
X420604Y44043D01*
X420866Y43780D01*
X421129Y43649D01*
X421523Y43518D01*
X422179D01*
X422572Y43649D01*
X422834Y43780D01*
X423097Y44043D01*
X423228Y44305D01*
Y44830D01*
X423097Y45092D01*
X422834Y45355D01*
X422572Y45486D01*
X420473Y47572D02*
X422310Y46260D01*
Y48228D01*
X420473Y47572D02*
X423228D01*
X407822Y67257D02*
X407691Y67519D01*
X407429Y67782D01*
X407166Y67913D01*
X406641D01*
X406379Y67782D01*
X406116Y67519D01*
X405985Y67257D01*
X405854Y66864D01*
Y66207D01*
X405985Y65814D01*
X406116Y65551D01*
X406379Y65289D01*
X406641Y65158D01*
X407166D01*
X407429Y65289D01*
X407691Y65551D01*
X407822Y65814D01*
X408859Y67913D02*
X410302D01*
X409515Y66864D01*
X409908D01*
X410171Y66732D01*
X410302Y66601D01*
X410433Y66207D01*
Y65945D01*
X410302Y65551D01*
X410040Y65289D01*
X409646Y65158D01*
X409252D01*
X408859Y65289D01*
X408728Y65420D01*
X408596Y65683D01*
X407822Y115485D02*
X407691Y115748D01*
X407429Y116010D01*
X407166Y116141D01*
X406641D01*
X406379Y116010D01*
X406116Y115748D01*
X405985Y115485D01*
X405854Y115092D01*
Y114436D01*
X405985Y114042D01*
X406116Y113780D01*
X406379Y113517D01*
X406641Y113386D01*
X407166D01*
X407429Y113517D01*
X407691Y113780D01*
X407822Y114042D01*
X408728Y115485D02*
Y115617D01*
X408859Y115879D01*
X408990Y116010D01*
X409252Y116141D01*
X409777D01*
X410040Y116010D01*
X410171Y115879D01*
X410302Y115617D01*
Y115354D01*
X410171Y115092D01*
X409908Y114698D01*
X408596Y113386D01*
X410433D01*
X477231Y46798D02*
X476969Y46667D01*
X476706Y46405D01*
X476575Y46142D01*
Y45617D01*
X476706Y45355D01*
X476969Y45092D01*
X477231Y44961D01*
X477625Y44830D01*
X478281D01*
X478674Y44961D01*
X478937Y45092D01*
X479199Y45355D01*
X479330Y45617D01*
Y46142D01*
X479199Y46405D01*
X478937Y46667D01*
X478674Y46798D01*
X477100Y47572D02*
X476969Y47835D01*
X476575Y48228D01*
X479330D01*
X498819Y353150D02*
X508268D01*
X498819Y347244D02*
X508268D01*
X97047Y450787D02*
Y460236D01*
X91142Y450787D02*
Y460236D01*
X99016Y450787D02*
Y460236D01*
X104921Y450787D02*
Y460236D01*
X151181Y541339D02*
Y550787D01*
X145276Y541339D02*
Y550787D01*
X418898Y312992D02*
Y322441D01*
X424803Y312992D02*
Y322441D01*
X498917Y381693D02*
X508366D01*
X498917Y387598D02*
X508366D01*
X498819Y388583D02*
X508268D01*
X498819Y394488D02*
X508268D01*
X412205Y347244D02*
X421654D01*
X412205Y353150D02*
X421654D01*
X498819Y360039D02*
X508268D01*
X498819Y354134D02*
X508268D01*
X346654Y533268D02*
X352953D01*
X358858D02*
X365158D01*
X346654Y547047D02*
X350787Y547047D01*
X361024Y547047D02*
X365158D01*
X236417Y533268D02*
X242717D01*
X248622D02*
X254921D01*
X236417Y547047D02*
X240551Y547047D01*
X250787Y547047D02*
X254921D01*
X494685D02*
X506496D01*
X494685Y537205D02*
X506496D01*
X494685Y527362D02*
X506496D01*
X494685Y517520D02*
X506496D01*
X480906Y312992D02*
Y322441D01*
X475000Y312992D02*
Y322441D01*
X412205Y380709D02*
X421654D01*
X412205Y374803D02*
X421654D01*
X412205Y332480D02*
X421654D01*
X412205Y326575D02*
X421654D01*
X488780Y312992D02*
Y322441D01*
X494685Y312992D02*
Y322441D01*
X498819Y374803D02*
X508268D01*
X498819Y380709D02*
X508268D01*
X425787Y312992D02*
Y322441D01*
X431693Y312992D02*
Y322441D01*
X461221Y312992D02*
Y322441D01*
X467126Y312992D02*
Y322441D01*
X498819Y367913D02*
X508268D01*
X498819Y373819D02*
X508268D01*
X412205D02*
X421654D01*
X412205Y367913D02*
X421654D01*
X481890Y312992D02*
Y322441D01*
X487795Y312992D02*
Y322441D01*
X498819Y326575D02*
X508268D01*
X498819Y332480D02*
X508268D01*
X495669Y312992D02*
Y322441D01*
X501575Y312992D02*
Y322441D01*
X498819Y361024D02*
X508268D01*
X498819Y366929D02*
X508268D01*
X499803Y503740D02*
X509252D01*
X499803Y497835D02*
X509252D01*
X485532D02*
X494980D01*
X485532Y503740D02*
X494980D01*
X471260Y497835D02*
X480709D01*
X471260Y503740D02*
X480709D01*
X447441Y540354D02*
Y549803D01*
X441536Y540354D02*
Y549803D01*
X447441Y523622D02*
Y533071D01*
X441536Y523622D02*
Y533071D01*
X99016Y390748D02*
Y400197D01*
X104921Y390748D02*
Y400197D01*
X91142Y390748D02*
Y400197D01*
X97047Y390748D02*
Y400197D01*
X412205Y366929D02*
X421654D01*
X412205Y361024D02*
X421654D01*
X412205Y333465D02*
X421654D01*
X412205Y339370D02*
X421654D01*
X468110Y312992D02*
Y322441D01*
X474016Y312992D02*
Y322441D01*
X498819Y346260D02*
X508268D01*
X498819Y340354D02*
X508268D01*
X498819Y339370D02*
X508268D01*
X498819Y333465D02*
X508268D01*
X412205Y340354D02*
X421654D01*
X412205Y346260D02*
X421654D01*
X408071Y540354D02*
Y549803D01*
X413976Y540354D02*
Y549803D01*
X408071Y523622D02*
Y533071D01*
X413976Y523622D02*
Y533071D01*
X160039Y541339D02*
Y550787D01*
X154134Y541339D02*
Y550787D01*
X178937Y550000D02*
X188386D01*
X178937Y544095D02*
X188386D01*
X178937Y532283D02*
X188386D01*
X178937Y526378D02*
X188386D01*
X104921Y502953D02*
Y512402D01*
X99016Y502953D02*
Y512402D01*
X412205Y354134D02*
X421654D01*
X412205Y360039D02*
X421654D01*
X91142Y502953D02*
Y512402D01*
X97047Y502953D02*
Y512402D01*
X142323Y541339D02*
Y550787D01*
X136417Y541339D02*
Y550787D01*
X178937Y535236D02*
X188386D01*
X178937Y541142D02*
X188386D01*
X99016Y541142D02*
Y550984D01*
Y538779D02*
X104921D01*
Y541142D02*
Y550984D01*
X91142Y541142D02*
Y550984D01*
Y538780D02*
X97047D01*
Y541142D02*
Y550984D01*
X99016Y521457D02*
Y531299D01*
Y519095D02*
X104921D01*
Y521457D02*
Y531299D01*
X91142Y521457D02*
Y531299D01*
Y519095D02*
X97047D01*
Y521457D02*
Y531299D01*
X422835Y388583D02*
Y394488D01*
X412205D02*
X420866D01*
X412205Y388583D02*
X420866D01*
X422835Y381693D02*
Y387598D01*
X412205D02*
X420866D01*
X412205Y381693D02*
X420866D01*
X512008Y350919D02*
X511876Y351181D01*
X511614Y351443D01*
X511351Y351574D01*
X510827D01*
X510564Y351443D01*
X510302Y351181D01*
X510171Y350919D01*
X510039Y350525D01*
Y349869D01*
X510171Y349475D01*
X510302Y349213D01*
X510564Y348950D01*
X510827Y348819D01*
X511351D01*
X511614Y348950D01*
X511876Y349213D01*
X512008Y349475D01*
X514356Y351181D02*
X514225Y351443D01*
X513831Y351574D01*
X513569D01*
X513175Y351443D01*
X512913Y351050D01*
X512782Y350394D01*
Y349738D01*
X512913Y349213D01*
X513175Y348950D01*
X513569Y348819D01*
X513700D01*
X514094Y348950D01*
X514356Y349213D01*
X514487Y349606D01*
Y349738D01*
X514356Y350131D01*
X514094Y350394D01*
X513700Y350525D01*
X513569D01*
X513175Y350394D01*
X512913Y350131D01*
X512782Y349738D01*
X91313Y449016D02*
Y446260D01*
Y449016D02*
X92494D01*
X92888Y448884D01*
X93019Y448753D01*
X93150Y448491D01*
Y448228D01*
X93019Y447966D01*
X92888Y447835D01*
X92494Y447703D01*
X91313D01*
X92231D02*
X93150Y446260D01*
X93898Y448359D02*
Y448491D01*
X94029Y448753D01*
X94160Y448884D01*
X94423Y449016D01*
X94947D01*
X95210Y448884D01*
X95341Y448753D01*
X95472Y448491D01*
Y448228D01*
X95341Y447966D01*
X95079Y447572D01*
X93767Y446260D01*
X95603D01*
X96220Y448491D02*
X96482Y448622D01*
X96876Y449016D01*
Y446260D01*
X98597Y449016D02*
Y446260D01*
Y449016D02*
X99777D01*
X100171Y448884D01*
X100302Y448753D01*
X100434Y448491D01*
Y448228D01*
X100302Y447966D01*
X100171Y447835D01*
X99777Y447703D01*
X98597D01*
X99515D02*
X100434Y446260D01*
X101181Y448359D02*
Y448491D01*
X101312Y448753D01*
X101444Y448884D01*
X101706Y449016D01*
X102231D01*
X102493Y448884D01*
X102625Y448753D01*
X102756Y448491D01*
Y448228D01*
X102625Y447966D01*
X102362Y447572D01*
X101050Y446260D01*
X102887D01*
X104291Y449016D02*
X103897Y448884D01*
X103635Y448491D01*
X103504Y447835D01*
Y447441D01*
X103635Y446785D01*
X103897Y446391D01*
X104291Y446260D01*
X104553D01*
X104947Y446391D01*
X105209Y446785D01*
X105341Y447441D01*
Y447835D01*
X105209Y448491D01*
X104947Y448884D01*
X104553Y449016D01*
X104291D01*
X458080Y528346D02*
Y525984D01*
Y528346D02*
X459092D01*
X459429Y528233D01*
X459542Y528121D01*
X459654Y527896D01*
Y527671D01*
X459542Y527446D01*
X459429Y527334D01*
X459092Y527221D01*
X458080D02*
X459092D01*
X459429Y527109D01*
X459542Y526996D01*
X459654Y526771D01*
Y526434D01*
X459542Y526209D01*
X459429Y526097D01*
X459092Y525984D01*
X458080D01*
X460858Y528346D02*
X460633Y528233D01*
X460408Y528009D01*
X460295Y527784D01*
X460183Y527446D01*
Y526884D01*
X460295Y526547D01*
X460408Y526322D01*
X460633Y526097D01*
X460858Y525984D01*
X461307D01*
X461532Y526097D01*
X461757Y526322D01*
X461870Y526547D01*
X461982Y526884D01*
Y527446D01*
X461870Y527784D01*
X461757Y528009D01*
X461532Y528233D01*
X461307Y528346D01*
X460858D01*
X463320D02*
Y525984D01*
X462533Y528346D02*
X464108D01*
X465176D02*
Y525984D01*
X464389Y528346D02*
X465963D01*
X466919D02*
X466694Y528233D01*
X466469Y528009D01*
X466357Y527784D01*
X466245Y527446D01*
Y526884D01*
X466357Y526547D01*
X466469Y526322D01*
X466694Y526097D01*
X466919Y525984D01*
X467369D01*
X467594Y526097D01*
X467819Y526322D01*
X467931Y526547D01*
X468044Y526884D01*
Y527446D01*
X467931Y527784D01*
X467819Y528009D01*
X467594Y528233D01*
X467369Y528346D01*
X466919D01*
X468595D02*
Y525984D01*
Y528346D02*
X469495Y525984D01*
X470394Y528346D02*
X469495Y525984D01*
X470394Y528346D02*
Y525984D01*
X474612Y527784D02*
X474499Y528009D01*
X474274Y528233D01*
X474049Y528346D01*
X473599D01*
X473375Y528233D01*
X473150Y528009D01*
X473037Y527784D01*
X472925Y527446D01*
Y526884D01*
X473037Y526547D01*
X473150Y526322D01*
X473375Y526097D01*
X473599Y525984D01*
X474049D01*
X474274Y526097D01*
X474499Y526322D01*
X474612Y526547D01*
X475950Y528346D02*
X475725Y528233D01*
X475500Y528009D01*
X475388Y527784D01*
X475275Y527446D01*
Y526884D01*
X475388Y526547D01*
X475500Y526322D01*
X475725Y526097D01*
X475950Y525984D01*
X476400D01*
X476625Y526097D01*
X476850Y526322D01*
X476962Y526547D01*
X477075Y526884D01*
Y527446D01*
X476962Y527784D01*
X476850Y528009D01*
X476625Y528233D01*
X476400Y528346D01*
X475950D01*
X477626D02*
Y525984D01*
Y528346D02*
X479200Y525984D01*
Y528346D02*
Y525984D01*
X480640Y528346D02*
Y525984D01*
X479852Y528346D02*
X481427D01*
X483507Y525984D02*
X482608Y528346D01*
X481708Y525984D01*
X482045Y526771D02*
X483170D01*
X485745Y527784D02*
X485633Y528009D01*
X485408Y528233D01*
X485183Y528346D01*
X484733D01*
X484508Y528233D01*
X484283Y528009D01*
X484171Y527784D01*
X484058Y527446D01*
Y526884D01*
X484171Y526547D01*
X484283Y526322D01*
X484508Y526097D01*
X484733Y525984D01*
X485183D01*
X485408Y526097D01*
X485633Y526322D01*
X485745Y526547D01*
X487196Y528346D02*
Y525984D01*
X486409Y528346D02*
X487983D01*
X495005Y551771D02*
Y548622D01*
Y551771D02*
X496355D01*
X496804Y551621D01*
X496954Y551471D01*
X497104Y551171D01*
Y550871D01*
X496954Y550571D01*
X496804Y550421D01*
X496355Y550272D01*
X495005D02*
X496355D01*
X496804Y550121D01*
X496954Y549972D01*
X497104Y549672D01*
Y549222D01*
X496954Y548922D01*
X496804Y548772D01*
X496355Y548622D01*
X495005D01*
X498709Y551771D02*
X498409Y551621D01*
X498109Y551321D01*
X497959Y551021D01*
X497809Y550571D01*
Y549822D01*
X497959Y549372D01*
X498109Y549072D01*
X498409Y548772D01*
X498709Y548622D01*
X499309D01*
X499609Y548772D01*
X499908Y549072D01*
X500058Y549372D01*
X500208Y549822D01*
Y550571D01*
X500058Y551021D01*
X499908Y551321D01*
X499609Y551621D01*
X499309Y551771D01*
X498709D01*
X501843D02*
X501543Y551621D01*
X501243Y551321D01*
X501093Y551021D01*
X500943Y550571D01*
Y549822D01*
X501093Y549372D01*
X501243Y549072D01*
X501543Y548772D01*
X501843Y548622D01*
X502443D01*
X502742Y548772D01*
X503042Y549072D01*
X503192Y549372D01*
X503342Y549822D01*
Y550571D01*
X503192Y551021D01*
X503042Y551321D01*
X502742Y551621D01*
X502443Y551771D01*
X501843D01*
X505127D02*
Y548622D01*
X504077Y551771D02*
X506176D01*
X494460Y515354D02*
Y512205D01*
Y515354D02*
X495809D01*
X496259Y515204D01*
X496409Y515054D01*
X496559Y514754D01*
Y514454D01*
X496409Y514154D01*
X496259Y514004D01*
X495809Y513854D01*
X494460D01*
X495509D02*
X496559Y512205D01*
X499213Y515354D02*
X497264D01*
Y512205D01*
X499213D01*
X497264Y513854D02*
X498463D01*
X501837Y514904D02*
X501537Y515204D01*
X501087Y515354D01*
X500488D01*
X500038Y515204D01*
X499738Y514904D01*
Y514604D01*
X499888Y514304D01*
X500038Y514154D01*
X500338Y514004D01*
X501237Y513704D01*
X501537Y513554D01*
X501687Y513404D01*
X501837Y513104D01*
Y512655D01*
X501537Y512355D01*
X501087Y512205D01*
X500488D01*
X500038Y512355D01*
X499738Y512655D01*
X504491Y515354D02*
X502542D01*
Y512205D01*
X504491D01*
X502542Y513854D02*
X503742D01*
X506066Y515354D02*
Y512205D01*
X505016Y515354D02*
X507115D01*
X472829Y405315D02*
X472566Y405577D01*
X472173Y405708D01*
X471648D01*
X471254Y405577D01*
X470992Y405315D01*
Y405052D01*
X471123Y404790D01*
X471254Y404659D01*
X471517Y404528D01*
X472304Y404265D01*
X472566Y404134D01*
X472697Y404003D01*
X472829Y403740D01*
Y403347D01*
X472566Y403084D01*
X472173Y402953D01*
X471648D01*
X471254Y403084D01*
X470992Y403347D01*
X473445Y404265D02*
X474626D01*
X475020Y404396D01*
X475151Y404528D01*
X475282Y404790D01*
Y405184D01*
X475151Y405446D01*
X475020Y405577D01*
X474626Y405708D01*
X473445D01*
Y402953D01*
X475899Y405708D02*
Y402953D01*
X477736Y405708D02*
X475899Y403871D01*
X476555Y404528D02*
X477736Y402953D01*
X478352Y405184D02*
X478615Y405315D01*
X479008Y405708D01*
Y402953D01*
X170663Y539567D02*
Y536811D01*
Y539567D02*
X171844D01*
X172238Y539435D01*
X172369Y539304D01*
X172500Y539042D01*
Y538779D01*
X172369Y538517D01*
X172238Y538386D01*
X171844Y538255D01*
X170663D01*
X171582D02*
X172500Y536811D01*
X173117Y539042D02*
X173379Y539173D01*
X173773Y539567D01*
Y536811D01*
X176974Y539567D02*
X175662Y536811D01*
X175138Y539567D02*
X176974D01*
X92802Y422047D02*
X92540Y422309D01*
X92146Y422441D01*
X91621D01*
X91228Y422309D01*
X90965Y422047D01*
Y421785D01*
X91096Y421522D01*
X91228Y421391D01*
X91490Y421260D01*
X92277Y420997D01*
X92540Y420866D01*
X92671Y420735D01*
X92802Y420473D01*
Y420079D01*
X92540Y419817D01*
X92146Y419685D01*
X91621D01*
X91228Y419817D01*
X90965Y420079D01*
X94993Y422441D02*
X93681D01*
X93550Y421260D01*
X93681Y421391D01*
X94075Y421522D01*
X94468D01*
X94862Y421391D01*
X95124Y421129D01*
X95256Y420735D01*
Y420473D01*
X95124Y420079D01*
X94862Y419817D01*
X94468Y419685D01*
X94075D01*
X93681Y419817D01*
X93550Y419948D01*
X93419Y420210D01*
X91542Y464895D02*
X91280Y464763D01*
X91018Y464501D01*
X90886Y464239D01*
X90755Y463845D01*
Y463189D01*
X90886Y462795D01*
X91018Y462533D01*
X91280Y462271D01*
X91542Y462139D01*
X92067D01*
X92330Y462271D01*
X92592Y462533D01*
X92723Y462795D01*
X92854Y463189D01*
Y463845D01*
X92723Y464239D01*
X92592Y464501D01*
X92330Y464763D01*
X92067Y464895D01*
X91542D01*
X91936Y462664D02*
X92723Y461877D01*
X94809Y464895D02*
X93497Y463058D01*
X95465D01*
X94809Y464895D02*
Y462139D01*
X91608Y482611D02*
X91346Y482480D01*
X91083Y482218D01*
X90952Y481955D01*
X90821Y481562D01*
Y480906D01*
X90952Y480512D01*
X91083Y480250D01*
X91346Y479987D01*
X91608Y479856D01*
X92133D01*
X92395Y479987D01*
X92658Y480250D01*
X92789Y480512D01*
X92920Y480906D01*
Y481562D01*
X92789Y481955D01*
X92658Y482218D01*
X92395Y482480D01*
X92133Y482611D01*
X91608D01*
X92002Y480381D02*
X92789Y479594D01*
X93825Y482611D02*
X95269D01*
X94481Y481562D01*
X94875D01*
X95137Y481430D01*
X95269Y481299D01*
X95400Y480906D01*
Y480643D01*
X95269Y480250D01*
X95006Y479987D01*
X94613Y479856D01*
X94219D01*
X93825Y479987D01*
X93694Y480118D01*
X93563Y480381D01*
X91949Y517913D02*
Y515158D01*
Y517913D02*
X92868D01*
X93261Y517782D01*
X93524Y517520D01*
X93655Y517257D01*
X93786Y516863D01*
Y516207D01*
X93655Y515814D01*
X93524Y515551D01*
X93261Y515289D01*
X92868Y515158D01*
X91949D01*
X96240Y517913D02*
X94928Y515158D01*
X94403Y517913D02*
X96240D01*
X99889D02*
Y515158D01*
Y517913D02*
X100807D01*
X101201Y517782D01*
X101463Y517520D01*
X101595Y517257D01*
X101726Y516863D01*
Y516207D01*
X101595Y515814D01*
X101463Y515551D01*
X101201Y515289D01*
X100807Y515158D01*
X99889D01*
X103917Y517520D02*
X103786Y517782D01*
X103392Y517913D01*
X103130D01*
X102736Y517782D01*
X102474Y517388D01*
X102342Y516732D01*
Y516076D01*
X102474Y515551D01*
X102736Y515289D01*
X103130Y515158D01*
X103261D01*
X103655Y515289D01*
X103917Y515551D01*
X104048Y515945D01*
Y516076D01*
X103917Y516470D01*
X103655Y516732D01*
X103261Y516863D01*
X103130D01*
X102736Y516732D01*
X102474Y516470D01*
X102342Y516076D01*
X91949Y537598D02*
Y534843D01*
Y537598D02*
X92868D01*
X93261Y537467D01*
X93524Y537205D01*
X93655Y536942D01*
X93786Y536549D01*
Y535892D01*
X93655Y535499D01*
X93524Y535236D01*
X93261Y534974D01*
X92868Y534843D01*
X91949D01*
X95977Y537598D02*
X94665D01*
X94534Y536417D01*
X94665Y536549D01*
X95059Y536680D01*
X95453D01*
X95846Y536549D01*
X96109Y536286D01*
X96240Y535892D01*
Y535630D01*
X96109Y535236D01*
X95846Y534974D01*
X95453Y534843D01*
X95059D01*
X94665Y534974D01*
X94534Y535105D01*
X94403Y535368D01*
X99758Y537598D02*
Y534843D01*
Y537598D02*
X100676D01*
X101070Y537467D01*
X101332Y537205D01*
X101463Y536942D01*
X101595Y536549D01*
Y535892D01*
X101463Y535499D01*
X101332Y535236D01*
X101070Y534974D01*
X100676Y534843D01*
X99758D01*
X103523Y537598D02*
X102211Y535761D01*
X104179D01*
X103523Y537598D02*
Y534843D01*
X382894Y551378D02*
Y548622D01*
Y551378D02*
X383813D01*
X384206Y551247D01*
X384469Y550984D01*
X384600Y550722D01*
X384731Y550328D01*
Y549672D01*
X384600Y549278D01*
X384469Y549016D01*
X384206Y548754D01*
X383813Y548622D01*
X382894D01*
X385348Y550853D02*
X385610Y550984D01*
X386004Y551378D01*
Y548622D01*
X406141Y386023D02*
Y383267D01*
Y386023D02*
X407060D01*
X407453Y385892D01*
X407716Y385629D01*
X407847Y385367D01*
X407978Y384973D01*
Y384317D01*
X407847Y383924D01*
X407716Y383661D01*
X407453Y383399D01*
X407060Y383267D01*
X406141D01*
X408857Y386023D02*
X410301D01*
X409513Y384973D01*
X409907D01*
X410169Y384842D01*
X410301Y384711D01*
X410432Y384317D01*
Y384055D01*
X410301Y383661D01*
X410038Y383399D01*
X409645Y383267D01*
X409251D01*
X408857Y383399D01*
X408726Y383530D01*
X408595Y383792D01*
X406143Y392913D02*
Y390158D01*
Y392913D02*
X407061D01*
X407455Y392782D01*
X407717Y392519D01*
X407848Y392257D01*
X407980Y391863D01*
Y391207D01*
X407848Y390814D01*
X407717Y390551D01*
X407455Y390289D01*
X407061Y390158D01*
X406143D01*
X408728Y392257D02*
Y392388D01*
X408859Y392651D01*
X408990Y392782D01*
X409252Y392913D01*
X409777D01*
X410040Y392782D01*
X410171Y392651D01*
X410302Y392388D01*
Y392126D01*
X410171Y391863D01*
X409908Y391470D01*
X408596Y390158D01*
X410433D01*
X461194Y551378D02*
Y549278D01*
X461063Y548885D01*
X460932Y548754D01*
X460670Y548622D01*
X460407D01*
X460145Y548754D01*
X460013Y548885D01*
X459882Y549278D01*
Y549541D01*
X461903Y550853D02*
X462165Y550984D01*
X462559Y551378D01*
Y548622D01*
X136215Y539567D02*
Y536811D01*
Y539567D02*
X137396D01*
X137789Y539435D01*
X137920Y539304D01*
X138051Y539042D01*
Y538779D01*
X137920Y538517D01*
X137789Y538386D01*
X137396Y538255D01*
X136215D01*
X137133D02*
X138051Y536811D01*
X138668Y539042D02*
X138931Y539173D01*
X139324Y539567D01*
Y536811D01*
X140820Y538911D02*
Y539042D01*
X140951Y539304D01*
X141082Y539435D01*
X141345Y539567D01*
X141870D01*
X142132Y539435D01*
X142263Y539304D01*
X142394Y539042D01*
Y538779D01*
X142263Y538517D01*
X142001Y538123D01*
X140689Y536811D01*
X142526D01*
X444902Y309252D02*
X446739Y306496D01*
Y309252D02*
X444902Y306496D01*
X447356Y308727D02*
X447618Y308858D01*
X448012Y309252D01*
Y306496D01*
X90827Y404724D02*
Y402756D01*
X90958Y402362D01*
X91221Y402100D01*
X91615Y401969D01*
X91877D01*
X92271Y402100D01*
X92533Y402362D01*
X92664Y402756D01*
Y404724D01*
X94737D02*
X93425Y402887D01*
X95393D01*
X94737Y404724D02*
Y401969D01*
X117468Y526771D02*
Y524803D01*
X117599Y524410D01*
X117861Y524147D01*
X118255Y524016D01*
X118517D01*
X118911Y524147D01*
X119173Y524410D01*
X119305Y524803D01*
Y526771D01*
X121640D02*
X120328D01*
X120197Y525591D01*
X120328Y525722D01*
X120722Y525853D01*
X121115D01*
X121509Y525722D01*
X121771Y525459D01*
X121903Y525066D01*
Y524803D01*
X121771Y524410D01*
X121509Y524147D01*
X121115Y524016D01*
X120722D01*
X120328Y524147D01*
X120197Y524278D01*
X120066Y524541D01*
X431589Y537598D02*
Y535630D01*
X431720Y535236D01*
X431983Y534974D01*
X432376Y534843D01*
X432639D01*
X433032Y534974D01*
X433295Y535236D01*
X433426Y535630D01*
Y537598D01*
X434449D02*
X435892D01*
X435105Y536549D01*
X435499D01*
X435761Y536417D01*
X435892Y536286D01*
X436024Y535892D01*
Y535630D01*
X435892Y535236D01*
X435630Y534974D01*
X435237Y534843D01*
X434843D01*
X434449Y534974D01*
X434318Y535105D01*
X434187Y535368D01*
X487546Y468701D02*
Y466732D01*
X487678Y466339D01*
X487940Y466076D01*
X488334Y465945D01*
X488596D01*
X488990Y466076D01*
X489252Y466339D01*
X489383Y466732D01*
Y468701D01*
X490276Y468045D02*
Y468176D01*
X490407Y468438D01*
X490538Y468569D01*
X490800Y468701D01*
X491325D01*
X491588Y468569D01*
X491719Y468438D01*
X491850Y468176D01*
Y467913D01*
X491719Y467651D01*
X491456Y467257D01*
X490144Y465945D01*
X491981D01*
X434987Y338779D02*
Y336811D01*
X435118Y336418D01*
X435381Y336155D01*
X435775Y336024D01*
X436037D01*
X436431Y336155D01*
X436693Y336418D01*
X436824Y336811D01*
Y338779D01*
X437585Y338254D02*
X437848Y338386D01*
X438241Y338779D01*
Y336024D01*
X234469Y530315D02*
X234206Y530577D01*
X233813Y530708D01*
X233288D01*
X232894Y530577D01*
X232632Y530315D01*
Y530052D01*
X232763Y529790D01*
X232894Y529659D01*
X233157Y529528D01*
X233944Y529265D01*
X234206Y529134D01*
X234337Y529003D01*
X234469Y528740D01*
Y528347D01*
X234206Y528084D01*
X233813Y527953D01*
X233288D01*
X232894Y528084D01*
X232632Y528347D01*
X236397Y530708D02*
X235085Y528871D01*
X237053D01*
X236397Y530708D02*
Y527953D01*
X344771Y530315D02*
X344508Y530577D01*
X344114Y530708D01*
X343590D01*
X343196Y530577D01*
X342934Y530315D01*
Y530052D01*
X343065Y529790D01*
X343196Y529659D01*
X343458Y529528D01*
X344246Y529265D01*
X344508Y529134D01*
X344639Y529003D01*
X344771Y528740D01*
Y528347D01*
X344508Y528084D01*
X344114Y527953D01*
X343590D01*
X343196Y528084D01*
X342934Y528347D01*
X345650Y530708D02*
X347093D01*
X346306Y529659D01*
X346699D01*
X346962Y529528D01*
X347093Y529396D01*
X347224Y529003D01*
Y528740D01*
X347093Y528347D01*
X346830Y528084D01*
X346437Y527953D01*
X346043D01*
X345650Y528084D01*
X345518Y528216D01*
X345387Y528478D01*
X497113Y531299D02*
X496850Y531561D01*
X496456Y531693D01*
X495932D01*
X495538Y531561D01*
X495276Y531299D01*
Y531037D01*
X495407Y530774D01*
X495538Y530643D01*
X495800Y530512D01*
X496588Y530249D01*
X496850Y530118D01*
X496981Y529987D01*
X497113Y529725D01*
Y529331D01*
X496850Y529069D01*
X496456Y528937D01*
X495932D01*
X495538Y529069D01*
X495276Y529331D01*
X497860Y531037D02*
Y531168D01*
X497992Y531430D01*
X498123Y531561D01*
X498385Y531693D01*
X498910D01*
X499172Y531561D01*
X499304Y531430D01*
X499435Y531168D01*
Y530905D01*
X499304Y530643D01*
X499041Y530249D01*
X497729Y528937D01*
X499566D01*
X497113Y535236D02*
X496850Y535498D01*
X496456Y535630D01*
X495932D01*
X495538Y535498D01*
X495276Y535236D01*
Y534974D01*
X495407Y534711D01*
X495538Y534580D01*
X495800Y534449D01*
X496588Y534186D01*
X496850Y534055D01*
X496981Y533924D01*
X497113Y533662D01*
Y533268D01*
X496850Y533006D01*
X496456Y532874D01*
X495932D01*
X495538Y533006D01*
X495276Y533268D01*
X497729Y535105D02*
X497992Y535236D01*
X498385Y535630D01*
Y532874D01*
X90723Y501181D02*
Y498425D01*
Y501181D02*
X91903D01*
X92297Y501050D01*
X92428Y500918D01*
X92559Y500656D01*
Y500394D01*
X92428Y500131D01*
X92297Y500000D01*
X91903Y499869D01*
X90723D01*
X91641D02*
X92559Y498425D01*
X93307Y500525D02*
Y500656D01*
X93439Y500918D01*
X93570Y501050D01*
X93832Y501181D01*
X94357D01*
X94619Y501050D01*
X94751Y500918D01*
X94882Y500656D01*
Y500394D01*
X94751Y500131D01*
X94488Y499738D01*
X93176Y498425D01*
X95013D01*
X95761Y500525D02*
Y500656D01*
X95892Y500918D01*
X96023Y501050D01*
X96286Y501181D01*
X96811D01*
X97073Y501050D01*
X97204Y500918D01*
X97335Y500656D01*
Y500394D01*
X97204Y500131D01*
X96942Y499738D01*
X95630Y498425D01*
X97467D01*
X404253Y358464D02*
Y355709D01*
Y358464D02*
X405434D01*
X405828Y358333D01*
X405959Y358202D01*
X406090Y357940D01*
Y357677D01*
X405959Y357415D01*
X405828Y357283D01*
X405434Y357152D01*
X404253D01*
X405172D02*
X406090Y355709D01*
X406707Y357940D02*
X406969Y358071D01*
X407363Y358464D01*
Y355709D01*
X410433Y357546D02*
X410302Y357152D01*
X410040Y356890D01*
X409646Y356759D01*
X409515D01*
X409121Y356890D01*
X408859Y357152D01*
X408728Y357546D01*
Y357677D01*
X408859Y358071D01*
X409121Y358333D01*
X409515Y358464D01*
X409646D01*
X410040Y358333D01*
X410302Y358071D01*
X410433Y357546D01*
Y356890D01*
X410302Y356234D01*
X410040Y355840D01*
X409646Y355709D01*
X409383D01*
X408990Y355840D01*
X408859Y356103D01*
X98813Y501181D02*
Y498425D01*
Y501181D02*
X99994D01*
X100388Y501050D01*
X100519Y500918D01*
X100650Y500656D01*
Y500394D01*
X100519Y500131D01*
X100388Y500000D01*
X99994Y499869D01*
X98813D01*
X99731D02*
X100650Y498425D01*
X101267Y500656D02*
X101529Y500787D01*
X101923Y501181D01*
Y498425D01*
X103943Y501181D02*
X103550Y501050D01*
X103418Y500787D01*
Y500525D01*
X103550Y500262D01*
X103812Y500131D01*
X104337Y500000D01*
X104730Y499869D01*
X104993Y499606D01*
X105124Y499344D01*
Y498950D01*
X104993Y498688D01*
X104862Y498557D01*
X104468Y498425D01*
X103943D01*
X103550Y498557D01*
X103418Y498688D01*
X103287Y498950D01*
Y499344D01*
X103418Y499606D01*
X103681Y499869D01*
X104074Y500000D01*
X104599Y500131D01*
X104862Y500262D01*
X104993Y500525D01*
Y500787D01*
X104862Y501050D01*
X104468Y501181D01*
X103943D01*
X170729Y530708D02*
Y527953D01*
Y530708D02*
X171910D01*
X172304Y530577D01*
X172435Y530446D01*
X172566Y530184D01*
Y529921D01*
X172435Y529659D01*
X172304Y529528D01*
X171910Y529396D01*
X170729D01*
X171648D02*
X172566Y527953D01*
X173183Y530184D02*
X173445Y530315D01*
X173839Y530708D01*
Y527953D01*
X176778Y530315D02*
X176646Y530577D01*
X176253Y530708D01*
X175990D01*
X175597Y530577D01*
X175334Y530184D01*
X175203Y529528D01*
Y528871D01*
X175334Y528347D01*
X175597Y528084D01*
X175990Y527953D01*
X176122D01*
X176515Y528084D01*
X176778Y528347D01*
X176909Y528740D01*
Y528871D01*
X176778Y529265D01*
X176515Y529528D01*
X176122Y529659D01*
X175990D01*
X175597Y529528D01*
X175334Y529265D01*
X175203Y528871D01*
X170663Y548425D02*
Y545670D01*
Y548425D02*
X171844D01*
X172238Y548294D01*
X172369Y548163D01*
X172500Y547900D01*
Y547638D01*
X172369Y547375D01*
X172238Y547244D01*
X171844Y547113D01*
X170663D01*
X171582D02*
X172500Y545670D01*
X173117Y547900D02*
X173379Y548031D01*
X173773Y548425D01*
Y545670D01*
X176712Y548425D02*
X175400D01*
X175269Y547244D01*
X175400Y547375D01*
X175794Y547507D01*
X176187D01*
X176581Y547375D01*
X176843Y547113D01*
X176974Y546719D01*
Y546457D01*
X176843Y546063D01*
X176581Y545801D01*
X176187Y545670D01*
X175794D01*
X175400Y545801D01*
X175269Y545932D01*
X175138Y546194D01*
X153866Y539567D02*
Y536811D01*
Y539567D02*
X155046D01*
X155440Y539435D01*
X155571Y539304D01*
X155702Y539042D01*
Y538779D01*
X155571Y538517D01*
X155440Y538386D01*
X155046Y538255D01*
X153866D01*
X154784D02*
X155702Y536811D01*
X156319Y539042D02*
X156581Y539173D01*
X156975Y539567D01*
Y536811D01*
X159652Y539567D02*
X158340Y537730D01*
X160308D01*
X159652Y539567D02*
Y536811D01*
X145073Y539567D02*
Y536811D01*
Y539567D02*
X146254D01*
X146647Y539435D01*
X146779Y539304D01*
X146910Y539042D01*
Y538779D01*
X146779Y538517D01*
X146647Y538386D01*
X146254Y538255D01*
X145073D01*
X145991D02*
X146910Y536811D01*
X147527Y539042D02*
X147789Y539173D01*
X148182Y539567D01*
Y536811D01*
X149809Y539567D02*
X151253D01*
X150466Y538517D01*
X150859D01*
X151121Y538386D01*
X151253Y538255D01*
X151384Y537861D01*
Y537599D01*
X151253Y537205D01*
X150990Y536942D01*
X150597Y536811D01*
X150203D01*
X149809Y536942D01*
X149678Y537074D01*
X149547Y537336D01*
X408459Y521850D02*
Y519095D01*
Y521850D02*
X409640D01*
X410033Y521719D01*
X410164Y521588D01*
X410295Y521325D01*
Y521063D01*
X410164Y520800D01*
X410033Y520669D01*
X409640Y520538D01*
X408459D01*
X409377D02*
X410295Y519095D01*
X410912Y521325D02*
X411175Y521456D01*
X411568Y521850D01*
Y519095D01*
X412933Y521325D02*
X413195Y521456D01*
X413589Y521850D01*
Y519095D01*
X407868Y538582D02*
Y535827D01*
Y538582D02*
X409049D01*
X409443Y538451D01*
X409574Y538320D01*
X409705Y538058D01*
Y537795D01*
X409574Y537533D01*
X409443Y537401D01*
X409049Y537270D01*
X407868D01*
X408787D02*
X409705Y535827D01*
X410322Y538058D02*
X410584Y538189D01*
X410978Y538582D01*
Y535827D01*
X413130Y538582D02*
X412736Y538451D01*
X412473Y538058D01*
X412342Y537401D01*
Y537008D01*
X412473Y536352D01*
X412736Y535958D01*
X413130Y535827D01*
X413392D01*
X413786Y535958D01*
X414048Y536352D01*
X414179Y537008D01*
Y537401D01*
X414048Y538058D01*
X413786Y538451D01*
X413392Y538582D01*
X413130D01*
X406274Y351574D02*
Y348819D01*
Y351574D02*
X407455D01*
X407848Y351443D01*
X407980Y351312D01*
X408111Y351050D01*
Y350787D01*
X407980Y350525D01*
X407848Y350394D01*
X407455Y350262D01*
X406274D01*
X407192D02*
X408111Y348819D01*
X410433Y350656D02*
X410302Y350262D01*
X410040Y350000D01*
X409646Y349869D01*
X409515D01*
X409121Y350000D01*
X408859Y350262D01*
X408728Y350656D01*
Y350787D01*
X408859Y351181D01*
X409121Y351443D01*
X409515Y351574D01*
X409646D01*
X410040Y351443D01*
X410302Y351181D01*
X410433Y350656D01*
Y350000D01*
X410302Y349344D01*
X410040Y348950D01*
X409646Y348819D01*
X409383D01*
X408990Y348950D01*
X408859Y349213D01*
X406143Y344685D02*
Y341929D01*
Y344685D02*
X407324D01*
X407717Y344553D01*
X407848Y344422D01*
X407980Y344160D01*
Y343898D01*
X407848Y343635D01*
X407717Y343504D01*
X407324Y343373D01*
X406143D01*
X407061D02*
X407980Y341929D01*
X409252Y344685D02*
X408859Y344553D01*
X408728Y344291D01*
Y344029D01*
X408859Y343766D01*
X409121Y343635D01*
X409646Y343504D01*
X410040Y343373D01*
X410302Y343110D01*
X410433Y342848D01*
Y342454D01*
X410302Y342192D01*
X410171Y342061D01*
X409777Y341929D01*
X409252D01*
X408859Y342061D01*
X408728Y342192D01*
X408596Y342454D01*
Y342848D01*
X408728Y343110D01*
X408990Y343373D01*
X409383Y343504D01*
X409908Y343635D01*
X410171Y343766D01*
X410302Y344029D01*
Y344291D01*
X410171Y344553D01*
X409777Y344685D01*
X409252D01*
X510138Y386023D02*
Y383268D01*
Y386023D02*
X511319D01*
X511712Y385892D01*
X511843Y385761D01*
X511975Y385498D01*
Y385236D01*
X511843Y384974D01*
X511712Y384842D01*
X511319Y384711D01*
X510138D01*
X511056D02*
X511975Y383268D01*
X514428Y386023D02*
X513116Y383268D01*
X512591Y386023D02*
X514428D01*
X510039Y392913D02*
Y390158D01*
Y392913D02*
X511220D01*
X511614Y392782D01*
X511745Y392651D01*
X511876Y392388D01*
Y392126D01*
X511745Y391863D01*
X511614Y391732D01*
X511220Y391601D01*
X510039D01*
X510958D02*
X511876Y390158D01*
X514068Y392519D02*
X513936Y392782D01*
X513543Y392913D01*
X513280D01*
X512887Y392782D01*
X512624Y392388D01*
X512493Y391732D01*
Y391076D01*
X512624Y390551D01*
X512887Y390289D01*
X513280Y390158D01*
X513411D01*
X513805Y390289D01*
X514068Y390551D01*
X514199Y390945D01*
Y391076D01*
X514068Y391470D01*
X513805Y391732D01*
X513411Y391863D01*
X513280D01*
X512887Y391732D01*
X512624Y391470D01*
X512493Y391076D01*
X510039Y337795D02*
Y335040D01*
Y337795D02*
X511220D01*
X511614Y337664D01*
X511745Y337533D01*
X511876Y337270D01*
Y337008D01*
X511745Y336745D01*
X511614Y336614D01*
X511220Y336483D01*
X510039D01*
X510958D02*
X511876Y335040D01*
X514068Y337795D02*
X512755D01*
X512624Y336614D01*
X512755Y336745D01*
X513149Y336877D01*
X513543D01*
X513936Y336745D01*
X514199Y336483D01*
X514330Y336089D01*
Y335827D01*
X514199Y335433D01*
X513936Y335171D01*
X513543Y335040D01*
X513149D01*
X512755Y335171D01*
X512624Y335302D01*
X512493Y335564D01*
X510039Y344685D02*
Y341929D01*
Y344685D02*
X511220D01*
X511614Y344553D01*
X511745Y344422D01*
X511876Y344160D01*
Y343898D01*
X511745Y343635D01*
X511614Y343504D01*
X511220Y343373D01*
X510039D01*
X510958D02*
X511876Y341929D01*
X513805Y344685D02*
X512493Y342848D01*
X514461D01*
X513805Y344685D02*
Y341929D01*
X510040Y358464D02*
Y355709D01*
Y358464D02*
X511220D01*
X511614Y358333D01*
X511745Y358202D01*
X511876Y357940D01*
Y357677D01*
X511745Y357415D01*
X511614Y357283D01*
X511220Y357152D01*
X510040D01*
X510958D02*
X511876Y355709D01*
X512755Y358464D02*
X514199D01*
X513411Y357415D01*
X513805D01*
X514068Y357283D01*
X514199Y357152D01*
X514330Y356759D01*
Y356496D01*
X514199Y356103D01*
X513936Y355840D01*
X513543Y355709D01*
X513149D01*
X512755Y355840D01*
X512624Y355971D01*
X512493Y356234D01*
X469685Y306930D02*
X472441D01*
X469685D02*
Y308111D01*
X469817Y308505D01*
X469948Y308636D01*
X470210Y308767D01*
X470473D01*
X470735Y308636D01*
X470866Y308505D01*
X470997Y308111D01*
Y306930D01*
Y307849D02*
X472441Y308767D01*
X470341Y309515D02*
X470210D01*
X469948Y309646D01*
X469817Y309777D01*
X469685Y310040D01*
Y310564D01*
X469817Y310827D01*
X469948Y310958D01*
X470210Y311089D01*
X470473D01*
X470735Y310958D01*
X471129Y310696D01*
X472441Y309384D01*
Y311221D01*
X407324Y337795D02*
Y335040D01*
Y337795D02*
X408504D01*
X408898Y337664D01*
X409029Y337533D01*
X409161Y337270D01*
Y337008D01*
X409029Y336745D01*
X408898Y336614D01*
X408504Y336483D01*
X407324D01*
X408242D02*
X409161Y335040D01*
X409777Y337270D02*
X410040Y337401D01*
X410433Y337795D01*
Y335040D01*
X192986Y536745D02*
X192724Y536614D01*
X192461Y536351D01*
X192330Y536089D01*
X192199Y535695D01*
Y535039D01*
X192330Y534646D01*
X192461Y534383D01*
X192724Y534121D01*
X192986Y533990D01*
X193511D01*
X193773Y534121D01*
X194036Y534383D01*
X194167Y534646D01*
X194298Y535039D01*
Y535695D01*
X194167Y536089D01*
X194036Y536351D01*
X193773Y536614D01*
X193511Y536745D01*
X192986D01*
X193380Y534515D02*
X194167Y533727D01*
X195072Y536089D02*
Y536220D01*
X195203Y536483D01*
X195334Y536614D01*
X195597Y536745D01*
X196122D01*
X196384Y536614D01*
X196515Y536483D01*
X196647Y536220D01*
Y535958D01*
X196515Y535695D01*
X196253Y535302D01*
X194941Y533990D01*
X196778D01*
X208340Y536745D02*
X208078Y536614D01*
X207815Y536351D01*
X207684Y536089D01*
X207553Y535695D01*
Y535039D01*
X207684Y534646D01*
X207815Y534383D01*
X208078Y534121D01*
X208340Y533990D01*
X208865D01*
X209127Y534121D01*
X209390Y534383D01*
X209521Y534646D01*
X209652Y535039D01*
Y535695D01*
X209521Y536089D01*
X209390Y536351D01*
X209127Y536614D01*
X208865Y536745D01*
X208340D01*
X208734Y534515D02*
X209521Y533727D01*
X210295Y536220D02*
X210558Y536351D01*
X210951Y536745D01*
Y533990D01*
X419488Y537598D02*
Y534843D01*
X421063D01*
X421364Y537073D02*
X421627Y537205D01*
X422020Y537598D01*
Y534843D01*
X407888Y402756D02*
Y400656D01*
X407757Y400263D01*
X407625Y400132D01*
X407363Y400000D01*
X407100D01*
X406838Y400132D01*
X406707Y400263D01*
X406576Y400656D01*
Y400919D01*
X408859Y402756D02*
X410302D01*
X409515Y401706D01*
X409908D01*
X410171Y401575D01*
X410302Y401444D01*
X410433Y401050D01*
Y400787D01*
X410302Y400394D01*
X410040Y400132D01*
X409646Y400000D01*
X409252D01*
X408859Y400132D01*
X408728Y400263D01*
X408596Y400525D01*
X60564Y351574D02*
Y349475D01*
X60433Y349082D01*
X60302Y348950D01*
X60039Y348819D01*
X59777D01*
X59514Y348950D01*
X59383Y349082D01*
X59252Y349475D01*
Y349738D01*
X62585Y351574D02*
X61273Y349738D01*
X63241D01*
X62585Y351574D02*
Y348819D01*
X280486Y530708D02*
Y528609D01*
X280355Y528216D01*
X280223Y528084D01*
X279961Y527953D01*
X279698D01*
X279436Y528084D01*
X279305Y528216D01*
X279174Y528609D01*
Y528871D01*
X281326Y530052D02*
Y530184D01*
X281457Y530446D01*
X281588Y530577D01*
X281850Y530708D01*
X282375D01*
X282638Y530577D01*
X282769Y530446D01*
X282900Y530184D01*
Y529921D01*
X282769Y529659D01*
X282506Y529265D01*
X281194Y527953D01*
X283031D01*
X405369Y364698D02*
X405237Y364960D01*
X404975Y365223D01*
X404713Y365354D01*
X404188D01*
X403925Y365223D01*
X403663Y364960D01*
X403532Y364698D01*
X403401Y364304D01*
Y363648D01*
X403532Y363255D01*
X403663Y362992D01*
X403925Y362730D01*
X404188Y362599D01*
X404713D01*
X404975Y362730D01*
X405237Y362992D01*
X405369Y363255D01*
X406274Y364698D02*
Y364829D01*
X406405Y365092D01*
X406536Y365223D01*
X406799Y365354D01*
X407324D01*
X407586Y365223D01*
X407717Y365092D01*
X407848Y364829D01*
Y364567D01*
X407717Y364304D01*
X407455Y363911D01*
X406143Y362599D01*
X407980D01*
X408859Y365354D02*
X410302D01*
X409515Y364304D01*
X409908D01*
X410171Y364173D01*
X410302Y364042D01*
X410433Y363648D01*
Y363386D01*
X410302Y362992D01*
X410040Y362730D01*
X409646Y362599D01*
X409252D01*
X408859Y362730D01*
X408728Y362861D01*
X408596Y363123D01*
X92546Y388320D02*
X92415Y388582D01*
X92153Y388845D01*
X91890Y388976D01*
X91365D01*
X91103Y388845D01*
X90841Y388582D01*
X90710Y388320D01*
X90578Y387927D01*
Y387270D01*
X90710Y386877D01*
X90841Y386614D01*
X91103Y386352D01*
X91365Y386221D01*
X91890D01*
X92153Y386352D01*
X92415Y386614D01*
X92546Y386877D01*
X93452Y388320D02*
Y388451D01*
X93583Y388714D01*
X93714Y388845D01*
X93976Y388976D01*
X94501D01*
X94764Y388845D01*
X94895Y388714D01*
X95026Y388451D01*
Y388189D01*
X94895Y387927D01*
X94633Y387533D01*
X93321Y386221D01*
X95157D01*
X95905Y388320D02*
Y388451D01*
X96036Y388714D01*
X96168Y388845D01*
X96430Y388976D01*
X96955D01*
X97217Y388845D01*
X97348Y388714D01*
X97480Y388451D01*
Y388189D01*
X97348Y387927D01*
X97086Y387533D01*
X95774Y386221D01*
X97611D01*
X101011Y388320D02*
X100880Y388582D01*
X100617Y388845D01*
X100355Y388976D01*
X99830D01*
X99568Y388845D01*
X99305Y388582D01*
X99174Y388320D01*
X99043Y387927D01*
Y387270D01*
X99174Y386877D01*
X99305Y386614D01*
X99568Y386352D01*
X99830Y386221D01*
X100355D01*
X100617Y386352D01*
X100880Y386614D01*
X101011Y386877D01*
X101916Y388320D02*
Y388451D01*
X102047Y388714D01*
X102179Y388845D01*
X102441Y388976D01*
X102966D01*
X103228Y388845D01*
X103359Y388714D01*
X103491Y388451D01*
Y388189D01*
X103359Y387927D01*
X103097Y387533D01*
X101785Y386221D01*
X103622D01*
X104238Y388451D02*
X104501Y388582D01*
X104894Y388976D01*
Y386221D01*
X442940Y521194D02*
X442809Y521456D01*
X442546Y521719D01*
X442284Y521850D01*
X441759D01*
X441497Y521719D01*
X441234Y521456D01*
X441103Y521194D01*
X440972Y520800D01*
Y520144D01*
X441103Y519751D01*
X441234Y519488D01*
X441497Y519226D01*
X441759Y519095D01*
X442284D01*
X442546Y519226D01*
X442809Y519488D01*
X442940Y519751D01*
X443845Y521194D02*
Y521325D01*
X443977Y521588D01*
X444108Y521719D01*
X444370Y521850D01*
X444895D01*
X445157Y521719D01*
X445289Y521588D01*
X445420Y521325D01*
Y521063D01*
X445289Y520800D01*
X445026Y520407D01*
X443714Y519095D01*
X445551D01*
X446955Y521850D02*
X446561Y521719D01*
X446299Y521325D01*
X446168Y520669D01*
Y520276D01*
X446299Y519620D01*
X446561Y519226D01*
X446955Y519095D01*
X447217D01*
X447611Y519226D01*
X447873Y519620D01*
X448005Y520276D01*
Y520669D01*
X447873Y521325D01*
X447611Y521719D01*
X447217Y521850D01*
X446955D01*
X443222Y537926D02*
X443091Y538189D01*
X442829Y538451D01*
X442566Y538582D01*
X442041D01*
X441779Y538451D01*
X441516Y538189D01*
X441385Y537926D01*
X441254Y537533D01*
Y536877D01*
X441385Y536483D01*
X441516Y536221D01*
X441779Y535958D01*
X442041Y535827D01*
X442566D01*
X442829Y535958D01*
X443091Y536221D01*
X443222Y536483D01*
X443996Y538058D02*
X444259Y538189D01*
X444652Y538582D01*
Y535827D01*
X447722Y537664D02*
X447591Y537270D01*
X447329Y537008D01*
X446935Y536877D01*
X446804D01*
X446410Y537008D01*
X446148Y537270D01*
X446017Y537664D01*
Y537795D01*
X446148Y538189D01*
X446410Y538451D01*
X446804Y538582D01*
X446935D01*
X447329Y538451D01*
X447591Y538189D01*
X447722Y537664D01*
Y537008D01*
X447591Y536352D01*
X447329Y535958D01*
X446935Y535827D01*
X446673D01*
X446279Y535958D01*
X446148Y536221D01*
X474653Y495604D02*
X474521Y495866D01*
X474259Y496128D01*
X473997Y496260D01*
X473472D01*
X473209Y496128D01*
X472947Y495866D01*
X472816Y495604D01*
X472684Y495210D01*
Y494554D01*
X472816Y494160D01*
X472947Y493898D01*
X473209Y493636D01*
X473472Y493504D01*
X473997D01*
X474259Y493636D01*
X474521Y493898D01*
X474653Y494160D01*
X475427Y495735D02*
X475689Y495866D01*
X476083Y496260D01*
Y493504D01*
X478103Y496260D02*
X477710Y496128D01*
X477578Y495866D01*
Y495604D01*
X477710Y495341D01*
X477972Y495210D01*
X478497Y495079D01*
X478891Y494947D01*
X479153Y494685D01*
X479284Y494423D01*
Y494029D01*
X479153Y493767D01*
X479022Y493636D01*
X478628Y493504D01*
X478103D01*
X477710Y493636D01*
X477578Y493767D01*
X477447Y494029D01*
Y494423D01*
X477578Y494685D01*
X477841Y494947D01*
X478234Y495079D01*
X478759Y495210D01*
X479022Y495341D01*
X479153Y495604D01*
Y495866D01*
X479022Y496128D01*
X478628Y496260D01*
X478103D01*
X488924Y495604D02*
X488793Y495866D01*
X488531Y496128D01*
X488268Y496260D01*
X487743D01*
X487481Y496128D01*
X487219Y495866D01*
X487087Y495604D01*
X486956Y495210D01*
Y494554D01*
X487087Y494160D01*
X487219Y493898D01*
X487481Y493636D01*
X487743Y493504D01*
X488268D01*
X488531Y493636D01*
X488793Y493898D01*
X488924Y494160D01*
X489698Y495735D02*
X489961Y495866D01*
X490354Y496260D01*
Y493504D01*
X493556Y496260D02*
X492244Y493504D01*
X491719Y496260D02*
X493556D01*
X503262Y495604D02*
X503130Y495866D01*
X502868Y496128D01*
X502605Y496260D01*
X502081D01*
X501818Y496128D01*
X501556Y495866D01*
X501425Y495604D01*
X501293Y495210D01*
Y494554D01*
X501425Y494160D01*
X501556Y493898D01*
X501818Y493636D01*
X502081Y493504D01*
X502605D01*
X502868Y493636D01*
X503130Y493898D01*
X503262Y494160D01*
X504036Y495735D02*
X504298Y495866D01*
X504692Y496260D01*
Y493504D01*
X507631Y495866D02*
X507499Y496128D01*
X507106Y496260D01*
X506843D01*
X506450Y496128D01*
X506187Y495735D01*
X506056Y495079D01*
Y494423D01*
X506187Y493898D01*
X506450Y493636D01*
X506843Y493504D01*
X506975D01*
X507368Y493636D01*
X507631Y493898D01*
X507762Y494291D01*
Y494423D01*
X507631Y494816D01*
X507368Y495079D01*
X506975Y495210D01*
X506843D01*
X506450Y495079D01*
X506187Y494816D01*
X506056Y494423D01*
X512008Y364698D02*
X511876Y364960D01*
X511614Y365223D01*
X511351Y365354D01*
X510827D01*
X510564Y365223D01*
X510302Y364960D01*
X510171Y364698D01*
X510040Y364304D01*
Y363648D01*
X510171Y363255D01*
X510302Y362992D01*
X510564Y362730D01*
X510827Y362599D01*
X511351D01*
X511614Y362730D01*
X511876Y362992D01*
X512008Y363255D01*
X512782Y364829D02*
X513044Y364960D01*
X513438Y365354D01*
Y362599D01*
X516377Y365354D02*
X515065D01*
X514933Y364173D01*
X515065Y364304D01*
X515458Y364436D01*
X515852D01*
X516246Y364304D01*
X516508Y364042D01*
X516639Y363648D01*
Y363386D01*
X516508Y362992D01*
X516246Y362730D01*
X515852Y362599D01*
X515458D01*
X515065Y362730D01*
X514933Y362861D01*
X514802Y363123D01*
X497900Y306458D02*
X497638Y306327D01*
X497376Y306064D01*
X497245Y305802D01*
Y305277D01*
X497376Y305014D01*
X497638Y304752D01*
X497900Y304621D01*
X498294Y304490D01*
X498950D01*
X499344Y304621D01*
X499606Y304752D01*
X499869Y305014D01*
X500000Y305277D01*
Y305802D01*
X499869Y306064D01*
X499606Y306327D01*
X499344Y306458D01*
X497769Y307232D02*
X497638Y307494D01*
X497245Y307888D01*
X500000D01*
X497245Y310564D02*
X499081Y309252D01*
Y311221D01*
X497245Y310564D02*
X500000D01*
X512008Y330249D02*
X511876Y330512D01*
X511614Y330774D01*
X511351Y330905D01*
X510827D01*
X510564Y330774D01*
X510302Y330512D01*
X510171Y330249D01*
X510039Y329856D01*
Y329200D01*
X510171Y328806D01*
X510302Y328543D01*
X510564Y328281D01*
X510827Y328150D01*
X511351D01*
X511614Y328281D01*
X511876Y328543D01*
X512008Y328806D01*
X512782Y330380D02*
X513044Y330512D01*
X513438Y330905D01*
Y328150D01*
X515065Y330905D02*
X516508D01*
X515721Y329856D01*
X516114D01*
X516377Y329724D01*
X516508Y329593D01*
X516639Y329200D01*
Y328937D01*
X516508Y328543D01*
X516246Y328281D01*
X515852Y328150D01*
X515458D01*
X515065Y328281D01*
X514933Y328412D01*
X514802Y328675D01*
X484121Y306589D02*
X483859Y306458D01*
X483596Y306195D01*
X483465Y305933D01*
Y305408D01*
X483596Y305146D01*
X483859Y304883D01*
X484121Y304752D01*
X484515Y304621D01*
X485171D01*
X485564Y304752D01*
X485827Y304883D01*
X486089Y305146D01*
X486220Y305408D01*
Y305933D01*
X486089Y306195D01*
X485827Y306458D01*
X485564Y306589D01*
X483990Y307363D02*
X483859Y307625D01*
X483465Y308019D01*
X486220D01*
X484121Y309515D02*
X483990D01*
X483727Y309646D01*
X483596Y309777D01*
X483465Y310040D01*
Y310564D01*
X483596Y310827D01*
X483727Y310958D01*
X483990Y311089D01*
X484252D01*
X484515Y310958D01*
X484908Y310696D01*
X486220Y309384D01*
Y311221D01*
X406983Y371588D02*
X406851Y371850D01*
X406589Y372113D01*
X406326Y372244D01*
X405802D01*
X405539Y372113D01*
X405277Y371850D01*
X405146Y371588D01*
X405014Y371194D01*
Y370538D01*
X405146Y370145D01*
X405277Y369882D01*
X405539Y369620D01*
X405802Y369489D01*
X406326D01*
X406589Y369620D01*
X406851Y369882D01*
X406983Y370145D01*
X407757Y371719D02*
X408019Y371850D01*
X408413Y372244D01*
Y369489D01*
X409777Y371719D02*
X410040Y371850D01*
X410433Y372244D01*
Y369489D01*
X512008Y371588D02*
X511876Y371850D01*
X511614Y372113D01*
X511351Y372244D01*
X510827D01*
X510564Y372113D01*
X510302Y371850D01*
X510171Y371588D01*
X510039Y371194D01*
Y370538D01*
X510171Y370145D01*
X510302Y369882D01*
X510564Y369620D01*
X510827Y369489D01*
X511351D01*
X511614Y369620D01*
X511876Y369882D01*
X512008Y370145D01*
X512782Y371719D02*
X513044Y371850D01*
X513438Y372244D01*
Y369489D01*
X515589Y372244D02*
X515196Y372113D01*
X514933Y371719D01*
X514802Y371063D01*
Y370669D01*
X514933Y370013D01*
X515196Y369620D01*
X515589Y369489D01*
X515852D01*
X516246Y369620D01*
X516508Y370013D01*
X516639Y370669D01*
Y371063D01*
X516508Y371719D01*
X516246Y372113D01*
X515852Y372244D01*
X515589D01*
X463452Y308741D02*
X463189Y308610D01*
X462927Y308347D01*
X462796Y308085D01*
Y307560D01*
X462927Y307297D01*
X463189Y307035D01*
X463452Y306904D01*
X463845Y306773D01*
X464501D01*
X464895Y306904D01*
X465157Y307035D01*
X465420Y307297D01*
X465551Y307560D01*
Y308085D01*
X465420Y308347D01*
X465157Y308610D01*
X464895Y308741D01*
X463714Y311221D02*
X464108Y311089D01*
X464370Y310827D01*
X464501Y310433D01*
Y310302D01*
X464370Y309908D01*
X464108Y309646D01*
X463714Y309515D01*
X463583D01*
X463189Y309646D01*
X462927Y309908D01*
X462796Y310302D01*
Y310433D01*
X462927Y310827D01*
X463189Y311089D01*
X463714Y311221D01*
X464370D01*
X465026Y311089D01*
X465420Y310827D01*
X465551Y310433D01*
Y310171D01*
X465420Y309777D01*
X465157Y309646D01*
X428019Y308610D02*
X427756Y308478D01*
X427494Y308216D01*
X427363Y307954D01*
Y307429D01*
X427494Y307166D01*
X427756Y306904D01*
X428019Y306773D01*
X428412Y306641D01*
X429068D01*
X429462Y306773D01*
X429724Y306904D01*
X429987Y307166D01*
X430118Y307429D01*
Y307954D01*
X429987Y308216D01*
X429724Y308478D01*
X429462Y308610D01*
X427363Y310040D02*
X427494Y309646D01*
X427756Y309515D01*
X428019D01*
X428281Y309646D01*
X428412Y309908D01*
X428543Y310433D01*
X428675Y310827D01*
X428937Y311089D01*
X429199Y311221D01*
X429593D01*
X429855Y311089D01*
X429987Y310958D01*
X430118Y310564D01*
Y310040D01*
X429987Y309646D01*
X429855Y309515D01*
X429593Y309384D01*
X429199D01*
X428937Y309515D01*
X428675Y309777D01*
X428543Y310171D01*
X428412Y310696D01*
X428281Y310958D01*
X428019Y311089D01*
X427756D01*
X427494Y310958D01*
X427363Y310564D01*
Y310040D01*
X512008Y378478D02*
X511876Y378740D01*
X511614Y379002D01*
X511351Y379134D01*
X510827D01*
X510564Y379002D01*
X510302Y378740D01*
X510171Y378478D01*
X510039Y378084D01*
Y377428D01*
X510171Y377034D01*
X510302Y376772D01*
X510564Y376509D01*
X510827Y376378D01*
X511351D01*
X511614Y376509D01*
X511876Y376772D01*
X512008Y377034D01*
X514618Y379134D02*
X513307Y376378D01*
X512782Y379134D02*
X514618D01*
X491011Y308610D02*
X490748Y308478D01*
X490486Y308216D01*
X490355Y307954D01*
Y307429D01*
X490486Y307166D01*
X490748Y306904D01*
X491011Y306773D01*
X491404Y306641D01*
X492060D01*
X492454Y306773D01*
X492716Y306904D01*
X492979Y307166D01*
X493110Y307429D01*
Y307954D01*
X492979Y308216D01*
X492716Y308478D01*
X492454Y308610D01*
X490355Y310958D02*
Y309646D01*
X491536Y309515D01*
X491404Y309646D01*
X491273Y310040D01*
Y310433D01*
X491404Y310827D01*
X491667Y311089D01*
X492060Y311221D01*
X492323D01*
X492716Y311089D01*
X492979Y310827D01*
X493110Y310433D01*
Y310040D01*
X492979Y309646D01*
X492848Y309515D01*
X492585Y309384D01*
X421129Y308478D02*
X420866Y308347D01*
X420604Y308085D01*
X420473Y307822D01*
Y307297D01*
X420604Y307035D01*
X420866Y306773D01*
X421129Y306641D01*
X421523Y306510D01*
X422179D01*
X422572Y306641D01*
X422834Y306773D01*
X423097Y307035D01*
X423228Y307297D01*
Y307822D01*
X423097Y308085D01*
X422834Y308347D01*
X422572Y308478D01*
X420473Y310564D02*
X422310Y309252D01*
Y311221D01*
X420473Y310564D02*
X423228D01*
X407822Y330249D02*
X407691Y330512D01*
X407429Y330774D01*
X407166Y330905D01*
X406641D01*
X406379Y330774D01*
X406116Y330512D01*
X405985Y330249D01*
X405854Y329856D01*
Y329200D01*
X405985Y328806D01*
X406116Y328543D01*
X406379Y328281D01*
X406641Y328150D01*
X407166D01*
X407429Y328281D01*
X407691Y328543D01*
X407822Y328806D01*
X408859Y330905D02*
X410302D01*
X409515Y329856D01*
X409908D01*
X410171Y329724D01*
X410302Y329593D01*
X410433Y329200D01*
Y328937D01*
X410302Y328543D01*
X410040Y328281D01*
X409646Y328150D01*
X409252D01*
X408859Y328281D01*
X408728Y328412D01*
X408596Y328675D01*
X407822Y378478D02*
X407691Y378740D01*
X407429Y379002D01*
X407166Y379134D01*
X406641D01*
X406379Y379002D01*
X406116Y378740D01*
X405985Y378478D01*
X405854Y378084D01*
Y377428D01*
X405985Y377034D01*
X406116Y376772D01*
X406379Y376509D01*
X406641Y376378D01*
X407166D01*
X407429Y376509D01*
X407691Y376772D01*
X407822Y377034D01*
X408728Y378478D02*
Y378609D01*
X408859Y378871D01*
X408990Y379002D01*
X409252Y379134D01*
X409777D01*
X410040Y379002D01*
X410171Y378871D01*
X410302Y378609D01*
Y378346D01*
X410171Y378084D01*
X409908Y377690D01*
X408596Y376378D01*
X410433D01*
X477231Y309790D02*
X476969Y309659D01*
X476706Y309397D01*
X476575Y309134D01*
Y308610D01*
X476706Y308347D01*
X476969Y308085D01*
X477231Y307954D01*
X477625Y307822D01*
X478281D01*
X478674Y307954D01*
X478937Y308085D01*
X479199Y308347D01*
X479330Y308610D01*
Y309134D01*
X479199Y309397D01*
X478937Y309659D01*
X478674Y309790D01*
X477100Y310564D02*
X476969Y310827D01*
X476575Y311221D01*
X479330D01*
M02*
