G04*
G04 #@! TF.GenerationSoftware,Altium Limited,Altium Designer,26.2.0 (7)*
G04*
G04 Layer_Color=8388736*
%FSLAX25Y25*%
%MOIN*%
G70*
G04*
G04 #@! TF.SameCoordinates,C1DC15CB-83B7-4C2E-A4F0-DD83A037BBA0*
G04*
G04*
G04 #@! TF.FilePolarity,Negative*
G04*
G01*
G75*
%ADD51O,0.05827X0.01496*%
%ADD52O,0.01496X0.05827*%
G04:AMPARAMS|DCode=53|XSize=40.55mil|YSize=42.52mil|CornerRadius=10.93mil|HoleSize=0mil|Usage=FLASHONLY|Rotation=270.000|XOffset=0mil|YOffset=0mil|HoleType=Round|Shape=RoundedRectangle|*
%AMROUNDEDRECTD53*
21,1,0.04055,0.02067,0,0,270.0*
21,1,0.01870,0.04252,0,0,270.0*
1,1,0.02185,-0.01034,-0.00935*
1,1,0.02185,-0.01034,0.00935*
1,1,0.02185,0.01034,0.00935*
1,1,0.02185,0.01034,-0.00935*
%
%ADD53ROUNDEDRECTD53*%
G04:AMPARAMS|DCode=54|XSize=38.58mil|YSize=40.55mil|CornerRadius=10.43mil|HoleSize=0mil|Usage=FLASHONLY|Rotation=0.000|XOffset=0mil|YOffset=0mil|HoleType=Round|Shape=RoundedRectangle|*
%AMROUNDEDRECTD54*
21,1,0.03858,0.01968,0,0,0.0*
21,1,0.01772,0.04055,0,0,0.0*
1,1,0.02087,0.00886,-0.00984*
1,1,0.02087,-0.00886,-0.00984*
1,1,0.02087,-0.00886,0.00984*
1,1,0.02087,0.00886,0.00984*
%
%ADD54ROUNDEDRECTD54*%
G04:AMPARAMS|DCode=55|XSize=26.77mil|YSize=42.52mil|CornerRadius=7.48mil|HoleSize=0mil|Usage=FLASHONLY|Rotation=270.000|XOffset=0mil|YOffset=0mil|HoleType=Round|Shape=RoundedRectangle|*
%AMROUNDEDRECTD55*
21,1,0.02677,0.02756,0,0,270.0*
21,1,0.01181,0.04252,0,0,270.0*
1,1,0.01496,-0.01378,-0.00591*
1,1,0.01496,-0.01378,0.00591*
1,1,0.01496,0.01378,0.00591*
1,1,0.01496,0.01378,-0.00591*
%
%ADD55ROUNDEDRECTD55*%
G04:AMPARAMS|DCode=56|XSize=30.71mil|YSize=35.83mil|CornerRadius=8.47mil|HoleSize=0mil|Usage=FLASHONLY|Rotation=90.000|XOffset=0mil|YOffset=0mil|HoleType=Round|Shape=RoundedRectangle|*
%AMROUNDEDRECTD56*
21,1,0.03071,0.01890,0,0,90.0*
21,1,0.01378,0.03583,0,0,90.0*
1,1,0.01693,0.00945,0.00689*
1,1,0.01693,0.00945,-0.00689*
1,1,0.01693,-0.00945,-0.00689*
1,1,0.01693,-0.00945,0.00689*
%
%ADD56ROUNDEDRECTD56*%
G04:AMPARAMS|DCode=57|XSize=50.39mil|YSize=30.71mil|CornerRadius=8.47mil|HoleSize=0mil|Usage=FLASHONLY|Rotation=90.000|XOffset=0mil|YOffset=0mil|HoleType=Round|Shape=RoundedRectangle|*
%AMROUNDEDRECTD57*
21,1,0.05039,0.01378,0,0,90.0*
21,1,0.03347,0.03071,0,0,90.0*
1,1,0.01693,0.00689,0.01673*
1,1,0.01693,0.00689,-0.01673*
1,1,0.01693,-0.00689,-0.01673*
1,1,0.01693,-0.00689,0.01673*
%
%ADD57ROUNDEDRECTD57*%
G04:AMPARAMS|DCode=58|XSize=34.65mil|YSize=70.08mil|CornerRadius=9.45mil|HoleSize=0mil|Usage=FLASHONLY|Rotation=180.000|XOffset=0mil|YOffset=0mil|HoleType=Round|Shape=RoundedRectangle|*
%AMROUNDEDRECTD58*
21,1,0.03465,0.05118,0,0,180.0*
21,1,0.01575,0.07008,0,0,180.0*
1,1,0.01890,-0.00787,0.02559*
1,1,0.01890,0.00787,0.02559*
1,1,0.01890,0.00787,-0.02559*
1,1,0.01890,-0.00787,-0.02559*
%
%ADD58ROUNDEDRECTD58*%
G04:AMPARAMS|DCode=59|XSize=14.96mil|YSize=26.77mil|CornerRadius=4.53mil|HoleSize=0mil|Usage=FLASHONLY|Rotation=180.000|XOffset=0mil|YOffset=0mil|HoleType=Round|Shape=RoundedRectangle|*
%AMROUNDEDRECTD59*
21,1,0.01496,0.01772,0,0,180.0*
21,1,0.00591,0.02677,0,0,180.0*
1,1,0.00906,-0.00295,0.00886*
1,1,0.00906,0.00295,0.00886*
1,1,0.00906,0.00295,-0.00886*
1,1,0.00906,-0.00295,-0.00886*
%
%ADD59ROUNDEDRECTD59*%
G04:AMPARAMS|DCode=60|XSize=28.74mil|YSize=68.11mil|CornerRadius=7.97mil|HoleSize=0mil|Usage=FLASHONLY|Rotation=270.000|XOffset=0mil|YOffset=0mil|HoleType=Round|Shape=RoundedRectangle|*
%AMROUNDEDRECTD60*
21,1,0.02874,0.05217,0,0,270.0*
21,1,0.01280,0.06811,0,0,270.0*
1,1,0.01595,-0.02608,-0.00640*
1,1,0.01595,-0.02608,0.00640*
1,1,0.01595,0.02608,0.00640*
1,1,0.01595,0.02608,-0.00640*
%
%ADD60ROUNDEDRECTD60*%
G04:AMPARAMS|DCode=61|XSize=38.58mil|YSize=40.55mil|CornerRadius=10.43mil|HoleSize=0mil|Usage=FLASHONLY|Rotation=90.000|XOffset=0mil|YOffset=0mil|HoleType=Round|Shape=RoundedRectangle|*
%AMROUNDEDRECTD61*
21,1,0.03858,0.01968,0,0,90.0*
21,1,0.01772,0.04055,0,0,90.0*
1,1,0.02087,0.00984,0.00886*
1,1,0.02087,0.00984,-0.00886*
1,1,0.02087,-0.00984,-0.00886*
1,1,0.02087,-0.00984,0.00886*
%
%ADD61ROUNDEDRECTD61*%
G04:AMPARAMS|DCode=62|XSize=40.55mil|YSize=42.52mil|CornerRadius=10.93mil|HoleSize=0mil|Usage=FLASHONLY|Rotation=180.000|XOffset=0mil|YOffset=0mil|HoleType=Round|Shape=RoundedRectangle|*
%AMROUNDEDRECTD62*
21,1,0.04055,0.02067,0,0,180.0*
21,1,0.01870,0.04252,0,0,180.0*
1,1,0.02185,-0.00935,0.01034*
1,1,0.02185,0.00935,0.01034*
1,1,0.02185,0.00935,-0.01034*
1,1,0.02185,-0.00935,-0.01034*
%
%ADD62ROUNDEDRECTD62*%
G04:AMPARAMS|DCode=63|XSize=26.77mil|YSize=42.52mil|CornerRadius=7.48mil|HoleSize=0mil|Usage=FLASHONLY|Rotation=180.000|XOffset=0mil|YOffset=0mil|HoleType=Round|Shape=RoundedRectangle|*
%AMROUNDEDRECTD63*
21,1,0.02677,0.02756,0,0,180.0*
21,1,0.01181,0.04252,0,0,180.0*
1,1,0.01496,-0.00591,0.01378*
1,1,0.01496,0.00591,0.01378*
1,1,0.01496,0.00591,-0.01378*
1,1,0.01496,-0.00591,-0.01378*
%
%ADD63ROUNDEDRECTD63*%
G04:AMPARAMS|DCode=64|XSize=26.77mil|YSize=38.58mil|CornerRadius=7.48mil|HoleSize=0mil|Usage=FLASHONLY|Rotation=0.000|XOffset=0mil|YOffset=0mil|HoleType=Round|Shape=RoundedRectangle|*
%AMROUNDEDRECTD64*
21,1,0.02677,0.02362,0,0,0.0*
21,1,0.01181,0.03858,0,0,0.0*
1,1,0.01496,0.00591,-0.01181*
1,1,0.01496,-0.00591,-0.01181*
1,1,0.01496,-0.00591,0.01181*
1,1,0.01496,0.00591,0.01181*
%
%ADD64ROUNDEDRECTD64*%
G04:AMPARAMS|DCode=65|XSize=14.96mil|YSize=50.39mil|CornerRadius=4.53mil|HoleSize=0mil|Usage=FLASHONLY|Rotation=90.000|XOffset=0mil|YOffset=0mil|HoleType=Round|Shape=RoundedRectangle|*
%AMROUNDEDRECTD65*
21,1,0.01496,0.04134,0,0,90.0*
21,1,0.00591,0.05039,0,0,90.0*
1,1,0.00906,0.02067,0.00295*
1,1,0.00906,0.02067,-0.00295*
1,1,0.00906,-0.02067,-0.00295*
1,1,0.00906,-0.02067,0.00295*
%
%ADD65ROUNDEDRECTD65*%
%ADD66O,0.01496X0.05630*%
G04:AMPARAMS|DCode=67|XSize=62.21mil|YSize=200mil|CornerRadius=16.34mil|HoleSize=0mil|Usage=FLASHONLY|Rotation=90.000|XOffset=0mil|YOffset=0mil|HoleType=Round|Shape=RoundedRectangle|*
%AMROUNDEDRECTD67*
21,1,0.06221,0.16732,0,0,90.0*
21,1,0.02953,0.20000,0,0,90.0*
1,1,0.03268,0.08366,0.01476*
1,1,0.03268,0.08366,-0.01476*
1,1,0.03268,-0.08366,-0.01476*
1,1,0.03268,-0.08366,0.01476*
%
%ADD67ROUNDEDRECTD67*%
G04:AMPARAMS|DCode=68|XSize=64.17mil|YSize=42.52mil|CornerRadius=11.42mil|HoleSize=0mil|Usage=FLASHONLY|Rotation=180.000|XOffset=0mil|YOffset=0mil|HoleType=Round|Shape=RoundedRectangle|*
%AMROUNDEDRECTD68*
21,1,0.06417,0.01968,0,0,180.0*
21,1,0.04134,0.04252,0,0,180.0*
1,1,0.02284,-0.02067,0.00984*
1,1,0.02284,0.02067,0.00984*
1,1,0.02284,0.02067,-0.00984*
1,1,0.02284,-0.02067,-0.00984*
%
%ADD68ROUNDEDRECTD68*%
G04:AMPARAMS|DCode=69|XSize=14.96mil|YSize=38.58mil|CornerRadius=4.53mil|HoleSize=0mil|Usage=FLASHONLY|Rotation=0.000|XOffset=0mil|YOffset=0mil|HoleType=Round|Shape=RoundedRectangle|*
%AMROUNDEDRECTD69*
21,1,0.01496,0.02953,0,0,0.0*
21,1,0.00591,0.03858,0,0,0.0*
1,1,0.00906,0.00295,-0.01476*
1,1,0.00906,-0.00295,-0.01476*
1,1,0.00906,-0.00295,0.01476*
1,1,0.00906,0.00295,0.01476*
%
%ADD69ROUNDEDRECTD69*%
G04:AMPARAMS|DCode=70|XSize=22.84mil|YSize=56.3mil|CornerRadius=6.5mil|HoleSize=0mil|Usage=FLASHONLY|Rotation=180.000|XOffset=0mil|YOffset=0mil|HoleType=Round|Shape=RoundedRectangle|*
%AMROUNDEDRECTD70*
21,1,0.02284,0.04331,0,0,180.0*
21,1,0.00984,0.05630,0,0,180.0*
1,1,0.01299,-0.00492,0.02165*
1,1,0.01299,0.00492,0.02165*
1,1,0.01299,0.00492,-0.02165*
1,1,0.01299,-0.00492,-0.02165*
%
%ADD70ROUNDEDRECTD70*%
G04:AMPARAMS|DCode=71|XSize=81.89mil|YSize=101.58mil|CornerRadius=21.26mil|HoleSize=0mil|Usage=FLASHONLY|Rotation=0.000|XOffset=0mil|YOffset=0mil|HoleType=Round|Shape=RoundedRectangle|*
%AMROUNDEDRECTD71*
21,1,0.08189,0.05906,0,0,0.0*
21,1,0.03937,0.10158,0,0,0.0*
1,1,0.04252,0.01968,-0.02953*
1,1,0.04252,-0.01968,-0.02953*
1,1,0.04252,-0.01968,0.02953*
1,1,0.04252,0.01968,0.02953*
%
%ADD71ROUNDEDRECTD71*%
G04:AMPARAMS|DCode=72|XSize=121.26mil|YSize=58.27mil|CornerRadius=15.35mil|HoleSize=0mil|Usage=FLASHONLY|Rotation=270.000|XOffset=0mil|YOffset=0mil|HoleType=Round|Shape=RoundedRectangle|*
%AMROUNDEDRECTD72*
21,1,0.12126,0.02756,0,0,270.0*
21,1,0.09055,0.05827,0,0,270.0*
1,1,0.03071,-0.01378,-0.04528*
1,1,0.03071,-0.01378,0.04528*
1,1,0.03071,0.01378,0.04528*
1,1,0.03071,0.01378,-0.04528*
%
%ADD72ROUNDEDRECTD72*%
%ADD73C,0.00800*%
%ADD74O,0.04331X0.07402*%
%ADD75O,0.04331X0.08976*%
G04:AMPARAMS|DCode=76|XSize=75.2mil|YSize=77.56mil|CornerRadius=19.59mil|HoleSize=0mil|Usage=FLASHONLY|Rotation=270.000|XOffset=0mil|YOffset=0mil|HoleType=Round|Shape=RoundedRectangle|*
%AMROUNDEDRECTD76*
21,1,0.07520,0.03839,0,0,270.0*
21,1,0.03602,0.07756,0,0,270.0*
1,1,0.03917,-0.01919,-0.01801*
1,1,0.03917,-0.01919,0.01801*
1,1,0.03917,0.01919,0.01801*
1,1,0.03917,0.01919,-0.01801*
%
%ADD76ROUNDEDRECTD76*%
%ADD77C,0.00315*%
G04:AMPARAMS|DCode=78|XSize=137.01mil|YSize=81.89mil|CornerRadius=21.26mil|HoleSize=0mil|Usage=FLASHONLY|Rotation=180.000|XOffset=0mil|YOffset=0mil|HoleType=Round|Shape=RoundedRectangle|*
%AMROUNDEDRECTD78*
21,1,0.13701,0.03937,0,0,180.0*
21,1,0.09449,0.08189,0,0,180.0*
1,1,0.04252,-0.04724,0.01968*
1,1,0.04252,0.04724,0.01968*
1,1,0.04252,0.04724,-0.01968*
1,1,0.04252,-0.04724,-0.01968*
%
%ADD78ROUNDEDRECTD78*%
G36*
X426409Y504683D02*
X426439Y504674D01*
X426466Y504659D01*
X426490Y504639D01*
X426510Y504615D01*
X426524Y504588D01*
X426533Y504558D01*
X426536Y504528D01*
Y495079D01*
X426533Y495048D01*
X426524Y495018D01*
X426510Y494991D01*
X426490Y494967D01*
X426466Y494947D01*
X426439Y494933D01*
X426409Y494923D01*
X426378Y494920D01*
X416929D01*
X416898Y494923D01*
X416869Y494933D01*
X416841Y494947D01*
X416817Y494967D01*
X416798Y494991D01*
X416783Y495018D01*
X416774Y495048D01*
X416771Y495079D01*
Y501378D01*
X416774Y501409D01*
X416783Y501439D01*
X416798Y501466D01*
X416817Y501490D01*
X416841Y501510D01*
X416869Y501524D01*
X416898Y501533D01*
X416929Y501536D01*
X419921D01*
Y504528D01*
X419924Y504558D01*
X419933Y504588D01*
X419947Y504615D01*
X419967Y504639D01*
X419991Y504659D01*
X420018Y504674D01*
X420048Y504683D01*
X420079Y504686D01*
X426378D01*
X426409Y504683D01*
D02*
G37*
G36*
X512236Y460391D02*
X512265Y460382D01*
X512293Y460368D01*
X512317Y460348D01*
X512336Y460324D01*
X512351Y460297D01*
X512360Y460267D01*
X512363Y460236D01*
Y452362D01*
X512360Y452331D01*
X512351Y452302D01*
X512336Y452274D01*
X512317Y452250D01*
X512293Y452231D01*
X512265Y452216D01*
X512236Y452207D01*
X512205Y452204D01*
X506693D01*
X506662Y452207D01*
X506632Y452216D01*
X506619Y452223D01*
X506605Y452231D01*
X506581Y452250D01*
X502644Y456187D01*
X502624Y456211D01*
X502610Y456239D01*
X502601Y456268D01*
X502598Y456299D01*
Y460236D01*
X502601Y460267D01*
X502610Y460297D01*
X502624Y460324D01*
X502644Y460348D01*
X502668Y460368D01*
X502695Y460382D01*
X502725Y460391D01*
X502756Y460394D01*
X512205D01*
X512236Y460391D01*
D02*
G37*
G36*
X426409Y411376D02*
X426439Y411367D01*
X426466Y411352D01*
X426490Y411332D01*
X426510Y411308D01*
X426524Y411281D01*
X426533Y411251D01*
X426536Y411221D01*
Y401772D01*
X426533Y401741D01*
X426524Y401711D01*
X426510Y401684D01*
X426490Y401660D01*
X426466Y401640D01*
X426439Y401625D01*
X426409Y401616D01*
X426378Y401613D01*
X420079D01*
X420048Y401616D01*
X420018Y401625D01*
X419991Y401640D01*
X419967Y401660D01*
X419947Y401684D01*
X419933Y401711D01*
X419924Y401741D01*
X419921Y401772D01*
Y404763D01*
X416929D01*
X416898Y404766D01*
X416869Y404775D01*
X416841Y404790D01*
X416817Y404809D01*
X416798Y404833D01*
X416783Y404861D01*
X416774Y404890D01*
X416771Y404921D01*
Y411221D01*
X416774Y411251D01*
X416783Y411281D01*
X416798Y411308D01*
X416817Y411332D01*
X416841Y411352D01*
X416869Y411367D01*
X416898Y411376D01*
X416929Y411379D01*
X426378D01*
X426409Y411376D01*
D02*
G37*
G36*
X512236Y407635D02*
X512265Y407626D01*
X512293Y407612D01*
X512317Y407592D01*
X512336Y407568D01*
X512351Y407541D01*
X512360Y407511D01*
X512363Y407480D01*
Y399606D01*
X512360Y399575D01*
X512351Y399546D01*
X512336Y399518D01*
X512317Y399494D01*
X512293Y399475D01*
X512265Y399460D01*
X512236Y399451D01*
X512205Y399448D01*
X502756D01*
X502725Y399451D01*
X502695Y399460D01*
X502668Y399475D01*
X502644Y399494D01*
X502624Y399518D01*
X502610Y399546D01*
X502601Y399575D01*
X502598Y399606D01*
Y403543D01*
X502601Y403574D01*
X502610Y403604D01*
X502624Y403631D01*
X502644Y403655D01*
X506581Y407592D01*
X506605Y407612D01*
X506619Y407619D01*
X506632Y407626D01*
X506662Y407635D01*
X506693Y407639D01*
X512205D01*
X512236Y407635D01*
D02*
G37*
G36*
X426409Y241691D02*
X426439Y241682D01*
X426466Y241667D01*
X426490Y241647D01*
X426510Y241623D01*
X426524Y241596D01*
X426533Y241566D01*
X426536Y241535D01*
Y232087D01*
X426533Y232056D01*
X426524Y232026D01*
X426510Y231999D01*
X426490Y231975D01*
X426466Y231955D01*
X426439Y231940D01*
X426409Y231931D01*
X426378Y231928D01*
X416929D01*
X416898Y231931D01*
X416869Y231940D01*
X416841Y231955D01*
X416817Y231975D01*
X416798Y231999D01*
X416783Y232026D01*
X416774Y232056D01*
X416771Y232087D01*
Y238386D01*
X416774Y238417D01*
X416783Y238446D01*
X416798Y238474D01*
X416817Y238498D01*
X416841Y238517D01*
X416869Y238532D01*
X416898Y238541D01*
X416929Y238544D01*
X419921D01*
Y241535D01*
X419924Y241566D01*
X419933Y241596D01*
X419947Y241623D01*
X419967Y241647D01*
X419991Y241667D01*
X420018Y241682D01*
X420048Y241691D01*
X420079Y241694D01*
X426378D01*
X426409Y241691D01*
D02*
G37*
G36*
X512236Y197399D02*
X512265Y197390D01*
X512293Y197376D01*
X512317Y197356D01*
X512336Y197332D01*
X512351Y197305D01*
X512360Y197275D01*
X512363Y197244D01*
Y189370D01*
X512360Y189339D01*
X512351Y189310D01*
X512336Y189282D01*
X512317Y189258D01*
X512293Y189239D01*
X512265Y189224D01*
X512236Y189215D01*
X512205Y189212D01*
X506693D01*
X506662Y189215D01*
X506632Y189224D01*
X506619Y189231D01*
X506605Y189239D01*
X506581Y189258D01*
X502644Y193195D01*
X502624Y193219D01*
X502610Y193246D01*
X502601Y193276D01*
X502598Y193307D01*
Y197244D01*
X502601Y197275D01*
X502610Y197305D01*
X502624Y197332D01*
X502644Y197356D01*
X502668Y197376D01*
X502695Y197390D01*
X502725Y197399D01*
X502756Y197402D01*
X512205D01*
X512236Y197399D01*
D02*
G37*
G36*
X426409Y148384D02*
X426439Y148374D01*
X426466Y148360D01*
X426490Y148340D01*
X426510Y148316D01*
X426524Y148289D01*
X426533Y148259D01*
X426536Y148228D01*
Y138779D01*
X426533Y138749D01*
X426524Y138719D01*
X426510Y138692D01*
X426490Y138668D01*
X426466Y138648D01*
X426439Y138633D01*
X426409Y138624D01*
X426378Y138621D01*
X420079D01*
X420048Y138624D01*
X420018Y138633D01*
X419991Y138648D01*
X419967Y138668D01*
X419947Y138692D01*
X419933Y138719D01*
X419924Y138749D01*
X419921Y138779D01*
Y141771D01*
X416929D01*
X416898Y141774D01*
X416869Y141783D01*
X416841Y141798D01*
X416817Y141817D01*
X416798Y141841D01*
X416783Y141869D01*
X416774Y141898D01*
X416771Y141929D01*
Y148228D01*
X416774Y148259D01*
X416783Y148289D01*
X416798Y148316D01*
X416817Y148340D01*
X416841Y148360D01*
X416869Y148374D01*
X416898Y148384D01*
X416929Y148387D01*
X426378D01*
X426409Y148384D01*
D02*
G37*
G36*
X512236Y144643D02*
X512265Y144634D01*
X512293Y144620D01*
X512317Y144600D01*
X512336Y144576D01*
X512351Y144549D01*
X512360Y144519D01*
X512363Y144488D01*
Y136614D01*
X512360Y136583D01*
X512351Y136554D01*
X512336Y136526D01*
X512317Y136502D01*
X512293Y136483D01*
X512265Y136468D01*
X512236Y136459D01*
X512205Y136456D01*
X502756D01*
X502725Y136459D01*
X502695Y136468D01*
X502668Y136483D01*
X502644Y136502D01*
X502624Y136526D01*
X502610Y136554D01*
X502601Y136583D01*
X502598Y136614D01*
Y140551D01*
X502601Y140582D01*
X502610Y140612D01*
X502624Y140639D01*
X502644Y140663D01*
X506581Y144600D01*
X506605Y144620D01*
X506619Y144627D01*
X506632Y144634D01*
X506662Y144643D01*
X506693Y144646D01*
X512205D01*
X512236Y144643D01*
D02*
G37*
D51*
X437795Y83268D02*
D03*
Y85236D02*
D03*
Y87205D02*
D03*
Y89173D02*
D03*
Y91142D02*
D03*
Y93110D02*
D03*
Y95079D02*
D03*
Y97047D02*
D03*
Y99016D02*
D03*
Y100984D02*
D03*
Y102953D02*
D03*
Y104921D02*
D03*
Y106890D02*
D03*
Y108858D02*
D03*
Y110827D02*
D03*
Y112795D02*
D03*
X482677D02*
D03*
Y110827D02*
D03*
Y108858D02*
D03*
Y106890D02*
D03*
Y104921D02*
D03*
Y102953D02*
D03*
Y100984D02*
D03*
Y99016D02*
D03*
Y97047D02*
D03*
Y95079D02*
D03*
Y93110D02*
D03*
Y91142D02*
D03*
Y89173D02*
D03*
Y87205D02*
D03*
Y85236D02*
D03*
Y83268D02*
D03*
X437795Y346260D02*
D03*
Y348228D02*
D03*
Y350197D02*
D03*
Y352165D02*
D03*
Y354134D02*
D03*
Y356102D02*
D03*
Y358071D02*
D03*
Y360039D02*
D03*
Y362008D02*
D03*
Y363976D02*
D03*
Y365945D02*
D03*
Y367913D02*
D03*
Y369882D02*
D03*
Y371850D02*
D03*
Y373819D02*
D03*
Y375787D02*
D03*
X482677D02*
D03*
Y373819D02*
D03*
Y371850D02*
D03*
Y369882D02*
D03*
Y367913D02*
D03*
Y365945D02*
D03*
Y363976D02*
D03*
Y362008D02*
D03*
Y360039D02*
D03*
Y358071D02*
D03*
Y356102D02*
D03*
Y354134D02*
D03*
Y352165D02*
D03*
Y350197D02*
D03*
Y348228D02*
D03*
Y346260D02*
D03*
D52*
X445472Y120473D02*
D03*
X447441D02*
D03*
X449409D02*
D03*
X451378D02*
D03*
X453346D02*
D03*
X455315D02*
D03*
X457284D02*
D03*
X459252D02*
D03*
X461221D02*
D03*
X463189D02*
D03*
X465158D02*
D03*
X467126D02*
D03*
X469095D02*
D03*
X471063D02*
D03*
X473032D02*
D03*
X475000D02*
D03*
Y75591D02*
D03*
X473032D02*
D03*
X471063D02*
D03*
X469095D02*
D03*
X467126D02*
D03*
X465158D02*
D03*
X463189D02*
D03*
X461221D02*
D03*
X459252D02*
D03*
X457284D02*
D03*
X455315D02*
D03*
X453346D02*
D03*
X451378D02*
D03*
X449409D02*
D03*
X447441D02*
D03*
X445472D02*
D03*
Y383465D02*
D03*
X447441D02*
D03*
X449409D02*
D03*
X451378D02*
D03*
X453346D02*
D03*
X455315D02*
D03*
X457284D02*
D03*
X459252D02*
D03*
X461221D02*
D03*
X463189D02*
D03*
X465158D02*
D03*
X467126D02*
D03*
X469095D02*
D03*
X471063D02*
D03*
X473032D02*
D03*
X475000D02*
D03*
Y338583D02*
D03*
X473032D02*
D03*
X471063D02*
D03*
X469095D02*
D03*
X467126D02*
D03*
X465158D02*
D03*
X463189D02*
D03*
X461221D02*
D03*
X459252D02*
D03*
X457284D02*
D03*
X455315D02*
D03*
X453346D02*
D03*
X451378D02*
D03*
X449409D02*
D03*
X447441D02*
D03*
X445472D02*
D03*
D53*
X500591Y87205D02*
D03*
X506496D02*
D03*
X487303Y237795D02*
D03*
X478937D02*
D03*
X506496Y107874D02*
D03*
X419882Y128543D02*
D03*
Y121653D02*
D03*
X506496Y100984D02*
D03*
Y114764D02*
D03*
Y66536D02*
D03*
X413976Y114764D02*
D03*
Y66535D02*
D03*
Y107874D02*
D03*
X413976Y100984D02*
D03*
X419882Y114764D02*
D03*
Y66535D02*
D03*
X500591Y114764D02*
D03*
Y107874D02*
D03*
X419882D02*
D03*
X500591Y66536D02*
D03*
Y100984D02*
D03*
X501575Y237795D02*
D03*
X507480D02*
D03*
X493209D02*
D03*
X473032D02*
D03*
X419882Y100984D02*
D03*
X413976Y128543D02*
D03*
Y121653D02*
D03*
X500591Y350197D02*
D03*
X506496D02*
D03*
X487303Y500787D02*
D03*
X478937D02*
D03*
X506496Y370866D02*
D03*
X419882Y391535D02*
D03*
Y384646D02*
D03*
X506496Y363976D02*
D03*
Y377756D02*
D03*
Y329528D02*
D03*
X413976Y377756D02*
D03*
Y329528D02*
D03*
Y370866D02*
D03*
X413976Y363976D02*
D03*
X419882Y377756D02*
D03*
Y329528D02*
D03*
X500591Y377756D02*
D03*
Y370866D02*
D03*
X419882D02*
D03*
X500591Y329528D02*
D03*
Y363976D02*
D03*
X501575Y500787D02*
D03*
X507480D02*
D03*
X493209D02*
D03*
X473032D02*
D03*
X419882Y363976D02*
D03*
X413976Y391535D02*
D03*
Y384646D02*
D03*
D54*
X94095Y195374D02*
D03*
Y189665D02*
D03*
X101969D02*
D03*
Y195374D02*
D03*
X148228Y285925D02*
D03*
Y280217D02*
D03*
X411024Y284941D02*
D03*
Y268209D02*
D03*
X157087Y280217D02*
D03*
X94095Y247539D02*
D03*
X471063Y51870D02*
D03*
X139370Y285925D02*
D03*
X411024Y262500D02*
D03*
X471063Y57579D02*
D03*
X411024Y279232D02*
D03*
X157087Y285925D02*
D03*
X101969Y247539D02*
D03*
Y241831D02*
D03*
X94095Y241831D02*
D03*
X139370Y280217D02*
D03*
X94095Y458366D02*
D03*
Y452658D02*
D03*
X101969D02*
D03*
Y458366D02*
D03*
X148228Y548917D02*
D03*
Y543209D02*
D03*
X411024Y547933D02*
D03*
Y531201D02*
D03*
X157087Y543209D02*
D03*
X94095Y510532D02*
D03*
X471063Y314862D02*
D03*
X139370Y548917D02*
D03*
X411024Y525492D02*
D03*
X471063Y320571D02*
D03*
X411024Y542224D02*
D03*
X157087Y548917D02*
D03*
X101969Y510532D02*
D03*
Y504823D02*
D03*
X94095Y504823D02*
D03*
X139370Y543209D02*
D03*
D55*
X102756Y223228D02*
D03*
X422343Y262402D02*
D03*
X103445Y149213D02*
D03*
X92618Y145473D02*
D03*
X422343Y258661D02*
D03*
X433169Y262402D02*
D03*
Y266142D02*
D03*
Y258661D02*
D03*
X422343Y266142D02*
D03*
X103445Y145473D02*
D03*
Y152953D02*
D03*
X92618D02*
D03*
X102756Y230709D02*
D03*
X93307Y226969D02*
D03*
X102756Y205512D02*
D03*
Y212992D02*
D03*
X93307Y209252D02*
D03*
X102756Y486221D02*
D03*
X422343Y525394D02*
D03*
X103445Y412205D02*
D03*
X92618Y408465D02*
D03*
X422343Y521654D02*
D03*
X433169Y525394D02*
D03*
Y529134D02*
D03*
Y521654D02*
D03*
X422343Y529134D02*
D03*
X103445Y408465D02*
D03*
Y415945D02*
D03*
X92618D02*
D03*
X102756Y493701D02*
D03*
X93307Y489961D02*
D03*
X102756Y468504D02*
D03*
Y475984D02*
D03*
X93307Y472244D02*
D03*
D56*
X94095Y258661D02*
D03*
X101969Y287795D02*
D03*
Y278346D02*
D03*
X94095Y287795D02*
D03*
Y278346D02*
D03*
X101969Y268110D02*
D03*
Y258661D02*
D03*
X94095Y268110D02*
D03*
Y521654D02*
D03*
X101969Y550787D02*
D03*
Y541339D02*
D03*
X94095Y550787D02*
D03*
Y541339D02*
D03*
X101969Y531102D02*
D03*
Y521654D02*
D03*
X94095Y531102D02*
D03*
D57*
X98032Y162500D02*
D03*
X100984Y179232D02*
D03*
X95079D02*
D03*
X98032Y425492D02*
D03*
X100984Y442224D02*
D03*
X95079D02*
D03*
D58*
X507677Y259449D02*
D03*
Y279134D02*
D03*
X493504D02*
D03*
Y259449D02*
D03*
X507677Y522441D02*
D03*
Y542126D02*
D03*
X493504D02*
D03*
Y522441D02*
D03*
D59*
X477953Y270276D02*
D03*
X474016D02*
D03*
X481890D02*
D03*
X479921D02*
D03*
X475984D02*
D03*
X464173D02*
D03*
X466142D02*
D03*
X468110D02*
D03*
X470079D02*
D03*
X472047D02*
D03*
X477953Y533268D02*
D03*
X474016D02*
D03*
X481890D02*
D03*
X479921D02*
D03*
X475984D02*
D03*
X464173D02*
D03*
X466142D02*
D03*
X468110D02*
D03*
X470079D02*
D03*
X472047D02*
D03*
D60*
X478642Y215610D02*
D03*
X500886Y210610D02*
D03*
Y215610D02*
D03*
Y220610D02*
D03*
Y225610D02*
D03*
X478642Y210610D02*
D03*
Y220610D02*
D03*
Y225610D02*
D03*
Y478602D02*
D03*
X500886Y473602D02*
D03*
Y478602D02*
D03*
Y483602D02*
D03*
Y488602D02*
D03*
X478642Y473602D02*
D03*
Y483602D02*
D03*
Y488602D02*
D03*
D61*
X506496Y121653D02*
D03*
X506398Y94095D02*
D03*
Y80315D02*
D03*
Y73425D02*
D03*
X186516Y266339D02*
D03*
X414075Y94095D02*
D03*
X414075Y73425D02*
D03*
X500787Y121653D02*
D03*
X506398Y128543D02*
D03*
X500689D02*
D03*
X419783Y87205D02*
D03*
X414075D02*
D03*
X500689Y94095D02*
D03*
X419783Y73425D02*
D03*
X500689Y80315D02*
D03*
Y73425D02*
D03*
X419783Y80315D02*
D03*
X414075D02*
D03*
X180807Y284055D02*
D03*
X186516D02*
D03*
X180807Y266339D02*
D03*
X419783Y94095D02*
D03*
X186516Y275197D02*
D03*
X180807D02*
D03*
X506496Y384646D02*
D03*
X506398Y357087D02*
D03*
Y343307D02*
D03*
Y336417D02*
D03*
X186516Y529331D02*
D03*
X414075Y357087D02*
D03*
X414075Y336417D02*
D03*
X500787Y384646D02*
D03*
X506398Y391535D02*
D03*
X500689D02*
D03*
X419783Y350197D02*
D03*
X414075D02*
D03*
X500689Y357087D02*
D03*
X419783Y336417D02*
D03*
X500689Y343307D02*
D03*
Y336417D02*
D03*
X419783Y343307D02*
D03*
X414075D02*
D03*
X180807Y547047D02*
D03*
X186516D02*
D03*
X180807Y529331D02*
D03*
X419783Y357087D02*
D03*
X186516Y538189D02*
D03*
X180807D02*
D03*
D62*
X421850Y51772D02*
D03*
X444488Y285039D02*
D03*
Y268307D02*
D03*
X498622Y51772D02*
D03*
X491732D02*
D03*
X484843D02*
D03*
X477953Y51772D02*
D03*
X464173Y51772D02*
D03*
X428740D02*
D03*
X101969Y129528D02*
D03*
X94095D02*
D03*
X421850Y57677D02*
D03*
X491732D02*
D03*
X94095Y135433D02*
D03*
X444488Y262402D02*
D03*
X477953Y57677D02*
D03*
X428740Y57677D02*
D03*
X464173D02*
D03*
X484843D02*
D03*
X498622D02*
D03*
X444488Y279134D02*
D03*
X101969Y135433D02*
D03*
X421850Y314764D02*
D03*
X444488Y548032D02*
D03*
Y531299D02*
D03*
X498622Y314764D02*
D03*
X491732D02*
D03*
X484843D02*
D03*
X477953Y314764D02*
D03*
X464173Y314764D02*
D03*
X428740D02*
D03*
X101969Y392520D02*
D03*
X94095D02*
D03*
X421850Y320669D02*
D03*
X491732D02*
D03*
X94095Y398425D02*
D03*
X444488Y525394D02*
D03*
X477953Y320669D02*
D03*
X428740Y320669D02*
D03*
X464173D02*
D03*
X484843D02*
D03*
X498622D02*
D03*
X444488Y542126D02*
D03*
X101969Y398425D02*
D03*
D63*
X389370Y270768D02*
D03*
X211417Y284842D02*
D03*
X218898D02*
D03*
X385630Y281594D02*
D03*
X389370D02*
D03*
X393110D02*
D03*
Y270768D02*
D03*
X385630D02*
D03*
X215158Y275394D02*
D03*
X203150Y284842D02*
D03*
X195669D02*
D03*
X199409Y275394D02*
D03*
X389370Y533760D02*
D03*
X211417Y547835D02*
D03*
X218898D02*
D03*
X385630Y544587D02*
D03*
X389370D02*
D03*
X393110D02*
D03*
Y533760D02*
D03*
X385630D02*
D03*
X215158Y538386D02*
D03*
X203150Y547835D02*
D03*
X195669D02*
D03*
X199409Y538386D02*
D03*
D64*
X288189Y269291D02*
D03*
X313386D02*
D03*
X291339D02*
D03*
X310236D02*
D03*
X288189Y532283D02*
D03*
X313386D02*
D03*
X291339D02*
D03*
X310236D02*
D03*
D65*
X411024Y218701D02*
D03*
Y216732D02*
D03*
Y151772D02*
D03*
Y153740D02*
D03*
Y155709D02*
D03*
Y157677D02*
D03*
Y159646D02*
D03*
Y161614D02*
D03*
Y163583D02*
D03*
Y165551D02*
D03*
Y167520D02*
D03*
Y169488D02*
D03*
Y171457D02*
D03*
Y173425D02*
D03*
Y175394D02*
D03*
Y177362D02*
D03*
Y179331D02*
D03*
Y181299D02*
D03*
Y183268D02*
D03*
Y185236D02*
D03*
Y187205D02*
D03*
Y189173D02*
D03*
Y191142D02*
D03*
Y193110D02*
D03*
Y195079D02*
D03*
Y197047D02*
D03*
Y199016D02*
D03*
Y200984D02*
D03*
Y202953D02*
D03*
Y204921D02*
D03*
Y206890D02*
D03*
Y208858D02*
D03*
Y210827D02*
D03*
Y212795D02*
D03*
Y214764D02*
D03*
Y220669D02*
D03*
Y222638D02*
D03*
Y224606D02*
D03*
Y226575D02*
D03*
Y228543D02*
D03*
Y481693D02*
D03*
Y479724D02*
D03*
Y414764D02*
D03*
Y416732D02*
D03*
Y418701D02*
D03*
Y420669D02*
D03*
Y422638D02*
D03*
Y424606D02*
D03*
Y426575D02*
D03*
Y428543D02*
D03*
Y430512D02*
D03*
Y432480D02*
D03*
Y434449D02*
D03*
Y436417D02*
D03*
Y438386D02*
D03*
Y440354D02*
D03*
Y442323D02*
D03*
Y444291D02*
D03*
Y446260D02*
D03*
Y448228D02*
D03*
Y450197D02*
D03*
Y452165D02*
D03*
Y454134D02*
D03*
Y456102D02*
D03*
Y458071D02*
D03*
Y460039D02*
D03*
Y462008D02*
D03*
Y463976D02*
D03*
Y465945D02*
D03*
Y467913D02*
D03*
Y469882D02*
D03*
Y471850D02*
D03*
Y473819D02*
D03*
Y475787D02*
D03*
Y477756D02*
D03*
Y483661D02*
D03*
Y485630D02*
D03*
Y487598D02*
D03*
Y489567D02*
D03*
Y491536D02*
D03*
D66*
X123622Y285925D02*
D03*
X127559D02*
D03*
X125591D02*
D03*
X121654D02*
D03*
X119685D02*
D03*
X127559Y268406D02*
D03*
X125591D02*
D03*
X123622D02*
D03*
X121654D02*
D03*
X119685D02*
D03*
X123622Y548917D02*
D03*
X127559D02*
D03*
X125591D02*
D03*
X121654D02*
D03*
X119685D02*
D03*
X127559Y531398D02*
D03*
X125591D02*
D03*
X123622D02*
D03*
X121654D02*
D03*
X119685D02*
D03*
D67*
X68504Y114764D02*
D03*
Y95079D02*
D03*
Y104921D02*
D03*
Y377756D02*
D03*
Y358071D02*
D03*
Y367913D02*
D03*
D68*
X345571Y280512D02*
D03*
X366240D02*
D03*
Y273819D02*
D03*
X345571D02*
D03*
X256004D02*
D03*
X235335Y280512D02*
D03*
Y273819D02*
D03*
X256004Y280512D02*
D03*
X345571Y543504D02*
D03*
X366240D02*
D03*
Y536811D02*
D03*
X345571D02*
D03*
X256004D02*
D03*
X235335Y543504D02*
D03*
Y536811D02*
D03*
X256004Y543504D02*
D03*
D69*
X295866Y269291D02*
D03*
X297835D02*
D03*
X299803D02*
D03*
X301772D02*
D03*
X303740D02*
D03*
X305709D02*
D03*
X307677D02*
D03*
X293898D02*
D03*
X295866Y532283D02*
D03*
X297835D02*
D03*
X299803D02*
D03*
X301772D02*
D03*
X303740D02*
D03*
X305709D02*
D03*
X307677D02*
D03*
X293898D02*
D03*
D70*
X460630Y281358D02*
D03*
X485433D02*
D03*
X460630Y544350D02*
D03*
X485433D02*
D03*
D71*
X454725Y53740D02*
D03*
X438189D02*
D03*
X454725Y316732D02*
D03*
X438189D02*
D03*
D72*
X432677Y282087D02*
D03*
X422835D02*
D03*
X432677Y545079D02*
D03*
X422835D02*
D03*
D73*
X582677Y558268D02*
D03*
X588976D02*
D03*
X585827D02*
D03*
X579528D02*
D03*
X592126D02*
D03*
X12598D02*
D03*
X18898D02*
D03*
X15748D02*
D03*
X9449D02*
D03*
X22047D02*
D03*
X588976Y38583D02*
D03*
X582677D02*
D03*
X585827D02*
D03*
X592126D02*
D03*
X579528D02*
D03*
X9449D02*
D03*
X22047D02*
D03*
X15748D02*
D03*
X12598D02*
D03*
X18898D02*
D03*
X548425Y166535D02*
D03*
Y163386D02*
D03*
Y169685D02*
D03*
Y429528D02*
D03*
Y426378D02*
D03*
Y432677D02*
D03*
X53150Y430315D02*
D03*
Y433465D02*
D03*
Y427165D02*
D03*
Y167323D02*
D03*
Y170472D02*
D03*
Y164173D02*
D03*
X548425Y233465D02*
D03*
Y230315D02*
D03*
Y236614D02*
D03*
Y496457D02*
D03*
Y493307D02*
D03*
Y499606D02*
D03*
Y362598D02*
D03*
Y359449D02*
D03*
Y365748D02*
D03*
X53150Y497244D02*
D03*
Y500394D02*
D03*
Y494095D02*
D03*
Y363386D02*
D03*
Y366535D02*
D03*
Y360236D02*
D03*
X548425Y99606D02*
D03*
Y96457D02*
D03*
Y102756D02*
D03*
X53150Y234252D02*
D03*
Y237402D02*
D03*
Y231102D02*
D03*
Y97244D02*
D03*
Y103543D02*
D03*
Y100394D02*
D03*
D74*
X322914Y273425D02*
D03*
X278661D02*
D03*
X322914Y536417D02*
D03*
X278661D02*
D03*
D75*
X322914Y289173D02*
D03*
X278661D02*
D03*
X322914Y552165D02*
D03*
X278661D02*
D03*
D76*
X123622Y277165D02*
D03*
Y540158D02*
D03*
D77*
X355906Y282579D02*
D03*
Y271752D02*
D03*
X245669Y282579D02*
D03*
Y271752D02*
D03*
X500591Y279134D02*
D03*
Y259449D02*
D03*
X355906Y545571D02*
D03*
Y534744D02*
D03*
X245669Y545571D02*
D03*
Y534744D02*
D03*
X500591Y542126D02*
D03*
Y522441D02*
D03*
D78*
X77559Y211221D02*
D03*
Y132480D02*
D03*
Y77362D02*
D03*
Y266339D02*
D03*
X59449Y77362D02*
D03*
Y266339D02*
D03*
Y211221D02*
D03*
Y132480D02*
D03*
X542126Y211221D02*
D03*
Y132480D02*
D03*
Y77362D02*
D03*
Y266339D02*
D03*
X524016Y77362D02*
D03*
Y266339D02*
D03*
Y211221D02*
D03*
Y132480D02*
D03*
X77559Y474213D02*
D03*
Y395472D02*
D03*
Y340354D02*
D03*
Y529331D02*
D03*
X59449Y340354D02*
D03*
Y529331D02*
D03*
Y474213D02*
D03*
Y395472D02*
D03*
X542126Y474213D02*
D03*
Y395472D02*
D03*
Y340354D02*
D03*
Y529331D02*
D03*
X524016Y340354D02*
D03*
Y529331D02*
D03*
Y474213D02*
D03*
Y395472D02*
D03*
M02*
