G04*
G04 #@! TF.GenerationSoftware,Altium Limited,Altium Designer,26.2.0 (7)*
G04*
G04 Layer_Color=32896*
%FSLAX25Y25*%
%MOIN*%
G70*
G04*
G04 #@! TF.SameCoordinates,2D519B96-99BA-49FA-8F2A-FD2EFD48AEED*
G04*
G04*
G04 #@! TF.FilePolarity,Positive*
G04*
G01*
G75*
%ADD36C,0.00787*%
%ADD49C,0.00984*%
%ADD50C,0.00591*%
D36*
X505512Y286221D02*
X517323D01*
X505512Y47638D02*
X517323D01*
Y47638D02*
Y59449D01*
Y274410D02*
Y286221D01*
X104331Y47638D02*
Y59449D01*
Y274410D02*
Y286221D01*
Y47638D02*
X108268D01*
X104331Y286221D02*
X116142D01*
X505512Y549213D02*
X517323D01*
X505512Y310630D02*
X517323D01*
Y310630D02*
Y322441D01*
Y537402D02*
Y549213D01*
X104331Y310630D02*
Y322441D01*
Y537402D02*
Y549213D01*
Y310630D02*
X108268D01*
X104331Y549213D02*
X116142D01*
D49*
X54921Y278150D02*
X82087D01*
Y274213D02*
Y278150D01*
X54921Y277953D02*
Y278150D01*
X54921Y277953D02*
X54921Y277953D01*
X54921Y274213D02*
Y277953D01*
X519488Y278150D02*
X546654D01*
Y274213D02*
Y278150D01*
X519488Y277953D02*
Y278150D01*
X519488Y277953D02*
X519488Y277953D01*
X519488Y274213D02*
Y277953D01*
X54921Y541142D02*
X82087D01*
Y537205D02*
Y541142D01*
X54921Y540945D02*
Y541142D01*
X54921Y540945D02*
X54921Y540945D01*
X54921Y537205D02*
Y540945D01*
X519488Y541142D02*
X546654D01*
Y537205D02*
Y541142D01*
X519488Y540945D02*
Y541142D01*
X519488Y540945D02*
X519488Y540945D01*
X519488Y537205D02*
Y540945D01*
D50*
X526626Y282480D02*
X525576Y279725D01*
X524527Y282480D02*
X525576Y279725D01*
X524172Y282480D02*
Y279725D01*
Y282480D02*
X522992D01*
X522598Y282349D01*
X522467Y282218D01*
X522335Y281955D01*
Y281693D01*
X522467Y281430D01*
X522598Y281299D01*
X522992Y281168D01*
X524172D01*
X523254D02*
X522335Y279725D01*
X521588Y281824D02*
Y281955D01*
X521456Y282218D01*
X521325Y282349D01*
X521063Y282480D01*
X520538D01*
X520276Y282349D01*
X520144Y282218D01*
X520013Y281955D01*
Y281693D01*
X520144Y281430D01*
X520407Y281037D01*
X521719Y279725D01*
X519882D01*
X81693Y282480D02*
X80643Y279725D01*
X79594Y282480D02*
X80643Y279725D01*
X79239Y282480D02*
Y279725D01*
Y282480D02*
X78059D01*
X77665Y282349D01*
X77534Y282218D01*
X77403Y281955D01*
Y281693D01*
X77534Y281430D01*
X77665Y281299D01*
X78059Y281168D01*
X79239D01*
X78321D02*
X77403Y279725D01*
X76786Y281955D02*
X76524Y282086D01*
X76130Y282480D01*
Y279725D01*
X526626Y545472D02*
X525576Y542717D01*
X524527Y545472D02*
X525576Y542717D01*
X524172Y545472D02*
Y542717D01*
Y545472D02*
X522992D01*
X522598Y545341D01*
X522467Y545210D01*
X522335Y544947D01*
Y544685D01*
X522467Y544422D01*
X522598Y544291D01*
X522992Y544160D01*
X524172D01*
X523254D02*
X522335Y542717D01*
X521588Y544816D02*
Y544947D01*
X521456Y545210D01*
X521325Y545341D01*
X521063Y545472D01*
X520538D01*
X520276Y545341D01*
X520144Y545210D01*
X520013Y544947D01*
Y544685D01*
X520144Y544422D01*
X520407Y544029D01*
X521719Y542717D01*
X519882D01*
X81693Y545472D02*
X80643Y542717D01*
X79594Y545472D02*
X80643Y542717D01*
X79239Y545472D02*
Y542717D01*
Y545472D02*
X78059D01*
X77665Y545341D01*
X77534Y545210D01*
X77403Y544947D01*
Y544685D01*
X77534Y544422D01*
X77665Y544291D01*
X78059Y544160D01*
X79239D01*
X78321D02*
X77403Y542717D01*
X76786Y544947D02*
X76524Y545079D01*
X76130Y545472D01*
Y542717D01*
M02*
