M48
;Layer_Color=9474304
;FILE_FORMAT=2:5
INCH
;TYPE=PLATED
T01F00S00C0.01181
%
T01
X0058662Y0066535
X0092126Y0048819
Y0045866
X0095079
Y0048819
X0098032
Y0045866
X0100984
Y0048819
X0091142Y0097047
Y0104921
Y0112795
X0098032Y0138386
X0100984Y0140354
X0098032Y0149213
X0095079
X0414961Y0151772
Y0155709
X0412992Y0140354
Y0134449
X0405118Y0123622
X0403150Y0111811
X0410040Y0111319
X0410040Y0104429
Y0097539
Y0090649
X0422835Y0091142
X0429725Y0098032
X0426772Y0101969
X0422835Y0104921
X0444488Y0107874
X0454331Y0108858
Y0111811
X0462205Y0114764
X0461221Y0100984
X0452362Y0095079
X0450394Y0089173
X0451870Y0083268
X0458268
X0466142
X0468110Y0085236
X0464173Y0089173
X0443504Y0091142
Y0097047
X0431693Y0084252
X0428740Y0082284
X0410040Y0069980
Y0063090
X0425295Y0047835
X0432185
X0447441Y0066535
X0449409Y0064567
X0451378Y0066535
X0459252Y0065551
Y0069488
X0467126Y0065551
X0467618Y0047835
X0459252Y0127559
X0455315
X0476969Y0126575
Y0129528
X0474016Y0114764
Y0108858
X0475984Y0104921
X0478937Y0099016
X0474016Y0091142
X0470079Y0093110
Y0083268
X0497638Y0078347
X0497638Y0075394
Y0090650
Y0097539
X0511417Y0097539
Y0083760
Y0069980
X0523228Y0066535
X0533071
X0507480Y0053740
X0504528Y0055709
X0502067Y0047835
X0488287
X0481398
X0511417Y0111319
Y0125098
X0493701Y0139370
X0490748
X0494685Y0144291
Y0213189
X0483858Y0218110
X0482874Y0237795
Y0253543
X0485827
X0477953Y0261417
X0474016
X0472047Y0258465
X0470079Y0256496
X0497638Y0244685
X0500591Y0266339
X0502067Y0310827
X0488287
X0481398
X0467618
X0432185
X0425295
X0415945Y0281102
X0415896Y0268258
X0407087Y0259449
X0395125Y0261267
X0393307Y0263386
X0397244
X0391339Y0261417
X0382480Y0280118
X0341142Y0277165
X0337205Y0270276
X0333268
X0329331
X0312598Y0265354
X0407087Y0245669
Y0240748
X0412008
X0414961Y0218701
X0416929Y0216732
X0414961Y0214764
Y0210827
X0416929Y0212795
Y0208858
X0414961Y0206890
Y0202953
X0416929Y0204921
Y0200984
X0414961Y0199016
Y0195079
X0416929Y0197047
Y0193110
X0414961Y0191142
Y0187205
X0416929Y0189173
Y0185236
X0414961Y0183268
Y0179331
X0416929Y0181299
Y0177362
X0407087
Y0173425
Y0169488
Y0165551
X0414961Y0159646
X0427756Y0261417
X0438583Y0258465
X0439567Y0268307
Y0281102
X0441536Y0249606
X0444488
X0456299Y0262402
X0468110Y0261417
X0466142Y0259449
X0303740Y0265354
X0299803Y0265354
X0288977
X0272244Y0270276
X0268307
X0264370
X0242717Y0257480
X0233858Y0263386
X0230906
X0223032Y0262402
X0215158Y0280118
X0207283Y0275197
X0191043Y0267815
X0157087Y0271260
X0165945Y0285039
X0148228Y0271260
X0139370
X0131496Y0275197
Y0277165
Y0279134
Y0283071
X0133465Y0288976
X0113780
X0108858Y0290945
X0115748Y0279134
Y0277165
Y0275197
X0112795Y0272244
X0101969Y0264370
X0131496Y0262402
X0100984Y0226969
X0098032
Y0218110
Y0209252
X0103937
X0098032Y0200394
X0091142Y0179724
X0095079Y0174803
Y0170866
Y0166929
X0092126Y0162008
X0102953Y0170866
X0093110Y0231890
X0092126Y0308858
Y0311811
X0095079
Y0308858
X0098032
Y0311811
X0100984
Y0308858
X0091142Y0360039
Y0367913
Y0375787
X0098032Y0401378
X0100984Y0403346
X0098032Y0412205
X0095079
X0092126Y0425000
X0095079Y0429921
Y0433858
Y0437795
X0091142Y0442717
X0102953Y0433858
X0098032Y0463386
X0058662Y0329528
X0410040Y0326083
Y0332973
Y0353642
Y0360531
Y0367421
X0410040Y0374311
X0403150Y0374803
X0405118Y0386614
X0412992Y0397441
Y0403346
X0414961Y0414764
Y0418701
Y0422638
X0407087Y0428543
Y0432480
Y0436417
Y0440354
X0416929
X0414961Y0442323
Y0446260
X0416929Y0448228
Y0444291
X0414961Y0450197
X0416929Y0452165
X0414961Y0454134
X0416929Y0456102
X0414961Y0458071
X0416929Y0460039
X0414961Y0462008
X0416929Y0463976
X0414961Y0465945
X0416929Y0467913
X0422835Y0367913
X0426772Y0364961
X0429725Y0361024
X0422835Y0354134
X0428740Y0345276
X0431693Y0347244
X0443504Y0354134
Y0360039
X0452362Y0358071
X0450394Y0352165
X0451870Y0346260
X0458268
X0466142
X0468110Y0348228
X0464173Y0352165
X0461221Y0363976
X0454331Y0371850
Y0374803
X0462205Y0377756
X0459252Y0390551
X0455315
X0444488Y0370866
X0447441Y0329528
X0449409Y0327559
X0451378Y0329528
X0459252Y0328543
Y0332480
X0467126Y0328543
X0470079Y0346260
Y0356102
X0474016Y0354134
X0478937Y0362008
X0475984Y0367913
X0474016Y0371850
Y0377756
X0476969Y0389567
Y0392520
X0490748Y0402362
X0493701
X0494685Y0407283
X0511417Y0388090
Y0374311
Y0360531
Y0346752
Y0332973
X0523228Y0329528
X0533071
X0507480Y0316732
X0504528Y0318701
X0497638Y0338386
X0497638Y0341339
X0497638Y0353642
Y0360531
X0494685Y0476181
X0483858Y0481102
X0482874Y0500787
Y0516535
X0485827
X0477953Y0524409
X0474016
X0472047Y0521457
X0470079Y0519488
X0497638Y0507677
X0500591Y0529331
X0468110Y0524409
X0466142Y0522441
X0456299Y0525394
X0438583Y0521457
X0439567Y0531299
Y0544095
X0415945
X0415896Y0531250
X0407087Y0522441
X0395125Y0524259
X0393307Y0526378
X0397244
X0391339Y0524409
X0382480Y0543110
X0341142Y0540158
X0337205Y0533268
X0333268
X0329331
X0312598Y0528346
X0407087Y0508661
Y0503740
X0412008
X0414961Y0481693
X0416929Y0479724
X0414961Y0477756
Y0473819
X0416929Y0475787
Y0471850
X0414961Y0469882
X0427756Y0524409
X0441536Y0512598
X0444488
X0303740Y0528346
X0299803Y0528346
X0288977
X0272244Y0533268
X0268307
X0264370
X0242717Y0520472
X0233858Y0526378
X0230906
X0223032Y0525394
X0215158Y0543110
X0207283Y0538189
X0191043Y0530807
X0157087Y0534252
X0165945Y0548032
X0148228Y0534252
X0139370
X0131496Y0538189
Y0540158
Y0542126
Y0546063
X0133465Y0551968
X0113780
X0108858Y0553937
X0115748Y0542126
Y0540158
Y0538189
X0112795Y0535236
X0101969Y0527362
X0131496Y0525394
X0100984Y0489961
X0098032
Y0481102
Y0472244
X0103937
X0093110Y0494882
M30
