M48
;Layer_Color=9474304
;FILE_FORMAT=2:5
INCH
;TYPE=NON_PLATED
T05F00S00C0.01968
T06F00S00C0.02953
%
T05
X0009449Y0038583
X0012598
X0015748
X0018898
X0022047
X0053150Y0097244
Y0100394
Y0103543
X0548425Y0102756
Y0099606
Y0096457
X0579528Y0038583
X0582677
X0585827
X0588976
X0592126
X0548425Y0163386
Y0166535
Y0169685
Y0230315
Y0233465
Y0236614
X0053150Y0237402
Y0234252
Y0231102
Y0170472
Y0167323
Y0164173
Y0360236
Y0363386
Y0366535
Y0427165
Y0430315
Y0433465
X0548425Y0432677
Y0429528
Y0426378
Y0365748
Y0362598
Y0359449
Y0493307
Y0496457
Y0499606
X0579528Y0558268
X0582677
X0585827
X0588976
X0592126
X0022047
X0018898
X0015748
X0012598
X0009449
X0053150Y0500394
Y0497244
Y0494095
T06
X0500591Y0259449
Y0279134
X0355906Y0282579
Y0271752
X0245669
Y0282579
X0500591Y0522441
Y0542126
X0355906Y0545571
Y0534744
X0245669
Y0545571
M30
