M48
;Layer_Color=9474304
;FILE_FORMAT=2:5
INCH
;TYPE=PLATED
T03F00S00C0.03937
%
G90
G05
T03
G00X0062205Y0077362
M15
G01X0056693
M16
G00X0080315Y0077362
M15
G01X0074803
M16
G00X0080315Y0132480
M15
G01X0074803
M16
G00X0062205Y0132480
M15
G01X0056693
M16
G00X0526772Y0132480
M15
G01X0521260
M16
G00X0544882Y0132480
M15
G01X0539370
M16
G00X0544882Y0077362
M15
G01X0539370
M16
G00X0526772Y0077362
M15
G01X0521260
M16
G00X0526772Y0211221
M15
G01X0521260
M16
G00X0544882Y0211221
M15
G01X0539370
M16
G00X0544882Y0266339
M15
G01X0539370
M16
G00X0526772Y0266339
M15
G01X0521260
M16
G00X0080315Y0266339
M15
G01X0074803
M16
G00X0062205Y0266339
M15
G01X0056693
M16
G00X0062205Y0211221
M15
G01X0056693
M16
G00X0080315Y0211221
M15
G01X0074803
M16
G00X0080315Y0340354
M15
G01X0074803
M16
G00X0062205Y0340354
M15
G01X0056693
M16
G00X0062205Y0395472
M15
G01X0056693
M16
G00X0080315Y0395472
M15
G01X0074803
M16
G00X0526772Y0395472
M15
G01X0521260
M16
G00X0544882Y0395472
M15
G01X0539370
M16
G00X0544882Y0340354
M15
G01X0539370
M16
G00X0526772Y0340354
M15
G01X0521260
M16
G00X0526772Y0474213
M15
G01X0521260
M16
G00X0544882Y0474213
M15
G01X0539370
M16
G00X0544882Y0529331
M15
G01X0539370
M16
G00X0526772Y0529331
M15
G01X0521260
M16
G00X0080315Y0529331
M15
G01X0074803
M16
G00X0062205Y0529331
M15
G01X0056693
M16
G00X0062205Y0474213
M15
G01X0056693
M16
G00X0080315Y0474213
M15
G01X0074803
M16
M30
