M48
;Layer_Color=9474304
;FILE_FORMAT=2:5
INCH
;TYPE=PLATED
T02F00S00C0.02441
T04F00S00C0.04724
%
G90
G05
T02
G00X0322914Y0274961
M15
G01Y0271890
M16
G00X0322914Y0291496
M15
G01Y0286850
M16
G00X0278661Y0291496
M15
G01Y0286850
M16
G00X0278661Y0274961
M15
G01Y0271890
M16
G00X0322914Y0537953
M15
G01Y0534882
M16
G00X0322914Y0554488
M15
G01Y0549843
M16
G00X0278661Y0554488
M15
G01Y0549843
M16
G00X0278661Y0537953
M15
G01Y0534882
M16
T04
G00X0123622Y0277165
M15
G01Y0277165
M16
G00X0123622Y0540158
M15
G01Y0540158
M16
M17
M30
