G04*
G04 #@! TF.GenerationSoftware,Altium Limited,Altium Designer,26.2.0 (7)*
G04*
G04 Layer_Physical_Order=3*
G04 Layer_Color=16440176*
%FSLAX25Y25*%
%MOIN*%
G70*
G04*
G04 #@! TF.SameCoordinates,2D519B96-99BA-49FA-8F2A-FD2EFD48AEED*
G04*
G04*
G04 #@! TF.FilePolarity,Positive*
G04*
G01*
G75*
%ADD36C,0.00787*%
%ADD41O,0.04016X0.07087*%
%ADD42O,0.04016X0.08661*%
G04:AMPARAMS|DCode=43|XSize=72.05mil|YSize=74.41mil|CornerRadius=18.01mil|HoleSize=0mil|Usage=FLASHONLY|Rotation=270.000|XOffset=0mil|YOffset=0mil|HoleType=Round|Shape=RoundedRectangle|*
%AMROUNDEDRECTD43*
21,1,0.07205,0.03839,0,0,270.0*
21,1,0.03602,0.07441,0,0,270.0*
1,1,0.03602,-0.01919,-0.01801*
1,1,0.03602,-0.01919,0.01801*
1,1,0.03602,0.01919,0.01801*
1,1,0.03602,0.01919,-0.01801*
%
%ADD43ROUNDEDRECTD43*%
G04:AMPARAMS|DCode=44|XSize=133.86mil|YSize=78.74mil|CornerRadius=19.68mil|HoleSize=0mil|Usage=FLASHONLY|Rotation=180.000|XOffset=0mil|YOffset=0mil|HoleType=Round|Shape=RoundedRectangle|*
%AMROUNDEDRECTD44*
21,1,0.13386,0.03937,0,0,180.0*
21,1,0.09449,0.07874,0,0,180.0*
1,1,0.03937,-0.04724,0.01968*
1,1,0.03937,0.04724,0.01968*
1,1,0.03937,0.04724,-0.01968*
1,1,0.03937,-0.04724,-0.01968*
%
%ADD44ROUNDEDRECTD44*%
%ADD45C,0.01575*%
%ADD46C,0.03150*%
G36*
X546457Y556677D02*
X547356D01*
X549141Y556462D01*
X550888Y556034D01*
X552040Y555600D01*
X552123Y555215D01*
X546879Y549971D01*
X546865Y549949D01*
X546843Y549933D01*
X546436Y549468D01*
X546396Y549400D01*
X546344Y549340D01*
X545727Y548272D01*
X545694Y548173D01*
X545647Y548079D01*
X545328Y546887D01*
X545321Y546783D01*
X545301Y546680D01*
X545301Y545446D01*
X545321Y545343D01*
X545328Y545239D01*
X545647Y544047D01*
X545694Y543953D01*
X545727Y543854D01*
X546344Y542786D01*
X546413Y542707D01*
X546472Y542619D01*
X547344Y541747D01*
X547431Y541689D01*
X547510Y541620D01*
X548578Y541003D01*
X548678Y540969D01*
X548772Y540923D01*
X549963Y540604D01*
X550068Y540597D01*
X550171Y540576D01*
X551404Y540576D01*
X551507Y540597D01*
X551612Y540604D01*
X552803Y540923D01*
X552897Y540969D01*
X552997Y541003D01*
X554065Y541620D01*
X554124Y541672D01*
X554193Y541711D01*
X554657Y542119D01*
X554674Y542140D01*
X554696Y542155D01*
X559939Y547398D01*
X560324Y547315D01*
X560758Y546163D01*
X561186Y544417D01*
X561402Y542631D01*
X561402Y541732D01*
X561402Y534152D01*
X561124Y533874D01*
X553543D01*
X553524Y533870D01*
X553504Y533873D01*
X553118Y533854D01*
X553060Y533839D01*
X553001D01*
X552244Y533689D01*
X552171Y533658D01*
X552093Y533643D01*
X551380Y533348D01*
X551314Y533304D01*
X551241Y533274D01*
X550600Y532845D01*
X550544Y532789D01*
X550478Y532745D01*
X550063Y532330D01*
X549657Y532378D01*
X549602Y532413D01*
X549443Y532796D01*
X548968Y533416D01*
X548348Y533892D01*
X547625Y534191D01*
X546850Y534293D01*
X542626D01*
Y529331D01*
Y524368D01*
X546850D01*
X547625Y524470D01*
X548348Y524769D01*
X548451Y524848D01*
X548804Y524674D01*
Y511288D01*
X548206Y511040D01*
X547945Y510866D01*
X547402Y510323D01*
X547402Y510323D01*
X547228Y510062D01*
X546934Y509353D01*
X546911Y509237D01*
X546877Y509124D01*
X546839Y508740D01*
X546843Y508701D01*
X546835Y508661D01*
X546835Y485039D01*
X546843Y485000D01*
X546839Y484961D01*
X546877Y484577D01*
X546911Y484464D01*
X546934Y484348D01*
X547228Y483638D01*
X547402Y483378D01*
X547945Y482835D01*
X547945Y482835D01*
X548206Y482661D01*
X548804Y482413D01*
Y478869D01*
X548451Y478695D01*
X548348Y478774D01*
X547625Y479073D01*
X546850Y479175D01*
X542626D01*
Y474213D01*
Y469250D01*
X546850D01*
X547625Y469352D01*
X548348Y469651D01*
X548451Y469730D01*
X548804Y469556D01*
Y444358D01*
X548206Y444111D01*
X547945Y443937D01*
X547402Y443394D01*
X547402Y443394D01*
X547228Y443133D01*
X546934Y442423D01*
X546911Y442308D01*
X546877Y442195D01*
X546839Y441811D01*
X546843Y441771D01*
X546835Y441732D01*
X546835Y418110D01*
X546843Y418071D01*
X546839Y418032D01*
X546877Y417648D01*
X546911Y417535D01*
X546934Y417419D01*
X547228Y416709D01*
X547402Y416449D01*
X547945Y415906D01*
X547945Y415906D01*
X548206Y415732D01*
X548804Y415484D01*
Y400129D01*
X548451Y399955D01*
X548348Y400034D01*
X547625Y400333D01*
X546850Y400435D01*
X542626D01*
Y395472D01*
Y390510D01*
X546850D01*
X547625Y390612D01*
X548348Y390911D01*
X548451Y390990D01*
X548804Y390816D01*
Y377429D01*
X548206Y377182D01*
X547945Y377008D01*
X547402Y376465D01*
X547402Y376465D01*
X547228Y376204D01*
X546934Y375494D01*
X546911Y375379D01*
X546877Y375266D01*
X546839Y374882D01*
X546843Y374842D01*
X546835Y374803D01*
X546835Y351181D01*
X546843Y351142D01*
X546839Y351102D01*
X546877Y350718D01*
X546911Y350606D01*
X546934Y350490D01*
X547228Y349780D01*
X547402Y349520D01*
X547945Y348977D01*
X547945Y348977D01*
X548206Y348803D01*
X548804Y348555D01*
Y345011D01*
X548451Y344837D01*
X548348Y344916D01*
X547625Y345215D01*
X546850Y345317D01*
X542626D01*
Y340354D01*
Y335392D01*
X546850D01*
X547625Y335494D01*
X548348Y335793D01*
X548451Y335872D01*
X548804Y335698D01*
Y330709D01*
X548807Y330689D01*
X548805Y330669D01*
X548823Y330283D01*
X548838Y330226D01*
Y330166D01*
X548989Y329409D01*
X549019Y329336D01*
X549034Y329259D01*
X549330Y328546D01*
X549373Y328480D01*
X549404Y328407D01*
X549833Y327765D01*
X549889Y327709D01*
X549932Y327643D01*
X550478Y327098D01*
X550544Y327054D01*
X550600Y326998D01*
X551241Y326569D01*
X551315Y326539D01*
X551380Y326495D01*
X552093Y326200D01*
X552171Y326184D01*
X552244Y326154D01*
X553001Y326003D01*
X553060D01*
X553118Y325989D01*
X553504Y325970D01*
X553524Y325973D01*
X553543Y325969D01*
X561402Y325969D01*
X561402Y318110D01*
Y317211D01*
X561187Y315426D01*
X560758Y313679D01*
X560324Y312527D01*
X559939Y312444D01*
X554696Y317688D01*
X554674Y317703D01*
X554657Y317724D01*
X554193Y318131D01*
X554124Y318171D01*
X554065Y318223D01*
X552997Y318840D01*
X552897Y318873D01*
X552803Y318920D01*
X551612Y319239D01*
X551507Y319246D01*
X551404Y319266D01*
X550171Y319266D01*
X550068Y319246D01*
X549963Y319239D01*
X548772Y318920D01*
X548677Y318873D01*
X548578Y318840D01*
X547510Y318223D01*
X547431Y318154D01*
X547344Y318095D01*
X546472Y317223D01*
X546413Y317136D01*
X546344Y317057D01*
X545727Y315989D01*
X545694Y315889D01*
X545647Y315795D01*
X545328Y314604D01*
X545321Y314499D01*
X545301Y314396D01*
X545301Y313163D01*
X545321Y313060D01*
X545328Y312955D01*
X545647Y311764D01*
X545694Y311670D01*
X545727Y311570D01*
X546344Y310502D01*
X546396Y310443D01*
X546436Y310374D01*
X546843Y309910D01*
X546864Y309893D01*
X546879Y309871D01*
X552123Y304628D01*
X552039Y304243D01*
X550888Y303809D01*
X549141Y303380D01*
X547356Y303165D01*
X546457Y303165D01*
X405512Y303165D01*
X405203Y303165D01*
X404598Y303286D01*
X404027Y303522D01*
X403514Y303865D01*
X403077Y304301D01*
X402734Y304815D01*
X402498Y305385D01*
X402378Y305991D01*
Y306299D01*
Y372037D01*
X402690Y372277D01*
X402813Y372244D01*
X403487D01*
X404137Y372418D01*
X404721Y372755D01*
X405197Y373232D01*
X405534Y373815D01*
X405709Y374466D01*
Y375140D01*
X405534Y375791D01*
X405197Y376374D01*
X404721Y376851D01*
X404137Y377188D01*
X403487Y377362D01*
X402813D01*
X402690Y377329D01*
X402378Y377569D01*
Y385493D01*
X402530Y385550D01*
X402771Y385561D01*
X403070Y385043D01*
X403547Y384566D01*
X404130Y384229D01*
X404781Y384055D01*
X405455D01*
X406106Y384229D01*
X406690Y384566D01*
X407166Y385043D01*
X407503Y385626D01*
X407677Y386277D01*
Y386951D01*
X407503Y387602D01*
X407166Y388186D01*
X406690Y388662D01*
X406106Y388999D01*
X405455Y389173D01*
X404781D01*
X404130Y388999D01*
X403547Y388662D01*
X403070Y388186D01*
X402771Y387667D01*
X402530Y387679D01*
X402378Y387736D01*
X402378Y514961D01*
X402374Y514980D01*
X402377Y515000D01*
X402358Y515386D01*
X402343Y515444D01*
Y515503D01*
X402193Y516260D01*
X402162Y516333D01*
X402147Y516411D01*
X401852Y517124D01*
X401808Y517190D01*
X401778Y517263D01*
X401349Y517904D01*
X401293Y517960D01*
X401249Y518026D01*
X400703Y518572D01*
X400637Y518616D01*
X400582Y518672D01*
X399940Y519100D01*
X399867Y519131D01*
X399801Y519174D01*
X399088Y519470D01*
X399010Y519485D01*
X398937Y519516D01*
X398180Y519666D01*
X398121D01*
X398063Y519681D01*
X397677Y519699D01*
X397657Y519697D01*
X397638Y519700D01*
X396721D01*
X396570Y520064D01*
X398096Y521589D01*
X398096Y521589D01*
X398357Y521980D01*
X398448Y522441D01*
Y524118D01*
X398815Y524330D01*
X399292Y524807D01*
X399629Y525390D01*
X399803Y526041D01*
Y526715D01*
X399629Y527366D01*
X399292Y527949D01*
X398815Y528426D01*
X398232Y528763D01*
X397581Y528937D01*
X396907D01*
X396256Y528763D01*
X395673Y528426D01*
X395196Y527949D01*
X394860Y527366D01*
X394707Y526796D01*
X394137Y526644D01*
X393554Y526306D01*
X393307Y526060D01*
X392910Y526457D01*
X392326Y526794D01*
X391676Y526968D01*
X391002D01*
X390351Y526794D01*
X389767Y526457D01*
X389291Y525981D01*
X388954Y525397D01*
X388780Y524746D01*
Y524073D01*
X388810Y523957D01*
X388571Y523645D01*
X344315D01*
Y538189D01*
X344315Y538189D01*
X344223Y538650D01*
X343962Y539041D01*
X343591Y539411D01*
X343701Y539821D01*
Y540494D01*
X343527Y541145D01*
X343190Y541729D01*
X342713Y542205D01*
X342130Y542542D01*
X341479Y542717D01*
X340805D01*
X340154Y542542D01*
X339570Y542205D01*
X339094Y541729D01*
X338757Y541145D01*
X338583Y540494D01*
Y539821D01*
X338757Y539170D01*
X339094Y538586D01*
X339570Y538110D01*
X340154Y537773D01*
X340805Y537598D01*
X341479D01*
X341512Y537607D01*
X341906Y537305D01*
Y522902D01*
X341906Y522902D01*
X341998Y522441D01*
X342246Y522070D01*
X342210Y521897D01*
X342118Y521677D01*
X332529D01*
X332366Y522070D01*
X338908Y528612D01*
X339430Y529393D01*
X339613Y530315D01*
Y532369D01*
X339764Y532931D01*
Y533605D01*
X339589Y534256D01*
X339253Y534839D01*
X338776Y535316D01*
X338193Y535652D01*
X337542Y535827D01*
X336868D01*
X336217Y535652D01*
X335633Y535316D01*
X335236Y534918D01*
X334839Y535316D01*
X334256Y535652D01*
X333605Y535827D01*
X332931D01*
X332280Y535652D01*
X331697Y535316D01*
X331299Y534918D01*
X330902Y535316D01*
X330319Y535652D01*
X329668Y535827D01*
X328994D01*
X328343Y535652D01*
X327760Y535316D01*
X327283Y534839D01*
X326992Y534335D01*
X325928Y533271D01*
X325594Y533494D01*
X325844Y534097D01*
X325947Y534882D01*
Y535917D01*
X323413D01*
Y531914D01*
X323699Y531952D01*
X324301Y532201D01*
X324524Y531867D01*
X323412Y530755D01*
X313596D01*
X310705Y533646D01*
X310868Y534040D01*
X315816D01*
X315907Y533822D01*
X316081Y533561D01*
X316081Y533561D01*
X316435Y533207D01*
X316696Y533033D01*
X317159Y532841D01*
X317466Y532780D01*
X317967D01*
X318274Y532841D01*
X318738Y533033D01*
X318998Y533207D01*
X318998Y533207D01*
X319352Y533561D01*
X319526Y533822D01*
X319608Y534019D01*
X319694Y534037D01*
X320025Y533996D01*
X320286Y533365D01*
X320768Y532737D01*
X321396Y532255D01*
X322128Y531952D01*
X322413Y531914D01*
Y536417D01*
Y540921D01*
X322128Y540883D01*
X321396Y540580D01*
X320768Y540098D01*
X320286Y539470D01*
X320173Y539197D01*
X319779Y539275D01*
Y548520D01*
X320173Y548599D01*
X320286Y548326D01*
X320768Y547697D01*
X321396Y547215D01*
X322128Y546912D01*
X322413Y546875D01*
Y552165D01*
X322914D01*
Y552665D01*
X325947D01*
Y554488D01*
X325844Y555273D01*
X325541Y556005D01*
X325327Y556284D01*
X325521Y556677D01*
X341323Y556677D01*
X341323Y548819D01*
X341339Y548741D01*
Y548662D01*
X341384Y548436D01*
X341414Y548363D01*
X341429Y548286D01*
X341473Y548220D01*
X341504Y548147D01*
X341559Y548091D01*
X341603Y548025D01*
X341923Y547706D01*
X342183Y547532D01*
X342491Y547471D01*
X342943D01*
X343250Y547532D01*
X343510Y547706D01*
X343821Y548016D01*
X352982D01*
X353112Y547622D01*
X352695Y546901D01*
X352461Y546024D01*
Y545117D01*
X352695Y544241D01*
X353149Y543456D01*
X353790Y542814D01*
X354576Y542361D01*
X355452Y542126D01*
X356359D01*
X357235Y542361D01*
X358021Y542814D01*
X358662Y543456D01*
X359116Y544241D01*
X359350Y545117D01*
Y546024D01*
X359116Y546901D01*
X358699Y547622D01*
X358830Y548016D01*
X367990D01*
X368301Y547706D01*
X368561Y547532D01*
X368869Y547471D01*
X369321D01*
X369628Y547532D01*
X369888Y547706D01*
X370208Y548025D01*
X370252Y548091D01*
X370308Y548147D01*
X370338Y548220D01*
X370382Y548286D01*
X370397Y548363D01*
X370427Y548436D01*
X370473Y548662D01*
Y548741D01*
X370488Y548819D01*
Y556677D01*
X546457Y556677D01*
D02*
G37*
G36*
X276248Y556284D02*
X276034Y556005D01*
X275731Y555273D01*
X275628Y554488D01*
Y552665D01*
X278661D01*
Y552165D01*
X279162D01*
Y546875D01*
X279447Y546912D01*
X280178Y547215D01*
X280807Y547697D01*
X281289Y548326D01*
X281402Y548599D01*
X281796Y548520D01*
Y539275D01*
X281402Y539197D01*
X281289Y539470D01*
X280807Y540098D01*
X280178Y540580D01*
X279447Y540883D01*
X279162Y540921D01*
Y536417D01*
Y531914D01*
X279447Y531952D01*
X280178Y532255D01*
X280807Y532737D01*
X281289Y533365D01*
X281550Y533996D01*
X281881Y534037D01*
X281967Y534019D01*
X282049Y533822D01*
X282223Y533561D01*
X282223Y533561D01*
X282577Y533207D01*
X282838Y533033D01*
X283300Y532841D01*
X283608Y532780D01*
X284109D01*
X284416Y532841D01*
X284879Y533033D01*
X285140Y533207D01*
X285140Y533207D01*
X285494Y533561D01*
X285668Y533822D01*
X285758Y534040D01*
X290707D01*
X290870Y533646D01*
X287979Y530755D01*
X278163D01*
X277051Y531867D01*
X277274Y532201D01*
X277876Y531952D01*
X278162Y531914D01*
Y535917D01*
X275628D01*
Y534882D01*
X275731Y534097D01*
X275981Y533494D01*
X275647Y533271D01*
X274583Y534335D01*
X274292Y534839D01*
X273815Y535316D01*
X273232Y535652D01*
X272581Y535827D01*
X271907D01*
X271256Y535652D01*
X270673Y535316D01*
X270276Y534918D01*
X269879Y535316D01*
X269295Y535652D01*
X268644Y535827D01*
X267970D01*
X267319Y535652D01*
X266736Y535316D01*
X266339Y534918D01*
X265941Y535316D01*
X265358Y535652D01*
X264707Y535827D01*
X264033D01*
X263382Y535652D01*
X262799Y535316D01*
X262322Y534839D01*
X261985Y534256D01*
X261811Y533605D01*
Y532931D01*
X261962Y532369D01*
Y530315D01*
X262145Y529393D01*
X262667Y528612D01*
X269209Y522070D01*
X269046Y521677D01*
X247152D01*
X239631Y529198D01*
X239241Y529459D01*
X238780Y529551D01*
X238780Y529551D01*
X231367D01*
X231367Y529551D01*
X230906Y529459D01*
X230515Y529198D01*
X230515Y529198D01*
X230139Y528822D01*
X229918Y528763D01*
X229334Y528426D01*
X228858Y527949D01*
X228521Y527366D01*
X228346Y526715D01*
Y526041D01*
X228521Y525390D01*
X228858Y524807D01*
X229334Y524330D01*
X229918Y523993D01*
X230569Y523819D01*
X231242D01*
X231893Y523993D01*
X232382Y524275D01*
X232871Y523993D01*
X233521Y523819D01*
X234195D01*
X234846Y523993D01*
X235430Y524330D01*
X235906Y524807D01*
X236243Y525390D01*
X236417Y526041D01*
Y526715D01*
X236387Y526830D01*
X236626Y527142D01*
X238281D01*
X242068Y523355D01*
X241950Y522916D01*
X241729Y522857D01*
X241145Y522520D01*
X240669Y522044D01*
X240332Y521460D01*
X240158Y520809D01*
Y520135D01*
X240191Y520013D01*
X239951Y519700D01*
X114173D01*
X114154Y519697D01*
X114134Y519699D01*
X113748Y519681D01*
X113690Y519666D01*
X113631D01*
X112874Y519516D01*
X112801Y519485D01*
X112723Y519470D01*
X112010Y519174D01*
X111944Y519131D01*
X111871Y519100D01*
X111230Y518672D01*
X111174Y518616D01*
X111108Y518572D01*
X110562Y518026D01*
X110518Y517960D01*
X110462Y517904D01*
X110034Y517263D01*
X110003Y517190D01*
X109959Y517124D01*
X109664Y516411D01*
X109649Y516333D01*
X109618Y516260D01*
X109468Y515503D01*
Y515444D01*
X109453Y515386D01*
X109434Y515000D01*
X109437Y514980D01*
X109433Y514961D01*
X109433Y306299D01*
X109433Y305991D01*
X109313Y305385D01*
X109077Y304815D01*
X108734Y304301D01*
X108297Y303865D01*
X107784Y303522D01*
X107213Y303285D01*
X106608Y303165D01*
X106299D01*
X55118Y303165D01*
X54219Y303165D01*
X52434Y303381D01*
X50687Y303809D01*
X49535Y304243D01*
X49452Y304628D01*
X54696Y309871D01*
X54711Y309893D01*
X54732Y309910D01*
X55139Y310374D01*
X55179Y310443D01*
X55231Y310502D01*
X55847Y311570D01*
X55881Y311670D01*
X55928Y311764D01*
X56247Y312955D01*
X56254Y313060D01*
X56274Y313163D01*
Y314396D01*
X56254Y314499D01*
X56247Y314604D01*
X55928Y315795D01*
X55881Y315889D01*
X55847Y315989D01*
X55231Y317057D01*
X55161Y317136D01*
X55103Y317223D01*
X54231Y318095D01*
X54144Y318154D01*
X54065Y318223D01*
X52997Y318840D01*
X52897Y318873D01*
X52803Y318920D01*
X51612Y319239D01*
X51507Y319246D01*
X51404Y319266D01*
X50171Y319266D01*
X50068Y319246D01*
X49963Y319239D01*
X48772Y318920D01*
X48678Y318873D01*
X48578Y318840D01*
X47510Y318223D01*
X47451Y318171D01*
X47382Y318131D01*
X46918Y317724D01*
X46901Y317703D01*
X46879Y317688D01*
X41636Y312444D01*
X41251Y312527D01*
X40817Y313679D01*
X40389Y315426D01*
X40173Y317211D01*
X40173Y318110D01*
X40173Y325691D01*
X40451Y325969D01*
X48031D01*
X48051Y325973D01*
X48071Y325970D01*
X48457Y325989D01*
X48515Y326003D01*
X48574D01*
X49331Y326154D01*
X49404Y326184D01*
X49481Y326200D01*
X50195Y326495D01*
X50260Y326539D01*
X50333Y326569D01*
X50975Y326998D01*
X51031Y327054D01*
X51097Y327098D01*
X51643Y327643D01*
X51687Y327709D01*
X51742Y327765D01*
X52171Y328407D01*
X52201Y328480D01*
X52245Y328546D01*
X52541Y329259D01*
X52556Y329336D01*
X52586Y329409D01*
X52737Y330166D01*
Y330226D01*
X52751Y330283D01*
X52770Y330669D01*
X52767Y330689D01*
X52771Y330709D01*
Y335698D01*
X53124Y335872D01*
X53227Y335793D01*
X53949Y335494D01*
X54725Y335392D01*
X58949D01*
Y340354D01*
Y345317D01*
X54725D01*
X53949Y345215D01*
X53227Y344916D01*
X53124Y344837D01*
X52771Y345011D01*
Y348555D01*
X53369Y348803D01*
X53630Y348977D01*
X54173Y349520D01*
X54173Y349520D01*
X54347Y349780D01*
X54641Y350490D01*
X54664Y350606D01*
X54698Y350718D01*
X54736Y351102D01*
X54732Y351142D01*
X54740Y351181D01*
X54740Y374803D01*
X54732Y374842D01*
X54736Y374882D01*
X54698Y375266D01*
X54664Y375379D01*
X54641Y375494D01*
X54347Y376204D01*
X54173Y376465D01*
X53630Y377008D01*
X53630Y377008D01*
X53369Y377182D01*
X52771Y377429D01*
Y390816D01*
X53124Y390990D01*
X53227Y390911D01*
X53949Y390612D01*
X54725Y390510D01*
X58949D01*
Y395472D01*
Y400435D01*
X54725D01*
X53949Y400333D01*
X53227Y400034D01*
X53124Y399955D01*
X52771Y400129D01*
Y415484D01*
X53369Y415732D01*
X53630Y415906D01*
X54173Y416449D01*
X54173Y416449D01*
X54347Y416709D01*
X54641Y417419D01*
X54664Y417535D01*
X54698Y417648D01*
X54736Y418032D01*
X54732Y418071D01*
X54740Y418110D01*
X54740Y441732D01*
X54732Y441771D01*
X54736Y441811D01*
X54698Y442195D01*
X54664Y442308D01*
X54641Y442423D01*
X54347Y443133D01*
X54173Y443394D01*
X53630Y443937D01*
X53630Y443937D01*
X53369Y444111D01*
X52771Y444358D01*
Y469556D01*
X53124Y469730D01*
X53227Y469651D01*
X53949Y469352D01*
X54725Y469250D01*
X58949D01*
Y474213D01*
Y479175D01*
X54725D01*
X53949Y479073D01*
X53227Y478774D01*
X53124Y478695D01*
X52771Y478869D01*
Y482413D01*
X53369Y482661D01*
X53630Y482835D01*
X54173Y483378D01*
X54173Y483378D01*
X54347Y483638D01*
X54641Y484348D01*
X54664Y484464D01*
X54698Y484577D01*
X54736Y484961D01*
X54732Y485000D01*
X54740Y485039D01*
X54740Y508661D01*
X54732Y508701D01*
X54736Y508740D01*
X54698Y509124D01*
X54664Y509237D01*
X54641Y509353D01*
X54347Y510062D01*
X54173Y510323D01*
X53630Y510866D01*
X53630Y510866D01*
X53369Y511040D01*
X52771Y511288D01*
Y524674D01*
X53124Y524848D01*
X53227Y524769D01*
X53949Y524470D01*
X54725Y524368D01*
X58949D01*
Y529331D01*
Y534293D01*
X54725D01*
X53949Y534191D01*
X53227Y533892D01*
X52607Y533416D01*
X52131Y532796D01*
X51973Y532413D01*
X51918Y532378D01*
X51512Y532330D01*
X51097Y532745D01*
X51031Y532789D01*
X50975Y532845D01*
X50333Y533274D01*
X50260Y533304D01*
X50195Y533348D01*
X49482Y533643D01*
X49404Y533658D01*
X49331Y533689D01*
X48574Y533839D01*
X48515D01*
X48457Y533854D01*
X48071Y533873D01*
X48051Y533870D01*
X48032Y533874D01*
X40173D01*
Y541732D01*
Y542631D01*
X40389Y544417D01*
X40817Y546163D01*
X41251Y547315D01*
X41636Y547398D01*
X46879Y542155D01*
X46901Y542140D01*
X46918Y542119D01*
X47382Y541711D01*
X47451Y541672D01*
X47510Y541620D01*
X48578Y541003D01*
X48678Y540969D01*
X48772Y540923D01*
X49963Y540603D01*
X50068Y540597D01*
X50171Y540576D01*
X51404Y540576D01*
X51507Y540597D01*
X51612Y540604D01*
X52803Y540923D01*
X52898Y540969D01*
X52997Y541003D01*
X54065Y541620D01*
X54144Y541689D01*
X54231Y541747D01*
X55103Y542619D01*
X55162Y542707D01*
X55231Y542786D01*
X55848Y543854D01*
X55881Y543953D01*
X55928Y544047D01*
X56247Y545239D01*
X56254Y545343D01*
X56274Y545446D01*
X56274Y546680D01*
X56254Y546783D01*
X56247Y546887D01*
X55928Y548079D01*
X55881Y548173D01*
X55848Y548272D01*
X55231Y549340D01*
X55179Y549400D01*
X55139Y549468D01*
X54732Y549933D01*
X54711Y549949D01*
X54696Y549971D01*
X49452Y555215D01*
X49535Y555600D01*
X50687Y556034D01*
X52434Y556462D01*
X54219Y556677D01*
X55118Y556677D01*
X107737D01*
X107794Y556525D01*
X107805Y556284D01*
X107287Y555985D01*
X106811Y555508D01*
X106474Y554925D01*
X106299Y554274D01*
Y553600D01*
X106474Y552949D01*
X106811Y552366D01*
X107287Y551889D01*
X107871Y551552D01*
X108521Y551378D01*
X109195D01*
X109846Y551552D01*
X110430Y551889D01*
X110827Y552286D01*
X111157Y552193D01*
X111221Y552148D01*
Y551632D01*
X111395Y550981D01*
X111732Y550397D01*
X112208Y549921D01*
X112792Y549584D01*
X113443Y549409D01*
X114117D01*
X114767Y549584D01*
X115351Y549921D01*
X115827Y550397D01*
X116164Y550981D01*
X116339Y551632D01*
Y552305D01*
X116164Y552956D01*
X115827Y553540D01*
X115351Y554016D01*
X114767Y554353D01*
X114117Y554528D01*
X113443D01*
X112792Y554353D01*
X112208Y554016D01*
X111811Y553619D01*
X111481Y553713D01*
X111417Y553757D01*
Y554274D01*
X111243Y554925D01*
X110906Y555508D01*
X110430Y555985D01*
X109912Y556284D01*
X109923Y556525D01*
X109980Y556677D01*
X231087D01*
Y548819D01*
X231102Y548741D01*
Y548662D01*
X231147Y548436D01*
X231178Y548363D01*
X231193Y548286D01*
X231237Y548220D01*
X231267Y548147D01*
X231323Y548091D01*
X231367Y548025D01*
X231687Y547706D01*
X231947Y547532D01*
X232254Y547471D01*
X232706D01*
X233014Y547532D01*
X233274Y547706D01*
X233584Y548016D01*
X242745D01*
X242876Y547622D01*
X242459Y546901D01*
X242225Y546024D01*
Y545117D01*
X242459Y544241D01*
X242913Y543456D01*
X243554Y542814D01*
X244340Y542361D01*
X245216Y542126D01*
X246123D01*
X246999Y542361D01*
X247785Y542814D01*
X248426Y543456D01*
X248880Y544241D01*
X249114Y545117D01*
Y546024D01*
X248880Y546901D01*
X248463Y547622D01*
X248593Y548016D01*
X257754D01*
X258065Y547706D01*
X258325Y547532D01*
X258632Y547471D01*
X259084D01*
X259391Y547532D01*
X259652Y547706D01*
X259972Y548025D01*
X260016Y548091D01*
X260071Y548147D01*
X260102Y548220D01*
X260146Y548286D01*
X260161Y548363D01*
X260191Y548436D01*
X260236Y548662D01*
Y548741D01*
X260252Y548819D01*
X260252Y556677D01*
X276054D01*
X276248Y556284D01*
D02*
G37*
G36*
X546457Y293685D02*
X547356D01*
X549141Y293470D01*
X550888Y293042D01*
X552040Y292607D01*
X552123Y292223D01*
X546879Y286979D01*
X546865Y286957D01*
X546843Y286941D01*
X546436Y286476D01*
X546396Y286408D01*
X546344Y286348D01*
X545727Y285280D01*
X545694Y285181D01*
X545647Y285087D01*
X545328Y283895D01*
X545321Y283791D01*
X545301Y283688D01*
X545301Y282454D01*
X545321Y282351D01*
X545328Y282246D01*
X545647Y281055D01*
X545694Y280961D01*
X545727Y280862D01*
X546344Y279794D01*
X546413Y279714D01*
X546472Y279627D01*
X547344Y278755D01*
X547431Y278697D01*
X547510Y278628D01*
X548578Y278011D01*
X548678Y277977D01*
X548772Y277931D01*
X549963Y277611D01*
X550068Y277605D01*
X550171Y277584D01*
X551404Y277584D01*
X551507Y277605D01*
X551612Y277611D01*
X552803Y277931D01*
X552897Y277977D01*
X552997Y278011D01*
X554065Y278627D01*
X554124Y278680D01*
X554193Y278719D01*
X554657Y279127D01*
X554674Y279148D01*
X554696Y279163D01*
X559939Y284406D01*
X560324Y284323D01*
X560758Y283171D01*
X561186Y281425D01*
X561402Y279639D01*
X561402Y278740D01*
X561402Y271160D01*
X561124Y270882D01*
X553543D01*
X553524Y270878D01*
X553504Y270881D01*
X553118Y270862D01*
X553060Y270847D01*
X553001D01*
X552244Y270697D01*
X552171Y270666D01*
X552093Y270651D01*
X551380Y270356D01*
X551314Y270312D01*
X551241Y270281D01*
X550600Y269853D01*
X550544Y269797D01*
X550478Y269753D01*
X550063Y269338D01*
X549657Y269386D01*
X549602Y269421D01*
X549443Y269804D01*
X548968Y270424D01*
X548348Y270900D01*
X547625Y271199D01*
X546850Y271301D01*
X542626D01*
Y266339D01*
Y261376D01*
X546850D01*
X547625Y261478D01*
X548348Y261777D01*
X548451Y261856D01*
X548804Y261682D01*
Y248295D01*
X548206Y248048D01*
X547945Y247874D01*
X547402Y247331D01*
X547402Y247331D01*
X547228Y247070D01*
X546934Y246361D01*
X546911Y246245D01*
X546877Y246132D01*
X546839Y245748D01*
X546843Y245708D01*
X546835Y245669D01*
X546835Y222047D01*
X546843Y222008D01*
X546839Y221969D01*
X546877Y221585D01*
X546911Y221472D01*
X546934Y221356D01*
X547228Y220646D01*
X547402Y220386D01*
X547945Y219843D01*
X547945Y219843D01*
X548206Y219669D01*
X548804Y219421D01*
Y215877D01*
X548451Y215703D01*
X548348Y215782D01*
X547625Y216081D01*
X546850Y216183D01*
X542626D01*
Y211221D01*
Y206258D01*
X546850D01*
X547625Y206360D01*
X548348Y206659D01*
X548451Y206738D01*
X548804Y206564D01*
Y181366D01*
X548206Y181119D01*
X547945Y180945D01*
X547402Y180402D01*
X547402Y180402D01*
X547228Y180141D01*
X546934Y179431D01*
X546911Y179316D01*
X546877Y179203D01*
X546839Y178819D01*
X546843Y178779D01*
X546835Y178740D01*
X546835Y155118D01*
X546843Y155079D01*
X546839Y155039D01*
X546877Y154655D01*
X546911Y154543D01*
X546934Y154427D01*
X547228Y153717D01*
X547402Y153457D01*
X547945Y152914D01*
X547945Y152914D01*
X548206Y152740D01*
X548804Y152492D01*
Y137137D01*
X548451Y136963D01*
X548348Y137042D01*
X547625Y137341D01*
X546850Y137443D01*
X542626D01*
Y132480D01*
Y127518D01*
X546850D01*
X547625Y127620D01*
X548348Y127919D01*
X548451Y127998D01*
X548804Y127824D01*
Y114437D01*
X548206Y114190D01*
X547945Y114015D01*
X547402Y113472D01*
X547402Y113472D01*
X547228Y113212D01*
X546934Y112502D01*
X546911Y112387D01*
X546877Y112274D01*
X546839Y111890D01*
X546843Y111850D01*
X546835Y111811D01*
X546835Y88189D01*
X546843Y88150D01*
X546839Y88110D01*
X546877Y87726D01*
X546911Y87613D01*
X546934Y87498D01*
X547228Y86788D01*
X547402Y86528D01*
X547945Y85985D01*
X547945Y85985D01*
X548206Y85811D01*
X548804Y85563D01*
Y82019D01*
X548451Y81845D01*
X548348Y81924D01*
X547625Y82223D01*
X546850Y82325D01*
X542626D01*
Y77362D01*
Y72400D01*
X546850D01*
X547625Y72502D01*
X548348Y72801D01*
X548451Y72880D01*
X548804Y72706D01*
Y67716D01*
X548807Y67697D01*
X548805Y67677D01*
X548823Y67291D01*
X548838Y67234D01*
Y67174D01*
X548989Y66417D01*
X549019Y66344D01*
X549034Y66267D01*
X549330Y65553D01*
X549373Y65488D01*
X549404Y65415D01*
X549833Y64773D01*
X549889Y64717D01*
X549932Y64651D01*
X550478Y64106D01*
X550544Y64062D01*
X550600Y64006D01*
X551241Y63577D01*
X551315Y63547D01*
X551380Y63503D01*
X552093Y63207D01*
X552171Y63192D01*
X552244Y63162D01*
X553001Y63011D01*
X553060D01*
X553118Y62997D01*
X553504Y62978D01*
X553524Y62981D01*
X553543Y62977D01*
X561402Y62977D01*
X561402Y55118D01*
Y54219D01*
X561187Y52434D01*
X560758Y50687D01*
X560324Y49535D01*
X559939Y49452D01*
X554696Y54696D01*
X554674Y54711D01*
X554657Y54732D01*
X554193Y55139D01*
X554124Y55179D01*
X554065Y55231D01*
X552997Y55848D01*
X552897Y55881D01*
X552803Y55928D01*
X551612Y56247D01*
X551507Y56254D01*
X551404Y56274D01*
X550171Y56274D01*
X550068Y56254D01*
X549963Y56247D01*
X548772Y55928D01*
X548677Y55881D01*
X548578Y55847D01*
X547510Y55231D01*
X547431Y55161D01*
X547344Y55103D01*
X546472Y54231D01*
X546413Y54144D01*
X546344Y54065D01*
X545727Y52997D01*
X545694Y52897D01*
X545647Y52803D01*
X545328Y51612D01*
X545321Y51507D01*
X545301Y51404D01*
X545301Y50171D01*
X545321Y50068D01*
X545328Y49963D01*
X545647Y48772D01*
X545694Y48678D01*
X545727Y48578D01*
X546344Y47510D01*
X546396Y47451D01*
X546436Y47382D01*
X546843Y46917D01*
X546864Y46901D01*
X546879Y46879D01*
X552123Y41636D01*
X552039Y41251D01*
X550888Y40816D01*
X549141Y40388D01*
X547356Y40173D01*
X546457Y40173D01*
X405512Y40173D01*
X405203Y40173D01*
X404598Y40293D01*
X404027Y40530D01*
X403514Y40873D01*
X403077Y41309D01*
X402734Y41822D01*
X402498Y42393D01*
X402378Y42998D01*
Y43307D01*
Y109045D01*
X402690Y109285D01*
X402813Y109252D01*
X403487D01*
X404137Y109426D01*
X404721Y109763D01*
X405197Y110240D01*
X405534Y110823D01*
X405709Y111474D01*
Y112148D01*
X405534Y112799D01*
X405197Y113382D01*
X404721Y113859D01*
X404137Y114196D01*
X403487Y114370D01*
X402813D01*
X402690Y114337D01*
X402378Y114577D01*
Y122501D01*
X402530Y122558D01*
X402771Y122569D01*
X403070Y122051D01*
X403547Y121574D01*
X404130Y121237D01*
X404781Y121063D01*
X405455D01*
X406106Y121237D01*
X406690Y121574D01*
X407166Y122051D01*
X407503Y122634D01*
X407677Y123285D01*
Y123959D01*
X407503Y124610D01*
X407166Y125193D01*
X406690Y125670D01*
X406106Y126007D01*
X405455Y126181D01*
X404781D01*
X404130Y126007D01*
X403547Y125670D01*
X403070Y125193D01*
X402771Y124675D01*
X402530Y124686D01*
X402378Y124743D01*
X402378Y251969D01*
X402374Y251988D01*
X402377Y252008D01*
X402358Y252394D01*
X402343Y252451D01*
Y252511D01*
X402193Y253268D01*
X402162Y253341D01*
X402147Y253419D01*
X401852Y254132D01*
X401808Y254197D01*
X401778Y254270D01*
X401349Y254912D01*
X401293Y254968D01*
X401249Y255034D01*
X400703Y255579D01*
X400637Y255624D01*
X400582Y255679D01*
X399940Y256108D01*
X399867Y256138D01*
X399801Y256182D01*
X399088Y256478D01*
X399010Y256493D01*
X398937Y256523D01*
X398180Y256674D01*
X398121D01*
X398063Y256688D01*
X397677Y256707D01*
X397657Y256704D01*
X397638Y256708D01*
X396721D01*
X396570Y257072D01*
X398096Y258597D01*
X398096Y258597D01*
X398357Y258988D01*
X398448Y259449D01*
Y261126D01*
X398815Y261338D01*
X399292Y261814D01*
X399629Y262398D01*
X399803Y263049D01*
Y263723D01*
X399629Y264374D01*
X399292Y264957D01*
X398815Y265434D01*
X398232Y265771D01*
X397581Y265945D01*
X396907D01*
X396256Y265771D01*
X395673Y265434D01*
X395196Y264957D01*
X394860Y264374D01*
X394707Y263804D01*
X394137Y263651D01*
X393554Y263314D01*
X393307Y263068D01*
X392910Y263465D01*
X392326Y263802D01*
X391676Y263976D01*
X391002D01*
X390351Y263802D01*
X389767Y263465D01*
X389291Y262989D01*
X388954Y262405D01*
X388780Y261754D01*
Y261080D01*
X388810Y260965D01*
X388571Y260653D01*
X344315D01*
Y275197D01*
X344315Y275197D01*
X344223Y275658D01*
X343962Y276048D01*
X343591Y276419D01*
X343701Y276829D01*
Y277502D01*
X343527Y278153D01*
X343190Y278737D01*
X342713Y279213D01*
X342130Y279550D01*
X341479Y279724D01*
X340805D01*
X340154Y279550D01*
X339570Y279213D01*
X339094Y278737D01*
X338757Y278153D01*
X338583Y277502D01*
Y276829D01*
X338757Y276178D01*
X339094Y275594D01*
X339570Y275118D01*
X340154Y274781D01*
X340805Y274606D01*
X341479D01*
X341512Y274615D01*
X341906Y274313D01*
Y259910D01*
X341906Y259910D01*
X341998Y259449D01*
X342246Y259078D01*
X342210Y258905D01*
X342118Y258685D01*
X332529D01*
X332366Y259078D01*
X338908Y265620D01*
X339430Y266401D01*
X339613Y267323D01*
Y269377D01*
X339764Y269939D01*
Y270613D01*
X339589Y271263D01*
X339253Y271847D01*
X338776Y272323D01*
X338193Y272660D01*
X337542Y272835D01*
X336868D01*
X336217Y272660D01*
X335633Y272323D01*
X335236Y271926D01*
X334839Y272323D01*
X334256Y272660D01*
X333605Y272835D01*
X332931D01*
X332280Y272660D01*
X331697Y272323D01*
X331299Y271926D01*
X330902Y272323D01*
X330319Y272660D01*
X329668Y272835D01*
X328994D01*
X328343Y272660D01*
X327760Y272323D01*
X327283Y271847D01*
X326992Y271343D01*
X325928Y270279D01*
X325594Y270502D01*
X325844Y271105D01*
X325947Y271890D01*
Y272925D01*
X323413D01*
Y268922D01*
X323699Y268959D01*
X324301Y269209D01*
X324524Y268875D01*
X323412Y267763D01*
X313596D01*
X310705Y270654D01*
X310868Y271048D01*
X315816D01*
X315907Y270830D01*
X316081Y270569D01*
X316081Y270569D01*
X316435Y270215D01*
X316696Y270041D01*
X317159Y269849D01*
X317466Y269788D01*
X317967D01*
X318274Y269849D01*
X318738Y270041D01*
X318998Y270215D01*
X318998Y270215D01*
X319352Y270569D01*
X319526Y270830D01*
X319608Y271027D01*
X319694Y271045D01*
X320025Y271004D01*
X320286Y270373D01*
X320768Y269744D01*
X321396Y269262D01*
X322128Y268959D01*
X322413Y268922D01*
Y273425D01*
Y277929D01*
X322128Y277891D01*
X321396Y277588D01*
X320768Y277106D01*
X320286Y276478D01*
X320173Y276204D01*
X319779Y276283D01*
Y285528D01*
X320173Y285607D01*
X320286Y285333D01*
X320768Y284705D01*
X321396Y284223D01*
X322128Y283920D01*
X322413Y283882D01*
Y289173D01*
X322914D01*
Y289673D01*
X325947D01*
Y291496D01*
X325844Y292281D01*
X325541Y293013D01*
X325327Y293292D01*
X325521Y293685D01*
X341323Y293685D01*
X341323Y285827D01*
X341339Y285749D01*
Y285670D01*
X341384Y285444D01*
X341414Y285371D01*
X341429Y285294D01*
X341473Y285228D01*
X341504Y285155D01*
X341559Y285099D01*
X341603Y285033D01*
X341923Y284714D01*
X342183Y284540D01*
X342491Y284478D01*
X342943D01*
X343250Y284540D01*
X343510Y284714D01*
X343821Y285024D01*
X352982D01*
X353112Y284630D01*
X352695Y283908D01*
X352461Y283032D01*
Y282125D01*
X352695Y281249D01*
X353149Y280464D01*
X353790Y279822D01*
X354576Y279369D01*
X355452Y279134D01*
X356359D01*
X357235Y279369D01*
X358021Y279822D01*
X358662Y280464D01*
X359116Y281249D01*
X359350Y282125D01*
Y283032D01*
X359116Y283908D01*
X358699Y284630D01*
X358830Y285024D01*
X367990D01*
X368301Y284714D01*
X368561Y284540D01*
X368869Y284478D01*
X369321D01*
X369628Y284540D01*
X369888Y284714D01*
X370208Y285033D01*
X370252Y285099D01*
X370308Y285155D01*
X370338Y285228D01*
X370382Y285294D01*
X370397Y285371D01*
X370427Y285444D01*
X370473Y285670D01*
Y285749D01*
X370488Y285827D01*
Y293685D01*
X546457Y293685D01*
D02*
G37*
G36*
X276248Y293292D02*
X276034Y293013D01*
X275731Y292281D01*
X275628Y291496D01*
Y289673D01*
X278661D01*
Y289173D01*
X279162D01*
Y283882D01*
X279447Y283920D01*
X280178Y284223D01*
X280807Y284705D01*
X281289Y285333D01*
X281402Y285607D01*
X281796Y285528D01*
Y276283D01*
X281402Y276204D01*
X281289Y276478D01*
X280807Y277106D01*
X280178Y277588D01*
X279447Y277891D01*
X279162Y277929D01*
Y273425D01*
Y268922D01*
X279447Y268959D01*
X280178Y269262D01*
X280807Y269744D01*
X281289Y270373D01*
X281550Y271004D01*
X281881Y271044D01*
X281967Y271027D01*
X282049Y270830D01*
X282223Y270569D01*
X282223Y270569D01*
X282577Y270215D01*
X282838Y270041D01*
X283300Y269849D01*
X283608Y269788D01*
X284109D01*
X284416Y269849D01*
X284879Y270041D01*
X285140Y270215D01*
X285140Y270215D01*
X285494Y270569D01*
X285668Y270830D01*
X285758Y271048D01*
X290707D01*
X290870Y270654D01*
X287979Y267763D01*
X278163D01*
X277051Y268875D01*
X277274Y269209D01*
X277876Y268959D01*
X278162Y268922D01*
Y272925D01*
X275628D01*
Y271890D01*
X275731Y271105D01*
X275981Y270502D01*
X275647Y270279D01*
X274583Y271343D01*
X274292Y271847D01*
X273815Y272323D01*
X273232Y272660D01*
X272581Y272835D01*
X271907D01*
X271256Y272660D01*
X270673Y272323D01*
X270276Y271926D01*
X269879Y272323D01*
X269295Y272660D01*
X268644Y272835D01*
X267970D01*
X267319Y272660D01*
X266736Y272323D01*
X266339Y271926D01*
X265941Y272323D01*
X265358Y272660D01*
X264707Y272835D01*
X264033D01*
X263382Y272660D01*
X262799Y272323D01*
X262322Y271847D01*
X261985Y271263D01*
X261811Y270613D01*
Y269939D01*
X261962Y269377D01*
Y267323D01*
X262145Y266401D01*
X262667Y265620D01*
X269209Y259078D01*
X269046Y258685D01*
X247152D01*
X239631Y266206D01*
X239241Y266467D01*
X238780Y266559D01*
X238780Y266559D01*
X231367D01*
X231367Y266559D01*
X230906Y266467D01*
X230515Y266206D01*
X230515Y266206D01*
X230139Y265830D01*
X229918Y265771D01*
X229334Y265434D01*
X228858Y264957D01*
X228521Y264374D01*
X228346Y263723D01*
Y263049D01*
X228521Y262398D01*
X228858Y261814D01*
X229334Y261338D01*
X229918Y261001D01*
X230569Y260827D01*
X231242D01*
X231893Y261001D01*
X232382Y261283D01*
X232871Y261001D01*
X233521Y260827D01*
X234195D01*
X234846Y261001D01*
X235430Y261338D01*
X235906Y261814D01*
X236243Y262398D01*
X236417Y263049D01*
Y263723D01*
X236387Y263838D01*
X236626Y264150D01*
X238281D01*
X242068Y260363D01*
X241950Y259924D01*
X241729Y259865D01*
X241145Y259528D01*
X240669Y259052D01*
X240332Y258468D01*
X240158Y257817D01*
Y257143D01*
X240191Y257021D01*
X239951Y256708D01*
X114173D01*
X114154Y256704D01*
X114134Y256707D01*
X113748Y256688D01*
X113690Y256674D01*
X113631D01*
X112874Y256523D01*
X112801Y256493D01*
X112723Y256478D01*
X112010Y256182D01*
X111944Y256138D01*
X111871Y256108D01*
X111230Y255679D01*
X111174Y255623D01*
X111108Y255579D01*
X110562Y255034D01*
X110518Y254968D01*
X110462Y254912D01*
X110034Y254270D01*
X110003Y254197D01*
X109959Y254132D01*
X109664Y253419D01*
X109649Y253341D01*
X109618Y253268D01*
X109468Y252511D01*
Y252451D01*
X109453Y252394D01*
X109434Y252008D01*
X109437Y251988D01*
X109433Y251969D01*
X109433Y43307D01*
X109433Y42998D01*
X109313Y42393D01*
X109077Y41822D01*
X108734Y41309D01*
X108297Y40873D01*
X107784Y40530D01*
X107213Y40293D01*
X106608Y40173D01*
X106299D01*
X55118Y40173D01*
X54219Y40173D01*
X52434Y40389D01*
X50687Y40817D01*
X49535Y41251D01*
X49452Y41636D01*
X54696Y46879D01*
X54711Y46901D01*
X54732Y46917D01*
X55139Y47382D01*
X55179Y47451D01*
X55231Y47510D01*
X55847Y48578D01*
X55881Y48678D01*
X55928Y48772D01*
X56247Y49963D01*
X56254Y50068D01*
X56274Y50171D01*
Y51404D01*
X56254Y51507D01*
X56247Y51612D01*
X55928Y52803D01*
X55881Y52897D01*
X55847Y52997D01*
X55231Y54065D01*
X55161Y54144D01*
X55103Y54231D01*
X54231Y55103D01*
X54144Y55161D01*
X54065Y55231D01*
X52997Y55847D01*
X52897Y55881D01*
X52803Y55928D01*
X51612Y56247D01*
X51507Y56254D01*
X51404Y56274D01*
X50171Y56274D01*
X50068Y56254D01*
X49963Y56247D01*
X48772Y55928D01*
X48678Y55881D01*
X48578Y55847D01*
X47510Y55231D01*
X47451Y55179D01*
X47382Y55139D01*
X46918Y54732D01*
X46901Y54711D01*
X46879Y54696D01*
X41636Y49452D01*
X41251Y49535D01*
X40817Y50687D01*
X40389Y52434D01*
X40173Y54219D01*
X40173Y55118D01*
X40173Y62698D01*
X40451Y62977D01*
X48031D01*
X48051Y62981D01*
X48071Y62978D01*
X48457Y62997D01*
X48515Y63011D01*
X48574D01*
X49331Y63162D01*
X49404Y63192D01*
X49481Y63207D01*
X50195Y63503D01*
X50260Y63547D01*
X50333Y63577D01*
X50975Y64006D01*
X51031Y64062D01*
X51097Y64105D01*
X51643Y64651D01*
X51687Y64717D01*
X51742Y64773D01*
X52171Y65415D01*
X52201Y65488D01*
X52245Y65553D01*
X52541Y66266D01*
X52556Y66344D01*
X52586Y66417D01*
X52737Y67174D01*
Y67234D01*
X52751Y67291D01*
X52770Y67677D01*
X52767Y67697D01*
X52771Y67716D01*
Y72706D01*
X53124Y72880D01*
X53227Y72801D01*
X53949Y72502D01*
X54725Y72400D01*
X58949D01*
Y77362D01*
Y82325D01*
X54725D01*
X53949Y82223D01*
X53227Y81924D01*
X53124Y81845D01*
X52771Y82019D01*
Y85563D01*
X53369Y85811D01*
X53630Y85985D01*
X54173Y86528D01*
X54173Y86528D01*
X54347Y86788D01*
X54641Y87498D01*
X54664Y87613D01*
X54698Y87726D01*
X54736Y88110D01*
X54732Y88150D01*
X54740Y88189D01*
X54740Y111811D01*
X54732Y111850D01*
X54736Y111890D01*
X54698Y112274D01*
X54664Y112387D01*
X54641Y112502D01*
X54347Y113212D01*
X54173Y113472D01*
X53630Y114015D01*
X53630Y114015D01*
X53369Y114190D01*
X52771Y114437D01*
Y127824D01*
X53124Y127998D01*
X53227Y127919D01*
X53949Y127620D01*
X54725Y127518D01*
X58949D01*
Y132480D01*
Y137443D01*
X54725D01*
X53949Y137341D01*
X53227Y137042D01*
X53124Y136963D01*
X52771Y137137D01*
Y152492D01*
X53369Y152740D01*
X53630Y152914D01*
X54173Y153457D01*
X54173Y153457D01*
X54347Y153717D01*
X54641Y154427D01*
X54664Y154543D01*
X54698Y154655D01*
X54736Y155039D01*
X54732Y155079D01*
X54740Y155118D01*
X54740Y178740D01*
X54732Y178779D01*
X54736Y178819D01*
X54698Y179203D01*
X54664Y179316D01*
X54641Y179431D01*
X54347Y180141D01*
X54173Y180402D01*
X53630Y180945D01*
X53630Y180945D01*
X53369Y181119D01*
X52771Y181366D01*
Y206564D01*
X53124Y206738D01*
X53227Y206659D01*
X53949Y206360D01*
X54725Y206258D01*
X58949D01*
Y211221D01*
Y216183D01*
X54725D01*
X53949Y216081D01*
X53227Y215782D01*
X53124Y215703D01*
X52771Y215877D01*
Y219421D01*
X53369Y219669D01*
X53630Y219843D01*
X54173Y220386D01*
X54173Y220386D01*
X54347Y220646D01*
X54641Y221356D01*
X54664Y221472D01*
X54698Y221585D01*
X54736Y221969D01*
X54732Y222008D01*
X54740Y222047D01*
X54740Y245669D01*
X54732Y245708D01*
X54736Y245748D01*
X54698Y246132D01*
X54664Y246245D01*
X54641Y246360D01*
X54347Y247070D01*
X54173Y247331D01*
X53630Y247874D01*
X53630Y247874D01*
X53369Y248048D01*
X52771Y248295D01*
Y261682D01*
X53124Y261856D01*
X53227Y261777D01*
X53949Y261478D01*
X54725Y261376D01*
X58949D01*
Y266339D01*
Y271301D01*
X54725D01*
X53949Y271199D01*
X53227Y270900D01*
X52607Y270424D01*
X52131Y269804D01*
X51973Y269421D01*
X51918Y269386D01*
X51512Y269338D01*
X51097Y269753D01*
X51031Y269797D01*
X50975Y269853D01*
X50333Y270281D01*
X50260Y270312D01*
X50195Y270356D01*
X49482Y270651D01*
X49404Y270666D01*
X49331Y270697D01*
X48574Y270847D01*
X48515D01*
X48457Y270862D01*
X48071Y270881D01*
X48051Y270878D01*
X48032Y270882D01*
X40173D01*
Y278740D01*
Y279639D01*
X40389Y281424D01*
X40817Y283171D01*
X41251Y284323D01*
X41636Y284406D01*
X46879Y279163D01*
X46901Y279148D01*
X46918Y279127D01*
X47382Y278719D01*
X47451Y278680D01*
X47510Y278627D01*
X48578Y278011D01*
X48678Y277977D01*
X48772Y277931D01*
X49963Y277611D01*
X50068Y277605D01*
X50171Y277584D01*
X51404Y277584D01*
X51507Y277605D01*
X51612Y277611D01*
X52803Y277931D01*
X52898Y277977D01*
X52997Y278011D01*
X54065Y278627D01*
X54144Y278697D01*
X54231Y278755D01*
X55103Y279627D01*
X55162Y279714D01*
X55231Y279794D01*
X55848Y280861D01*
X55881Y280961D01*
X55928Y281055D01*
X56247Y282246D01*
X56254Y282351D01*
X56274Y282454D01*
X56274Y283687D01*
X56254Y283791D01*
X56247Y283895D01*
X55928Y285087D01*
X55881Y285181D01*
X55848Y285280D01*
X55231Y286348D01*
X55179Y286408D01*
X55139Y286476D01*
X54732Y286941D01*
X54711Y286957D01*
X54696Y286979D01*
X49452Y292223D01*
X49535Y292607D01*
X50687Y293042D01*
X52434Y293470D01*
X54219Y293685D01*
X55118Y293685D01*
X107737D01*
X107794Y293533D01*
X107805Y293292D01*
X107287Y292993D01*
X106811Y292516D01*
X106474Y291933D01*
X106299Y291282D01*
Y290608D01*
X106474Y289957D01*
X106811Y289374D01*
X107287Y288897D01*
X107871Y288560D01*
X108521Y288386D01*
X109195D01*
X109846Y288560D01*
X110430Y288897D01*
X110827Y289294D01*
X111157Y289200D01*
X111221Y289156D01*
Y288639D01*
X111395Y287989D01*
X111732Y287405D01*
X112208Y286929D01*
X112792Y286592D01*
X113443Y286417D01*
X114117D01*
X114767Y286592D01*
X115351Y286929D01*
X115827Y287405D01*
X116164Y287989D01*
X116339Y288639D01*
Y289313D01*
X116164Y289964D01*
X115827Y290548D01*
X115351Y291024D01*
X114767Y291361D01*
X114117Y291535D01*
X113443D01*
X112792Y291361D01*
X112208Y291024D01*
X111811Y290627D01*
X111481Y290721D01*
X111417Y290765D01*
Y291282D01*
X111243Y291933D01*
X110906Y292516D01*
X110430Y292993D01*
X109912Y293292D01*
X109923Y293533D01*
X109980Y293685D01*
X231087D01*
Y285827D01*
X231102Y285749D01*
Y285670D01*
X231147Y285444D01*
X231178Y285371D01*
X231193Y285294D01*
X231237Y285228D01*
X231267Y285155D01*
X231323Y285099D01*
X231367Y285033D01*
X231687Y284714D01*
X231947Y284540D01*
X232254Y284478D01*
X232706D01*
X233014Y284540D01*
X233274Y284714D01*
X233584Y285024D01*
X242745D01*
X242876Y284630D01*
X242459Y283908D01*
X242225Y283032D01*
Y282125D01*
X242459Y281249D01*
X242913Y280464D01*
X243554Y279822D01*
X244340Y279369D01*
X245216Y279134D01*
X246123D01*
X246999Y279369D01*
X247785Y279822D01*
X248426Y280464D01*
X248880Y281249D01*
X249114Y282125D01*
Y283032D01*
X248880Y283908D01*
X248463Y284630D01*
X248593Y285024D01*
X257754D01*
X258065Y284714D01*
X258325Y284540D01*
X258632Y284478D01*
X259084D01*
X259391Y284540D01*
X259652Y284714D01*
X259972Y285033D01*
X260016Y285099D01*
X260071Y285155D01*
X260102Y285228D01*
X260146Y285294D01*
X260161Y285371D01*
X260191Y285444D01*
X260236Y285670D01*
Y285749D01*
X260252Y285827D01*
X260252Y293685D01*
X276054D01*
X276248Y293292D01*
D02*
G37*
%LPC*%
G36*
X325947Y551665D02*
X323413D01*
Y546875D01*
X323699Y546912D01*
X324430Y547215D01*
X325059Y547697D01*
X325541Y548326D01*
X325844Y549057D01*
X325947Y549843D01*
Y551665D01*
D02*
G37*
G36*
X538614Y555134D02*
X533433D01*
X533330Y555113D01*
X533225Y555106D01*
X532024Y554784D01*
X531930Y554738D01*
X531830Y554704D01*
X530753Y554082D01*
X530674Y554013D01*
X530587Y553955D01*
X529707Y553075D01*
X529649Y552987D01*
X529579Y552909D01*
X528958Y551831D01*
X528924Y551732D01*
X528877Y551638D01*
X528555Y550436D01*
X528548Y550331D01*
X528528Y550228D01*
Y548984D01*
X528548Y548881D01*
X528555Y548776D01*
X528877Y547575D01*
X528924Y547481D01*
X528958Y547381D01*
X529579Y546304D01*
X529649Y546225D01*
X529707Y546138D01*
X530587Y545258D01*
X530674Y545200D01*
X530753Y545131D01*
X531830Y544509D01*
X531930Y544475D01*
X532024Y544428D01*
X533225Y544106D01*
X533330Y544100D01*
X533433Y544079D01*
X538614D01*
X538717Y544100D01*
X538822Y544106D01*
X540024Y544428D01*
X540118Y544475D01*
X540217Y544509D01*
X541294Y545131D01*
X541373Y545200D01*
X541461Y545258D01*
X542340Y546138D01*
X542399Y546225D01*
X542468Y546304D01*
X543090Y547381D01*
X543124Y547481D01*
X543170Y547575D01*
X543492Y548776D01*
X543499Y548881D01*
X543519Y548984D01*
Y550228D01*
X543499Y550331D01*
X543492Y550436D01*
X543170Y551638D01*
X543124Y551732D01*
X543090Y551831D01*
X542468Y552909D01*
X542399Y552987D01*
X542340Y553075D01*
X541461Y553955D01*
X541373Y554013D01*
X541294Y554082D01*
X540217Y554704D01*
X540118Y554738D01*
X540024Y554784D01*
X538822Y555106D01*
X538717Y555113D01*
X538614Y555134D01*
D02*
G37*
G36*
X382817Y545669D02*
X382143D01*
X381493Y545495D01*
X380909Y545158D01*
X380433Y544682D01*
X380096Y544098D01*
X379921Y543447D01*
Y542773D01*
X380096Y542123D01*
X380433Y541539D01*
X380909Y541062D01*
X381493Y540726D01*
X382143Y540551D01*
X382817D01*
X383468Y540726D01*
X384052Y541062D01*
X384528Y541539D01*
X384865Y542123D01*
X385039Y542773D01*
Y543447D01*
X384865Y544098D01*
X384528Y544682D01*
X384052Y545158D01*
X383468Y545495D01*
X382817Y545669D01*
D02*
G37*
G36*
X501044Y545571D02*
X500137D01*
X499261Y545336D01*
X498475Y544883D01*
X497834Y544241D01*
X497380Y543456D01*
X497146Y542580D01*
Y541673D01*
X497380Y540796D01*
X497834Y540011D01*
X498475Y539369D01*
X499261Y538916D01*
X500137Y538681D01*
X501044D01*
X501920Y538916D01*
X502706Y539369D01*
X503347Y540011D01*
X503801Y540796D01*
X504036Y541673D01*
Y542580D01*
X503801Y543456D01*
X503347Y544241D01*
X502706Y544883D01*
X501920Y545336D01*
X501044Y545571D01*
D02*
G37*
G36*
X323413Y540921D02*
Y536917D01*
X325947D01*
Y537953D01*
X325844Y538738D01*
X325541Y539470D01*
X325059Y540098D01*
X324430Y540580D01*
X323699Y540883D01*
X323413Y540921D01*
D02*
G37*
G36*
X356359Y538189D02*
X355452D01*
X354576Y537954D01*
X353790Y537501D01*
X353149Y536859D01*
X352695Y536074D01*
X352461Y535198D01*
Y534291D01*
X352695Y533414D01*
X353149Y532629D01*
X353790Y531987D01*
X354576Y531534D01*
X355452Y531299D01*
X356359D01*
X357235Y531534D01*
X358021Y531987D01*
X358662Y532629D01*
X359116Y533414D01*
X359350Y534291D01*
Y535198D01*
X359116Y536074D01*
X358662Y536859D01*
X358021Y537501D01*
X357235Y537954D01*
X356359Y538189D01*
D02*
G37*
G36*
X528740Y534293D02*
X524516D01*
Y529831D01*
X531734D01*
Y531299D01*
X531632Y532074D01*
X531333Y532796D01*
X530857Y533416D01*
X530237Y533892D01*
X529515Y534191D01*
X528740Y534293D01*
D02*
G37*
G36*
X541626D02*
X537402D01*
X536627Y534191D01*
X535905Y533892D01*
X535285Y533416D01*
X534809Y532796D01*
X534510Y532074D01*
X534408Y531299D01*
Y529831D01*
X541626D01*
Y534293D01*
D02*
G37*
G36*
X523516D02*
X519291D01*
X518516Y534191D01*
X517794Y533892D01*
X517174Y533416D01*
X516698Y532796D01*
X516399Y532074D01*
X516297Y531299D01*
Y529831D01*
X523516D01*
Y534293D01*
D02*
G37*
G36*
X541626Y528831D02*
X534408D01*
Y527362D01*
X534510Y526587D01*
X534809Y525865D01*
X535285Y525245D01*
X535905Y524769D01*
X536627Y524470D01*
X537402Y524368D01*
X541626D01*
Y528831D01*
D02*
G37*
G36*
X531734D02*
X524516D01*
Y524368D01*
X528740D01*
X529515Y524470D01*
X530237Y524769D01*
X530857Y525245D01*
X531333Y525865D01*
X531632Y526587D01*
X531734Y527362D01*
Y528831D01*
D02*
G37*
G36*
X523516D02*
X516297D01*
Y527362D01*
X516399Y526587D01*
X516698Y525865D01*
X517174Y525245D01*
X517794Y524769D01*
X518516Y524470D01*
X519291Y524368D01*
X523516D01*
Y528831D01*
D02*
G37*
G36*
X456636Y527953D02*
X455962D01*
X455311Y527778D01*
X454728Y527442D01*
X454251Y526965D01*
X453915Y526381D01*
X453740Y525731D01*
Y525057D01*
X453915Y524406D01*
X454251Y523822D01*
X454728Y523346D01*
X455311Y523009D01*
X455962Y522835D01*
X456636D01*
X457287Y523009D01*
X457871Y523346D01*
X458347Y523822D01*
X458684Y524406D01*
X458858Y525057D01*
Y525731D01*
X458684Y526381D01*
X458347Y526965D01*
X457871Y527442D01*
X457287Y527778D01*
X456636Y527953D01*
D02*
G37*
G36*
X407424Y525000D02*
X406750D01*
X406099Y524826D01*
X405515Y524489D01*
X405039Y524012D01*
X404702Y523429D01*
X404528Y522778D01*
Y522104D01*
X404702Y521453D01*
X405039Y520870D01*
X405515Y520393D01*
X406099Y520056D01*
X406750Y519882D01*
X407424D01*
X408074Y520056D01*
X408658Y520393D01*
X409134Y520870D01*
X409471Y521453D01*
X409646Y522104D01*
Y522778D01*
X409471Y523429D01*
X409134Y524012D01*
X408658Y524489D01*
X408074Y524826D01*
X407424Y525000D01*
D02*
G37*
G36*
X501044Y525886D02*
X500137D01*
X499261Y525651D01*
X498475Y525198D01*
X497834Y524556D01*
X497380Y523771D01*
X497146Y522894D01*
Y521987D01*
X497380Y521111D01*
X497834Y520326D01*
X498475Y519684D01*
X499261Y519231D01*
X500137Y518996D01*
X501044D01*
X501920Y519231D01*
X502706Y519684D01*
X503347Y520326D01*
X503801Y521111D01*
X504036Y521987D01*
Y522894D01*
X503801Y523771D01*
X503347Y524556D01*
X502706Y525198D01*
X501920Y525651D01*
X501044Y525886D01*
D02*
G37*
G36*
X438920Y524016D02*
X438246D01*
X437595Y523841D01*
X437011Y523504D01*
X436535Y523028D01*
X436198Y522444D01*
X436024Y521794D01*
Y521120D01*
X436198Y520469D01*
X436535Y519885D01*
X437011Y519409D01*
X437595Y519072D01*
X438246Y518898D01*
X438920D01*
X439571Y519072D01*
X440154Y519409D01*
X440630Y519885D01*
X440967Y520469D01*
X441142Y521120D01*
Y521794D01*
X440967Y522444D01*
X440630Y523028D01*
X440154Y523504D01*
X439571Y523841D01*
X438920Y524016D01*
D02*
G37*
G36*
X486164Y519095D02*
X485490D01*
X484839Y518920D01*
X484350Y518638D01*
X483862Y518920D01*
X483211Y519095D01*
X482537D01*
X481886Y518920D01*
X481303Y518583D01*
X480826Y518107D01*
X480489Y517523D01*
X480315Y516872D01*
Y516198D01*
X480489Y515548D01*
X480826Y514964D01*
X481303Y514488D01*
X481886Y514151D01*
X482537Y513976D01*
X483211D01*
X483862Y514151D01*
X484350Y514433D01*
X484839Y514151D01*
X485490Y513976D01*
X486164D01*
X486815Y514151D01*
X487398Y514488D01*
X487875Y514964D01*
X488211Y515548D01*
X488386Y516198D01*
Y516872D01*
X488211Y517523D01*
X487875Y518107D01*
X487398Y518583D01*
X486815Y518920D01*
X486164Y519095D01*
D02*
G37*
G36*
X468447Y526968D02*
X467773D01*
X467123Y526794D01*
X466539Y526457D01*
X466063Y525981D01*
X465726Y525397D01*
X465605Y524946D01*
X465154Y524826D01*
X464571Y524489D01*
X464094Y524012D01*
X463757Y523429D01*
X463583Y522778D01*
Y522104D01*
X463757Y521453D01*
X464094Y520870D01*
X464571Y520393D01*
X465154Y520056D01*
X465805Y519882D01*
X466479D01*
X467130Y520056D01*
X467219Y520108D01*
X467531Y519868D01*
X467520Y519825D01*
Y519151D01*
X467694Y518500D01*
X468031Y517917D01*
X468507Y517440D01*
X469091Y517103D01*
X469742Y516929D01*
X470416D01*
X471067Y517103D01*
X471650Y517440D01*
X472127Y517917D01*
X472464Y518500D01*
X472584Y518951D01*
X473035Y519072D01*
X473619Y519409D01*
X474095Y519885D01*
X474432Y520469D01*
X474606Y521120D01*
Y521794D01*
X474432Y522444D01*
X474095Y523028D01*
X473619Y523504D01*
X473035Y523841D01*
X472384Y524016D01*
X471710D01*
X471060Y523841D01*
X470970Y523790D01*
X470658Y524029D01*
X470669Y524073D01*
Y524746D01*
X470495Y525397D01*
X470158Y525981D01*
X469682Y526457D01*
X469098Y526794D01*
X468447Y526968D01*
D02*
G37*
G36*
X444825Y515158D02*
X444151D01*
X443501Y514983D01*
X443012Y514701D01*
X442523Y514983D01*
X441872Y515158D01*
X441199D01*
X440548Y514983D01*
X439964Y514646D01*
X439488Y514170D01*
X439151Y513586D01*
X438976Y512935D01*
Y512261D01*
X439151Y511611D01*
X439488Y511027D01*
X439964Y510551D01*
X440548Y510214D01*
X441199Y510039D01*
X441872D01*
X442523Y510214D01*
X443012Y510496D01*
X443501Y510214D01*
X444151Y510039D01*
X444825D01*
X445476Y510214D01*
X446060Y510551D01*
X446536Y511027D01*
X446873Y511611D01*
X447047Y512261D01*
Y512935D01*
X446873Y513586D01*
X446536Y514170D01*
X446060Y514646D01*
X445476Y514983D01*
X444825Y515158D01*
D02*
G37*
G36*
X497975Y510236D02*
X497301D01*
X496650Y510062D01*
X496067Y509725D01*
X495590Y509248D01*
X495253Y508665D01*
X495079Y508014D01*
Y507340D01*
X495253Y506689D01*
X495590Y506106D01*
X496067Y505629D01*
X496650Y505293D01*
X497301Y505118D01*
X497975D01*
X498626Y505293D01*
X499209Y505629D01*
X499686Y506106D01*
X500023Y506689D01*
X500197Y507340D01*
Y508014D01*
X500023Y508665D01*
X499686Y509248D01*
X499209Y509725D01*
X498626Y510062D01*
X497975Y510236D01*
D02*
G37*
G36*
X407424Y511221D02*
X406750D01*
X406099Y511046D01*
X405515Y510709D01*
X405039Y510233D01*
X404702Y509649D01*
X404528Y508998D01*
Y508324D01*
X404702Y507674D01*
X405039Y507090D01*
X405515Y506614D01*
X405837Y506428D01*
Y505973D01*
X405515Y505788D01*
X405039Y505311D01*
X404702Y504728D01*
X404528Y504077D01*
Y503403D01*
X404702Y502752D01*
X405039Y502169D01*
X405515Y501692D01*
X406099Y501356D01*
X406750Y501181D01*
X407424D01*
X408074Y501356D01*
X408658Y501692D01*
X409134Y502169D01*
X409320Y502490D01*
X409775D01*
X409960Y502169D01*
X410437Y501692D01*
X411020Y501356D01*
X411671Y501181D01*
X412345D01*
X412996Y501356D01*
X413579Y501692D01*
X414056Y502169D01*
X414393Y502752D01*
X414567Y503403D01*
Y504077D01*
X414393Y504728D01*
X414056Y505311D01*
X413579Y505788D01*
X412996Y506125D01*
X412345Y506299D01*
X411671D01*
X411020Y506125D01*
X410437Y505788D01*
X409960Y505311D01*
X409775Y504990D01*
X409320D01*
X409134Y505311D01*
X408658Y505788D01*
X408336Y505973D01*
Y506428D01*
X408658Y506614D01*
X409134Y507090D01*
X409471Y507674D01*
X409646Y508324D01*
Y508998D01*
X409471Y509649D01*
X409134Y510233D01*
X408658Y510709D01*
X408074Y511046D01*
X407424Y511221D01*
D02*
G37*
G36*
X528740Y479175D02*
X524516D01*
Y474713D01*
X531734D01*
Y476181D01*
X531632Y476956D01*
X531333Y477678D01*
X530857Y478298D01*
X530237Y478774D01*
X529515Y479073D01*
X528740Y479175D01*
D02*
G37*
G36*
X541626D02*
X537402D01*
X536627Y479073D01*
X535905Y478774D01*
X535285Y478298D01*
X534809Y477678D01*
X534510Y476956D01*
X534408Y476181D01*
Y474713D01*
X541626D01*
Y479175D01*
D02*
G37*
G36*
X523516D02*
X519291D01*
X518516Y479073D01*
X517794Y478774D01*
X517174Y478298D01*
X516698Y477678D01*
X516399Y476956D01*
X516297Y476181D01*
Y474713D01*
X523516D01*
Y479175D01*
D02*
G37*
G36*
X495022Y478740D02*
X494348D01*
X493697Y478566D01*
X493114Y478229D01*
X492637Y477752D01*
X492301Y477169D01*
X492126Y476518D01*
Y475844D01*
X492301Y475193D01*
X492637Y474610D01*
X493114Y474133D01*
X493697Y473797D01*
X494348Y473622D01*
X495022D01*
X495673Y473797D01*
X496256Y474133D01*
X496733Y474610D01*
X497070Y475193D01*
X497244Y475844D01*
Y476518D01*
X497070Y477169D01*
X496733Y477752D01*
X496256Y478229D01*
X495673Y478566D01*
X495022Y478740D01*
D02*
G37*
G36*
X541626Y473713D02*
X534408D01*
Y472244D01*
X534510Y471469D01*
X534809Y470747D01*
X535285Y470127D01*
X535905Y469651D01*
X536627Y469352D01*
X537402Y469250D01*
X541626D01*
Y473713D01*
D02*
G37*
G36*
X531734D02*
X524516D01*
Y469250D01*
X528740D01*
X529515Y469352D01*
X530237Y469651D01*
X530857Y470127D01*
X531333Y470747D01*
X531632Y471469D01*
X531734Y472244D01*
Y473713D01*
D02*
G37*
G36*
X523516D02*
X516297D01*
Y472244D01*
X516399Y471469D01*
X516698Y470747D01*
X517174Y470127D01*
X517794Y469651D01*
X518516Y469352D01*
X519291Y469250D01*
X523516D01*
Y473713D01*
D02*
G37*
G36*
X415298Y480315D02*
X414624D01*
X413973Y480141D01*
X413389Y479804D01*
X412913Y479327D01*
X412576Y478744D01*
X412402Y478093D01*
Y477419D01*
X412576Y476768D01*
X412913Y476185D01*
X413310Y475787D01*
X412913Y475390D01*
X412576Y474807D01*
X412402Y474156D01*
Y473482D01*
X412576Y472831D01*
X412913Y472248D01*
X413310Y471850D01*
X412913Y471453D01*
X412576Y470870D01*
X412402Y470219D01*
Y469545D01*
X412576Y468894D01*
X412913Y468311D01*
X413310Y467913D01*
X412913Y467516D01*
X412576Y466933D01*
X412402Y466282D01*
Y465608D01*
X412576Y464957D01*
X412913Y464374D01*
X413310Y463976D01*
X412913Y463579D01*
X412576Y462996D01*
X412402Y462345D01*
Y461671D01*
X412576Y461020D01*
X412913Y460437D01*
X413310Y460039D01*
X412913Y459642D01*
X412576Y459059D01*
X412402Y458408D01*
Y457734D01*
X412576Y457083D01*
X412913Y456500D01*
X413310Y456102D01*
X412913Y455705D01*
X412576Y455122D01*
X412402Y454471D01*
Y453797D01*
X412576Y453146D01*
X412913Y452563D01*
X413310Y452165D01*
X412913Y451768D01*
X412576Y451185D01*
X412402Y450534D01*
Y449860D01*
X412576Y449209D01*
X412913Y448626D01*
X413310Y448228D01*
X412913Y447831D01*
X412576Y447248D01*
X412402Y446597D01*
Y445923D01*
X412576Y445272D01*
X412913Y444689D01*
X413310Y444291D01*
X412913Y443894D01*
X412576Y443311D01*
X412402Y442660D01*
Y441986D01*
X412576Y441335D01*
X412913Y440752D01*
X413389Y440275D01*
X413973Y439938D01*
X414424Y439817D01*
X414545Y439367D01*
X414882Y438783D01*
X415358Y438307D01*
X415941Y437970D01*
X416592Y437795D01*
X417266D01*
X417917Y437970D01*
X418501Y438307D01*
X418977Y438783D01*
X419314Y439367D01*
X419488Y440017D01*
Y440691D01*
X419314Y441342D01*
X418977Y441926D01*
X418580Y442323D01*
X418977Y442720D01*
X419314Y443304D01*
X419488Y443954D01*
Y444628D01*
X419314Y445279D01*
X418977Y445863D01*
X418580Y446260D01*
X418977Y446657D01*
X419314Y447241D01*
X419488Y447891D01*
Y448565D01*
X419314Y449216D01*
X418977Y449800D01*
X418580Y450197D01*
X418977Y450594D01*
X419314Y451178D01*
X419488Y451828D01*
Y452502D01*
X419314Y453153D01*
X418977Y453737D01*
X418580Y454134D01*
X418977Y454531D01*
X419314Y455115D01*
X419488Y455765D01*
Y456439D01*
X419314Y457090D01*
X418977Y457674D01*
X418580Y458071D01*
X418977Y458468D01*
X419314Y459052D01*
X419488Y459702D01*
Y460376D01*
X419314Y461027D01*
X418977Y461611D01*
X418580Y462008D01*
X418977Y462405D01*
X419314Y462989D01*
X419488Y463639D01*
Y464313D01*
X419314Y464964D01*
X418977Y465548D01*
X418580Y465945D01*
X418977Y466342D01*
X419314Y466926D01*
X419488Y467577D01*
Y468250D01*
X419314Y468901D01*
X418977Y469485D01*
X418580Y469882D01*
X418977Y470279D01*
X419314Y470863D01*
X419488Y471514D01*
Y472187D01*
X419314Y472838D01*
X418977Y473422D01*
X418580Y473819D01*
X418977Y474216D01*
X419314Y474800D01*
X419488Y475451D01*
Y476124D01*
X419314Y476775D01*
X418977Y477359D01*
X418501Y477835D01*
X417917Y478172D01*
X417466Y478293D01*
X417345Y478744D01*
X417008Y479327D01*
X416532Y479804D01*
X415948Y480141D01*
X415298Y480315D01*
D02*
G37*
G36*
X407424Y442913D02*
X406750D01*
X406099Y442739D01*
X405515Y442402D01*
X405039Y441926D01*
X404702Y441342D01*
X404528Y440691D01*
Y440017D01*
X404702Y439367D01*
X405039Y438783D01*
X405436Y438386D01*
X405039Y437989D01*
X404702Y437405D01*
X404528Y436754D01*
Y436080D01*
X404702Y435430D01*
X405039Y434846D01*
X405436Y434449D01*
X405039Y434052D01*
X404702Y433468D01*
X404528Y432817D01*
Y432143D01*
X404702Y431493D01*
X405039Y430909D01*
X405436Y430512D01*
X405039Y430115D01*
X404702Y429531D01*
X404528Y428880D01*
Y428206D01*
X404702Y427556D01*
X405039Y426972D01*
X405515Y426496D01*
X406099Y426159D01*
X406750Y425984D01*
X407424D01*
X408074Y426159D01*
X408658Y426496D01*
X409134Y426972D01*
X409471Y427556D01*
X409646Y428206D01*
Y428880D01*
X409471Y429531D01*
X409134Y430115D01*
X408737Y430512D01*
X409134Y430909D01*
X409471Y431493D01*
X409646Y432143D01*
Y432817D01*
X409471Y433468D01*
X409134Y434052D01*
X408737Y434449D01*
X409134Y434846D01*
X409471Y435430D01*
X409646Y436080D01*
Y436754D01*
X409471Y437405D01*
X409134Y437989D01*
X408737Y438386D01*
X409134Y438783D01*
X409471Y439367D01*
X409646Y440017D01*
Y440691D01*
X409471Y441342D01*
X409134Y441926D01*
X408658Y442402D01*
X408074Y442739D01*
X407424Y442913D01*
D02*
G37*
G36*
X415298Y425197D02*
X414624D01*
X413973Y425023D01*
X413389Y424686D01*
X412913Y424209D01*
X412576Y423626D01*
X412402Y422975D01*
Y422301D01*
X412576Y421650D01*
X412913Y421067D01*
X413310Y420669D01*
X412913Y420272D01*
X412576Y419689D01*
X412402Y419038D01*
Y418364D01*
X412576Y417713D01*
X412913Y417130D01*
X413389Y416653D01*
X413973Y416316D01*
X414624Y416142D01*
X415298D01*
X415948Y416316D01*
X416532Y416653D01*
X417008Y417130D01*
X417345Y417713D01*
X417520Y418364D01*
Y419038D01*
X417345Y419689D01*
X417008Y420272D01*
X416611Y420669D01*
X417008Y421067D01*
X417345Y421650D01*
X417520Y422301D01*
Y422975D01*
X417345Y423626D01*
X417008Y424209D01*
X416532Y424686D01*
X415948Y425023D01*
X415298Y425197D01*
D02*
G37*
G36*
X458786Y501196D02*
X457750D01*
X457647Y501176D01*
X457542Y501169D01*
X456540Y500901D01*
X456446Y500854D01*
X456347Y500821D01*
X455449Y500302D01*
X455370Y500233D01*
X455283Y500175D01*
X454550Y499442D01*
X454491Y499354D01*
X454422Y499275D01*
X453904Y498378D01*
X453870Y498278D01*
X453824Y498184D01*
X453555Y497183D01*
X453548Y497078D01*
X453528Y496975D01*
Y496457D01*
Y409842D01*
Y409324D01*
X453548Y409221D01*
X453555Y409116D01*
X453824Y408115D01*
X453870Y408021D01*
X453904Y407922D01*
X454422Y407024D01*
X454491Y406945D01*
X454550Y406857D01*
X455283Y406124D01*
X455370Y406066D01*
X455449Y405997D01*
X456347Y405478D01*
X456446Y405445D01*
X456540Y405398D01*
X457542Y405130D01*
X457646Y405123D01*
X457750Y405103D01*
X458786D01*
X458889Y405123D01*
X458994Y405130D01*
X459995Y405398D01*
X460089Y405445D01*
X460189Y405478D01*
X461087Y405997D01*
X461166Y406066D01*
X461253Y406124D01*
X461986Y406857D01*
X462044Y406945D01*
X462114Y407024D01*
X462632Y407922D01*
X462666Y408021D01*
X462712Y408115D01*
X462980Y409116D01*
X462987Y409221D01*
X463008Y409324D01*
Y409842D01*
Y496457D01*
Y496975D01*
X462987Y497078D01*
X462980Y497183D01*
X462712Y498184D01*
X462666Y498278D01*
X462632Y498378D01*
X462114Y499275D01*
X462044Y499355D01*
X461986Y499442D01*
X461253Y500175D01*
X461166Y500233D01*
X461087Y500302D01*
X460189Y500821D01*
X460089Y500854D01*
X459995Y500901D01*
X458994Y501169D01*
X458889Y501176D01*
X458786Y501196D01*
D02*
G37*
G36*
X495022Y409842D02*
X494348D01*
X493697Y409668D01*
X493114Y409331D01*
X492637Y408855D01*
X492301Y408271D01*
X492126Y407620D01*
Y406947D01*
X492301Y406296D01*
X492637Y405712D01*
X493093Y405256D01*
X493094Y405143D01*
X493027Y404831D01*
X492713Y404747D01*
X492225Y404465D01*
X491736Y404747D01*
X491085Y404921D01*
X490411D01*
X489760Y404747D01*
X489177Y404410D01*
X488700Y403933D01*
X488364Y403350D01*
X488189Y402699D01*
Y402025D01*
X488364Y401374D01*
X488700Y400791D01*
X489177Y400315D01*
X489760Y399978D01*
X490411Y399803D01*
X491085D01*
X491736Y399978D01*
X492225Y400260D01*
X492713Y399978D01*
X493364Y399803D01*
X494038D01*
X494689Y399978D01*
X495272Y400315D01*
X495749Y400791D01*
X496086Y401374D01*
X496260Y402025D01*
Y402699D01*
X496086Y403350D01*
X495749Y403933D01*
X495293Y404389D01*
X495292Y404503D01*
X495359Y404815D01*
X495673Y404899D01*
X496256Y405236D01*
X496733Y405712D01*
X497070Y406296D01*
X497244Y406947D01*
Y407620D01*
X497070Y408271D01*
X496733Y408855D01*
X496256Y409331D01*
X495673Y409668D01*
X495022Y409842D01*
D02*
G37*
G36*
X413329Y405905D02*
X412655D01*
X412004Y405731D01*
X411421Y405394D01*
X410944Y404918D01*
X410607Y404334D01*
X410433Y403683D01*
Y403010D01*
X410607Y402359D01*
X410944Y401775D01*
X411421Y401299D01*
X412004Y400962D01*
X412655Y400787D01*
X413329D01*
X413980Y400962D01*
X414564Y401299D01*
X415040Y401775D01*
X415377Y402359D01*
X415551Y403010D01*
Y403683D01*
X415377Y404334D01*
X415040Y404918D01*
X414564Y405394D01*
X413980Y405731D01*
X413329Y405905D01*
D02*
G37*
G36*
X528740Y400435D02*
X524516D01*
Y395972D01*
X531734D01*
Y397441D01*
X531632Y398216D01*
X531333Y398938D01*
X530857Y399558D01*
X530237Y400034D01*
X529515Y400333D01*
X528740Y400435D01*
D02*
G37*
G36*
X541626D02*
X537402D01*
X536627Y400333D01*
X535905Y400034D01*
X535285Y399558D01*
X534809Y398938D01*
X534510Y398216D01*
X534408Y397441D01*
Y395972D01*
X541626D01*
Y400435D01*
D02*
G37*
G36*
X523516D02*
X519291D01*
X518516Y400333D01*
X517794Y400034D01*
X517174Y399558D01*
X516698Y398938D01*
X516399Y398216D01*
X516297Y397441D01*
Y395972D01*
X523516D01*
Y400435D01*
D02*
G37*
G36*
X413329Y400000D02*
X412655D01*
X412004Y399826D01*
X411421Y399489D01*
X410944Y399012D01*
X410607Y398429D01*
X410433Y397778D01*
Y397104D01*
X410607Y396453D01*
X410944Y395870D01*
X411421Y395393D01*
X412004Y395056D01*
X412655Y394882D01*
X413329D01*
X413980Y395056D01*
X414564Y395393D01*
X415040Y395870D01*
X415377Y396453D01*
X415551Y397104D01*
Y397778D01*
X415377Y398429D01*
X415040Y399012D01*
X414564Y399489D01*
X413980Y399826D01*
X413329Y400000D01*
D02*
G37*
G36*
X459589Y393110D02*
X458915D01*
X458264Y392936D01*
X457681Y392599D01*
X457283Y392202D01*
X456886Y392599D01*
X456303Y392936D01*
X455652Y393110D01*
X454978D01*
X454327Y392936D01*
X453744Y392599D01*
X453267Y392123D01*
X452930Y391539D01*
X452756Y390888D01*
Y390214D01*
X452930Y389563D01*
X453267Y388980D01*
X453744Y388503D01*
X454327Y388166D01*
X454978Y387992D01*
X455652D01*
X456303Y388166D01*
X456886Y388503D01*
X457283Y388901D01*
X457681Y388503D01*
X458264Y388166D01*
X458915Y387992D01*
X459589D01*
X460240Y388166D01*
X460823Y388503D01*
X461300Y388980D01*
X461637Y389563D01*
X461811Y390214D01*
Y390888D01*
X461637Y391539D01*
X461300Y392123D01*
X460823Y392599D01*
X460240Y392936D01*
X459589Y393110D01*
D02*
G37*
G36*
X541626Y394972D02*
X534408D01*
Y393504D01*
X534510Y392729D01*
X534809Y392007D01*
X535285Y391387D01*
X535905Y390911D01*
X536627Y390612D01*
X537402Y390510D01*
X541626D01*
Y394972D01*
D02*
G37*
G36*
X531734D02*
X524516D01*
Y390510D01*
X528740D01*
X529515Y390612D01*
X530237Y390911D01*
X530857Y391387D01*
X531333Y392007D01*
X531632Y392729D01*
X531734Y393504D01*
Y394972D01*
D02*
G37*
G36*
X523516D02*
X516297D01*
Y393504D01*
X516399Y392729D01*
X516698Y392007D01*
X517174Y391387D01*
X517794Y390911D01*
X518516Y390612D01*
X519291Y390510D01*
X523516D01*
Y394972D01*
D02*
G37*
G36*
X477306Y395079D02*
X476632D01*
X475981Y394904D01*
X475397Y394567D01*
X474921Y394091D01*
X474584Y393508D01*
X474409Y392857D01*
Y392183D01*
X474584Y391532D01*
X474866Y391043D01*
X474584Y390555D01*
X474409Y389904D01*
Y389230D01*
X474584Y388579D01*
X474921Y387996D01*
X475397Y387519D01*
X475981Y387182D01*
X476632Y387008D01*
X477306D01*
X477956Y387182D01*
X478540Y387519D01*
X479016Y387996D01*
X479353Y388579D01*
X479528Y389230D01*
Y389904D01*
X479353Y390555D01*
X479071Y391043D01*
X479353Y391532D01*
X479528Y392183D01*
Y392857D01*
X479353Y393508D01*
X479016Y394091D01*
X478540Y394567D01*
X477956Y394904D01*
X477306Y395079D01*
D02*
G37*
G36*
X474353Y380315D02*
X473679D01*
X473028Y380141D01*
X472444Y379804D01*
X471968Y379327D01*
X471631Y378744D01*
X471457Y378093D01*
Y377419D01*
X471631Y376768D01*
X471968Y376185D01*
X472444Y375708D01*
X473028Y375371D01*
X473679Y375197D01*
X474353D01*
X475004Y375371D01*
X475587Y375708D01*
X476064Y376185D01*
X476401Y376768D01*
X476575Y377419D01*
Y378093D01*
X476401Y378744D01*
X476064Y379327D01*
X475587Y379804D01*
X475004Y380141D01*
X474353Y380315D01*
D02*
G37*
G36*
X462542D02*
X461868D01*
X461217Y380141D01*
X460634Y379804D01*
X460157Y379327D01*
X459820Y378744D01*
X459646Y378093D01*
Y377419D01*
X459820Y376768D01*
X460157Y376185D01*
X460634Y375708D01*
X461217Y375371D01*
X461868Y375197D01*
X462542D01*
X463193Y375371D01*
X463776Y375708D01*
X464253Y376185D01*
X464590Y376768D01*
X464764Y377419D01*
Y378093D01*
X464590Y378744D01*
X464253Y379327D01*
X463776Y379804D01*
X463193Y380141D01*
X462542Y380315D01*
D02*
G37*
G36*
X410376Y376870D02*
X409702D01*
X409052Y376696D01*
X408468Y376359D01*
X407992Y375882D01*
X407655Y375299D01*
X407480Y374648D01*
Y373974D01*
X407655Y373323D01*
X407992Y372740D01*
X408468Y372263D01*
X409052Y371926D01*
X409702Y371752D01*
X410376D01*
X411027Y371926D01*
X411611Y372263D01*
X412087Y372740D01*
X412424Y373323D01*
X412599Y373974D01*
Y374648D01*
X412424Y375299D01*
X412087Y375882D01*
X411611Y376359D01*
X411027Y376696D01*
X410376Y376870D01*
D02*
G37*
G36*
X454668Y377362D02*
X453994D01*
X453343Y377188D01*
X452760Y376851D01*
X452283Y376374D01*
X451946Y375791D01*
X451772Y375140D01*
Y374466D01*
X451946Y373815D01*
X452228Y373327D01*
X451946Y372838D01*
X451772Y372187D01*
Y371514D01*
X451946Y370863D01*
X452283Y370279D01*
X452760Y369803D01*
X453343Y369466D01*
X453994Y369291D01*
X454668D01*
X455318Y369466D01*
X455902Y369803D01*
X456379Y370279D01*
X456715Y370863D01*
X456890Y371514D01*
Y372187D01*
X456715Y372838D01*
X456433Y373327D01*
X456715Y373815D01*
X456890Y374466D01*
Y375140D01*
X456715Y375791D01*
X456379Y376374D01*
X455902Y376851D01*
X455318Y377188D01*
X454668Y377362D01*
D02*
G37*
G36*
X444825Y373425D02*
X444151D01*
X443501Y373251D01*
X442917Y372914D01*
X442441Y372437D01*
X442104Y371854D01*
X441929Y371203D01*
Y370529D01*
X442104Y369878D01*
X442441Y369295D01*
X442917Y368818D01*
X443501Y368481D01*
X444151Y368307D01*
X444825D01*
X445476Y368481D01*
X446060Y368818D01*
X446536Y369295D01*
X446873Y369878D01*
X447047Y370529D01*
Y371203D01*
X446873Y371854D01*
X446536Y372437D01*
X446060Y372914D01*
X445476Y373251D01*
X444825Y373425D01*
D02*
G37*
G36*
X474353Y374410D02*
X473679D01*
X473028Y374235D01*
X472444Y373898D01*
X471968Y373422D01*
X471631Y372838D01*
X471457Y372187D01*
Y371514D01*
X471631Y370863D01*
X471968Y370279D01*
X472444Y369803D01*
X473028Y369466D01*
X473412Y369363D01*
X473608Y368915D01*
X473600Y368901D01*
X473425Y368250D01*
Y367577D01*
X473600Y366926D01*
X473937Y366342D01*
X474413Y365866D01*
X474997Y365529D01*
X475647Y365354D01*
X476321D01*
X476972Y365529D01*
X477556Y365866D01*
X478032Y366342D01*
X478369Y366926D01*
X478543Y367577D01*
Y368250D01*
X478369Y368901D01*
X478032Y369485D01*
X477556Y369961D01*
X476972Y370298D01*
X476588Y370401D01*
X476392Y370849D01*
X476401Y370863D01*
X476575Y371514D01*
Y372187D01*
X476401Y372838D01*
X476064Y373422D01*
X475587Y373898D01*
X475004Y374235D01*
X474353Y374410D01*
D02*
G37*
G36*
X461557Y366535D02*
X460884D01*
X460233Y366361D01*
X459649Y366024D01*
X459173Y365548D01*
X458836Y364964D01*
X458662Y364313D01*
Y363639D01*
X458836Y362989D01*
X459173Y362405D01*
X459649Y361929D01*
X460233Y361592D01*
X460884Y361417D01*
X461557D01*
X462208Y361592D01*
X462792Y361929D01*
X463268Y362405D01*
X463605Y362989D01*
X463780Y363639D01*
Y364313D01*
X463605Y364964D01*
X463268Y365548D01*
X462792Y366024D01*
X462208Y366361D01*
X461557Y366535D01*
D02*
G37*
G36*
X479274Y364567D02*
X478600D01*
X477949Y364392D01*
X477366Y364056D01*
X476889Y363579D01*
X476552Y362996D01*
X476378Y362345D01*
Y361671D01*
X476552Y361020D01*
X476889Y360437D01*
X477366Y359960D01*
X477949Y359623D01*
X478600Y359449D01*
X479274D01*
X479925Y359623D01*
X480508Y359960D01*
X480985Y360437D01*
X481322Y361020D01*
X481496Y361671D01*
Y362345D01*
X481322Y362996D01*
X480985Y363579D01*
X480508Y364056D01*
X479925Y364392D01*
X479274Y364567D01*
D02*
G37*
G36*
X423172Y370472D02*
X422498D01*
X421847Y370298D01*
X421263Y369961D01*
X420787Y369485D01*
X420450Y368901D01*
X420276Y368250D01*
Y367577D01*
X420450Y366926D01*
X420787Y366342D01*
X421263Y365866D01*
X421847Y365529D01*
X422498Y365354D01*
X423172D01*
X423822Y365529D01*
X423912Y365580D01*
X424224Y365341D01*
X424213Y365298D01*
Y364624D01*
X424387Y363973D01*
X424724Y363389D01*
X425200Y362913D01*
X425784Y362576D01*
X426435Y362402D01*
X427109D01*
X427152Y362413D01*
X427391Y362101D01*
X427340Y362011D01*
X427165Y361361D01*
Y360687D01*
X427340Y360036D01*
X427677Y359452D01*
X428153Y358976D01*
X428737Y358639D01*
X429388Y358465D01*
X430061D01*
X430712Y358639D01*
X431296Y358976D01*
X431772Y359452D01*
X432109Y360036D01*
X432283Y360687D01*
Y361361D01*
X432109Y362011D01*
X431772Y362595D01*
X431296Y363071D01*
X430712Y363408D01*
X430061Y363583D01*
X429388D01*
X429344Y363571D01*
X429105Y363883D01*
X429156Y363973D01*
X429331Y364624D01*
Y365298D01*
X429156Y365948D01*
X428820Y366532D01*
X428343Y367008D01*
X427760Y367345D01*
X427109Y367520D01*
X426435D01*
X425784Y367345D01*
X425695Y367294D01*
X425382Y367533D01*
X425394Y367577D01*
Y368250D01*
X425219Y368901D01*
X424883Y369485D01*
X424406Y369961D01*
X423822Y370298D01*
X423172Y370472D01*
D02*
G37*
G36*
X497975Y363090D02*
X497301D01*
X496650Y362916D01*
X496067Y362579D01*
X495590Y362103D01*
X495253Y361519D01*
X495079Y360868D01*
Y360194D01*
X495253Y359544D01*
X495590Y358960D01*
X496067Y358484D01*
X496650Y358147D01*
X497301Y357972D01*
X497975D01*
X498626Y358147D01*
X499209Y358484D01*
X499686Y358960D01*
X500023Y359544D01*
X500197Y360194D01*
Y360868D01*
X500023Y361519D01*
X499686Y362103D01*
X499209Y362579D01*
X498626Y362916D01*
X497975Y363090D01*
D02*
G37*
G36*
X443841Y362598D02*
X443167D01*
X442516Y362424D01*
X441933Y362087D01*
X441456Y361611D01*
X441119Y361027D01*
X440945Y360376D01*
Y359702D01*
X441119Y359052D01*
X441456Y358468D01*
X441933Y357992D01*
X442516Y357655D01*
X443167Y357480D01*
X443841D01*
X444492Y357655D01*
X445075Y357992D01*
X445552Y358468D01*
X445889Y359052D01*
X446063Y359702D01*
Y360376D01*
X445889Y361027D01*
X445552Y361611D01*
X445075Y362087D01*
X444492Y362424D01*
X443841Y362598D01*
D02*
G37*
G36*
X452699Y360630D02*
X452025D01*
X451374Y360455D01*
X450791Y360119D01*
X450315Y359642D01*
X449978Y359059D01*
X449803Y358408D01*
Y357734D01*
X449978Y357083D01*
X450315Y356500D01*
X450791Y356023D01*
X451374Y355686D01*
X452025Y355512D01*
X452699D01*
X453350Y355686D01*
X453934Y356023D01*
X454410Y356500D01*
X454747Y357083D01*
X454921Y357734D01*
Y358408D01*
X454747Y359059D01*
X454410Y359642D01*
X453934Y360119D01*
X453350Y360455D01*
X452699Y360630D01*
D02*
G37*
G36*
X470416Y358661D02*
X469742D01*
X469091Y358487D01*
X468507Y358150D01*
X468031Y357674D01*
X467694Y357090D01*
X467520Y356439D01*
Y355766D01*
X467694Y355115D01*
X468031Y354531D01*
X468507Y354055D01*
X469091Y353718D01*
X469742Y353543D01*
X470416D01*
X471067Y353718D01*
X471080Y353726D01*
X471528Y353530D01*
X471631Y353146D01*
X471968Y352563D01*
X472444Y352086D01*
X473028Y351749D01*
X473679Y351575D01*
X474353D01*
X475004Y351749D01*
X475587Y352086D01*
X476064Y352563D01*
X476401Y353146D01*
X476575Y353797D01*
Y354471D01*
X476401Y355122D01*
X476064Y355705D01*
X475587Y356182D01*
X475004Y356519D01*
X474353Y356693D01*
X473679D01*
X473028Y356519D01*
X473014Y356510D01*
X472566Y356707D01*
X472464Y357090D01*
X472127Y357674D01*
X471650Y358150D01*
X471067Y358487D01*
X470416Y358661D01*
D02*
G37*
G36*
X443841Y356693D02*
X443167D01*
X442516Y356519D01*
X441933Y356182D01*
X441456Y355705D01*
X441119Y355122D01*
X440945Y354471D01*
Y353797D01*
X441119Y353146D01*
X441456Y352563D01*
X441933Y352086D01*
X442516Y351749D01*
X443167Y351575D01*
X443841D01*
X444492Y351749D01*
X445075Y352086D01*
X445552Y352563D01*
X445889Y353146D01*
X446063Y353797D01*
Y354471D01*
X445889Y355122D01*
X445552Y355705D01*
X445075Y356182D01*
X444492Y356519D01*
X443841Y356693D01*
D02*
G37*
G36*
X423172D02*
X422498D01*
X421847Y356519D01*
X421263Y356182D01*
X420787Y355705D01*
X420450Y355122D01*
X420276Y354471D01*
Y353797D01*
X420450Y353146D01*
X420787Y352563D01*
X421263Y352086D01*
X421847Y351749D01*
X422498Y351575D01*
X423172D01*
X423822Y351749D01*
X424406Y352086D01*
X424883Y352563D01*
X425219Y353146D01*
X425394Y353797D01*
Y354471D01*
X425219Y355122D01*
X424883Y355705D01*
X424406Y356182D01*
X423822Y356519D01*
X423172Y356693D01*
D02*
G37*
G36*
X497975Y356201D02*
X497301D01*
X496650Y356026D01*
X496067Y355690D01*
X495590Y355213D01*
X495253Y354629D01*
X495079Y353979D01*
Y353305D01*
X495253Y352654D01*
X495590Y352070D01*
X496067Y351594D01*
X496650Y351257D01*
X497301Y351083D01*
X497975D01*
X498626Y351257D01*
X499209Y351594D01*
X499686Y352070D01*
X500023Y352654D01*
X500197Y353305D01*
Y353979D01*
X500023Y354629D01*
X499686Y355213D01*
X499209Y355690D01*
X498626Y356026D01*
X497975Y356201D01*
D02*
G37*
G36*
X410376Y356201D02*
X409703D01*
X409052Y356026D01*
X408468Y355689D01*
X407992Y355213D01*
X407655Y354629D01*
X407480Y353979D01*
Y353305D01*
X407655Y352654D01*
X407992Y352070D01*
X408468Y351594D01*
X409052Y351257D01*
X409703Y351083D01*
X410376D01*
X411027Y351257D01*
X411611Y351594D01*
X412087Y352070D01*
X412424Y352654D01*
X412599Y353305D01*
Y353979D01*
X412424Y354629D01*
X412087Y355213D01*
X411611Y355689D01*
X411027Y356026D01*
X410376Y356201D01*
D02*
G37*
G36*
X464510Y354724D02*
X463836D01*
X463186Y354550D01*
X462602Y354213D01*
X462126Y353737D01*
X461789Y353153D01*
X461614Y352502D01*
Y351829D01*
X461789Y351178D01*
X462126Y350594D01*
X462602Y350118D01*
X463186Y349781D01*
X463836Y349606D01*
X464510D01*
X465161Y349781D01*
X465745Y350118D01*
X466221Y350594D01*
X466558Y351178D01*
X466732Y351829D01*
Y352502D01*
X466558Y353153D01*
X466221Y353737D01*
X465745Y354213D01*
X465161Y354550D01*
X464510Y354724D01*
D02*
G37*
G36*
X450731D02*
X450057D01*
X449406Y354550D01*
X448822Y354213D01*
X448346Y353737D01*
X448009Y353153D01*
X447835Y352502D01*
Y351829D01*
X448009Y351178D01*
X448346Y350594D01*
X448822Y350118D01*
X449406Y349781D01*
X450057Y349606D01*
X450731D01*
X451381Y349781D01*
X451965Y350118D01*
X452442Y350594D01*
X452778Y351178D01*
X452953Y351829D01*
Y352502D01*
X452778Y353153D01*
X452442Y353737D01*
X451965Y354213D01*
X451381Y354550D01*
X450731Y354724D01*
D02*
G37*
G36*
X468447Y350787D02*
X467773D01*
X467123Y350613D01*
X466539Y350276D01*
X466063Y349800D01*
X465726Y349216D01*
X465605Y348765D01*
X465154Y348644D01*
X464571Y348308D01*
X464094Y347831D01*
X463757Y347248D01*
X463583Y346597D01*
Y345923D01*
X463757Y345272D01*
X464094Y344689D01*
X464571Y344212D01*
X465154Y343875D01*
X465805Y343701D01*
X466479D01*
X467130Y343875D01*
X467713Y344212D01*
X468110Y344609D01*
X468507Y344212D01*
X469091Y343875D01*
X469742Y343701D01*
X470416D01*
X471067Y343875D01*
X471650Y344212D01*
X472127Y344689D01*
X472464Y345272D01*
X472638Y345923D01*
Y346597D01*
X472464Y347248D01*
X472127Y347831D01*
X471650Y348308D01*
X471067Y348644D01*
X470616Y348765D01*
X470495Y349216D01*
X470158Y349800D01*
X469682Y350276D01*
X469098Y350613D01*
X468447Y350787D01*
D02*
G37*
G36*
X458605Y348819D02*
X457931D01*
X457280Y348644D01*
X456697Y348308D01*
X456220Y347831D01*
X455883Y347248D01*
X455709Y346597D01*
Y345923D01*
X455883Y345272D01*
X456220Y344689D01*
X456697Y344212D01*
X457280Y343875D01*
X457931Y343701D01*
X458605D01*
X459256Y343875D01*
X459839Y344212D01*
X460316Y344689D01*
X460652Y345272D01*
X460827Y345923D01*
Y346597D01*
X460652Y347248D01*
X460316Y347831D01*
X459839Y348308D01*
X459256Y348644D01*
X458605Y348819D01*
D02*
G37*
G36*
X452207D02*
X451533D01*
X450882Y348644D01*
X450299Y348308D01*
X449822Y347831D01*
X449485Y347248D01*
X449311Y346597D01*
Y345923D01*
X449485Y345272D01*
X449822Y344689D01*
X450299Y344212D01*
X450882Y343875D01*
X451533Y343701D01*
X452207D01*
X452858Y343875D01*
X453441Y344212D01*
X453918Y344689D01*
X454255Y345272D01*
X454429Y345923D01*
Y346597D01*
X454255Y347248D01*
X453918Y347831D01*
X453441Y348308D01*
X452858Y348644D01*
X452207Y348819D01*
D02*
G37*
G36*
X429077Y347835D02*
X428403D01*
X427752Y347660D01*
X427169Y347323D01*
X426692Y346847D01*
X426356Y346263D01*
X426181Y345613D01*
Y344939D01*
X426356Y344288D01*
X426692Y343704D01*
X427169Y343228D01*
X427752Y342891D01*
X428403Y342717D01*
X429077D01*
X429728Y342891D01*
X430311Y343228D01*
X430788Y343704D01*
X431125Y344288D01*
X431299Y344939D01*
Y345613D01*
X431125Y346263D01*
X430788Y346847D01*
X430311Y347323D01*
X429728Y347660D01*
X429077Y347835D01*
D02*
G37*
G36*
X528740Y345317D02*
X524516D01*
Y340854D01*
X531734D01*
Y342323D01*
X531632Y343098D01*
X531333Y343820D01*
X530857Y344440D01*
X530237Y344916D01*
X529515Y345215D01*
X528740Y345317D01*
D02*
G37*
G36*
X523516D02*
X519291D01*
X518516Y345215D01*
X517794Y344916D01*
X517174Y344440D01*
X516698Y343820D01*
X516399Y343098D01*
X516297Y342323D01*
Y340854D01*
X523516D01*
Y345317D01*
D02*
G37*
G36*
X541626D02*
X537402D01*
X536627Y345215D01*
X535905Y344916D01*
X535285Y344440D01*
X534809Y343820D01*
X534510Y343098D01*
X534408Y342323D01*
Y340854D01*
X541626D01*
Y345317D01*
D02*
G37*
G36*
X497975Y343898D02*
X497301D01*
X496650Y343723D01*
X496067Y343386D01*
X495590Y342910D01*
X495253Y342326D01*
X495079Y341675D01*
Y341002D01*
X495253Y340351D01*
X495535Y339862D01*
X495253Y339374D01*
X495079Y338723D01*
Y338049D01*
X495253Y337398D01*
X495590Y336815D01*
X496067Y336338D01*
X496650Y336001D01*
X497301Y335827D01*
X497975D01*
X498626Y336001D01*
X499209Y336338D01*
X499686Y336815D01*
X500023Y337398D01*
X500197Y338049D01*
Y338723D01*
X500023Y339374D01*
X499740Y339862D01*
X500023Y340351D01*
X500197Y341002D01*
Y341675D01*
X500023Y342326D01*
X499686Y342910D01*
X499209Y343386D01*
X498626Y343723D01*
X497975Y343898D01*
D02*
G37*
G36*
X541626Y339854D02*
X534408D01*
Y338386D01*
X534510Y337611D01*
X534809Y336889D01*
X535285Y336269D01*
X535905Y335793D01*
X536627Y335494D01*
X537402Y335392D01*
X541626D01*
Y339854D01*
D02*
G37*
G36*
X531734D02*
X524516D01*
Y335392D01*
X528740D01*
X529515Y335494D01*
X530237Y335793D01*
X530857Y336269D01*
X531333Y336889D01*
X531632Y337611D01*
X531734Y338386D01*
Y339854D01*
D02*
G37*
G36*
X523516D02*
X516297D01*
Y338386D01*
X516399Y337611D01*
X516698Y336889D01*
X517174Y336269D01*
X517794Y335793D01*
X518516Y335494D01*
X519291Y335392D01*
X523516D01*
Y339854D01*
D02*
G37*
G36*
X451715Y332087D02*
X451041D01*
X450390Y331912D01*
X449807Y331575D01*
X449409Y331178D01*
X449012Y331575D01*
X448429Y331912D01*
X447778Y332087D01*
X447104D01*
X446453Y331912D01*
X445870Y331575D01*
X445393Y331099D01*
X445056Y330515D01*
X444882Y329865D01*
Y329191D01*
X445056Y328540D01*
X445393Y327956D01*
X445870Y327480D01*
X446453Y327143D01*
X446904Y327022D01*
X447025Y326571D01*
X447362Y325988D01*
X447838Y325511D01*
X448422Y325174D01*
X449073Y325000D01*
X449746D01*
X450397Y325174D01*
X450981Y325511D01*
X451457Y325988D01*
X451794Y326571D01*
X451915Y327022D01*
X452366Y327143D01*
X452949Y327480D01*
X453426Y327956D01*
X453763Y328540D01*
X453937Y329191D01*
Y329865D01*
X453763Y330515D01*
X453426Y331099D01*
X452949Y331575D01*
X452366Y331912D01*
X451715Y332087D01*
D02*
G37*
G36*
X533408D02*
X532734D01*
X532083Y331912D01*
X531500Y331575D01*
X531023Y331099D01*
X530686Y330515D01*
X530512Y329865D01*
Y329191D01*
X530686Y328540D01*
X531023Y327956D01*
X531500Y327480D01*
X532083Y327143D01*
X532734Y326969D01*
X533408D01*
X534059Y327143D01*
X534642Y327480D01*
X535119Y327956D01*
X535456Y328540D01*
X535630Y329191D01*
Y329865D01*
X535456Y330515D01*
X535119Y331099D01*
X534642Y331575D01*
X534059Y331912D01*
X533408Y332087D01*
D02*
G37*
G36*
X459589Y335039D02*
X458915D01*
X458264Y334865D01*
X457681Y334528D01*
X457204Y334052D01*
X456867Y333468D01*
X456693Y332817D01*
Y332143D01*
X456867Y331493D01*
X457204Y330909D01*
X457601Y330512D01*
X457204Y330115D01*
X456867Y329531D01*
X456693Y328880D01*
Y328206D01*
X456867Y327556D01*
X457204Y326972D01*
X457681Y326496D01*
X458264Y326159D01*
X458915Y325984D01*
X459589D01*
X460240Y326159D01*
X460823Y326496D01*
X461300Y326972D01*
X461637Y327556D01*
X461811Y328206D01*
Y328880D01*
X461637Y329531D01*
X461300Y330115D01*
X460903Y330512D01*
X461300Y330909D01*
X461637Y331493D01*
X461811Y332143D01*
Y332817D01*
X461637Y333468D01*
X461300Y334052D01*
X460823Y334528D01*
X460240Y334865D01*
X459589Y335039D01*
D02*
G37*
G36*
X504865Y321260D02*
X504191D01*
X503540Y321085D01*
X502956Y320748D01*
X502480Y320272D01*
X502143Y319689D01*
X501969Y319038D01*
Y318364D01*
X502143Y317713D01*
X502480Y317129D01*
X502956Y316653D01*
X503540Y316316D01*
X504191Y316142D01*
X504865D01*
X504981Y316173D01*
X505096Y315744D01*
X505433Y315161D01*
X505909Y314685D01*
X506493Y314348D01*
X507143Y314173D01*
X507817D01*
X508468Y314348D01*
X509052Y314685D01*
X509528Y315161D01*
X509865Y315744D01*
X510039Y316395D01*
Y317069D01*
X509865Y317720D01*
X509528Y318304D01*
X509052Y318780D01*
X508468Y319117D01*
X507817Y319291D01*
X507143D01*
X507027Y319260D01*
X506912Y319689D01*
X506575Y320272D01*
X506099Y320748D01*
X505515Y321085D01*
X504865Y321260D01*
D02*
G37*
G36*
X538614Y315763D02*
X533433D01*
X533330Y315743D01*
X533225Y315736D01*
X532024Y315414D01*
X531930Y315368D01*
X531830Y315334D01*
X530753Y314712D01*
X530674Y314643D01*
X530587Y314584D01*
X529707Y313705D01*
X529649Y313617D01*
X529579Y313539D01*
X528958Y312461D01*
X528924Y312362D01*
X528877Y312268D01*
X528555Y311066D01*
X528548Y310961D01*
X528528Y310858D01*
Y309614D01*
X528548Y309511D01*
X528555Y309406D01*
X528877Y308205D01*
X528924Y308111D01*
X528958Y308011D01*
X529579Y306934D01*
X529649Y306855D01*
X529707Y306768D01*
X530587Y305888D01*
X530674Y305830D01*
X530753Y305761D01*
X531830Y305138D01*
X531930Y305105D01*
X532024Y305058D01*
X533225Y304736D01*
X533330Y304730D01*
X533433Y304709D01*
X538614D01*
X538717Y304730D01*
X538822Y304736D01*
X540024Y305058D01*
X540118Y305105D01*
X540217Y305138D01*
X541294Y305761D01*
X541373Y305830D01*
X541461Y305888D01*
X542340Y306768D01*
X542399Y306855D01*
X542468Y306934D01*
X543090Y308011D01*
X543124Y308111D01*
X543170Y308205D01*
X543492Y309406D01*
X543499Y309511D01*
X543519Y309614D01*
Y310858D01*
X543499Y310961D01*
X543492Y311066D01*
X543170Y312268D01*
X543124Y312362D01*
X543090Y312461D01*
X542468Y313539D01*
X542399Y313617D01*
X542340Y313705D01*
X541461Y314584D01*
X541373Y314643D01*
X541294Y314712D01*
X540217Y315334D01*
X540118Y315368D01*
X540024Y315414D01*
X538822Y315736D01*
X538717Y315743D01*
X538614Y315763D01*
D02*
G37*
G36*
X133802Y554528D02*
X133128D01*
X132477Y554353D01*
X131893Y554016D01*
X131417Y553540D01*
X131080Y552956D01*
X130906Y552305D01*
Y551632D01*
X131080Y550981D01*
X131417Y550397D01*
X131893Y549921D01*
X132477Y549584D01*
X133128Y549409D01*
X133802D01*
X134452Y549584D01*
X135036Y549921D01*
X135512Y550397D01*
X135849Y550981D01*
X136024Y551632D01*
Y552305D01*
X135849Y552956D01*
X135512Y553540D01*
X135036Y554016D01*
X134452Y554353D01*
X133802Y554528D01*
D02*
G37*
G36*
X278162Y551665D02*
X275628D01*
Y549843D01*
X275731Y549057D01*
X276034Y548326D01*
X276516Y547697D01*
X277145Y547215D01*
X277876Y546912D01*
X278162Y546875D01*
Y551665D01*
D02*
G37*
G36*
X166282Y550591D02*
X165608D01*
X164957Y550416D01*
X164374Y550079D01*
X163897Y549603D01*
X163560Y549019D01*
X163386Y548368D01*
Y547695D01*
X163560Y547044D01*
X163897Y546460D01*
X164374Y545984D01*
X164957Y545647D01*
X165608Y545472D01*
X166282D01*
X166933Y545647D01*
X167516Y545984D01*
X167993Y546460D01*
X168330Y547044D01*
X168504Y547695D01*
Y548368D01*
X168330Y549019D01*
X167993Y549603D01*
X167516Y550079D01*
X166933Y550416D01*
X166282Y550591D01*
D02*
G37*
G36*
X68142Y555134D02*
X62961D01*
X62858Y555113D01*
X62753Y555106D01*
X61551Y554784D01*
X61457Y554738D01*
X61358Y554704D01*
X60281Y554082D01*
X60202Y554013D01*
X60114Y553955D01*
X59235Y553075D01*
X59176Y552987D01*
X59107Y552909D01*
X58485Y551831D01*
X58451Y551732D01*
X58405Y551638D01*
X58083Y550436D01*
X58076Y550331D01*
X58056Y550228D01*
Y548984D01*
X58076Y548881D01*
X58083Y548776D01*
X58405Y547575D01*
X58451Y547481D01*
X58485Y547381D01*
X59107Y546304D01*
X59176Y546225D01*
X59235Y546138D01*
X60114Y545258D01*
X60202Y545200D01*
X60281Y545131D01*
X61358Y544509D01*
X61457Y544475D01*
X61551Y544428D01*
X62753Y544106D01*
X62858Y544100D01*
X62961Y544079D01*
X68142D01*
X68245Y544100D01*
X68349Y544106D01*
X69551Y544428D01*
X69645Y544475D01*
X69745Y544509D01*
X70822Y545131D01*
X70901Y545200D01*
X70988Y545258D01*
X71868Y546138D01*
X71926Y546225D01*
X71996Y546304D01*
X72618Y547381D01*
X72651Y547481D01*
X72698Y547575D01*
X73020Y548776D01*
X73027Y548881D01*
X73047Y548984D01*
Y550228D01*
X73027Y550331D01*
X73020Y550436D01*
X72698Y551638D01*
X72651Y551732D01*
X72618Y551831D01*
X71996Y552909D01*
X71926Y552987D01*
X71868Y553075D01*
X70988Y553955D01*
X70901Y554013D01*
X70822Y554082D01*
X69745Y554704D01*
X69645Y554738D01*
X69551Y554784D01*
X68349Y555106D01*
X68245Y555113D01*
X68142Y555134D01*
D02*
G37*
G36*
X131833Y548622D02*
X131159D01*
X130508Y548448D01*
X129925Y548111D01*
X129448Y547634D01*
X129112Y547051D01*
X128937Y546400D01*
Y545726D01*
X129112Y545075D01*
X129448Y544492D01*
X129925Y544015D01*
X130508Y543678D01*
X131159Y543504D01*
X131833D01*
X132484Y543678D01*
X133067Y544015D01*
X133544Y544492D01*
X133881Y545075D01*
X134055Y545726D01*
Y546400D01*
X133881Y547051D01*
X133544Y547634D01*
X133067Y548111D01*
X132484Y548448D01*
X131833Y548622D01*
D02*
G37*
G36*
X125541Y544784D02*
X124122D01*
Y540658D01*
X128367D01*
Y541959D01*
X128270Y542690D01*
X127988Y543371D01*
X127539Y543957D01*
X126954Y544406D01*
X126273Y544688D01*
X125541Y544784D01*
D02*
G37*
G36*
X123122D02*
X121703D01*
X120972Y544688D01*
X120290Y544406D01*
X119705Y543957D01*
X119256Y543371D01*
X118974Y542690D01*
X118877Y541959D01*
Y540658D01*
X123122D01*
Y544784D01*
D02*
G37*
G36*
X215494Y545669D02*
X214821D01*
X214170Y545495D01*
X213586Y545158D01*
X213110Y544682D01*
X212773Y544098D01*
X212598Y543447D01*
Y542773D01*
X212773Y542123D01*
X213110Y541539D01*
X213586Y541062D01*
X214170Y540726D01*
X214821Y540551D01*
X215494D01*
X216145Y540726D01*
X216729Y541062D01*
X217205Y541539D01*
X217542Y542123D01*
X217717Y542773D01*
Y543447D01*
X217542Y544098D01*
X217205Y544682D01*
X216729Y545158D01*
X216145Y545495D01*
X215494Y545669D01*
D02*
G37*
G36*
X278162Y540921D02*
X277876Y540883D01*
X277145Y540580D01*
X276516Y540098D01*
X276034Y539470D01*
X275731Y538738D01*
X275628Y537953D01*
Y536917D01*
X278162D01*
Y540921D01*
D02*
G37*
G36*
X128367Y539657D02*
X124122D01*
Y535531D01*
X125541D01*
X126273Y535627D01*
X126954Y535910D01*
X127539Y536358D01*
X127988Y536944D01*
X128270Y537625D01*
X128367Y538356D01*
Y539657D01*
D02*
G37*
G36*
X123122D02*
X118877D01*
Y538356D01*
X118974Y537625D01*
X119256Y536944D01*
X119705Y536358D01*
X120290Y535910D01*
X120972Y535627D01*
X121703Y535531D01*
X123122D01*
Y539657D01*
D02*
G37*
G36*
X113132Y537795D02*
X112458D01*
X111808Y537621D01*
X111224Y537284D01*
X110748Y536807D01*
X110411Y536224D01*
X110236Y535573D01*
Y534899D01*
X110411Y534248D01*
X110748Y533665D01*
X111224Y533188D01*
X111808Y532852D01*
X112458Y532677D01*
X113132D01*
X113783Y532852D01*
X114367Y533188D01*
X114843Y533665D01*
X115180Y534248D01*
X115354Y534899D01*
Y535573D01*
X115180Y536224D01*
X114843Y536807D01*
X114367Y537284D01*
X113783Y537621D01*
X113132Y537795D01*
D02*
G37*
G36*
X139707Y536811D02*
X139033D01*
X138382Y536637D01*
X137799Y536300D01*
X137322Y535823D01*
X136986Y535240D01*
X136811Y534589D01*
Y533915D01*
X136986Y533264D01*
X137322Y532681D01*
X137799Y532204D01*
X138382Y531867D01*
X139033Y531693D01*
X139707D01*
X140358Y531867D01*
X140942Y532204D01*
X141418Y532681D01*
X141755Y533264D01*
X141929Y533915D01*
Y534589D01*
X141755Y535240D01*
X141418Y535823D01*
X140942Y536300D01*
X140358Y536637D01*
X139707Y536811D01*
D02*
G37*
G36*
X246123Y538189D02*
X245216D01*
X244340Y537954D01*
X243554Y537501D01*
X242913Y536859D01*
X242459Y536074D01*
X242225Y535198D01*
Y534291D01*
X242459Y533414D01*
X242913Y532629D01*
X243554Y531987D01*
X244340Y531534D01*
X245216Y531299D01*
X246123D01*
X246999Y531534D01*
X247785Y531987D01*
X248426Y532629D01*
X248880Y533414D01*
X249114Y534291D01*
Y535198D01*
X248880Y536074D01*
X248426Y536859D01*
X247785Y537501D01*
X246999Y537954D01*
X246123Y538189D01*
D02*
G37*
G36*
X64173Y534293D02*
X59949D01*
Y529831D01*
X67167D01*
Y531299D01*
X67065Y532074D01*
X66766Y532796D01*
X66290Y533416D01*
X65670Y533892D01*
X64948Y534191D01*
X64173Y534293D01*
D02*
G37*
G36*
X82284D02*
X78059D01*
Y529831D01*
X85278D01*
Y531299D01*
X85176Y532074D01*
X84877Y532796D01*
X84401Y533416D01*
X83781Y533892D01*
X83059Y534191D01*
X82284Y534293D01*
D02*
G37*
G36*
X77059D02*
X72835D01*
X72060Y534191D01*
X71338Y533892D01*
X70718Y533416D01*
X70242Y532796D01*
X69943Y532074D01*
X69841Y531299D01*
Y529831D01*
X77059D01*
Y534293D01*
D02*
G37*
G36*
X102305Y529921D02*
X101632D01*
X100981Y529747D01*
X100397Y529410D01*
X99921Y528933D01*
X99584Y528350D01*
X99410Y527699D01*
Y527025D01*
X99584Y526374D01*
X99921Y525791D01*
X100397Y525315D01*
X100981Y524978D01*
X101632Y524803D01*
X102305D01*
X102956Y524978D01*
X103540Y525315D01*
X104016Y525791D01*
X104353Y526374D01*
X104528Y527025D01*
Y527699D01*
X104353Y528350D01*
X104016Y528933D01*
X103540Y529410D01*
X102956Y529747D01*
X102305Y529921D01*
D02*
G37*
G36*
X85278Y528831D02*
X78059D01*
Y524368D01*
X82284D01*
X83059Y524470D01*
X83781Y524769D01*
X84401Y525245D01*
X84877Y525865D01*
X85176Y526587D01*
X85278Y527362D01*
Y528831D01*
D02*
G37*
G36*
X77059D02*
X69841D01*
Y527362D01*
X69943Y526587D01*
X70242Y525865D01*
X70718Y525245D01*
X71338Y524769D01*
X72060Y524470D01*
X72835Y524368D01*
X77059D01*
Y528831D01*
D02*
G37*
G36*
X67167D02*
X59949D01*
Y524368D01*
X64173D01*
X64948Y524470D01*
X65670Y524769D01*
X66290Y525245D01*
X66766Y525865D01*
X67065Y526587D01*
X67167Y527362D01*
Y528831D01*
D02*
G37*
G36*
X223369Y527953D02*
X222695D01*
X222044Y527778D01*
X221460Y527442D01*
X220984Y526965D01*
X220647Y526381D01*
X220473Y525731D01*
Y525057D01*
X220647Y524406D01*
X220984Y523822D01*
X221460Y523346D01*
X222044Y523009D01*
X222695Y522835D01*
X223369D01*
X224019Y523009D01*
X224603Y523346D01*
X225079Y523822D01*
X225416Y524406D01*
X225591Y525057D01*
Y525731D01*
X225416Y526381D01*
X225079Y526965D01*
X224603Y527442D01*
X224019Y527778D01*
X223369Y527953D01*
D02*
G37*
G36*
X131833D02*
X131159D01*
X130508Y527778D01*
X129925Y527442D01*
X129448Y526965D01*
X129112Y526381D01*
X128937Y525731D01*
Y525057D01*
X129112Y524406D01*
X129448Y523822D01*
X129925Y523346D01*
X130508Y523009D01*
X131159Y522835D01*
X131833D01*
X132484Y523009D01*
X133067Y523346D01*
X133544Y523822D01*
X133881Y524406D01*
X134055Y525057D01*
Y525731D01*
X133881Y526381D01*
X133544Y526965D01*
X133067Y527442D01*
X132484Y527778D01*
X131833Y527953D01*
D02*
G37*
G36*
X101321Y492520D02*
X100647D01*
X99997Y492345D01*
X99508Y492063D01*
X99019Y492345D01*
X98369Y492520D01*
X97695D01*
X97044Y492345D01*
X96460Y492008D01*
X95984Y491532D01*
X95647Y490948D01*
X95473Y490298D01*
Y489624D01*
X95647Y488973D01*
X95984Y488389D01*
X96460Y487913D01*
X97044Y487576D01*
X97695Y487402D01*
X98369D01*
X99019Y487576D01*
X99508Y487858D01*
X99997Y487576D01*
X100647Y487402D01*
X101321D01*
X101972Y487576D01*
X102556Y487913D01*
X103032Y488389D01*
X103369Y488973D01*
X103543Y489624D01*
Y490298D01*
X103369Y490948D01*
X103032Y491532D01*
X102556Y492008D01*
X101972Y492345D01*
X101321Y492520D01*
D02*
G37*
G36*
X64173Y479175D02*
X59949D01*
Y474713D01*
X67167D01*
Y476181D01*
X67065Y476956D01*
X66766Y477678D01*
X66290Y478298D01*
X65670Y478774D01*
X64948Y479073D01*
X64173Y479175D01*
D02*
G37*
G36*
X82284D02*
X78059D01*
Y474713D01*
X85278D01*
Y476181D01*
X85176Y476956D01*
X84877Y477678D01*
X84401Y478298D01*
X83781Y478774D01*
X83059Y479073D01*
X82284Y479175D01*
D02*
G37*
G36*
X77059D02*
X72835D01*
X72060Y479073D01*
X71338Y478774D01*
X70718Y478298D01*
X70242Y477678D01*
X69943Y476956D01*
X69841Y476181D01*
Y474713D01*
X77059D01*
Y479175D01*
D02*
G37*
G36*
X104274Y474803D02*
X103600D01*
X102949Y474629D01*
X102366Y474292D01*
X101889Y473815D01*
X101552Y473232D01*
X101378Y472581D01*
Y471907D01*
X101552Y471256D01*
X101889Y470673D01*
X102366Y470196D01*
X102949Y469860D01*
X103600Y469685D01*
X104274D01*
X104925Y469860D01*
X105508Y470196D01*
X105985Y470673D01*
X106322Y471256D01*
X106496Y471907D01*
Y472581D01*
X106322Y473232D01*
X105985Y473815D01*
X105508Y474292D01*
X104925Y474629D01*
X104274Y474803D01*
D02*
G37*
G36*
X98369D02*
X97695D01*
X97044Y474629D01*
X96460Y474292D01*
X95984Y473815D01*
X95647Y473232D01*
X95473Y472581D01*
Y471907D01*
X95647Y471256D01*
X95984Y470673D01*
X96460Y470196D01*
X97044Y469860D01*
X97695Y469685D01*
X98369D01*
X99019Y469860D01*
X99603Y470196D01*
X100079Y470673D01*
X100416Y471256D01*
X100591Y471907D01*
Y472581D01*
X100416Y473232D01*
X100079Y473815D01*
X99603Y474292D01*
X99019Y474629D01*
X98369Y474803D01*
D02*
G37*
G36*
X85278Y473713D02*
X78059D01*
Y469250D01*
X82284D01*
X83059Y469352D01*
X83781Y469651D01*
X84401Y470127D01*
X84877Y470747D01*
X85176Y471469D01*
X85278Y472244D01*
Y473713D01*
D02*
G37*
G36*
X77059D02*
X69841D01*
Y472244D01*
X69943Y471469D01*
X70242Y470747D01*
X70718Y470127D01*
X71338Y469651D01*
X72060Y469352D01*
X72835Y469250D01*
X77059D01*
Y473713D01*
D02*
G37*
G36*
X67167D02*
X59949D01*
Y469250D01*
X64173D01*
X64948Y469352D01*
X65670Y469651D01*
X66290Y470127D01*
X66766Y470747D01*
X67065Y471469D01*
X67167Y472244D01*
Y473713D01*
D02*
G37*
G36*
X98369Y465945D02*
X97695D01*
X97044Y465770D01*
X96460Y465434D01*
X95984Y464957D01*
X95647Y464374D01*
X95473Y463723D01*
Y463049D01*
X95647Y462398D01*
X95984Y461814D01*
X96460Y461338D01*
X97044Y461001D01*
X97695Y460827D01*
X98369D01*
X99019Y461001D01*
X99603Y461338D01*
X100079Y461814D01*
X100416Y462398D01*
X100591Y463049D01*
Y463723D01*
X100416Y464374D01*
X100079Y464957D01*
X99603Y465434D01*
X99019Y465770D01*
X98369Y465945D01*
D02*
G37*
G36*
X103290Y436417D02*
X102616D01*
X101965Y436243D01*
X101382Y435906D01*
X100905Y435430D01*
X100568Y434846D01*
X100394Y434195D01*
Y433521D01*
X100568Y432870D01*
X100905Y432287D01*
X101382Y431811D01*
X101965Y431474D01*
X102616Y431299D01*
X103290D01*
X103941Y431474D01*
X104524Y431811D01*
X105001Y432287D01*
X105338Y432870D01*
X105512Y433521D01*
Y434195D01*
X105338Y434846D01*
X105001Y435430D01*
X104524Y435906D01*
X103941Y436243D01*
X103290Y436417D01*
D02*
G37*
G36*
X95416Y414764D02*
X94742D01*
X94091Y414589D01*
X93507Y414253D01*
X93031Y413776D01*
X92694Y413193D01*
X92520Y412542D01*
Y411868D01*
X92694Y411217D01*
X93031Y410633D01*
X93507Y410157D01*
X94091Y409820D01*
X94742Y409646D01*
X95416D01*
X96067Y409820D01*
X96650Y410157D01*
X97127Y410633D01*
X97464Y411217D01*
X97638Y411868D01*
Y412542D01*
X97464Y413193D01*
X97127Y413776D01*
X96650Y414253D01*
X96067Y414589D01*
X95416Y414764D01*
D02*
G37*
G36*
X101321Y405905D02*
X100647D01*
X99997Y405731D01*
X99413Y405394D01*
X98937Y404918D01*
X98600Y404334D01*
X98425Y403683D01*
Y403010D01*
X98600Y402359D01*
X98937Y401775D01*
X99413Y401299D01*
X99997Y400962D01*
X100647Y400787D01*
X101321D01*
X101972Y400962D01*
X102556Y401299D01*
X103032Y401775D01*
X103369Y402359D01*
X103543Y403010D01*
Y403683D01*
X103369Y404334D01*
X103032Y404918D01*
X102556Y405394D01*
X101972Y405731D01*
X101321Y405905D01*
D02*
G37*
G36*
X64173Y400435D02*
X59949D01*
Y395972D01*
X67167D01*
Y397441D01*
X67065Y398216D01*
X66766Y398938D01*
X66290Y399558D01*
X65670Y400034D01*
X64948Y400333D01*
X64173Y400435D01*
D02*
G37*
G36*
X82284D02*
X78059D01*
Y395972D01*
X85278D01*
Y397441D01*
X85176Y398216D01*
X84877Y398938D01*
X84401Y399558D01*
X83781Y400034D01*
X83059Y400333D01*
X82284Y400435D01*
D02*
G37*
G36*
X77059D02*
X72835D01*
X72060Y400333D01*
X71338Y400034D01*
X70718Y399558D01*
X70242Y398938D01*
X69943Y398216D01*
X69841Y397441D01*
Y395972D01*
X77059D01*
Y400435D01*
D02*
G37*
G36*
X85278Y394972D02*
X78059D01*
Y390510D01*
X82284D01*
X83059Y390612D01*
X83781Y390911D01*
X84401Y391387D01*
X84877Y392007D01*
X85176Y392729D01*
X85278Y393504D01*
Y394972D01*
D02*
G37*
G36*
X77059D02*
X69841D01*
Y393504D01*
X69943Y392729D01*
X70242Y392007D01*
X70718Y391387D01*
X71338Y390911D01*
X72060Y390612D01*
X72835Y390510D01*
X77059D01*
Y394972D01*
D02*
G37*
G36*
X67167D02*
X59949D01*
Y390510D01*
X64173D01*
X64948Y390612D01*
X65670Y390911D01*
X66290Y391387D01*
X66766Y392007D01*
X67065Y392729D01*
X67167Y393504D01*
Y394972D01*
D02*
G37*
G36*
X91479Y370472D02*
X90805D01*
X90154Y370298D01*
X89570Y369961D01*
X89094Y369485D01*
X88757Y368901D01*
X88583Y368250D01*
Y367577D01*
X88757Y366926D01*
X89094Y366342D01*
X89570Y365866D01*
X90154Y365529D01*
X90805Y365354D01*
X91479D01*
X92130Y365529D01*
X92713Y365866D01*
X93190Y366342D01*
X93527Y366926D01*
X93701Y367577D01*
Y368250D01*
X93527Y368901D01*
X93190Y369485D01*
X92713Y369961D01*
X92130Y370298D01*
X91479Y370472D01*
D02*
G37*
G36*
Y362598D02*
X90805D01*
X90154Y362424D01*
X89570Y362087D01*
X89094Y361611D01*
X88757Y361027D01*
X88583Y360376D01*
Y359702D01*
X88757Y359052D01*
X89094Y358468D01*
X89570Y357992D01*
X90154Y357655D01*
X90805Y357480D01*
X91479D01*
X92130Y357655D01*
X92713Y357992D01*
X93190Y358468D01*
X93527Y359052D01*
X93701Y359702D01*
Y360376D01*
X93527Y361027D01*
X93190Y361611D01*
X92713Y362087D01*
X92130Y362424D01*
X91479Y362598D01*
D02*
G37*
G36*
X64173Y345317D02*
X59949D01*
Y340854D01*
X67167D01*
Y342323D01*
X67065Y343098D01*
X66766Y343820D01*
X66290Y344440D01*
X65670Y344916D01*
X64948Y345215D01*
X64173Y345317D01*
D02*
G37*
G36*
X82284D02*
X78059D01*
Y340854D01*
X85278D01*
Y342323D01*
X85176Y343098D01*
X84877Y343820D01*
X84401Y344440D01*
X83781Y344916D01*
X83059Y345215D01*
X82284Y345317D01*
D02*
G37*
G36*
X77059D02*
X72835D01*
X72060Y345215D01*
X71338Y344916D01*
X70718Y344440D01*
X70242Y343820D01*
X69943Y343098D01*
X69841Y342323D01*
Y340854D01*
X77059D01*
Y345317D01*
D02*
G37*
G36*
X85278Y339854D02*
X78059D01*
Y335392D01*
X82284D01*
X83059Y335494D01*
X83781Y335793D01*
X84401Y336269D01*
X84877Y336889D01*
X85176Y337611D01*
X85278Y338386D01*
Y339854D01*
D02*
G37*
G36*
X77059D02*
X69841D01*
Y338386D01*
X69943Y337611D01*
X70242Y336889D01*
X70718Y336269D01*
X71338Y335793D01*
X72060Y335494D01*
X72835Y335392D01*
X77059D01*
Y339854D01*
D02*
G37*
G36*
X67167D02*
X59949D01*
Y335392D01*
X64173D01*
X64948Y335494D01*
X65670Y335793D01*
X66290Y336269D01*
X66766Y336889D01*
X67065Y337611D01*
X67167Y338386D01*
Y339854D01*
D02*
G37*
G36*
X68142Y315763D02*
X62961D01*
X62858Y315743D01*
X62753Y315736D01*
X61551Y315414D01*
X61457Y315368D01*
X61358Y315334D01*
X60281Y314712D01*
X60202Y314643D01*
X60114Y314584D01*
X59235Y313705D01*
X59176Y313617D01*
X59107Y313539D01*
X58485Y312461D01*
X58451Y312362D01*
X58405Y312268D01*
X58083Y311066D01*
X58076Y310961D01*
X58056Y310858D01*
Y309614D01*
X58076Y309511D01*
X58083Y309406D01*
X58405Y308205D01*
X58451Y308111D01*
X58485Y308011D01*
X59107Y306934D01*
X59176Y306855D01*
X59235Y306768D01*
X60114Y305888D01*
X60202Y305830D01*
X60281Y305761D01*
X61358Y305138D01*
X61457Y305105D01*
X61551Y305058D01*
X62753Y304736D01*
X62858Y304730D01*
X62961Y304709D01*
X68142D01*
X68245Y304730D01*
X68349Y304736D01*
X69551Y305058D01*
X69645Y305105D01*
X69745Y305138D01*
X70822Y305761D01*
X70901Y305830D01*
X70988Y305888D01*
X71868Y306768D01*
X71926Y306855D01*
X71996Y306934D01*
X72618Y308011D01*
X72651Y308111D01*
X72698Y308205D01*
X73020Y309406D01*
X73027Y309511D01*
X73047Y309614D01*
Y310858D01*
X73027Y310961D01*
X73020Y311066D01*
X72698Y312268D01*
X72651Y312362D01*
X72618Y312461D01*
X71996Y313539D01*
X71926Y313617D01*
X71868Y313705D01*
X70988Y314584D01*
X70901Y314643D01*
X70822Y314712D01*
X69745Y315334D01*
X69645Y315368D01*
X69551Y315414D01*
X68349Y315736D01*
X68245Y315743D01*
X68142Y315763D01*
D02*
G37*
G36*
X325947Y288673D02*
X323413D01*
Y283882D01*
X323699Y283920D01*
X324430Y284223D01*
X325059Y284705D01*
X325541Y285333D01*
X325844Y286065D01*
X325947Y286850D01*
Y288673D01*
D02*
G37*
G36*
X538614Y292141D02*
X533433D01*
X533330Y292121D01*
X533225Y292114D01*
X532024Y291792D01*
X531930Y291746D01*
X531830Y291712D01*
X530753Y291090D01*
X530674Y291021D01*
X530587Y290962D01*
X529707Y290083D01*
X529649Y289995D01*
X529579Y289916D01*
X528958Y288839D01*
X528924Y288740D01*
X528877Y288646D01*
X528555Y287444D01*
X528548Y287339D01*
X528528Y287236D01*
Y285992D01*
X528548Y285889D01*
X528555Y285784D01*
X528877Y284583D01*
X528924Y284489D01*
X528958Y284389D01*
X529579Y283312D01*
X529649Y283233D01*
X529707Y283146D01*
X530587Y282266D01*
X530674Y282208D01*
X530753Y282138D01*
X531830Y281517D01*
X531930Y281483D01*
X532024Y281436D01*
X533225Y281114D01*
X533330Y281107D01*
X533433Y281087D01*
X538614D01*
X538717Y281107D01*
X538822Y281114D01*
X540024Y281436D01*
X540118Y281483D01*
X540217Y281517D01*
X541294Y282138D01*
X541373Y282208D01*
X541461Y282266D01*
X542340Y283146D01*
X542399Y283233D01*
X542468Y283312D01*
X543090Y284389D01*
X543124Y284489D01*
X543170Y284583D01*
X543492Y285784D01*
X543499Y285889D01*
X543519Y285992D01*
Y287236D01*
X543499Y287339D01*
X543492Y287444D01*
X543170Y288646D01*
X543124Y288740D01*
X543090Y288839D01*
X542468Y289916D01*
X542399Y289995D01*
X542340Y290083D01*
X541461Y290962D01*
X541373Y291021D01*
X541294Y291090D01*
X540217Y291712D01*
X540118Y291746D01*
X540024Y291792D01*
X538822Y292114D01*
X538717Y292121D01*
X538614Y292141D01*
D02*
G37*
G36*
X382817Y282677D02*
X382143D01*
X381493Y282503D01*
X380909Y282166D01*
X380433Y281689D01*
X380096Y281106D01*
X379921Y280455D01*
Y279781D01*
X380096Y279130D01*
X380433Y278547D01*
X380909Y278070D01*
X381493Y277733D01*
X382143Y277559D01*
X382817D01*
X383468Y277733D01*
X384052Y278070D01*
X384528Y278547D01*
X384865Y279130D01*
X385039Y279781D01*
Y280455D01*
X384865Y281106D01*
X384528Y281689D01*
X384052Y282166D01*
X383468Y282503D01*
X382817Y282677D01*
D02*
G37*
G36*
X501044Y282579D02*
X500137D01*
X499261Y282344D01*
X498475Y281891D01*
X497834Y281249D01*
X497380Y280464D01*
X497146Y279587D01*
Y278680D01*
X497380Y277804D01*
X497834Y277019D01*
X498475Y276377D01*
X499261Y275924D01*
X500137Y275689D01*
X501044D01*
X501920Y275924D01*
X502706Y276377D01*
X503347Y277019D01*
X503801Y277804D01*
X504036Y278680D01*
Y279587D01*
X503801Y280464D01*
X503347Y281249D01*
X502706Y281891D01*
X501920Y282344D01*
X501044Y282579D01*
D02*
G37*
G36*
X323413Y277929D02*
Y273925D01*
X325947D01*
Y274961D01*
X325844Y275746D01*
X325541Y276478D01*
X325059Y277106D01*
X324430Y277588D01*
X323699Y277891D01*
X323413Y277929D01*
D02*
G37*
G36*
X356359Y275197D02*
X355452D01*
X354576Y274962D01*
X353790Y274509D01*
X353149Y273867D01*
X352695Y273082D01*
X352461Y272205D01*
Y271298D01*
X352695Y270422D01*
X353149Y269637D01*
X353790Y268995D01*
X354576Y268542D01*
X355452Y268307D01*
X356359D01*
X357235Y268542D01*
X358021Y268995D01*
X358662Y269637D01*
X359116Y270422D01*
X359350Y271298D01*
Y272205D01*
X359116Y273082D01*
X358662Y273867D01*
X358021Y274509D01*
X357235Y274962D01*
X356359Y275197D01*
D02*
G37*
G36*
X528740Y271301D02*
X524516D01*
Y266839D01*
X531734D01*
Y268307D01*
X531632Y269082D01*
X531333Y269804D01*
X530857Y270424D01*
X530237Y270900D01*
X529515Y271199D01*
X528740Y271301D01*
D02*
G37*
G36*
X541626D02*
X537402D01*
X536627Y271199D01*
X535905Y270900D01*
X535285Y270424D01*
X534809Y269804D01*
X534510Y269082D01*
X534408Y268307D01*
Y266839D01*
X541626D01*
Y271301D01*
D02*
G37*
G36*
X523516D02*
X519291D01*
X518516Y271199D01*
X517794Y270900D01*
X517174Y270424D01*
X516698Y269804D01*
X516399Y269082D01*
X516297Y268307D01*
Y266839D01*
X523516D01*
Y271301D01*
D02*
G37*
G36*
X541626Y265839D02*
X534408D01*
Y264370D01*
X534510Y263595D01*
X534809Y262873D01*
X535285Y262253D01*
X535905Y261777D01*
X536627Y261478D01*
X537402Y261376D01*
X541626D01*
Y265839D01*
D02*
G37*
G36*
X531734D02*
X524516D01*
Y261376D01*
X528740D01*
X529515Y261478D01*
X530237Y261777D01*
X530857Y262253D01*
X531333Y262873D01*
X531632Y263595D01*
X531734Y264370D01*
Y265839D01*
D02*
G37*
G36*
X523516D02*
X516297D01*
Y264370D01*
X516399Y263595D01*
X516698Y262873D01*
X517174Y262253D01*
X517794Y261777D01*
X518516Y261478D01*
X519291Y261376D01*
X523516D01*
Y265839D01*
D02*
G37*
G36*
X456636Y264961D02*
X455962D01*
X455311Y264786D01*
X454728Y264449D01*
X454251Y263973D01*
X453915Y263389D01*
X453740Y262738D01*
Y262065D01*
X453915Y261414D01*
X454251Y260830D01*
X454728Y260354D01*
X455311Y260017D01*
X455962Y259842D01*
X456636D01*
X457287Y260017D01*
X457871Y260354D01*
X458347Y260830D01*
X458684Y261414D01*
X458858Y262065D01*
Y262738D01*
X458684Y263389D01*
X458347Y263973D01*
X457871Y264449D01*
X457287Y264786D01*
X456636Y264961D01*
D02*
G37*
G36*
X407424Y262008D02*
X406750D01*
X406099Y261834D01*
X405515Y261497D01*
X405039Y261020D01*
X404702Y260437D01*
X404528Y259786D01*
Y259112D01*
X404702Y258461D01*
X405039Y257877D01*
X405515Y257401D01*
X406099Y257064D01*
X406750Y256890D01*
X407424D01*
X408074Y257064D01*
X408658Y257401D01*
X409134Y257877D01*
X409471Y258461D01*
X409646Y259112D01*
Y259786D01*
X409471Y260437D01*
X409134Y261020D01*
X408658Y261497D01*
X408074Y261834D01*
X407424Y262008D01*
D02*
G37*
G36*
X501044Y262894D02*
X500137D01*
X499261Y262659D01*
X498475Y262205D01*
X497834Y261564D01*
X497380Y260778D01*
X497146Y259902D01*
Y258995D01*
X497380Y258119D01*
X497834Y257334D01*
X498475Y256692D01*
X499261Y256239D01*
X500137Y256004D01*
X501044D01*
X501920Y256239D01*
X502706Y256692D01*
X503347Y257334D01*
X503801Y258119D01*
X504036Y258995D01*
Y259902D01*
X503801Y260778D01*
X503347Y261564D01*
X502706Y262205D01*
X501920Y262659D01*
X501044Y262894D01*
D02*
G37*
G36*
X438920Y261024D02*
X438246D01*
X437595Y260849D01*
X437011Y260512D01*
X436535Y260036D01*
X436198Y259452D01*
X436024Y258802D01*
Y258128D01*
X436198Y257477D01*
X436535Y256893D01*
X437011Y256417D01*
X437595Y256080D01*
X438246Y255906D01*
X438920D01*
X439571Y256080D01*
X440154Y256417D01*
X440630Y256893D01*
X440967Y257477D01*
X441142Y258128D01*
Y258802D01*
X440967Y259452D01*
X440630Y260036D01*
X440154Y260512D01*
X439571Y260849D01*
X438920Y261024D01*
D02*
G37*
G36*
X486164Y256102D02*
X485490D01*
X484839Y255928D01*
X484350Y255646D01*
X483862Y255928D01*
X483211Y256102D01*
X482537D01*
X481886Y255928D01*
X481303Y255591D01*
X480826Y255115D01*
X480489Y254531D01*
X480315Y253880D01*
Y253206D01*
X480489Y252555D01*
X480826Y251972D01*
X481303Y251496D01*
X481886Y251159D01*
X482537Y250984D01*
X483211D01*
X483862Y251159D01*
X484350Y251441D01*
X484839Y251159D01*
X485490Y250984D01*
X486164D01*
X486815Y251159D01*
X487398Y251496D01*
X487875Y251972D01*
X488211Y252555D01*
X488386Y253206D01*
Y253880D01*
X488211Y254531D01*
X487875Y255115D01*
X487398Y255591D01*
X486815Y255928D01*
X486164Y256102D01*
D02*
G37*
G36*
X468447Y263976D02*
X467773D01*
X467123Y263802D01*
X466539Y263465D01*
X466063Y262989D01*
X465726Y262405D01*
X465605Y261954D01*
X465154Y261834D01*
X464571Y261497D01*
X464094Y261020D01*
X463757Y260437D01*
X463583Y259786D01*
Y259112D01*
X463757Y258461D01*
X464094Y257877D01*
X464571Y257401D01*
X465154Y257064D01*
X465805Y256890D01*
X466479D01*
X467130Y257064D01*
X467219Y257116D01*
X467531Y256876D01*
X467520Y256833D01*
Y256159D01*
X467694Y255508D01*
X468031Y254925D01*
X468507Y254448D01*
X469091Y254111D01*
X469742Y253937D01*
X470416D01*
X471067Y254111D01*
X471650Y254448D01*
X472127Y254925D01*
X472464Y255508D01*
X472584Y255959D01*
X473035Y256080D01*
X473619Y256417D01*
X474095Y256893D01*
X474432Y257477D01*
X474606Y258128D01*
Y258802D01*
X474432Y259452D01*
X474095Y260036D01*
X473619Y260512D01*
X473035Y260849D01*
X472384Y261024D01*
X471710D01*
X471060Y260849D01*
X470970Y260798D01*
X470658Y261037D01*
X470669Y261080D01*
Y261754D01*
X470495Y262405D01*
X470158Y262989D01*
X469682Y263465D01*
X469098Y263802D01*
X468447Y263976D01*
D02*
G37*
G36*
X444825Y252165D02*
X444151D01*
X443501Y251991D01*
X443012Y251709D01*
X442523Y251991D01*
X441872Y252165D01*
X441199D01*
X440548Y251991D01*
X439964Y251654D01*
X439488Y251178D01*
X439151Y250594D01*
X438976Y249943D01*
Y249269D01*
X439151Y248619D01*
X439488Y248035D01*
X439964Y247559D01*
X440548Y247222D01*
X441199Y247047D01*
X441872D01*
X442523Y247222D01*
X443012Y247504D01*
X443501Y247222D01*
X444151Y247047D01*
X444825D01*
X445476Y247222D01*
X446060Y247559D01*
X446536Y248035D01*
X446873Y248619D01*
X447047Y249269D01*
Y249943D01*
X446873Y250594D01*
X446536Y251178D01*
X446060Y251654D01*
X445476Y251991D01*
X444825Y252165D01*
D02*
G37*
G36*
X497975Y247244D02*
X497301D01*
X496650Y247070D01*
X496067Y246733D01*
X495590Y246256D01*
X495253Y245673D01*
X495079Y245022D01*
Y244348D01*
X495253Y243697D01*
X495590Y243114D01*
X496067Y242637D01*
X496650Y242300D01*
X497301Y242126D01*
X497975D01*
X498626Y242300D01*
X499209Y242637D01*
X499686Y243114D01*
X500023Y243697D01*
X500197Y244348D01*
Y245022D01*
X500023Y245673D01*
X499686Y246256D01*
X499209Y246733D01*
X498626Y247070D01*
X497975Y247244D01*
D02*
G37*
G36*
X407424Y248228D02*
X406750D01*
X406099Y248054D01*
X405515Y247717D01*
X405039Y247241D01*
X404702Y246657D01*
X404528Y246006D01*
Y245332D01*
X404702Y244682D01*
X405039Y244098D01*
X405515Y243621D01*
X405837Y243436D01*
Y242981D01*
X405515Y242796D01*
X405039Y242319D01*
X404702Y241736D01*
X404528Y241085D01*
Y240411D01*
X404702Y239760D01*
X405039Y239177D01*
X405515Y238700D01*
X406099Y238363D01*
X406750Y238189D01*
X407424D01*
X408074Y238363D01*
X408658Y238700D01*
X409134Y239177D01*
X409320Y239498D01*
X409775D01*
X409960Y239177D01*
X410437Y238700D01*
X411020Y238363D01*
X411671Y238189D01*
X412345D01*
X412996Y238363D01*
X413579Y238700D01*
X414056Y239177D01*
X414393Y239760D01*
X414567Y240411D01*
Y241085D01*
X414393Y241736D01*
X414056Y242319D01*
X413579Y242796D01*
X412996Y243133D01*
X412345Y243307D01*
X411671D01*
X411020Y243133D01*
X410437Y242796D01*
X409960Y242319D01*
X409775Y241998D01*
X409320D01*
X409134Y242319D01*
X408658Y242796D01*
X408336Y242981D01*
Y243436D01*
X408658Y243621D01*
X409134Y244098D01*
X409471Y244682D01*
X409646Y245332D01*
Y246006D01*
X409471Y246657D01*
X409134Y247241D01*
X408658Y247717D01*
X408074Y248054D01*
X407424Y248228D01*
D02*
G37*
G36*
X528740Y216183D02*
X524516D01*
Y211720D01*
X531734D01*
Y213189D01*
X531632Y213964D01*
X531333Y214686D01*
X530857Y215306D01*
X530237Y215782D01*
X529515Y216081D01*
X528740Y216183D01*
D02*
G37*
G36*
X541626D02*
X537402D01*
X536627Y216081D01*
X535905Y215782D01*
X535285Y215306D01*
X534809Y214686D01*
X534510Y213964D01*
X534408Y213189D01*
Y211720D01*
X541626D01*
Y216183D01*
D02*
G37*
G36*
X523516D02*
X519291D01*
X518516Y216081D01*
X517794Y215782D01*
X517174Y215306D01*
X516698Y214686D01*
X516399Y213964D01*
X516297Y213189D01*
Y211720D01*
X523516D01*
Y216183D01*
D02*
G37*
G36*
X495022Y215748D02*
X494348D01*
X493697Y215574D01*
X493114Y215237D01*
X492637Y214760D01*
X492301Y214177D01*
X492126Y213526D01*
Y212852D01*
X492301Y212201D01*
X492637Y211618D01*
X493114Y211141D01*
X493697Y210804D01*
X494348Y210630D01*
X495022D01*
X495673Y210804D01*
X496256Y211141D01*
X496733Y211618D01*
X497070Y212201D01*
X497244Y212852D01*
Y213526D01*
X497070Y214177D01*
X496733Y214760D01*
X496256Y215237D01*
X495673Y215574D01*
X495022Y215748D01*
D02*
G37*
G36*
X541626Y210720D02*
X534408D01*
Y209252D01*
X534510Y208477D01*
X534809Y207755D01*
X535285Y207135D01*
X535905Y206659D01*
X536627Y206360D01*
X537402Y206258D01*
X541626D01*
Y210720D01*
D02*
G37*
G36*
X531734D02*
X524516D01*
Y206258D01*
X528740D01*
X529515Y206360D01*
X530237Y206659D01*
X530857Y207135D01*
X531333Y207755D01*
X531632Y208477D01*
X531734Y209252D01*
Y210720D01*
D02*
G37*
G36*
X523516D02*
X516297D01*
Y209252D01*
X516399Y208477D01*
X516698Y207755D01*
X517174Y207135D01*
X517794Y206659D01*
X518516Y206360D01*
X519291Y206258D01*
X523516D01*
Y210720D01*
D02*
G37*
G36*
X415298Y217323D02*
X414624D01*
X413973Y217148D01*
X413389Y216811D01*
X412913Y216335D01*
X412576Y215752D01*
X412402Y215101D01*
Y214427D01*
X412576Y213776D01*
X412913Y213193D01*
X413310Y212795D01*
X412913Y212398D01*
X412576Y211814D01*
X412402Y211164D01*
Y210490D01*
X412576Y209839D01*
X412913Y209256D01*
X413310Y208858D01*
X412913Y208461D01*
X412576Y207877D01*
X412402Y207227D01*
Y206553D01*
X412576Y205902D01*
X412913Y205318D01*
X413310Y204921D01*
X412913Y204524D01*
X412576Y203941D01*
X412402Y203290D01*
Y202616D01*
X412576Y201965D01*
X412913Y201381D01*
X413310Y200984D01*
X412913Y200587D01*
X412576Y200004D01*
X412402Y199353D01*
Y198679D01*
X412576Y198028D01*
X412913Y197444D01*
X413310Y197047D01*
X412913Y196650D01*
X412576Y196066D01*
X412402Y195416D01*
Y194742D01*
X412576Y194091D01*
X412913Y193508D01*
X413310Y193110D01*
X412913Y192713D01*
X412576Y192130D01*
X412402Y191479D01*
Y190805D01*
X412576Y190154D01*
X412913Y189570D01*
X413310Y189173D01*
X412913Y188776D01*
X412576Y188192D01*
X412402Y187542D01*
Y186868D01*
X412576Y186217D01*
X412913Y185633D01*
X413310Y185236D01*
X412913Y184839D01*
X412576Y184256D01*
X412402Y183605D01*
Y182931D01*
X412576Y182280D01*
X412913Y181696D01*
X413310Y181299D01*
X412913Y180902D01*
X412576Y180318D01*
X412402Y179668D01*
Y178994D01*
X412576Y178343D01*
X412913Y177759D01*
X413389Y177283D01*
X413973Y176946D01*
X414424Y176825D01*
X414545Y176374D01*
X414882Y175791D01*
X415358Y175314D01*
X415941Y174978D01*
X416592Y174803D01*
X417266D01*
X417917Y174978D01*
X418501Y175314D01*
X418977Y175791D01*
X419314Y176374D01*
X419488Y177025D01*
Y177699D01*
X419314Y178350D01*
X418977Y178934D01*
X418580Y179331D01*
X418977Y179728D01*
X419314Y180312D01*
X419488Y180962D01*
Y181636D01*
X419314Y182287D01*
X418977Y182870D01*
X418580Y183268D01*
X418977Y183665D01*
X419314Y184248D01*
X419488Y184899D01*
Y185573D01*
X419314Y186224D01*
X418977Y186808D01*
X418580Y187205D01*
X418977Y187602D01*
X419314Y188186D01*
X419488Y188836D01*
Y189510D01*
X419314Y190161D01*
X418977Y190744D01*
X418580Y191142D01*
X418977Y191539D01*
X419314Y192122D01*
X419488Y192773D01*
Y193447D01*
X419314Y194098D01*
X418977Y194682D01*
X418580Y195079D01*
X418977Y195476D01*
X419314Y196060D01*
X419488Y196710D01*
Y197384D01*
X419314Y198035D01*
X418977Y198618D01*
X418580Y199016D01*
X418977Y199413D01*
X419314Y199996D01*
X419488Y200647D01*
Y201321D01*
X419314Y201972D01*
X418977Y202555D01*
X418580Y202953D01*
X418977Y203350D01*
X419314Y203934D01*
X419488Y204584D01*
Y205258D01*
X419314Y205909D01*
X418977Y206493D01*
X418580Y206890D01*
X418977Y207287D01*
X419314Y207871D01*
X419488Y208521D01*
Y209195D01*
X419314Y209846D01*
X418977Y210430D01*
X418580Y210827D01*
X418977Y211224D01*
X419314Y211807D01*
X419488Y212458D01*
Y213132D01*
X419314Y213783D01*
X418977Y214367D01*
X418501Y214843D01*
X417917Y215180D01*
X417466Y215301D01*
X417345Y215752D01*
X417008Y216335D01*
X416532Y216811D01*
X415948Y217148D01*
X415298Y217323D01*
D02*
G37*
G36*
X407424Y179921D02*
X406750D01*
X406099Y179747D01*
X405515Y179410D01*
X405039Y178934D01*
X404702Y178350D01*
X404528Y177699D01*
Y177025D01*
X404702Y176374D01*
X405039Y175791D01*
X405436Y175394D01*
X405039Y174996D01*
X404702Y174413D01*
X404528Y173762D01*
Y173088D01*
X404702Y172437D01*
X405039Y171854D01*
X405436Y171457D01*
X405039Y171060D01*
X404702Y170476D01*
X404528Y169825D01*
Y169151D01*
X404702Y168500D01*
X405039Y167917D01*
X405436Y167520D01*
X405039Y167122D01*
X404702Y166539D01*
X404528Y165888D01*
Y165214D01*
X404702Y164563D01*
X405039Y163980D01*
X405515Y163503D01*
X406099Y163166D01*
X406750Y162992D01*
X407424D01*
X408074Y163166D01*
X408658Y163503D01*
X409134Y163980D01*
X409471Y164563D01*
X409646Y165214D01*
Y165888D01*
X409471Y166539D01*
X409134Y167122D01*
X408737Y167520D01*
X409134Y167917D01*
X409471Y168500D01*
X409646Y169151D01*
Y169825D01*
X409471Y170476D01*
X409134Y171060D01*
X408737Y171457D01*
X409134Y171854D01*
X409471Y172437D01*
X409646Y173088D01*
Y173762D01*
X409471Y174413D01*
X409134Y174996D01*
X408737Y175394D01*
X409134Y175791D01*
X409471Y176374D01*
X409646Y177025D01*
Y177699D01*
X409471Y178350D01*
X409134Y178934D01*
X408658Y179410D01*
X408074Y179747D01*
X407424Y179921D01*
D02*
G37*
G36*
X415298Y162205D02*
X414624D01*
X413973Y162030D01*
X413389Y161693D01*
X412913Y161217D01*
X412576Y160633D01*
X412402Y159983D01*
Y159309D01*
X412576Y158658D01*
X412913Y158074D01*
X413310Y157677D01*
X412913Y157280D01*
X412576Y156696D01*
X412402Y156046D01*
Y155372D01*
X412576Y154721D01*
X412913Y154137D01*
X413389Y153661D01*
X413973Y153324D01*
X414624Y153150D01*
X415298D01*
X415948Y153324D01*
X416532Y153661D01*
X417008Y154137D01*
X417345Y154721D01*
X417520Y155372D01*
Y156046D01*
X417345Y156696D01*
X417008Y157280D01*
X416611Y157677D01*
X417008Y158074D01*
X417345Y158658D01*
X417520Y159309D01*
Y159983D01*
X417345Y160633D01*
X417008Y161217D01*
X416532Y161693D01*
X415948Y162030D01*
X415298Y162205D01*
D02*
G37*
G36*
X458786Y238204D02*
X457750D01*
X457647Y238184D01*
X457542Y238177D01*
X456540Y237909D01*
X456446Y237862D01*
X456347Y237828D01*
X455449Y237310D01*
X455370Y237241D01*
X455283Y237183D01*
X454550Y236450D01*
X454491Y236362D01*
X454422Y236283D01*
X453904Y235386D01*
X453870Y235286D01*
X453824Y235192D01*
X453555Y234191D01*
X453548Y234086D01*
X453528Y233983D01*
Y233465D01*
Y146850D01*
Y146332D01*
X453548Y146229D01*
X453555Y146124D01*
X453824Y145123D01*
X453870Y145029D01*
X453904Y144929D01*
X454422Y144032D01*
X454491Y143953D01*
X454550Y143865D01*
X455283Y143132D01*
X455370Y143074D01*
X455449Y143005D01*
X456347Y142486D01*
X456446Y142453D01*
X456540Y142406D01*
X457542Y142138D01*
X457646Y142131D01*
X457750Y142111D01*
X458786D01*
X458889Y142131D01*
X458994Y142138D01*
X459995Y142406D01*
X460089Y142453D01*
X460189Y142486D01*
X461087Y143005D01*
X461166Y143074D01*
X461253Y143132D01*
X461986Y143865D01*
X462044Y143953D01*
X462114Y144032D01*
X462632Y144929D01*
X462666Y145029D01*
X462712Y145123D01*
X462980Y146124D01*
X462987Y146229D01*
X463008Y146332D01*
Y146850D01*
Y233465D01*
Y233983D01*
X462987Y234086D01*
X462980Y234191D01*
X462712Y235192D01*
X462666Y235286D01*
X462632Y235386D01*
X462114Y236283D01*
X462044Y236362D01*
X461986Y236450D01*
X461253Y237183D01*
X461166Y237241D01*
X461087Y237310D01*
X460189Y237828D01*
X460089Y237862D01*
X459995Y237909D01*
X458994Y238177D01*
X458889Y238184D01*
X458786Y238204D01*
D02*
G37*
G36*
X495022Y146850D02*
X494348D01*
X493697Y146676D01*
X493114Y146339D01*
X492637Y145863D01*
X492301Y145279D01*
X492126Y144628D01*
Y143954D01*
X492301Y143304D01*
X492637Y142720D01*
X493093Y142264D01*
X493094Y142151D01*
X493027Y141839D01*
X492713Y141755D01*
X492225Y141473D01*
X491736Y141755D01*
X491085Y141929D01*
X490411D01*
X489760Y141755D01*
X489177Y141418D01*
X488700Y140941D01*
X488364Y140358D01*
X488189Y139707D01*
Y139033D01*
X488364Y138382D01*
X488700Y137799D01*
X489177Y137322D01*
X489760Y136985D01*
X490411Y136811D01*
X491085D01*
X491736Y136985D01*
X492225Y137267D01*
X492713Y136985D01*
X493364Y136811D01*
X494038D01*
X494689Y136985D01*
X495272Y137322D01*
X495749Y137799D01*
X496086Y138382D01*
X496260Y139033D01*
Y139707D01*
X496086Y140358D01*
X495749Y140941D01*
X495293Y141397D01*
X495292Y141511D01*
X495359Y141823D01*
X495673Y141907D01*
X496256Y142244D01*
X496733Y142720D01*
X497070Y143304D01*
X497244Y143954D01*
Y144628D01*
X497070Y145279D01*
X496733Y145863D01*
X496256Y146339D01*
X495673Y146676D01*
X495022Y146850D01*
D02*
G37*
G36*
X413329Y142913D02*
X412655D01*
X412004Y142739D01*
X411421Y142402D01*
X410944Y141926D01*
X410607Y141342D01*
X410433Y140691D01*
Y140017D01*
X410607Y139367D01*
X410944Y138783D01*
X411421Y138307D01*
X412004Y137970D01*
X412655Y137795D01*
X413329D01*
X413980Y137970D01*
X414564Y138307D01*
X415040Y138783D01*
X415377Y139367D01*
X415551Y140017D01*
Y140691D01*
X415377Y141342D01*
X415040Y141926D01*
X414564Y142402D01*
X413980Y142739D01*
X413329Y142913D01*
D02*
G37*
G36*
X528740Y137443D02*
X524516D01*
Y132980D01*
X531734D01*
Y134449D01*
X531632Y135224D01*
X531333Y135946D01*
X530857Y136566D01*
X530237Y137042D01*
X529515Y137341D01*
X528740Y137443D01*
D02*
G37*
G36*
X541626D02*
X537402D01*
X536627Y137341D01*
X535905Y137042D01*
X535285Y136566D01*
X534809Y135946D01*
X534510Y135224D01*
X534408Y134449D01*
Y132980D01*
X541626D01*
Y137443D01*
D02*
G37*
G36*
X523516D02*
X519291D01*
X518516Y137341D01*
X517794Y137042D01*
X517174Y136566D01*
X516698Y135946D01*
X516399Y135224D01*
X516297Y134449D01*
Y132980D01*
X523516D01*
Y137443D01*
D02*
G37*
G36*
X413329Y137008D02*
X412655D01*
X412004Y136834D01*
X411421Y136497D01*
X410944Y136020D01*
X410607Y135437D01*
X410433Y134786D01*
Y134112D01*
X410607Y133461D01*
X410944Y132878D01*
X411421Y132401D01*
X412004Y132064D01*
X412655Y131890D01*
X413329D01*
X413980Y132064D01*
X414564Y132401D01*
X415040Y132878D01*
X415377Y133461D01*
X415551Y134112D01*
Y134786D01*
X415377Y135437D01*
X415040Y136020D01*
X414564Y136497D01*
X413980Y136834D01*
X413329Y137008D01*
D02*
G37*
G36*
X459589Y130118D02*
X458915D01*
X458264Y129944D01*
X457681Y129607D01*
X457283Y129210D01*
X456886Y129607D01*
X456303Y129944D01*
X455652Y130118D01*
X454978D01*
X454327Y129944D01*
X453744Y129607D01*
X453267Y129130D01*
X452930Y128547D01*
X452756Y127896D01*
Y127222D01*
X452930Y126571D01*
X453267Y125988D01*
X453744Y125511D01*
X454327Y125174D01*
X454978Y125000D01*
X455652D01*
X456303Y125174D01*
X456886Y125511D01*
X457283Y125909D01*
X457681Y125511D01*
X458264Y125174D01*
X458915Y125000D01*
X459589D01*
X460240Y125174D01*
X460823Y125511D01*
X461300Y125988D01*
X461637Y126571D01*
X461811Y127222D01*
Y127896D01*
X461637Y128547D01*
X461300Y129130D01*
X460823Y129607D01*
X460240Y129944D01*
X459589Y130118D01*
D02*
G37*
G36*
X541626Y131980D02*
X534408D01*
Y130512D01*
X534510Y129737D01*
X534809Y129015D01*
X535285Y128395D01*
X535905Y127919D01*
X536627Y127620D01*
X537402Y127518D01*
X541626D01*
Y131980D01*
D02*
G37*
G36*
X531734D02*
X524516D01*
Y127518D01*
X528740D01*
X529515Y127620D01*
X530237Y127919D01*
X530857Y128395D01*
X531333Y129015D01*
X531632Y129737D01*
X531734Y130512D01*
Y131980D01*
D02*
G37*
G36*
X523516D02*
X516297D01*
Y130512D01*
X516399Y129737D01*
X516698Y129015D01*
X517174Y128395D01*
X517794Y127919D01*
X518516Y127620D01*
X519291Y127518D01*
X523516D01*
Y131980D01*
D02*
G37*
G36*
X477306Y132087D02*
X476632D01*
X475981Y131912D01*
X475397Y131575D01*
X474921Y131099D01*
X474584Y130515D01*
X474409Y129865D01*
Y129191D01*
X474584Y128540D01*
X474866Y128051D01*
X474584Y127563D01*
X474409Y126912D01*
Y126238D01*
X474584Y125587D01*
X474921Y125004D01*
X475397Y124527D01*
X475981Y124190D01*
X476632Y124016D01*
X477306D01*
X477956Y124190D01*
X478540Y124527D01*
X479016Y125004D01*
X479353Y125587D01*
X479528Y126238D01*
Y126912D01*
X479353Y127563D01*
X479071Y128051D01*
X479353Y128540D01*
X479528Y129191D01*
Y129865D01*
X479353Y130515D01*
X479016Y131099D01*
X478540Y131575D01*
X477956Y131912D01*
X477306Y132087D01*
D02*
G37*
G36*
X474353Y117323D02*
X473679D01*
X473028Y117148D01*
X472444Y116812D01*
X471968Y116335D01*
X471631Y115752D01*
X471457Y115101D01*
Y114427D01*
X471631Y113776D01*
X471968Y113192D01*
X472444Y112716D01*
X473028Y112379D01*
X473679Y112205D01*
X474353D01*
X475004Y112379D01*
X475587Y112716D01*
X476064Y113192D01*
X476401Y113776D01*
X476575Y114427D01*
Y115101D01*
X476401Y115752D01*
X476064Y116335D01*
X475587Y116812D01*
X475004Y117148D01*
X474353Y117323D01*
D02*
G37*
G36*
X462542D02*
X461868D01*
X461217Y117148D01*
X460634Y116812D01*
X460157Y116335D01*
X459820Y115752D01*
X459646Y115101D01*
Y114427D01*
X459820Y113776D01*
X460157Y113192D01*
X460634Y112716D01*
X461217Y112379D01*
X461868Y112205D01*
X462542D01*
X463193Y112379D01*
X463776Y112716D01*
X464253Y113192D01*
X464590Y113776D01*
X464764Y114427D01*
Y115101D01*
X464590Y115752D01*
X464253Y116335D01*
X463776Y116812D01*
X463193Y117148D01*
X462542Y117323D01*
D02*
G37*
G36*
X410376Y113878D02*
X409702D01*
X409052Y113704D01*
X408468Y113367D01*
X407992Y112890D01*
X407655Y112307D01*
X407480Y111656D01*
Y110982D01*
X407655Y110331D01*
X407992Y109748D01*
X408468Y109271D01*
X409052Y108934D01*
X409702Y108760D01*
X410376D01*
X411027Y108934D01*
X411611Y109271D01*
X412087Y109748D01*
X412424Y110331D01*
X412599Y110982D01*
Y111656D01*
X412424Y112307D01*
X412087Y112890D01*
X411611Y113367D01*
X411027Y113704D01*
X410376Y113878D01*
D02*
G37*
G36*
X454668Y114370D02*
X453994D01*
X453343Y114196D01*
X452760Y113859D01*
X452283Y113382D01*
X451946Y112799D01*
X451772Y112148D01*
Y111474D01*
X451946Y110823D01*
X452228Y110335D01*
X451946Y109846D01*
X451772Y109195D01*
Y108521D01*
X451946Y107870D01*
X452283Y107287D01*
X452760Y106810D01*
X453343Y106474D01*
X453994Y106299D01*
X454668D01*
X455318Y106474D01*
X455902Y106810D01*
X456379Y107287D01*
X456715Y107870D01*
X456890Y108521D01*
Y109195D01*
X456715Y109846D01*
X456433Y110335D01*
X456715Y110823D01*
X456890Y111474D01*
Y112148D01*
X456715Y112799D01*
X456379Y113382D01*
X455902Y113859D01*
X455318Y114196D01*
X454668Y114370D01*
D02*
G37*
G36*
X444825Y110433D02*
X444151D01*
X443501Y110259D01*
X442917Y109922D01*
X442441Y109445D01*
X442104Y108862D01*
X441929Y108211D01*
Y107537D01*
X442104Y106886D01*
X442441Y106303D01*
X442917Y105826D01*
X443501Y105489D01*
X444151Y105315D01*
X444825D01*
X445476Y105489D01*
X446060Y105826D01*
X446536Y106303D01*
X446873Y106886D01*
X447047Y107537D01*
Y108211D01*
X446873Y108862D01*
X446536Y109445D01*
X446060Y109922D01*
X445476Y110259D01*
X444825Y110433D01*
D02*
G37*
G36*
X474353Y111417D02*
X473679D01*
X473028Y111243D01*
X472444Y110906D01*
X471968Y110430D01*
X471631Y109846D01*
X471457Y109195D01*
Y108521D01*
X471631Y107870D01*
X471968Y107287D01*
X472444Y106810D01*
X473028Y106474D01*
X473412Y106371D01*
X473608Y105923D01*
X473600Y105909D01*
X473425Y105258D01*
Y104584D01*
X473600Y103934D01*
X473937Y103350D01*
X474413Y102874D01*
X474997Y102537D01*
X475647Y102362D01*
X476321D01*
X476972Y102537D01*
X477556Y102874D01*
X478032Y103350D01*
X478369Y103934D01*
X478543Y104584D01*
Y105258D01*
X478369Y105909D01*
X478032Y106493D01*
X477556Y106969D01*
X476972Y107306D01*
X476588Y107409D01*
X476392Y107857D01*
X476401Y107870D01*
X476575Y108521D01*
Y109195D01*
X476401Y109846D01*
X476064Y110430D01*
X475587Y110906D01*
X475004Y111243D01*
X474353Y111417D01*
D02*
G37*
G36*
X461557Y103543D02*
X460884D01*
X460233Y103369D01*
X459649Y103032D01*
X459173Y102556D01*
X458836Y101972D01*
X458662Y101321D01*
Y100647D01*
X458836Y99997D01*
X459173Y99413D01*
X459649Y98936D01*
X460233Y98600D01*
X460884Y98425D01*
X461557D01*
X462208Y98600D01*
X462792Y98936D01*
X463268Y99413D01*
X463605Y99997D01*
X463780Y100647D01*
Y101321D01*
X463605Y101972D01*
X463268Y102556D01*
X462792Y103032D01*
X462208Y103369D01*
X461557Y103543D01*
D02*
G37*
G36*
X479274Y101575D02*
X478600D01*
X477949Y101400D01*
X477366Y101064D01*
X476889Y100587D01*
X476552Y100004D01*
X476378Y99353D01*
Y98679D01*
X476552Y98028D01*
X476889Y97444D01*
X477366Y96968D01*
X477949Y96631D01*
X478600Y96457D01*
X479274D01*
X479925Y96631D01*
X480508Y96968D01*
X480985Y97444D01*
X481322Y98028D01*
X481496Y98679D01*
Y99353D01*
X481322Y100004D01*
X480985Y100587D01*
X480508Y101064D01*
X479925Y101400D01*
X479274Y101575D01*
D02*
G37*
G36*
X423172Y107480D02*
X422498D01*
X421847Y107306D01*
X421263Y106969D01*
X420787Y106493D01*
X420450Y105909D01*
X420276Y105258D01*
Y104584D01*
X420450Y103934D01*
X420787Y103350D01*
X421263Y102874D01*
X421847Y102537D01*
X422498Y102362D01*
X423172D01*
X423822Y102537D01*
X423912Y102588D01*
X424224Y102349D01*
X424213Y102305D01*
Y101632D01*
X424387Y100981D01*
X424724Y100397D01*
X425200Y99921D01*
X425784Y99584D01*
X426435Y99410D01*
X427109D01*
X427152Y99421D01*
X427391Y99109D01*
X427340Y99019D01*
X427165Y98368D01*
Y97695D01*
X427340Y97044D01*
X427677Y96460D01*
X428153Y95984D01*
X428737Y95647D01*
X429388Y95473D01*
X430061D01*
X430712Y95647D01*
X431296Y95984D01*
X431772Y96460D01*
X432109Y97044D01*
X432283Y97695D01*
Y98368D01*
X432109Y99019D01*
X431772Y99603D01*
X431296Y100079D01*
X430712Y100416D01*
X430061Y100591D01*
X429388D01*
X429344Y100579D01*
X429105Y100891D01*
X429156Y100981D01*
X429331Y101632D01*
Y102305D01*
X429156Y102956D01*
X428820Y103540D01*
X428343Y104016D01*
X427760Y104353D01*
X427109Y104528D01*
X426435D01*
X425784Y104353D01*
X425695Y104302D01*
X425382Y104541D01*
X425394Y104584D01*
Y105258D01*
X425219Y105909D01*
X424883Y106493D01*
X424406Y106969D01*
X423822Y107306D01*
X423172Y107480D01*
D02*
G37*
G36*
X497975Y100098D02*
X497301D01*
X496650Y99924D01*
X496067Y99587D01*
X495590Y99111D01*
X495253Y98527D01*
X495079Y97876D01*
Y97202D01*
X495253Y96552D01*
X495590Y95968D01*
X496067Y95492D01*
X496650Y95155D01*
X497301Y94980D01*
X497975D01*
X498626Y95155D01*
X499209Y95492D01*
X499686Y95968D01*
X500023Y96552D01*
X500197Y97202D01*
Y97876D01*
X500023Y98527D01*
X499686Y99111D01*
X499209Y99587D01*
X498626Y99924D01*
X497975Y100098D01*
D02*
G37*
G36*
X443841Y99606D02*
X443167D01*
X442516Y99432D01*
X441933Y99095D01*
X441456Y98619D01*
X441119Y98035D01*
X440945Y97384D01*
Y96710D01*
X441119Y96060D01*
X441456Y95476D01*
X441933Y94999D01*
X442516Y94663D01*
X443167Y94488D01*
X443841D01*
X444492Y94663D01*
X445075Y94999D01*
X445552Y95476D01*
X445889Y96060D01*
X446063Y96710D01*
Y97384D01*
X445889Y98035D01*
X445552Y98619D01*
X445075Y99095D01*
X444492Y99432D01*
X443841Y99606D01*
D02*
G37*
G36*
X452699Y97638D02*
X452025D01*
X451374Y97463D01*
X450791Y97127D01*
X450315Y96650D01*
X449978Y96066D01*
X449803Y95416D01*
Y94742D01*
X449978Y94091D01*
X450315Y93507D01*
X450791Y93031D01*
X451374Y92694D01*
X452025Y92520D01*
X452699D01*
X453350Y92694D01*
X453934Y93031D01*
X454410Y93507D01*
X454747Y94091D01*
X454921Y94742D01*
Y95416D01*
X454747Y96066D01*
X454410Y96650D01*
X453934Y97127D01*
X453350Y97463D01*
X452699Y97638D01*
D02*
G37*
G36*
X470416Y95669D02*
X469742D01*
X469091Y95495D01*
X468507Y95158D01*
X468031Y94682D01*
X467694Y94098D01*
X467520Y93447D01*
Y92773D01*
X467694Y92123D01*
X468031Y91539D01*
X468507Y91062D01*
X469091Y90726D01*
X469742Y90551D01*
X470416D01*
X471067Y90726D01*
X471080Y90734D01*
X471528Y90538D01*
X471631Y90154D01*
X471968Y89570D01*
X472444Y89094D01*
X473028Y88757D01*
X473679Y88583D01*
X474353D01*
X475004Y88757D01*
X475587Y89094D01*
X476064Y89570D01*
X476401Y90154D01*
X476575Y90805D01*
Y91479D01*
X476401Y92129D01*
X476064Y92713D01*
X475587Y93190D01*
X475004Y93526D01*
X474353Y93701D01*
X473679D01*
X473028Y93526D01*
X473014Y93518D01*
X472566Y93714D01*
X472464Y94098D01*
X472127Y94682D01*
X471650Y95158D01*
X471067Y95495D01*
X470416Y95669D01*
D02*
G37*
G36*
X443841Y93701D02*
X443167D01*
X442516Y93526D01*
X441933Y93190D01*
X441456Y92713D01*
X441119Y92129D01*
X440945Y91479D01*
Y90805D01*
X441119Y90154D01*
X441456Y89570D01*
X441933Y89094D01*
X442516Y88757D01*
X443167Y88583D01*
X443841D01*
X444492Y88757D01*
X445075Y89094D01*
X445552Y89570D01*
X445889Y90154D01*
X446063Y90805D01*
Y91479D01*
X445889Y92129D01*
X445552Y92713D01*
X445075Y93190D01*
X444492Y93526D01*
X443841Y93701D01*
D02*
G37*
G36*
X423172D02*
X422498D01*
X421847Y93526D01*
X421263Y93190D01*
X420787Y92713D01*
X420450Y92129D01*
X420276Y91479D01*
Y90805D01*
X420450Y90154D01*
X420787Y89570D01*
X421263Y89094D01*
X421847Y88757D01*
X422498Y88583D01*
X423172D01*
X423822Y88757D01*
X424406Y89094D01*
X424883Y89570D01*
X425219Y90154D01*
X425394Y90805D01*
Y91479D01*
X425219Y92129D01*
X424883Y92713D01*
X424406Y93190D01*
X423822Y93526D01*
X423172Y93701D01*
D02*
G37*
G36*
X497975Y93209D02*
X497301D01*
X496650Y93034D01*
X496067Y92697D01*
X495590Y92221D01*
X495253Y91637D01*
X495079Y90987D01*
Y90313D01*
X495253Y89662D01*
X495590Y89078D01*
X496067Y88602D01*
X496650Y88265D01*
X497301Y88091D01*
X497975D01*
X498626Y88265D01*
X499209Y88602D01*
X499686Y89078D01*
X500023Y89662D01*
X500197Y90313D01*
Y90987D01*
X500023Y91637D01*
X499686Y92221D01*
X499209Y92697D01*
X498626Y93034D01*
X497975Y93209D01*
D02*
G37*
G36*
X410376Y93209D02*
X409703D01*
X409052Y93034D01*
X408468Y92697D01*
X407992Y92221D01*
X407655Y91637D01*
X407480Y90987D01*
Y90313D01*
X407655Y89662D01*
X407992Y89078D01*
X408468Y88602D01*
X409052Y88265D01*
X409703Y88090D01*
X410376D01*
X411027Y88265D01*
X411611Y88602D01*
X412087Y89078D01*
X412424Y89662D01*
X412599Y90313D01*
Y90987D01*
X412424Y91637D01*
X412087Y92221D01*
X411611Y92697D01*
X411027Y93034D01*
X410376Y93209D01*
D02*
G37*
G36*
X464510Y91732D02*
X463836D01*
X463186Y91558D01*
X462602Y91221D01*
X462126Y90745D01*
X461789Y90161D01*
X461614Y89510D01*
Y88836D01*
X461789Y88186D01*
X462126Y87602D01*
X462602Y87125D01*
X463186Y86789D01*
X463836Y86614D01*
X464510D01*
X465161Y86789D01*
X465745Y87125D01*
X466221Y87602D01*
X466558Y88186D01*
X466732Y88836D01*
Y89510D01*
X466558Y90161D01*
X466221Y90745D01*
X465745Y91221D01*
X465161Y91558D01*
X464510Y91732D01*
D02*
G37*
G36*
X450731D02*
X450057D01*
X449406Y91558D01*
X448822Y91221D01*
X448346Y90745D01*
X448009Y90161D01*
X447835Y89510D01*
Y88836D01*
X448009Y88186D01*
X448346Y87602D01*
X448822Y87125D01*
X449406Y86789D01*
X450057Y86614D01*
X450731D01*
X451381Y86789D01*
X451965Y87125D01*
X452442Y87602D01*
X452778Y88186D01*
X452953Y88836D01*
Y89510D01*
X452778Y90161D01*
X452442Y90745D01*
X451965Y91221D01*
X451381Y91558D01*
X450731Y91732D01*
D02*
G37*
G36*
X468447Y87795D02*
X467773D01*
X467123Y87621D01*
X466539Y87284D01*
X466063Y86808D01*
X465726Y86224D01*
X465605Y85773D01*
X465154Y85652D01*
X464571Y85316D01*
X464094Y84839D01*
X463757Y84255D01*
X463583Y83605D01*
Y82931D01*
X463757Y82280D01*
X464094Y81696D01*
X464571Y81220D01*
X465154Y80883D01*
X465805Y80709D01*
X466479D01*
X467130Y80883D01*
X467713Y81220D01*
X468110Y81617D01*
X468507Y81220D01*
X469091Y80883D01*
X469742Y80709D01*
X470416D01*
X471067Y80883D01*
X471650Y81220D01*
X472127Y81696D01*
X472464Y82280D01*
X472638Y82931D01*
Y83605D01*
X472464Y84255D01*
X472127Y84839D01*
X471650Y85316D01*
X471067Y85652D01*
X470616Y85773D01*
X470495Y86224D01*
X470158Y86808D01*
X469682Y87284D01*
X469098Y87621D01*
X468447Y87795D01*
D02*
G37*
G36*
X458605Y85827D02*
X457931D01*
X457280Y85652D01*
X456697Y85316D01*
X456220Y84839D01*
X455883Y84255D01*
X455709Y83605D01*
Y82931D01*
X455883Y82280D01*
X456220Y81696D01*
X456697Y81220D01*
X457280Y80883D01*
X457931Y80709D01*
X458605D01*
X459256Y80883D01*
X459839Y81220D01*
X460316Y81696D01*
X460652Y82280D01*
X460827Y82931D01*
Y83605D01*
X460652Y84255D01*
X460316Y84839D01*
X459839Y85316D01*
X459256Y85652D01*
X458605Y85827D01*
D02*
G37*
G36*
X452207D02*
X451533D01*
X450882Y85652D01*
X450299Y85316D01*
X449822Y84839D01*
X449485Y84255D01*
X449311Y83605D01*
Y82931D01*
X449485Y82280D01*
X449822Y81696D01*
X450299Y81220D01*
X450882Y80883D01*
X451533Y80709D01*
X452207D01*
X452858Y80883D01*
X453441Y81220D01*
X453918Y81696D01*
X454255Y82280D01*
X454429Y82931D01*
Y83605D01*
X454255Y84255D01*
X453918Y84839D01*
X453441Y85316D01*
X452858Y85652D01*
X452207Y85827D01*
D02*
G37*
G36*
X429077Y84842D02*
X428403D01*
X427752Y84668D01*
X427169Y84331D01*
X426692Y83855D01*
X426356Y83271D01*
X426181Y82620D01*
Y81947D01*
X426356Y81296D01*
X426692Y80712D01*
X427169Y80236D01*
X427752Y79899D01*
X428403Y79724D01*
X429077D01*
X429728Y79899D01*
X430311Y80236D01*
X430788Y80712D01*
X431125Y81296D01*
X431299Y81947D01*
Y82620D01*
X431125Y83271D01*
X430788Y83855D01*
X430311Y84331D01*
X429728Y84668D01*
X429077Y84842D01*
D02*
G37*
G36*
X528740Y82325D02*
X524516D01*
Y77862D01*
X531734D01*
Y79331D01*
X531632Y80106D01*
X531333Y80828D01*
X530857Y81448D01*
X530237Y81924D01*
X529515Y82223D01*
X528740Y82325D01*
D02*
G37*
G36*
X523516D02*
X519291D01*
X518516Y82223D01*
X517794Y81924D01*
X517174Y81448D01*
X516698Y80828D01*
X516399Y80106D01*
X516297Y79331D01*
Y77862D01*
X523516D01*
Y82325D01*
D02*
G37*
G36*
X541626D02*
X537402D01*
X536627Y82223D01*
X535905Y81924D01*
X535285Y81448D01*
X534809Y80828D01*
X534510Y80106D01*
X534408Y79331D01*
Y77862D01*
X541626D01*
Y82325D01*
D02*
G37*
G36*
X497975Y80905D02*
X497301D01*
X496650Y80731D01*
X496067Y80394D01*
X495590Y79918D01*
X495253Y79334D01*
X495079Y78683D01*
Y78010D01*
X495253Y77359D01*
X495535Y76870D01*
X495253Y76381D01*
X495079Y75731D01*
Y75057D01*
X495253Y74406D01*
X495590Y73822D01*
X496067Y73346D01*
X496650Y73009D01*
X497301Y72835D01*
X497975D01*
X498626Y73009D01*
X499209Y73346D01*
X499686Y73822D01*
X500023Y74406D01*
X500197Y75057D01*
Y75731D01*
X500023Y76381D01*
X499740Y76870D01*
X500023Y77359D01*
X500197Y78010D01*
Y78683D01*
X500023Y79334D01*
X499686Y79918D01*
X499209Y80394D01*
X498626Y80731D01*
X497975Y80905D01*
D02*
G37*
G36*
X541626Y76862D02*
X534408D01*
Y75394D01*
X534510Y74619D01*
X534809Y73897D01*
X535285Y73277D01*
X535905Y72801D01*
X536627Y72502D01*
X537402Y72400D01*
X541626D01*
Y76862D01*
D02*
G37*
G36*
X531734D02*
X524516D01*
Y72400D01*
X528740D01*
X529515Y72502D01*
X530237Y72801D01*
X530857Y73277D01*
X531333Y73897D01*
X531632Y74619D01*
X531734Y75394D01*
Y76862D01*
D02*
G37*
G36*
X523516D02*
X516297D01*
Y75394D01*
X516399Y74619D01*
X516698Y73897D01*
X517174Y73277D01*
X517794Y72801D01*
X518516Y72502D01*
X519291Y72400D01*
X523516D01*
Y76862D01*
D02*
G37*
G36*
X451715Y69095D02*
X451041D01*
X450390Y68920D01*
X449807Y68583D01*
X449409Y68186D01*
X449012Y68583D01*
X448429Y68920D01*
X447778Y69095D01*
X447104D01*
X446453Y68920D01*
X445870Y68583D01*
X445393Y68107D01*
X445056Y67523D01*
X444882Y66872D01*
Y66198D01*
X445056Y65548D01*
X445393Y64964D01*
X445870Y64488D01*
X446453Y64151D01*
X446904Y64030D01*
X447025Y63579D01*
X447362Y62996D01*
X447838Y62519D01*
X448422Y62182D01*
X449073Y62008D01*
X449746D01*
X450397Y62182D01*
X450981Y62519D01*
X451457Y62996D01*
X451794Y63579D01*
X451915Y64030D01*
X452366Y64151D01*
X452949Y64488D01*
X453426Y64964D01*
X453763Y65548D01*
X453937Y66198D01*
Y66872D01*
X453763Y67523D01*
X453426Y68107D01*
X452949Y68583D01*
X452366Y68920D01*
X451715Y69095D01*
D02*
G37*
G36*
X533408D02*
X532734D01*
X532083Y68920D01*
X531500Y68583D01*
X531023Y68107D01*
X530686Y67523D01*
X530512Y66872D01*
Y66198D01*
X530686Y65548D01*
X531023Y64964D01*
X531500Y64488D01*
X532083Y64151D01*
X532734Y63976D01*
X533408D01*
X534059Y64151D01*
X534642Y64488D01*
X535119Y64964D01*
X535456Y65548D01*
X535630Y66198D01*
Y66872D01*
X535456Y67523D01*
X535119Y68107D01*
X534642Y68583D01*
X534059Y68920D01*
X533408Y69095D01*
D02*
G37*
G36*
X459589Y72047D02*
X458915D01*
X458264Y71873D01*
X457681Y71536D01*
X457204Y71060D01*
X456867Y70476D01*
X456693Y69825D01*
Y69151D01*
X456867Y68500D01*
X457204Y67917D01*
X457601Y67520D01*
X457204Y67123D01*
X456867Y66539D01*
X456693Y65888D01*
Y65214D01*
X456867Y64563D01*
X457204Y63980D01*
X457681Y63503D01*
X458264Y63166D01*
X458915Y62992D01*
X459589D01*
X460240Y63166D01*
X460823Y63503D01*
X461300Y63980D01*
X461637Y64563D01*
X461811Y65214D01*
Y65888D01*
X461637Y66539D01*
X461300Y67123D01*
X460903Y67520D01*
X461300Y67917D01*
X461637Y68500D01*
X461811Y69151D01*
Y69825D01*
X461637Y70476D01*
X461300Y71060D01*
X460823Y71536D01*
X460240Y71873D01*
X459589Y72047D01*
D02*
G37*
G36*
X504865Y58268D02*
X504191D01*
X503540Y58093D01*
X502956Y57756D01*
X502480Y57280D01*
X502143Y56696D01*
X501969Y56046D01*
Y55372D01*
X502143Y54721D01*
X502480Y54137D01*
X502956Y53661D01*
X503540Y53324D01*
X504191Y53150D01*
X504865D01*
X504981Y53181D01*
X505096Y52752D01*
X505433Y52169D01*
X505909Y51692D01*
X506493Y51355D01*
X507143Y51181D01*
X507817D01*
X508468Y51355D01*
X509052Y51692D01*
X509528Y52169D01*
X509865Y52752D01*
X510039Y53403D01*
Y54077D01*
X509865Y54728D01*
X509528Y55312D01*
X509052Y55788D01*
X508468Y56125D01*
X507817Y56299D01*
X507143D01*
X507027Y56268D01*
X506912Y56696D01*
X506575Y57280D01*
X506099Y57756D01*
X505515Y58093D01*
X504865Y58268D01*
D02*
G37*
G36*
X538614Y52771D02*
X533433D01*
X533330Y52751D01*
X533225Y52744D01*
X532024Y52422D01*
X531930Y52376D01*
X531830Y52342D01*
X530753Y51720D01*
X530674Y51651D01*
X530587Y51592D01*
X529707Y50713D01*
X529649Y50625D01*
X529579Y50546D01*
X528958Y49469D01*
X528924Y49370D01*
X528877Y49275D01*
X528555Y48074D01*
X528548Y47969D01*
X528528Y47866D01*
Y46622D01*
X528548Y46519D01*
X528555Y46414D01*
X528877Y45213D01*
X528924Y45119D01*
X528958Y45019D01*
X529579Y43942D01*
X529649Y43863D01*
X529707Y43776D01*
X530587Y42896D01*
X530674Y42838D01*
X530753Y42768D01*
X531830Y42146D01*
X531930Y42113D01*
X532024Y42066D01*
X533225Y41744D01*
X533330Y41737D01*
X533433Y41717D01*
X538614D01*
X538717Y41737D01*
X538822Y41744D01*
X540024Y42066D01*
X540118Y42113D01*
X540217Y42146D01*
X541294Y42768D01*
X541373Y42838D01*
X541461Y42896D01*
X542340Y43775D01*
X542399Y43863D01*
X542468Y43942D01*
X543090Y45019D01*
X543124Y45119D01*
X543170Y45213D01*
X543492Y46414D01*
X543499Y46519D01*
X543519Y46622D01*
Y47866D01*
X543499Y47969D01*
X543492Y48074D01*
X543170Y49275D01*
X543124Y49370D01*
X543090Y49469D01*
X542468Y50546D01*
X542399Y50625D01*
X542340Y50713D01*
X541461Y51592D01*
X541373Y51651D01*
X541294Y51720D01*
X540217Y52342D01*
X540118Y52376D01*
X540024Y52422D01*
X538822Y52744D01*
X538717Y52751D01*
X538614Y52771D01*
D02*
G37*
G36*
X133802Y291535D02*
X133128D01*
X132477Y291361D01*
X131893Y291024D01*
X131417Y290548D01*
X131080Y289964D01*
X130906Y289313D01*
Y288639D01*
X131080Y287989D01*
X131417Y287405D01*
X131893Y286929D01*
X132477Y286592D01*
X133128Y286417D01*
X133802D01*
X134452Y286592D01*
X135036Y286929D01*
X135512Y287405D01*
X135849Y287989D01*
X136024Y288639D01*
Y289313D01*
X135849Y289964D01*
X135512Y290548D01*
X135036Y291024D01*
X134452Y291361D01*
X133802Y291535D01*
D02*
G37*
G36*
X278162Y288673D02*
X275628D01*
Y286850D01*
X275731Y286065D01*
X276034Y285333D01*
X276516Y284705D01*
X277145Y284223D01*
X277876Y283920D01*
X278162Y283882D01*
Y288673D01*
D02*
G37*
G36*
X166282Y287598D02*
X165608D01*
X164957Y287424D01*
X164374Y287087D01*
X163897Y286611D01*
X163560Y286027D01*
X163386Y285376D01*
Y284702D01*
X163560Y284052D01*
X163897Y283468D01*
X164374Y282992D01*
X164957Y282655D01*
X165608Y282480D01*
X166282D01*
X166933Y282655D01*
X167516Y282992D01*
X167993Y283468D01*
X168330Y284052D01*
X168504Y284702D01*
Y285376D01*
X168330Y286027D01*
X167993Y286611D01*
X167516Y287087D01*
X166933Y287424D01*
X166282Y287598D01*
D02*
G37*
G36*
X68142Y292141D02*
X62961D01*
X62858Y292121D01*
X62753Y292114D01*
X61551Y291792D01*
X61457Y291746D01*
X61358Y291712D01*
X60281Y291090D01*
X60202Y291021D01*
X60114Y290962D01*
X59235Y290083D01*
X59176Y289995D01*
X59107Y289916D01*
X58485Y288839D01*
X58451Y288740D01*
X58405Y288646D01*
X58083Y287444D01*
X58076Y287339D01*
X58056Y287236D01*
Y285992D01*
X58076Y285889D01*
X58083Y285784D01*
X58405Y284583D01*
X58451Y284489D01*
X58485Y284389D01*
X59107Y283312D01*
X59176Y283233D01*
X59235Y283146D01*
X60114Y282266D01*
X60202Y282208D01*
X60281Y282138D01*
X61358Y281517D01*
X61457Y281483D01*
X61551Y281436D01*
X62753Y281114D01*
X62858Y281107D01*
X62961Y281087D01*
X68142D01*
X68245Y281107D01*
X68349Y281114D01*
X69551Y281436D01*
X69645Y281483D01*
X69745Y281517D01*
X70822Y282138D01*
X70901Y282208D01*
X70988Y282266D01*
X71868Y283146D01*
X71926Y283233D01*
X71996Y283312D01*
X72618Y284389D01*
X72651Y284489D01*
X72698Y284583D01*
X73020Y285784D01*
X73027Y285889D01*
X73047Y285992D01*
Y287236D01*
X73027Y287339D01*
X73020Y287444D01*
X72698Y288646D01*
X72651Y288740D01*
X72618Y288839D01*
X71996Y289916D01*
X71926Y289995D01*
X71868Y290083D01*
X70988Y290962D01*
X70901Y291021D01*
X70822Y291090D01*
X69745Y291712D01*
X69645Y291746D01*
X69551Y291792D01*
X68349Y292114D01*
X68245Y292121D01*
X68142Y292141D01*
D02*
G37*
G36*
X131833Y285630D02*
X131159D01*
X130508Y285455D01*
X129925Y285119D01*
X129448Y284642D01*
X129112Y284059D01*
X128937Y283408D01*
Y282734D01*
X129112Y282083D01*
X129448Y281500D01*
X129925Y281023D01*
X130508Y280686D01*
X131159Y280512D01*
X131833D01*
X132484Y280686D01*
X133067Y281023D01*
X133544Y281500D01*
X133881Y282083D01*
X134055Y282734D01*
Y283408D01*
X133881Y284059D01*
X133544Y284642D01*
X133067Y285119D01*
X132484Y285455D01*
X131833Y285630D01*
D02*
G37*
G36*
X125541Y281792D02*
X124122D01*
Y277665D01*
X128367D01*
Y278966D01*
X128270Y279698D01*
X127988Y280379D01*
X127539Y280964D01*
X126954Y281413D01*
X126273Y281696D01*
X125541Y281792D01*
D02*
G37*
G36*
X123122D02*
X121703D01*
X120972Y281696D01*
X120290Y281413D01*
X119705Y280964D01*
X119256Y280379D01*
X118974Y279698D01*
X118877Y278966D01*
Y277665D01*
X123122D01*
Y281792D01*
D02*
G37*
G36*
X215494Y282677D02*
X214821D01*
X214170Y282503D01*
X213586Y282166D01*
X213110Y281689D01*
X212773Y281106D01*
X212598Y280455D01*
Y279781D01*
X212773Y279130D01*
X213110Y278547D01*
X213586Y278070D01*
X214170Y277733D01*
X214821Y277559D01*
X215494D01*
X216145Y277733D01*
X216729Y278070D01*
X217205Y278547D01*
X217542Y279130D01*
X217717Y279781D01*
Y280455D01*
X217542Y281106D01*
X217205Y281689D01*
X216729Y282166D01*
X216145Y282503D01*
X215494Y282677D01*
D02*
G37*
G36*
X278162Y277929D02*
X277876Y277891D01*
X277145Y277588D01*
X276516Y277106D01*
X276034Y276478D01*
X275731Y275746D01*
X275628Y274961D01*
Y273925D01*
X278162D01*
Y277929D01*
D02*
G37*
G36*
X128367Y276665D02*
X124122D01*
Y272539D01*
X125541D01*
X126273Y272635D01*
X126954Y272917D01*
X127539Y273366D01*
X127988Y273952D01*
X128270Y274633D01*
X128367Y275364D01*
Y276665D01*
D02*
G37*
G36*
X123122D02*
X118877D01*
Y275364D01*
X118974Y274633D01*
X119256Y273952D01*
X119705Y273366D01*
X120290Y272917D01*
X120972Y272635D01*
X121703Y272539D01*
X123122D01*
Y276665D01*
D02*
G37*
G36*
X113132Y274803D02*
X112458D01*
X111808Y274629D01*
X111224Y274292D01*
X110748Y273815D01*
X110411Y273232D01*
X110236Y272581D01*
Y271907D01*
X110411Y271256D01*
X110748Y270673D01*
X111224Y270196D01*
X111808Y269860D01*
X112458Y269685D01*
X113132D01*
X113783Y269860D01*
X114367Y270196D01*
X114843Y270673D01*
X115180Y271256D01*
X115354Y271907D01*
Y272581D01*
X115180Y273232D01*
X114843Y273815D01*
X114367Y274292D01*
X113783Y274629D01*
X113132Y274803D01*
D02*
G37*
G36*
X139707Y273819D02*
X139033D01*
X138382Y273644D01*
X137799Y273308D01*
X137322Y272831D01*
X136986Y272248D01*
X136811Y271597D01*
Y270923D01*
X136986Y270272D01*
X137322Y269689D01*
X137799Y269212D01*
X138382Y268875D01*
X139033Y268701D01*
X139707D01*
X140358Y268875D01*
X140942Y269212D01*
X141418Y269689D01*
X141755Y270272D01*
X141929Y270923D01*
Y271597D01*
X141755Y272248D01*
X141418Y272831D01*
X140942Y273308D01*
X140358Y273644D01*
X139707Y273819D01*
D02*
G37*
G36*
X246123Y275197D02*
X245216D01*
X244340Y274962D01*
X243554Y274509D01*
X242913Y273867D01*
X242459Y273082D01*
X242225Y272205D01*
Y271298D01*
X242459Y270422D01*
X242913Y269637D01*
X243554Y268995D01*
X244340Y268542D01*
X245216Y268307D01*
X246123D01*
X246999Y268542D01*
X247785Y268995D01*
X248426Y269637D01*
X248880Y270422D01*
X249114Y271298D01*
Y272205D01*
X248880Y273082D01*
X248426Y273867D01*
X247785Y274509D01*
X246999Y274962D01*
X246123Y275197D01*
D02*
G37*
G36*
X64173Y271301D02*
X59949D01*
Y266839D01*
X67167D01*
Y268307D01*
X67065Y269082D01*
X66766Y269804D01*
X66290Y270424D01*
X65670Y270900D01*
X64948Y271199D01*
X64173Y271301D01*
D02*
G37*
G36*
X82284D02*
X78059D01*
Y266839D01*
X85278D01*
Y268307D01*
X85176Y269082D01*
X84877Y269804D01*
X84401Y270424D01*
X83781Y270900D01*
X83059Y271199D01*
X82284Y271301D01*
D02*
G37*
G36*
X77059D02*
X72835D01*
X72060Y271199D01*
X71338Y270900D01*
X70718Y270424D01*
X70242Y269804D01*
X69943Y269082D01*
X69841Y268307D01*
Y266839D01*
X77059D01*
Y271301D01*
D02*
G37*
G36*
X102305Y266929D02*
X101632D01*
X100981Y266755D01*
X100397Y266418D01*
X99921Y265941D01*
X99584Y265358D01*
X99410Y264707D01*
Y264033D01*
X99584Y263382D01*
X99921Y262799D01*
X100397Y262322D01*
X100981Y261985D01*
X101632Y261811D01*
X102305D01*
X102956Y261985D01*
X103540Y262322D01*
X104016Y262799D01*
X104353Y263382D01*
X104528Y264033D01*
Y264707D01*
X104353Y265358D01*
X104016Y265941D01*
X103540Y266418D01*
X102956Y266755D01*
X102305Y266929D01*
D02*
G37*
G36*
X85278Y265839D02*
X78059D01*
Y261376D01*
X82284D01*
X83059Y261478D01*
X83781Y261777D01*
X84401Y262253D01*
X84877Y262873D01*
X85176Y263595D01*
X85278Y264370D01*
Y265839D01*
D02*
G37*
G36*
X77059D02*
X69841D01*
Y264370D01*
X69943Y263595D01*
X70242Y262873D01*
X70718Y262253D01*
X71338Y261777D01*
X72060Y261478D01*
X72835Y261376D01*
X77059D01*
Y265839D01*
D02*
G37*
G36*
X67167D02*
X59949D01*
Y261376D01*
X64173D01*
X64948Y261478D01*
X65670Y261777D01*
X66290Y262253D01*
X66766Y262873D01*
X67065Y263595D01*
X67167Y264370D01*
Y265839D01*
D02*
G37*
G36*
X223369Y264961D02*
X222695D01*
X222044Y264786D01*
X221460Y264449D01*
X220984Y263973D01*
X220647Y263389D01*
X220473Y262738D01*
Y262065D01*
X220647Y261414D01*
X220984Y260830D01*
X221460Y260354D01*
X222044Y260017D01*
X222695Y259842D01*
X223369D01*
X224019Y260017D01*
X224603Y260354D01*
X225079Y260830D01*
X225416Y261414D01*
X225591Y262065D01*
Y262738D01*
X225416Y263389D01*
X225079Y263973D01*
X224603Y264449D01*
X224019Y264786D01*
X223369Y264961D01*
D02*
G37*
G36*
X131833D02*
X131159D01*
X130508Y264786D01*
X129925Y264449D01*
X129448Y263973D01*
X129112Y263389D01*
X128937Y262738D01*
Y262065D01*
X129112Y261414D01*
X129448Y260830D01*
X129925Y260354D01*
X130508Y260017D01*
X131159Y259842D01*
X131833D01*
X132484Y260017D01*
X133067Y260354D01*
X133544Y260830D01*
X133881Y261414D01*
X134055Y262065D01*
Y262738D01*
X133881Y263389D01*
X133544Y263973D01*
X133067Y264449D01*
X132484Y264786D01*
X131833Y264961D01*
D02*
G37*
G36*
X101321Y229528D02*
X100647D01*
X99997Y229353D01*
X99508Y229071D01*
X99019Y229353D01*
X98369Y229528D01*
X97695D01*
X97044Y229353D01*
X96460Y229016D01*
X95984Y228540D01*
X95647Y227956D01*
X95473Y227305D01*
Y226632D01*
X95647Y225981D01*
X95984Y225397D01*
X96460Y224921D01*
X97044Y224584D01*
X97695Y224410D01*
X98369D01*
X99019Y224584D01*
X99508Y224866D01*
X99997Y224584D01*
X100647Y224410D01*
X101321D01*
X101972Y224584D01*
X102556Y224921D01*
X103032Y225397D01*
X103369Y225981D01*
X103543Y226632D01*
Y227305D01*
X103369Y227956D01*
X103032Y228540D01*
X102556Y229016D01*
X101972Y229353D01*
X101321Y229528D01*
D02*
G37*
G36*
X64173Y216183D02*
X59949D01*
Y211720D01*
X67167D01*
Y213189D01*
X67065Y213964D01*
X66766Y214686D01*
X66290Y215306D01*
X65670Y215782D01*
X64948Y216081D01*
X64173Y216183D01*
D02*
G37*
G36*
X82284D02*
X78059D01*
Y211720D01*
X85278D01*
Y213189D01*
X85176Y213964D01*
X84877Y214686D01*
X84401Y215306D01*
X83781Y215782D01*
X83059Y216081D01*
X82284Y216183D01*
D02*
G37*
G36*
X77059D02*
X72835D01*
X72060Y216081D01*
X71338Y215782D01*
X70718Y215306D01*
X70242Y214686D01*
X69943Y213964D01*
X69841Y213189D01*
Y211720D01*
X77059D01*
Y216183D01*
D02*
G37*
G36*
X104274Y211811D02*
X103600D01*
X102949Y211637D01*
X102366Y211300D01*
X101889Y210823D01*
X101552Y210240D01*
X101378Y209589D01*
Y208915D01*
X101552Y208264D01*
X101889Y207681D01*
X102366Y207204D01*
X102949Y206867D01*
X103600Y206693D01*
X104274D01*
X104925Y206867D01*
X105508Y207204D01*
X105985Y207681D01*
X106322Y208264D01*
X106496Y208915D01*
Y209589D01*
X106322Y210240D01*
X105985Y210823D01*
X105508Y211300D01*
X104925Y211637D01*
X104274Y211811D01*
D02*
G37*
G36*
X98369D02*
X97695D01*
X97044Y211637D01*
X96460Y211300D01*
X95984Y210823D01*
X95647Y210240D01*
X95473Y209589D01*
Y208915D01*
X95647Y208264D01*
X95984Y207681D01*
X96460Y207204D01*
X97044Y206867D01*
X97695Y206693D01*
X98369D01*
X99019Y206867D01*
X99603Y207204D01*
X100079Y207681D01*
X100416Y208264D01*
X100591Y208915D01*
Y209589D01*
X100416Y210240D01*
X100079Y210823D01*
X99603Y211300D01*
X99019Y211637D01*
X98369Y211811D01*
D02*
G37*
G36*
X85278Y210720D02*
X78059D01*
Y206258D01*
X82284D01*
X83059Y206360D01*
X83781Y206659D01*
X84401Y207135D01*
X84877Y207755D01*
X85176Y208477D01*
X85278Y209252D01*
Y210720D01*
D02*
G37*
G36*
X77059D02*
X69841D01*
Y209252D01*
X69943Y208477D01*
X70242Y207755D01*
X70718Y207135D01*
X71338Y206659D01*
X72060Y206360D01*
X72835Y206258D01*
X77059D01*
Y210720D01*
D02*
G37*
G36*
X67167D02*
X59949D01*
Y206258D01*
X64173D01*
X64948Y206360D01*
X65670Y206659D01*
X66290Y207135D01*
X66766Y207755D01*
X67065Y208477D01*
X67167Y209252D01*
Y210720D01*
D02*
G37*
G36*
X98369Y202953D02*
X97695D01*
X97044Y202778D01*
X96460Y202442D01*
X95984Y201965D01*
X95647Y201381D01*
X95473Y200731D01*
Y200057D01*
X95647Y199406D01*
X95984Y198822D01*
X96460Y198346D01*
X97044Y198009D01*
X97695Y197835D01*
X98369D01*
X99019Y198009D01*
X99603Y198346D01*
X100079Y198822D01*
X100416Y199406D01*
X100591Y200057D01*
Y200731D01*
X100416Y201381D01*
X100079Y201965D01*
X99603Y202442D01*
X99019Y202778D01*
X98369Y202953D01*
D02*
G37*
G36*
X103290Y173425D02*
X102616D01*
X101965Y173251D01*
X101382Y172914D01*
X100905Y172437D01*
X100568Y171854D01*
X100394Y171203D01*
Y170529D01*
X100568Y169878D01*
X100905Y169295D01*
X101382Y168818D01*
X101965Y168482D01*
X102616Y168307D01*
X103290D01*
X103941Y168482D01*
X104524Y168818D01*
X105001Y169295D01*
X105338Y169878D01*
X105512Y170529D01*
Y171203D01*
X105338Y171854D01*
X105001Y172437D01*
X104524Y172914D01*
X103941Y173251D01*
X103290Y173425D01*
D02*
G37*
G36*
X95416Y151772D02*
X94742D01*
X94091Y151597D01*
X93507Y151260D01*
X93031Y150784D01*
X92694Y150200D01*
X92520Y149549D01*
Y148876D01*
X92694Y148225D01*
X93031Y147641D01*
X93507Y147165D01*
X94091Y146828D01*
X94742Y146653D01*
X95416D01*
X96067Y146828D01*
X96650Y147165D01*
X97127Y147641D01*
X97464Y148225D01*
X97638Y148876D01*
Y149549D01*
X97464Y150200D01*
X97127Y150784D01*
X96650Y151260D01*
X96067Y151597D01*
X95416Y151772D01*
D02*
G37*
G36*
X101321Y142913D02*
X100647D01*
X99997Y142739D01*
X99413Y142402D01*
X98937Y141926D01*
X98600Y141342D01*
X98425Y140691D01*
Y140017D01*
X98600Y139367D01*
X98937Y138783D01*
X99413Y138307D01*
X99997Y137970D01*
X100647Y137795D01*
X101321D01*
X101972Y137970D01*
X102556Y138307D01*
X103032Y138783D01*
X103369Y139367D01*
X103543Y140017D01*
Y140691D01*
X103369Y141342D01*
X103032Y141926D01*
X102556Y142402D01*
X101972Y142739D01*
X101321Y142913D01*
D02*
G37*
G36*
X64173Y137443D02*
X59949D01*
Y132980D01*
X67167D01*
Y134449D01*
X67065Y135224D01*
X66766Y135946D01*
X66290Y136566D01*
X65670Y137042D01*
X64948Y137341D01*
X64173Y137443D01*
D02*
G37*
G36*
X82284D02*
X78059D01*
Y132980D01*
X85278D01*
Y134449D01*
X85176Y135224D01*
X84877Y135946D01*
X84401Y136566D01*
X83781Y137042D01*
X83059Y137341D01*
X82284Y137443D01*
D02*
G37*
G36*
X77059D02*
X72835D01*
X72060Y137341D01*
X71338Y137042D01*
X70718Y136566D01*
X70242Y135946D01*
X69943Y135224D01*
X69841Y134449D01*
Y132980D01*
X77059D01*
Y137443D01*
D02*
G37*
G36*
X85278Y131980D02*
X78059D01*
Y127518D01*
X82284D01*
X83059Y127620D01*
X83781Y127919D01*
X84401Y128395D01*
X84877Y129015D01*
X85176Y129737D01*
X85278Y130512D01*
Y131980D01*
D02*
G37*
G36*
X77059D02*
X69841D01*
Y130512D01*
X69943Y129737D01*
X70242Y129015D01*
X70718Y128395D01*
X71338Y127919D01*
X72060Y127620D01*
X72835Y127518D01*
X77059D01*
Y131980D01*
D02*
G37*
G36*
X67167D02*
X59949D01*
Y127518D01*
X64173D01*
X64948Y127620D01*
X65670Y127919D01*
X66290Y128395D01*
X66766Y129015D01*
X67065Y129737D01*
X67167Y130512D01*
Y131980D01*
D02*
G37*
G36*
X91479Y107480D02*
X90805D01*
X90154Y107306D01*
X89570Y106969D01*
X89094Y106493D01*
X88757Y105909D01*
X88583Y105258D01*
Y104584D01*
X88757Y103934D01*
X89094Y103350D01*
X89570Y102874D01*
X90154Y102537D01*
X90805Y102362D01*
X91479D01*
X92130Y102537D01*
X92713Y102874D01*
X93190Y103350D01*
X93527Y103934D01*
X93701Y104584D01*
Y105258D01*
X93527Y105909D01*
X93190Y106493D01*
X92713Y106969D01*
X92130Y107306D01*
X91479Y107480D01*
D02*
G37*
G36*
Y99606D02*
X90805D01*
X90154Y99432D01*
X89570Y99095D01*
X89094Y98619D01*
X88757Y98035D01*
X88583Y97384D01*
Y96710D01*
X88757Y96060D01*
X89094Y95476D01*
X89570Y94999D01*
X90154Y94663D01*
X90805Y94488D01*
X91479D01*
X92130Y94663D01*
X92713Y94999D01*
X93190Y95476D01*
X93527Y96060D01*
X93701Y96710D01*
Y97384D01*
X93527Y98035D01*
X93190Y98619D01*
X92713Y99095D01*
X92130Y99432D01*
X91479Y99606D01*
D02*
G37*
G36*
X64173Y82325D02*
X59949D01*
Y77862D01*
X67167D01*
Y79331D01*
X67065Y80106D01*
X66766Y80828D01*
X66290Y81448D01*
X65670Y81924D01*
X64948Y82223D01*
X64173Y82325D01*
D02*
G37*
G36*
X82284D02*
X78059D01*
Y77862D01*
X85278D01*
Y79331D01*
X85176Y80106D01*
X84877Y80828D01*
X84401Y81448D01*
X83781Y81924D01*
X83059Y82223D01*
X82284Y82325D01*
D02*
G37*
G36*
X77059D02*
X72835D01*
X72060Y82223D01*
X71338Y81924D01*
X70718Y81448D01*
X70242Y80828D01*
X69943Y80106D01*
X69841Y79331D01*
Y77862D01*
X77059D01*
Y82325D01*
D02*
G37*
G36*
X85278Y76862D02*
X78059D01*
Y72400D01*
X82284D01*
X83059Y72502D01*
X83781Y72801D01*
X84401Y73277D01*
X84877Y73897D01*
X85176Y74619D01*
X85278Y75394D01*
Y76862D01*
D02*
G37*
G36*
X77059D02*
X69841D01*
Y75394D01*
X69943Y74619D01*
X70242Y73897D01*
X70718Y73277D01*
X71338Y72801D01*
X72060Y72502D01*
X72835Y72400D01*
X77059D01*
Y76862D01*
D02*
G37*
G36*
X67167D02*
X59949D01*
Y72400D01*
X64173D01*
X64948Y72502D01*
X65670Y72801D01*
X66290Y73277D01*
X66766Y73897D01*
X67065Y74619D01*
X67167Y75394D01*
Y76862D01*
D02*
G37*
G36*
X68142Y52771D02*
X62961D01*
X62858Y52751D01*
X62753Y52744D01*
X61551Y52422D01*
X61457Y52376D01*
X61358Y52342D01*
X60281Y51720D01*
X60202Y51651D01*
X60114Y51592D01*
X59235Y50713D01*
X59176Y50625D01*
X59107Y50546D01*
X58485Y49469D01*
X58451Y49370D01*
X58405Y49275D01*
X58083Y48074D01*
X58076Y47969D01*
X58056Y47866D01*
Y46622D01*
X58076Y46519D01*
X58083Y46414D01*
X58405Y45213D01*
X58451Y45119D01*
X58485Y45019D01*
X59107Y43942D01*
X59176Y43863D01*
X59235Y43776D01*
X60114Y42896D01*
X60202Y42838D01*
X60281Y42768D01*
X61358Y42146D01*
X61457Y42113D01*
X61551Y42066D01*
X62753Y41744D01*
X62858Y41737D01*
X62961Y41717D01*
X68142D01*
X68245Y41737D01*
X68349Y41744D01*
X69551Y42066D01*
X69645Y42113D01*
X69745Y42146D01*
X70822Y42768D01*
X70901Y42838D01*
X70988Y42896D01*
X71868Y43775D01*
X71926Y43863D01*
X71996Y43942D01*
X72618Y45019D01*
X72651Y45119D01*
X72698Y45213D01*
X73020Y46414D01*
X73027Y46519D01*
X73047Y46622D01*
Y47866D01*
X73027Y47969D01*
X73020Y48074D01*
X72698Y49275D01*
X72651Y49370D01*
X72618Y49469D01*
X71996Y50546D01*
X71926Y50625D01*
X71868Y50713D01*
X70988Y51592D01*
X70901Y51651D01*
X70822Y51720D01*
X69745Y52342D01*
X69645Y52376D01*
X69551Y52422D01*
X68349Y52744D01*
X68245Y52751D01*
X68142Y52771D01*
D02*
G37*
%LPD*%
D36*
X343110Y259910D02*
X343572Y259449D01*
X343110Y259910D02*
Y275197D01*
X343572Y259449D02*
X394664D01*
X341142Y277165D02*
X343110Y275197D01*
X395125Y259910D02*
Y261267D01*
X394664Y259449D02*
X395125Y259910D01*
X246654Y257480D02*
X395276D01*
X397244Y259449D01*
Y263386D01*
X231367Y265354D02*
X238780D01*
X230906Y264893D02*
X231367Y265354D01*
X230906Y263386D02*
Y264893D01*
X238780Y265354D02*
X246654Y257480D01*
X343110Y522902D02*
X343572Y522441D01*
X343110Y522902D02*
Y538189D01*
X343572Y522441D02*
X394664D01*
X341142Y540158D02*
X343110Y538189D01*
X395125Y522902D02*
Y524259D01*
X394664Y522441D02*
X395125Y522902D01*
X246654Y520472D02*
X395276D01*
X397244Y522441D01*
Y526378D01*
X231367Y528346D02*
X238780D01*
X230906Y527885D02*
X231367Y528346D01*
X230906Y526378D02*
Y527885D01*
X238780Y528346D02*
X246654Y520472D01*
D41*
X322914Y273425D02*
D03*
X278661D02*
D03*
X322914Y536417D02*
D03*
X278661D02*
D03*
D42*
X322914Y289173D02*
D03*
X278661D02*
D03*
X322914Y552165D02*
D03*
X278661D02*
D03*
D43*
X123622Y277165D02*
D03*
Y540158D02*
D03*
D44*
X77559Y211221D02*
D03*
Y132480D02*
D03*
Y77362D02*
D03*
Y266339D02*
D03*
X59449Y77362D02*
D03*
Y266339D02*
D03*
Y211221D02*
D03*
Y132480D02*
D03*
X542126Y211221D02*
D03*
Y132480D02*
D03*
Y77362D02*
D03*
Y266339D02*
D03*
X524016Y77362D02*
D03*
Y266339D02*
D03*
Y211221D02*
D03*
Y132480D02*
D03*
X77559Y474213D02*
D03*
Y395472D02*
D03*
Y340354D02*
D03*
Y529331D02*
D03*
X59449Y340354D02*
D03*
Y529331D02*
D03*
Y474213D02*
D03*
Y395472D02*
D03*
X542126Y474213D02*
D03*
Y395472D02*
D03*
Y340354D02*
D03*
Y529331D02*
D03*
X524016Y340354D02*
D03*
Y529331D02*
D03*
Y474213D02*
D03*
Y395472D02*
D03*
D45*
X478937Y99016D02*
D03*
X191043Y267815D02*
D03*
X474016Y261417D02*
D03*
X477953D02*
D03*
X148228Y271260D02*
D03*
X500591Y266339D02*
D03*
X482874Y237795D02*
D03*
X483858Y218110D02*
D03*
X511417Y125098D02*
D03*
Y111319D02*
D03*
X439567Y281102D02*
D03*
Y268307D02*
D03*
X427756Y261417D02*
D03*
X416929Y216732D02*
D03*
X511417Y97539D02*
D03*
Y83760D02*
D03*
Y69980D02*
D03*
X523228Y66535D02*
D03*
X502067Y47835D02*
D03*
X467126Y65551D02*
D03*
X431693Y84252D02*
D03*
X488287Y47835D02*
D03*
X467618D02*
D03*
X481398D02*
D03*
X425295D02*
D03*
X432185D02*
D03*
X415945Y281102D02*
D03*
X415896Y268258D02*
D03*
X393307Y263386D02*
D03*
X414961Y218701D02*
D03*
X207283Y275197D02*
D03*
X131496Y277165D02*
D03*
Y279134D02*
D03*
X115748D02*
D03*
Y277165D02*
D03*
X157087Y271260D02*
D03*
X115748Y275197D02*
D03*
X131496D02*
D03*
X98032Y218110D02*
D03*
X93110Y231890D02*
D03*
X91142Y179724D02*
D03*
X414961Y151772D02*
D03*
X410040Y104429D02*
D03*
Y97539D02*
D03*
Y63090D02*
D03*
Y69980D02*
D03*
X98032Y138386D02*
D03*
X95079Y174803D02*
D03*
X98032Y149213D02*
D03*
X95079Y166929D02*
D03*
Y170866D02*
D03*
X92126Y162008D02*
D03*
X98032Y48819D02*
D03*
X92126D02*
D03*
X95079D02*
D03*
X100984D02*
D03*
X98032Y45866D02*
D03*
X100984D02*
D03*
X92126D02*
D03*
X95079D02*
D03*
X91142Y112795D02*
D03*
X58662Y66535D02*
D03*
X91142Y97047D02*
D03*
X223032Y262402D02*
D03*
X468110Y261417D02*
D03*
X466142Y259449D02*
D03*
X405118Y123622D02*
D03*
X494685Y144291D02*
D03*
X407087Y240748D02*
D03*
X412008D02*
D03*
X482874Y253543D02*
D03*
X485827D02*
D03*
X497638Y97539D02*
D03*
Y90650D02*
D03*
X493701Y139370D02*
D03*
X490748D02*
D03*
X459252Y65551D02*
D03*
X407087Y245669D02*
D03*
Y259449D02*
D03*
X504528Y55709D02*
D03*
X428740Y82284D02*
D03*
X462205Y114764D02*
D03*
X507480Y53740D02*
D03*
X403150Y111811D02*
D03*
X429725Y98032D02*
D03*
X414961Y214764D02*
D03*
X407087Y165551D02*
D03*
X412992Y140354D02*
D03*
Y134449D02*
D03*
X414961Y155709D02*
D03*
Y159646D02*
D03*
X452362Y95079D02*
D03*
X450394Y89173D02*
D03*
X443504Y91142D02*
D03*
X407087Y177362D02*
D03*
Y173425D02*
D03*
Y169488D02*
D03*
X414961Y179331D02*
D03*
X459252Y127559D02*
D03*
X455315D02*
D03*
X426772Y101969D02*
D03*
X422835Y91142D02*
D03*
Y104921D02*
D03*
X459252Y69488D02*
D03*
X451870Y83268D02*
D03*
X497638Y78347D02*
D03*
X497638Y75394D02*
D03*
X444488Y107874D02*
D03*
X454331Y111811D02*
D03*
X414961Y210827D02*
D03*
X416929Y212795D02*
D03*
X414961Y206890D02*
D03*
X416929Y208858D02*
D03*
X414961Y202953D02*
D03*
X416929Y204921D02*
D03*
X414961Y199016D02*
D03*
X416929Y200984D02*
D03*
X414961Y195079D02*
D03*
X416929Y197047D02*
D03*
X414961Y191142D02*
D03*
X416929Y193110D02*
D03*
X414961Y187205D02*
D03*
X416929Y189173D02*
D03*
X414961Y183268D02*
D03*
X416929Y185236D02*
D03*
Y181299D02*
D03*
Y177362D02*
D03*
X470079Y83268D02*
D03*
X410040Y111319D02*
D03*
X443504Y97047D02*
D03*
X458268Y83268D02*
D03*
X468110Y85236D02*
D03*
X466142Y83268D02*
D03*
X476969Y126575D02*
D03*
Y129528D02*
D03*
X474016Y91142D02*
D03*
X461221Y100984D02*
D03*
X475984Y104921D02*
D03*
X474016Y108858D02*
D03*
X454331D02*
D03*
X464173Y89173D02*
D03*
X470079Y93110D02*
D03*
X474016Y114764D02*
D03*
X533071Y66535D02*
D03*
X139370Y271260D02*
D03*
X268307Y270276D02*
D03*
X215158Y280118D02*
D03*
X494685Y213189D02*
D03*
X333268Y270276D02*
D03*
X95079Y149213D02*
D03*
X456299Y262402D02*
D03*
X233858Y263386D02*
D03*
X410040Y90649D02*
D03*
X441536Y249606D02*
D03*
X444488D02*
D03*
X102953Y170866D02*
D03*
X303740Y265354D02*
D03*
X395125Y261267D02*
D03*
X341142Y277165D02*
D03*
X397244Y263386D02*
D03*
X391339Y261417D02*
D03*
X131496Y262402D02*
D03*
X230906Y263386D02*
D03*
X382480Y280118D02*
D03*
X101969Y264370D02*
D03*
X447441Y66535D02*
D03*
X98032Y200394D02*
D03*
X438583Y258465D02*
D03*
X449409Y64567D02*
D03*
X451378Y66535D02*
D03*
X288977Y265354D02*
D03*
X264370Y270276D02*
D03*
X472047Y258465D02*
D03*
X329331Y270276D02*
D03*
X100984Y140354D02*
D03*
X299803Y265354D02*
D03*
X165945Y285039D02*
D03*
X242717Y257480D02*
D03*
X98032Y226969D02*
D03*
X133465Y288976D02*
D03*
X312598Y265354D02*
D03*
X112795Y272244D02*
D03*
X103937Y209252D02*
D03*
X108858Y290945D02*
D03*
X91142Y104921D02*
D03*
X337205Y270276D02*
D03*
X98032Y209252D02*
D03*
X131496Y283071D02*
D03*
X100984Y226969D02*
D03*
X497638Y244685D02*
D03*
X272244Y270276D02*
D03*
X113780Y288976D02*
D03*
X470079Y256496D02*
D03*
X478937Y362008D02*
D03*
X191043Y530807D02*
D03*
X474016Y524409D02*
D03*
X477953D02*
D03*
X148228Y534252D02*
D03*
X500591Y529331D02*
D03*
X482874Y500787D02*
D03*
X483858Y481102D02*
D03*
X511417Y388090D02*
D03*
Y374311D02*
D03*
X439567Y544095D02*
D03*
Y531299D02*
D03*
X427756Y524409D02*
D03*
X416929Y479724D02*
D03*
X511417Y360531D02*
D03*
Y346752D02*
D03*
Y332973D02*
D03*
X523228Y329528D02*
D03*
X502067Y310827D02*
D03*
X467126Y328543D02*
D03*
X431693Y347244D02*
D03*
X488287Y310827D02*
D03*
X467618D02*
D03*
X481398D02*
D03*
X425295D02*
D03*
X432185D02*
D03*
X415945Y544095D02*
D03*
X415896Y531250D02*
D03*
X393307Y526378D02*
D03*
X414961Y481693D02*
D03*
X207283Y538189D02*
D03*
X131496Y540158D02*
D03*
Y542126D02*
D03*
X115748D02*
D03*
Y540158D02*
D03*
X157087Y534252D02*
D03*
X115748Y538189D02*
D03*
X131496D02*
D03*
X98032Y481102D02*
D03*
X93110Y494882D02*
D03*
X91142Y442717D02*
D03*
X414961Y414764D02*
D03*
X410040Y367421D02*
D03*
Y360531D02*
D03*
Y326083D02*
D03*
Y332973D02*
D03*
X98032Y401378D02*
D03*
X95079Y437795D02*
D03*
X98032Y412205D02*
D03*
X95079Y429921D02*
D03*
Y433858D02*
D03*
X92126Y425000D02*
D03*
X98032Y311811D02*
D03*
X92126D02*
D03*
X95079D02*
D03*
X100984D02*
D03*
X98032Y308858D02*
D03*
X100984D02*
D03*
X92126D02*
D03*
X95079D02*
D03*
X91142Y375787D02*
D03*
X58662Y329528D02*
D03*
X91142Y360039D02*
D03*
X223032Y525394D02*
D03*
X468110Y524409D02*
D03*
X466142Y522441D02*
D03*
X405118Y386614D02*
D03*
X494685Y407283D02*
D03*
X407087Y503740D02*
D03*
X412008D02*
D03*
X482874Y516535D02*
D03*
X485827D02*
D03*
X497638Y360531D02*
D03*
Y353642D02*
D03*
X493701Y402362D02*
D03*
X490748D02*
D03*
X459252Y328543D02*
D03*
X407087Y508661D02*
D03*
Y522441D02*
D03*
X504528Y318701D02*
D03*
X428740Y345276D02*
D03*
X462205Y377756D02*
D03*
X507480Y316732D02*
D03*
X403150Y374803D02*
D03*
X429725Y361024D02*
D03*
X414961Y477756D02*
D03*
X407087Y428543D02*
D03*
X412992Y403346D02*
D03*
Y397441D02*
D03*
X414961Y418701D02*
D03*
Y422638D02*
D03*
X452362Y358071D02*
D03*
X450394Y352165D02*
D03*
X443504Y354134D02*
D03*
X407087Y440354D02*
D03*
Y436417D02*
D03*
Y432480D02*
D03*
X414961Y442323D02*
D03*
X459252Y390551D02*
D03*
X455315D02*
D03*
X426772Y364961D02*
D03*
X422835Y354134D02*
D03*
Y367913D02*
D03*
X459252Y332480D02*
D03*
X451870Y346260D02*
D03*
X497638Y341339D02*
D03*
X497638Y338386D02*
D03*
X444488Y370866D02*
D03*
X454331Y374803D02*
D03*
X414961Y473819D02*
D03*
X416929Y475787D02*
D03*
X414961Y469882D02*
D03*
X416929Y471850D02*
D03*
X414961Y465945D02*
D03*
X416929Y467913D02*
D03*
X414961Y462008D02*
D03*
X416929Y463976D02*
D03*
X414961Y458071D02*
D03*
X416929Y460039D02*
D03*
X414961Y454134D02*
D03*
X416929Y456102D02*
D03*
X414961Y450197D02*
D03*
X416929Y452165D02*
D03*
X414961Y446260D02*
D03*
X416929Y448228D02*
D03*
Y444291D02*
D03*
Y440354D02*
D03*
X470079Y346260D02*
D03*
X410040Y374311D02*
D03*
X443504Y360039D02*
D03*
X458268Y346260D02*
D03*
X468110Y348228D02*
D03*
X466142Y346260D02*
D03*
X476969Y389567D02*
D03*
Y392520D02*
D03*
X474016Y354134D02*
D03*
X461221Y363976D02*
D03*
X475984Y367913D02*
D03*
X474016Y371850D02*
D03*
X454331D02*
D03*
X464173Y352165D02*
D03*
X470079Y356102D02*
D03*
X474016Y377756D02*
D03*
X533071Y329528D02*
D03*
X139370Y534252D02*
D03*
X268307Y533268D02*
D03*
X215158Y543110D02*
D03*
X494685Y476181D02*
D03*
X333268Y533268D02*
D03*
X95079Y412205D02*
D03*
X456299Y525394D02*
D03*
X233858Y526378D02*
D03*
X410040Y353642D02*
D03*
X441536Y512598D02*
D03*
X444488D02*
D03*
X102953Y433858D02*
D03*
X303740Y528346D02*
D03*
X395125Y524259D02*
D03*
X341142Y540158D02*
D03*
X397244Y526378D02*
D03*
X391339Y524409D02*
D03*
X131496Y525394D02*
D03*
X230906Y526378D02*
D03*
X382480Y543110D02*
D03*
X101969Y527362D02*
D03*
X447441Y329528D02*
D03*
X98032Y463386D02*
D03*
X438583Y521457D02*
D03*
X449409Y327559D02*
D03*
X451378Y329528D02*
D03*
X288977Y528346D02*
D03*
X264370Y533268D02*
D03*
X472047Y521457D02*
D03*
X329331Y533268D02*
D03*
X100984Y403346D02*
D03*
X299803Y528346D02*
D03*
X165945Y548032D02*
D03*
X242717Y520472D02*
D03*
X98032Y489961D02*
D03*
X133465Y551968D02*
D03*
X312598Y528346D02*
D03*
X112795Y535236D02*
D03*
X103937Y472244D02*
D03*
X108858Y553937D02*
D03*
X91142Y367913D02*
D03*
X337205Y533268D02*
D03*
X98032Y472244D02*
D03*
X131496Y546063D02*
D03*
X100984Y489961D02*
D03*
X497638Y507677D02*
D03*
X272244Y533268D02*
D03*
X113780Y551968D02*
D03*
X470079Y519488D02*
D03*
D46*
X288977Y265354D02*
X292914Y269291D01*
X308662D01*
X312598Y265354D01*
X271260Y260433D02*
X330315D01*
X264370Y267323D02*
Y270276D01*
Y267323D02*
X271260Y260433D01*
X330315D02*
X337205Y267323D01*
Y270276D01*
X277165Y265354D02*
X288977D01*
X272244Y270276D02*
X277165Y265354D01*
X324410D02*
X329331Y270276D01*
X312598Y265354D02*
X324410D01*
X288977Y528346D02*
X292914Y532283D01*
X308662D01*
X312598Y528346D01*
X271260Y523425D02*
X330315D01*
X264370Y530315D02*
Y533268D01*
Y530315D02*
X271260Y523425D01*
X330315D02*
X337205Y530315D01*
Y533268D01*
X277165Y528346D02*
X288977D01*
X272244Y533268D02*
X277165Y528346D01*
X324410D02*
X329331Y533268D01*
X312598Y528346D02*
X324410D01*
M02*
